<?xml version="1.0" encoding="UTF-8" standalone="no"?>
<!-- Created with Inkscape (http://www.inkscape.org/) -->

<svg
   width="96"
   height="96"
   viewBox="0 0 25.4 25.4"
   version="1.1"
   id="svg1"
   xml:space="preserve"
   xmlns="http://www.w3.org/2000/svg"
   xmlns:svg="http://www.w3.org/2000/svg"><defs
     id="defs1"><clipPath
       clipPathUnits="userSpaceOnUse"
       id="clipPath1"><rect
         style="fill:#2b170d;stroke-width:1.05833;stroke-linecap:round"
         id="rect2"
         width="31.082253"
         height="50.395504"
         x="-3.9737504"
         y="-3.3557143" /></clipPath></defs><g
     id="g1"
     transform="matrix(0.52733831,0,0,0.52733831,5.5523242,1.9419117)"
     clip-path="url(#clipPath1)"><path
       style="fill:#ffffff;stroke-width:2.00693;stroke-linecap:round"
       d="M 5.0244676,1.2996768 4.5439553,5.5231278 7.6293504,4.1827511 5.6314307,1.0214854 Z"
       id="path2" /><path
       style="fill:#ffffff;stroke-width:2.00693;stroke-linecap:round"
       d="m 11.119388,1.4767078 v 0 L 9.5008196,4.739134 11.52403,5.169066 11.979252,3.8033994 Z"
       id="path3" /><path
       id="path27"
       style="fill:#f47417;fill-opacity:1;stroke:none;stroke-width:0.193646;stroke-dasharray:none;stroke-opacity:1"
       d="m 5.0997362,0.07486504 c 0.180726,-0.099571 0.444737,0.097812 1.055715,0.7638464 1.07911,1.17634936 1.975797,2.68314756 2.655237,4.46091816 A 15.025201,12.14052 59.452423 0 0 7.6516062,5.1687275 C 7.5439392,4.8458939 7.2760312,4.2175347 7.0547682,3.7743274 6.6842982,3.0322447 6.0725272,2.1731819 5.6649062,1.8229613 5.5095312,1.6894695 5.5057162,1.6878731 5.4753572,1.7378139 5.3881072,1.881335 5.2268262,2.653354 5.1601512,3.2456367 c -0.0643,0.5711507 -0.09687,1.4843682 -0.06835,1.9180206 l 0.009,0.1335714 a 15.025201,12.14052 59.452423 0 0 -1.217851,0.2834845 c 0.05677,-0.035523 0.06806,-0.1352151 0.06312,-0.4408262 -0.0269,-1.6623187 0.117683,-2.8051351 0.489156,-3.8726422 0.158744,-0.45619966 0.44176,-0.99068966 0.61053,-1.15226456 0.01719,-0.016473 0.03531,-0.02981 0.054,-0.040114 z" /><path
       id="path4"
       style="display:inline;fill:#f47417;fill-opacity:1;stroke:none;stroke-width:0.152291;stroke-dasharray:none;stroke-opacity:1"
       d="m 11.323283,0.64833009 c -0.09138,0.015484 -0.274461,0.1353084 -0.448192,0.2996954 C 10.249551,1.5399314 9.62587,2.5756151 9.157633,3.7996528 9.048568,4.0847837 8.940862,4.3643391 8.918058,4.4209472 c -0.0087,0.021562 -0.01549,0.038601 -0.0256,0.051891 a 12.721559,8.8684325 86.198416 0 1 1.194544,0.2494502 c 0.03683,-0.2273981 0.199393,-0.7945004 0.367312,-1.2604843 0.186177,-0.5166505 0.614738,-1.3356462 0.705068,-1.3477194 0.183483,-0.024524 0.490773,1.9891449 0.452781,2.9671601 -0.0046,0.1165392 -0.0122,0.2211069 -0.02113,0.299374 a 12.721559,8.8684325 86.198416 0 1 0.583862,0.3690187 l 0.0087,-0.2253288 c 0.02843,-0.7388693 -0.01,-1.5532759 -0.108732,-2.2979188 C 11.928919,2.12565 11.571215,0.81912639 11.370881,0.65504219 c -0.01012,-0.00826 -0.02651,-0.010276 -0.04761,-0.00671 z" /><path
       id="text1"
       style="font-size:50.8px;font-family:Mileast;-inkscape-font-specification:Mileast;text-align:start;writing-mode:lr-tb;direction:ltr;text-anchor:start;display:inline;fill:#f47417;fill-opacity:1;stroke-width:2.30187"
       d="m 8.557617,3.9417021 c -4.886523,0 -7.441406,3.9687501 -7.441406,8.3839839 0,2.306836 0.694531,4.712891 2.108398,6.746875 2.728516,3.894336 14.659571,10.715625 17.51211,15.50293 0.694531,1.141015 0.967383,2.00918 0.967383,2.678906 0,1.016992 -0.694532,1.488281 -1.736329,1.488281 -0.843359,0 -1.909961,-0.297656 -3.050976,-0.868164 -4.067969,-2.058789 -6.35,-6.920508 -11.261328,-6.920508 C 2.00918,30.954006 0,34.203421 0,37.651272 c 0,1.066602 0.198438,2.133203 0.570508,3.150195 h 0.37207 C 1.537891,38.59385 3.050977,37.84971 5.010547,37.84971 c 3.91914,0 9.599414,2.951757 13.369726,2.951757 4.81211,0 7.714258,-4.092773 7.714258,-8.904882 0,-7.788672 -14.535547,-14.262696 -19.79414,-20.563086 C 5.233789,10.043655 4.7625,8.8530303 4.7625,7.9352568 c 0,-1.2154297 0.818555,-1.8851563 2.058789,-1.8851563 0.744141,0 1.711524,0.2480469 2.80293,0.8185547 3.943945,1.9843751 6.201172,6.5980468 10.095508,6.5980468 3.571875,0 5.457031,-2.43086 5.457031,-5.705078 0,-0.4946777 -0.04281,-1.006832 -0.130225,-1.5322062 H 22.799125 V 6.1208972 c -0.663508,0.5726054 -1.505357,0.7973674 -2.459281,0.7973674 -3.497461,0 -8.408789,-2.9765625 -11.782227,-2.9765625 z M 28.575,4.3385771 v 0.4216797 c 1.463477,0.4464844 1.5875,3.8943355 1.5875,5.9283202 v 19.471679 c 0,6.796485 5.531445,10.641211 12.27832,10.641211 h 1.190625 c 6.746875,0 12.278321,-3.844726 12.278321,-10.641211 V 10.936624 c 0,-2.3564453 0.124023,-5.7298828 1.562695,-6.1763672 V 4.3385771 H 46.111914 v 0.4216797 c 1.463477,0.4464844 1.5875,3.8943355 1.5875,5.9283202 v 24.010937 c 0,2.554883 -2.108398,4.638477 -4.663281,4.638477 -2.554883,0 -4.663281,-2.083594 -4.663281,-4.638477 V 11.085452 c 0,-2.3316407 0.09922,-5.8539062 1.5875,-6.3251952 V 4.3385771 Z m 31.37793,0 v 0.4216797 l 1.661914,2.9765625 V 33.583303 c 0,2.158008 -0.04961,5.903516 -1.5875,6.374805 v 0.42168 h 10.740429 v -0.372071 c -0.942578,-0.272851 -1.413867,-2.033984 -1.860351,-3.96875 L 62.656641,9.6467803 79.647852,40.379788 H 86.56836 V 11.035842 c 0,-2.3316397 0.0992,-5.8042962 1.5875,-6.2755852 V 4.3385771 H 77.440234 v 0.3720703 c 0.868164,0.2480469 1.339454,1.8355469 1.761133,3.6214844 2.058789,8.6816402 4.117578,17.3632812 6.151563,26.0449212 L 68.609766,4.3385771 Z m 31.67559,0 v 0.4216797 c 1.46347,0.4464844 1.5875,3.8943355 1.5875,5.9283202 v 23.068359 c 0,2.356445 -0.12403,5.754688 -1.5875,6.201172 v 0.42168 h 23.71328 l 1.19062,-8.805664 -0.37207,-0.148828 c -3.15019,3.671093 -6.59805,7.292578 -14.73398,7.639843 V 18.254006 c 3.62148,0.07442 7.78867,0.545704 9.69863,3.373438 h 0.39687 v -4.7625 h -10.0955 V 5.6284208 c 8.06152,0.2232422 10.98847,2.4308595 14.13867,6.1019532 l 0.37207,-0.173633 -1.11621,-7.2181639 z" /><path
       style="fill:#ffffff;fill-opacity:1;stroke:none;stroke-width:0.9667;stroke-opacity:1"
       d="M 6.71794,37.049204 C 5.783837,36.72062 4.7624,36.639161 3.826388,36.876255 2.76998,37.143847 1.049362,38.601531 1.049362,38.601531 c 0,0 -0.0092,-1.796854 0.199684,-2.685632 0.208906,-0.888776 0.677551,-1.963675 1.381104,-2.706103 0.802926,-0.847291 2.409581,-1.16626 3.326587,-1.147187 2.373723,0.04937 4.788787,1.613568 3.5399269,1.411532 L 8.04649,33.236941 c -1.0032435,-0.164097 -0.724292,0.558437 0.194206,1.075694 0.407619,0.229554 0.818572,0.499779 0.913228,0.600497 0.158464,0.168616 0.111388,0.198658 -0.59409,0.379142 -0.950669,0.243214 -1.243004,0.07394 -1.422615,0.549507 -0.09609,0.254409 0.02575,0.471939 0.376705,0.723672 0.92422,0.662936 1.078971,0.805834 0.843881,0.854832 -0.307067,0.064 -1.110502,-0.184877 -1.639857,-0.371086 z"
       id="path1" /><path
       style="fill:#4c290e;fill-opacity:1;stroke-width:1.69541"
       d="m 22.50727,6.3582586 c 0,0 0.914108,0.4192398 1.458354,0.4896927 0.400719,0.051873 1.156816,-0.049006 1.156816,-0.049006 -0.02705,-0.586647 0.05183,-1.8433128 -0.898029,-1.8955675 -0.620102,0.033321 -0.775467,0.4309746 -1.146529,0.843656 -0.284734,0.3166714 -0.570612,0.6112246 -0.570612,0.6112248 z"
       id="path5" /></g></svg>
