<?xml version="1.0" encoding="UTF-8" standalone="no"?>
<!-- Created with Inkscape (http://www.inkscape.org/) -->

<svg
   width="132.32855mm"
   height="197.92131mm"
   viewBox="0 0 132.32855 197.92131"
   version="1.1"
   id="svg1"
   xml:space="preserve"
   xmlns="http://www.w3.org/2000/svg"
   xmlns:svg="http://www.w3.org/2000/svg"><defs
     id="defs1" /><g
     id="layer1"
     transform="translate(-81.148501,154.01028)"><g
       id="g25"
       style="display:inline"
       transform="matrix(0.18756069,-0.09588612,0.09588612,0.18756069,-16.631156,-75.593982)"><path
         style="display:inline;fill:#e66814;fill-opacity:1;stroke:#632207;stroke-width:4;stroke-linecap:round;stroke-linejoin:round;stroke-opacity:1"
         d="m 536.10434,324.35434 c 0,0 -23.05905,-42.76337 -30.28204,-65.27462 -7.12757,-22.21385 -13.36462,-45.27784 -17.04912,-68.26236 -6.22903,-39.97484 -10.66732,-81.69931 -0.27728,-121.546346 0,0 38.56736,31.373526 55.80959,49.198436 28.88953,29.86583 79.28032,96.1966 79.28032,96.1966 0,0 2.78815,11.03077 -0.71996,11.803 -7.26856,1.6 -0.3343,12.64775 -0.3343,12.64775 l -9.00594,10.34554 -24.65558,19.60334 -7.71677,24.37104 -25.56764,15.34803 -14.86832,22.03694 z"
         id="path12" /><path
         id="path12-5"
         style="display:inline;fill:#e66814;fill-opacity:1;stroke:#632207;stroke-width:4;stroke-linecap:round;stroke-linejoin:round;stroke-opacity:1"
         d="m 575.70508,153.43359 -0.25977,0.10352 -28.86719,-6.82031 -9.51757,16.65429 -50.45117,11.67969 c 0.69452,5.02138 1.4417,10.02386 2.21679,14.99805 3.6845,22.98452 9.92321,46.04787 17.05078,68.26172 7.22299,22.51125 30.28125,65.27539 30.28125,65.27539 l 4.61328,6.46679 14.86719,-22.03711 25.56836,-15.34765 7.7168,-24.37109 24.65625,-19.60352 9.00586,-10.3457 c 0,0 -6.93458,-11.04844 0.33398,-12.64844 3.50811,-0.77223 0.7207,-11.80274 0.7207,-11.80274 0,0 -23.71608,-31.21744 -47.93554,-60.46289 z" /><path
         id="path25"
         style="display:inline;fill:#632207;fill-opacity:1;stroke:#632207;stroke-width:4;stroke-linecap:round;stroke-linejoin:round;stroke-opacity:1"
         d="m 488.54883,68.501953 c -9.09718,34.888747 -6.82644,71.216107 -1.93945,106.548827 l 50.45117,-11.67969 9.51757,-16.65429 28.86719,6.82031 0.25977,-0.10352 C 564.62043,140.04868 553.43,127.07638 544.35938,117.69922 527.11714,99.874312 488.54883,68.501953 488.54883,68.501953 Z" /><path
         style="display:inline;fill:#fce6c6;fill-opacity:1;stroke:#632207;stroke-width:4;stroke-linecap:round;stroke-linejoin:round;stroke-dasharray:none;stroke-opacity:1"
         d="m 547.88482,318.11879 c 0,0 -29.68107,-59.98465 -38.12134,-92.1303 -8.04454,-30.63851 -12.13986,-60.18435 -11.49044,-94.3338 0.17353,-9.12525 1.26229,-26.34557 1.26229,-26.34557 0,0 27.54962,39.05014 39.01858,59.95539 10.4473,19.04299 26.42254,54.88914 26.42254,54.88914 l 19.6679,50.12144 -35.54506,44.5362 z"
         id="path24" /></g><path
       style="opacity:1;fill:#e66814;fill-opacity:1;stroke:none;stroke-width:1.05833;stroke-linecap:round;stroke-linejoin:round;stroke-dasharray:none;stroke-opacity:1"
       d="m 108.93862,-29.935375 14.07713,-9.936802 -17.57342,-4.048326 6.44053,-3.864314 -9.10874,-2.668214 -3.036245,-1.840148 6.716545,-2.024166 4.32434,-2.944238 3.22026,-4.692378 1.56413,-6.624537 -0.55204,-5.336428 0.92007,-6.624537 2.94424,-6.348513 2.57621,-4.048326 -5.70446,0.644051 4.14033,-4.508365 8.55669,-3.680296 -11.68494,-1.196096 7.54461,-3.588292 3.95632,-0.73606 h 6.71654 l -4.69238,-3.6803 -2.20818,-3.68029 7.63662,3.12825 6.44052,1.56412 6.71654,0.27603 1.56413,-21.80576 12.28299,-18.5395 10.30483,10.99489 6.21051,14.26115 2.71422,11.0869 -0.55205,15.733266 12.28299,-0.644051 6.62454,1.610129 -10.58086,6.164498 6.90056,-0.552045 9.43076,0.598048 -8.28066,4.32435 -10.25883,9.062733 -7.77463,11.316915 -1.56413,9.522769 1.15009,9.982806 2.11617,2.852229 3.58829,-5.152416 2.66822,-1.150091 4.50837,0.87407 5.75046,3.266262 c 0,0 3.59628,2.383152 5.04467,3.49027 1.44839,1.107118 3.69129,3.073495 3.69129,3.073495 l 0.032,4.201099 -8.52974,7.377503 1.99259,0.461159 0.60594,-0.541676 0.0343,-0.224834 -1.95177,1.510232 c -6.14308,-0.329509 4.15341,2.047763 1.95177,2.703615 l 2.23705,2.238959 6.93771,3.210218 -1.82166,2.569835 -1.88671,0.422883 0.39035,5.1071386 -0.0325,14.1503504 -0.26023,9.888979 4.65172,3.773427 1.23612,3.578249 0.74818,2.342128 -1.39877,3.155365 0.45541,2.374657 0.16265,2.862599 -1.13853,1.463831 -1.88671,0.553 v 3.220426 l -0.68312,2.08189 -1.69154,0.71565 -4.16378,0.260237 -6.40832,-1.756596 -3.87102,-3.675837 0.22771,-2.765013 1.00842,-2.407184 -3.28549,-3.64331 -1.17106,-4.716782 1.65901,-2.895129 -0.97589,-3.252955 1.106,-4.066193 -13.46723,-15.09370629 -10.70221,-13.79252571 -1.65901,-6.701086 2.30959,-3.903543 4.00114,-2.699951 -2.29668,-4.898083 -8.51069,-6.762546 -9.06273,8.924718 -5.10641,2.438199 -4.27834,4.462359 -7.95865,5.014407 -6.62453,1.794145 -9.8448,-0.782063 -8.87872,-2.990242 z"
       id="path36" /><path
       style="opacity:1;fill:#fce6c6;fill-opacity:1;stroke:none;stroke-width:1.05833;stroke-linecap:round;stroke-linejoin:round;stroke-dasharray:none;stroke-opacity:1"
       d="m 125.13192,-33.615671 c 4.68168,-1.56072 8.87173,-4.581734 12.51302,-7.912639 3.87432,-3.544067 6.41068,-8.046826 8.91818,-12.513011 2.04655,-3.645165 3.15695,-8.83358 4.92949,-11.53171 3.74547,-5.701283 8.39392,-6.964081 14.3066,-10.366061 3.38639,-1.948429 10.85688,-4.416356 10.85688,-4.416356 l -3.86431,5.520446 c 0,0 11.18604,-3.407161 9.38475,-2.392193 -4.40214,2.480458 -6.89192,7.838741 -8.28067,12.697026 -1.6019,5.603971 -1.09638,11.839951 0.36803,17.481412 1.77867,6.852104 6.8251,12.696534 11.62834,18.118924 5.90941,6.671134 20.84567,16.802753 20.84567,16.802753 l -0.0969,19.3107866 -4.0388,0.14393 -5.24442,1.3341086 -0.59805,0.4600363 -7.68262,-9.98280579 -5.93448,-10.62685971 -2.5302,-7.774628 -2.62221,5.56645 -1.61013,-3.404275 0.27602,-6.992564 -4.09433,5.93448 -0.87407,-9.752791 -2.71422,-5.382434 -8.55669,-6.624534 -7.13058,7.928424 -6.44052,3.526502 -5.10641,5.244422 -7.17658,4.738384 -8.18866,1.380111 -4.9224,-0.230018 -8.97073,-1.748142 c 0,0 6.36183,-12.440569 12.45584,-14.472115 z"
       id="path35" /><path
       style="display:inline;fill:#632207;fill-opacity:1;fill-rule:nonzero;stroke:none;stroke-width:0.842597;stroke-linecap:butt;stroke-linejoin:miter;stroke-dasharray:none;stroke-opacity:1"
       d="m 110.5281,-32.338178 c 0.3071,-0.06111 0.99303,-0.08868 1.93801,-0.426829 1.39466,-0.499064 3.95625,-1.779456 6.81745,-3.783221 3.6212,-2.527487 7.00047,-5.645028 9.95387,-9.263683 0.83955,-1.045044 1.57735,-2.044797 2.24147,-3.003402 0.65788,-0.949609 1.33839,-2.010566 1.99352,-3.174487 1.93908,-3.430682 3.26582,-7.100137 3.548,-10.840464 0.14219,-2.09282 -0.0935,-3.780489 -0.29757,-4.618372 -0.13011,-0.534096 -0.30639,-0.87044 -0.36679,-1.02584 0.004,0.180736 -0.0312,0.527914 -0.006,1.07961 0.04,0.873245 0.181,2.464102 -0.0201,4.507376 -0.32691,3.607918 -1.63227,7.15657 -3.5532,10.501431 -0.65272,1.131771 -1.32994,2.164351 -1.98734,3.086257 -0.66168,0.927904 -1.41963,1.892143 -2.27604,2.88554 -2.96904,3.499337 -6.33901,6.460962 -9.89708,8.902033 -2.78421,1.903538 -5.30894,3.233968 -6.51686,3.988545 -0.84889,0.530287 -1.30447,0.992489 -1.57144,1.185506 z"
       id="path2" /><path
       style="display:inline;fill:none;fill-opacity:1;stroke:#632207;stroke-width:0.842597;stroke-linecap:butt;stroke-linejoin:miter;stroke-dasharray:none;stroke-opacity:1"
       d="m 109.69291,-20.459009 c 3.76363,1.634073 7.77187,2.703419 11.84931,3.161243 3.04405,0.341792 6.15126,0.341071 9.14207,-0.320828 4.35363,-0.963506 8.32005,-3.305431 11.65909,-6.260642 5.50465,-4.871876 9.36543,-11.342402 12.39054,-18.042027 2.05603,-4.553423 3.7793,-9.309449 4.41503,-14.264926 0.24145,-1.882087 0.32453,-3.78447 0.24806,-5.680441"
       id="path3" /><path
       style="display:inline;fill:#632207;fill-opacity:1;fill-rule:nonzero;stroke:none;stroke-width:0.842597;stroke-linecap:square;stroke-linejoin:miter;stroke-dasharray:none;stroke-opacity:1;paint-order:normal"
       d="m 155.75158,-59.063409 c 0.005,0.0027 0.0135,0.01907 0.0275,0.01649 0.0833,-0.01536 0.55899,-0.655698 1.26017,-1.223889 0.77881,-0.631112 1.53837,-0.983542 2.16568,-1.196057 0.0127,-0.0044 0.0251,-0.0086 0.0374,-0.01269 0.62742,-0.211174 1.4108,-0.335614 1.96214,-0.410688 0.0304,-0.0041 0.13241,-0.01831 0.16281,-0.02245 0.76415,-0.105426 1.92198,-0.114211 2.31608,-0.04839 -0.18772,-0.101171 -0.51194,-0.281182 -0.95764,-0.44567 -0.44865,-0.165571 -0.92516,-0.278873 -1.37657,-0.314883 -0.0637,-0.0051 -0.12547,-0.0085 -0.18493,-0.01024 -0.72732,-0.02156 -1.4468,0.131233 -2.22516,0.466194 -0.0136,0.0058 -0.0273,0.01182 -0.0413,0.01795 -0.67796,0.300286 -1.49472,0.816075 -2.20818,1.611503 -0.65827,0.733904 -0.99229,1.470609 -0.9655,1.55636 0.004,0.01367 0.0229,0.01374 0.0275,0.01649 z"
       id="path4" /><path
       style="display:inline;fill:#632207;fill-opacity:1;fill-rule:nonzero;stroke:none;stroke-width:0.842597;stroke-linecap:square;stroke-linejoin:miter;stroke-dasharray:none;stroke-opacity:1;paint-order:normal"
       d="m 146.54775,-28.280097 c 0.0188,0.06138 0.0143,0.293445 0.1156,0.376795 0.33015,0.271728 1.91048,-0.26891 3.47353,-1.268999 1.5302,-0.951781 2.78752,-2.106079 3.79581,-3.025699 1.45814,-1.322881 2.85356,-2.796287 4.25319,-4.43449 1.83674,-2.136108 3.24262,-4.032828 3.89431,-5.050886 0.3776,-0.589863 0.56337,-1.024046 0.66917,-1.221061 -0.16035,0.16741 -0.50408,0.465555 -0.96947,0.995121 -0.76313,0.86838 -2.29354,2.765432 -4.13165,4.803389 -1.44381,1.590559 -2.81765,3.004754 -4.27589,4.278654 -1.00725,0.875127 -2.3495,1.838979 -3.83443,2.601207 -1.51429,0.751177 -3.00534,1.198869 -3.10576,1.569177 -0.0343,0.126419 0.0963,0.313996 0.1156,0.376795 z"
       id="path6" /><path
       style="display:inline;fill:#ffffff;fill-opacity:1;stroke:none;stroke-width:0.842597;stroke-linecap:round;stroke-linejoin:round;stroke-dasharray:none;stroke-opacity:1"
       d="m 140.59607,-70.427739 9.1164,-6.146446 9.42035,-5.24048 1.49447,4.065144 0.13872,3.696889 -1.41606,4.704002 -1.89963,2.616242 -3.14785,2.458345 -3.838,0.900736 -3.00411,-0.374649 -3.59146,-2.25016 -2.34891,-2.726179 z"
       id="path48" /><path
       style="display:inline;fill:#ffffff;fill-opacity:1;stroke:none;stroke-width:0.842597;stroke-linecap:round;stroke-linejoin:round;stroke-dasharray:none;stroke-opacity:1"
       d="m 119.47746,-61.046463 14.90193,-6.229868 1.25179,2.962405 0.39774,4.374653 -1.37869,4.569851 -3.77417,2.379749 -3.69242,-0.17618 -4.689,-3.006383 z"
       id="path47" /><path
       style="display:inline;fill:none;fill-opacity:1;stroke:#632207;stroke-width:0.869509;stroke-linecap:square;stroke-linejoin:miter;stroke-dasharray:none;stroke-opacity:1;paint-order:normal"
       id="path9"
       d="m 135.73863,-58.481079 c -0.6325,2.311424 -2.00039,4.139024 -3.99386,4.990339 -2.49782,1.066705 -5.4237,0.363979 -7.92842,-1.594284 -3.19596,-2.498697 -5.98563,-9.031057 -5.58055,-13.067587 0.31746,-3.163486 1.83311,-5.76298 4.33094,-6.829684 1.99346,-0.851316 4.25957,-0.575622 6.36664,0.565853 4.4495,2.410451 8.1409,11.054347 6.80525,15.935363 z" /><path
       id="path17"
       style="display:inline;fill:#000000;fill-opacity:1;stroke:none;stroke-width:0.971226;stroke-linecap:square;stroke-linejoin:miter;stroke-dasharray:none;stroke-opacity:1;paint-order:normal"
       d="m 131.92737,-66.40643 -4.79868,1.96481 a 4.4611376,3.1410637 62.922648 0 0 0.65748,2.742189 4.4611376,3.1410637 62.922648 0 0 4.82758,2.542247 4.4611376,3.1410637 62.922648 0 0 0.76591,-5.401789 4.4611376,3.1410637 62.922648 0 0 -1.45229,-1.847457 z" /><path
       id="path17-2"
       style="display:inline;fill:#000000;fill-opacity:1;stroke:none;stroke-width:1.02108;stroke-linecap:square;stroke-linejoin:miter;stroke-dasharray:none;stroke-opacity:1;paint-order:normal"
       d="m 154.46534,-79.255519 c -0.89591,0.517957 -1.78839,1.041679 -2.67772,1.570849 -0.58844,0.350134 -1.17532,0.702735 -1.76083,1.057748 a 4.4611376,3.4718211 62.922648 0 0 0.58671,2.873097 4.4611376,3.4718211 62.922648 0 0 5.12211,2.391676 4.4611376,3.4718211 62.922648 0 0 1.0608,-5.552547 4.4611376,3.4718211 62.922648 0 0 -2.33107,-2.340823 z" /><path
       style="display:inline;fill:#000000;fill-opacity:1;stroke:#632207;stroke-width:0.842597;stroke-linecap:round;stroke-linejoin:miter;stroke-dasharray:none;stroke-opacity:1;paint-order:normal"
       d="m 117.61966,-60.563709 17.72838,-7.258927"
       id="path18-7" /><path
       style="display:inline;fill:#000000;fill-opacity:1;stroke:#632207;stroke-width:0.842597;stroke-linecap:round;stroke-linejoin:miter;stroke-dasharray:none;stroke-opacity:1;paint-order:normal"
       d="m 139.24375,-69.725598 c 4.10829,-2.792918 8.30082,-5.461915 12.56998,-8.00214 3.25719,-1.93809 6.55898,-3.801233 9.90187,-5.587451"
       id="path19" /><path
       style="display:inline;fill:none;fill-opacity:1;stroke:#632207;stroke-width:0.842597;stroke-linecap:round;stroke-linejoin:miter;stroke-dasharray:none;stroke-opacity:1;paint-order:normal"
       d="m 142.24763,-86.608612 c 1.05806,-1.123792 2.46422,-1.902341 3.96397,-2.267259 1.49975,-0.364917 3.08833,-0.322886 4.58457,0.05616 2.99249,0.758092 5.5369,2.830759 7.3286,5.34462 0.8256,1.158364 1.51255,2.420747 1.97782,3.764972 0.95095,2.747387 0.93648,5.81652 -0.0291,8.558787 -0.92842,2.636651 -2.75525,4.980772 -5.18387,6.364868 -2.30798,1.315345 -5.17314,1.716624 -7.6845,0.850603 -2.27179,-0.783411 -4.12072,-2.529452 -5.40833,-4.558454 -0.9793,-1.543174 -1.66994,-3.266222 -2.05274,-5.053365 -0.32179,-1.502337 -0.42732,-3.046631 -0.37909,-4.582289 0.0623,-1.983559 0.38661,-3.978975 1.1738,-5.800709 0.42216,-0.976967 0.97934,-1.903059 1.7089,-2.677933 z"
       id="path20" /><path
       style="display:inline;fill:none;fill-opacity:1;stroke:#632207;stroke-width:0.842597;stroke-linecap:round;stroke-linejoin:miter;stroke-dasharray:none;stroke-opacity:1;paint-order:normal"
       d="m 122.74472,-39.901876 c 0,0 -9.4524,-2.431923 -17.23668,-4.209146 -0.45612,-0.104136 7.21818,-3.413363 6.25858,-3.612321 -3.46701,-0.718824 -4.9413,-1.096704 -7.68517,-2.187633 -4.173029,-1.659151 -4.667748,-2.148396 -3.80271,-2.483837 0,0 5.62811,-1.563317 8.0591,-3.072011 2.16094,-1.341108 4.22068,-3.270793 5.245,-5.549346 0.86233,-1.918222 1.46558,-4.003147 1.71046,-5.902715 0.3887,-3.015236 -0.42028,-7.284143 -0.28595,-9.285575 0.30071,-4.480441 3.02727,-9.170755 3.02727,-9.170755 l 3.35937,-5.319752"
       id="path21" /><path
       style="display:inline;fill:#2b170d;fill-opacity:1;stroke:none;stroke-width:0.842597;stroke-linecap:round;stroke-linejoin:miter;stroke-dasharray:none;stroke-opacity:1;paint-order:normal"
       d="m 127.37969,-78.032253 c -0.94174,0.0074 -3.69558,-0.966711 -5.58199,-0.936307 -1.11051,0.0179 -2.29191,0.124296 -3.26658,0.656801 -0.84687,0.462682 -1.46556,1.285798 -2.01361,2.080097 -0.51618,0.748113 -1.1584,2.468432 -1.1584,2.468432 0,0 -0.42123,1.187762 -0.69343,0.992419 -0.93268,-0.669326 -0.65547,-3.117163 -0.65547,-3.117163 0,0 0.32351,-2.689089 1.09482,-3.730522 0.94683,-1.278431 2.61793,-2.154618 3.98868,-2.620752 1.01453,-0.345001 1.56383,-0.490054 3.39192,-0.0079 1.80696,0.476569 6.42838,4.202889 4.89406,4.214909 z"
       id="path22" /><path
       style="display:inline;fill:#2b170d;fill-opacity:1;stroke:none;stroke-width:1.13893;stroke-linecap:round;stroke-linejoin:miter;stroke-dasharray:none;stroke-opacity:1;paint-order:normal"
       d="m 154.0757,-94.90471 c -0.58329,0.08555 -4.99803,-1.317496 -7.51702,-1.071302 -1.42255,0.139034 -2.82614,0.673214 -4.04762,1.415487 -1.19029,0.723319 -2.19626,1.758223 -3.04112,2.865563 -1.24459,1.631263 -2.88814,5.43589 -2.88814,5.43589 0,0 -0.81872,1.552162 -1.18795,1.323591 -1.26513,-0.783181 -0.68974,-4.140247 -0.68974,-4.140247 0,0 0.91846,-4.344629 2.33098,-6.249979 1.41251,-1.905352 3.42573,-3.425886 5.64967,-4.130161 1.73989,-0.550992 3.74862,-0.496158 5.47429,0.0979 2.334,0.80348 8.07776,4.136311 5.91665,4.453256 z"
       id="path22-2" /><path
       style="display:inline;fill:#fce6c6;fill-opacity:1;stroke:none;stroke-width:0.842597;stroke-linecap:round;stroke-linejoin:round;stroke-dasharray:none;stroke-opacity:1"
       d="m 161.46803,-100.97524 c 0,0 -1.93993,-17.40198 -2.00073,-23.21801 -0.0973,-9.30687 2.55325,-21.94376 2.55325,-21.94376 0,0 6.30046,7.93632 8.59846,12.41521 0.86142,1.67893 1.87437,4.03048 2.6893,6.09676 0.73783,1.87082 1.4665,3.75393 1.98861,5.69603 0.80706,3.00202 1.75548,9.15912 1.75548,9.15912 0,0 0.76421,4.38471 0.74636,6.59799 -0.0298,3.70072 -1.4257,11.010576 -1.4257,11.010576 l -7.80432,-3.815317 c 0,0 1.69243,-2.994649 2.05039,-4.650569 0.14335,-0.66314 0.37373,-3.96662 -0.16442,-5.01928 0,0 -0.86709,0.94519 -1.30229,1.41626 -1.01372,1.09729 -3.04883,3.28477 -3.04883,3.28477 0,0 1.708,-4.85419 1.74206,-7.38232 0.0255,-1.89384 -0.28122,-4.56157 -1.1555,-5.5633 -0.93561,3.55343 -1.16771,6.59997 -2.34542,10.09235 -0.74755,2.03194 -2.8767,5.82349 -2.8767,5.82349 z"
       id="path46" /><path
       style="display:inline;fill:#632207;fill-rule:nonzero;stroke:none;stroke-width:0.842597;stroke-linecap:round;stroke-linejoin:round;stroke-opacity:1"
       d="m 126.04868,-91.333278 c 1.27126,-0.207117 2.47478,-0.83005 2.47478,-0.83005 0,0 -1.33901,-0.208701 -2.61027,-0.0016 l -10.17013,1.656932 0.40455,0.668918 c 0.14897,-0.198244 0.14868,-0.197882 0.3997,-0.516499 0.25103,-0.318616 0.60288,-0.755931 1.00402,-1.228124 0.80228,-0.944387 1.81863,-2.034699 2.55975,-2.565489 1.23174,-0.882172 3.41887,-1.859944 5.27628,-2.594183 0.9287,-0.367118 1.77785,-0.676842 2.39404,-0.894479 0.61619,-0.217637 0.61575,-0.217474 0.99699,-0.342413 a 12490.43,12490.43 0 0 0 1.83732,-0.602279 l -13.8277,-1.559696 0.16006,0.785426 c 0.34517,-0.195056 0.34478,-0.194853 0.91385,-0.500453 0.56907,-0.305593 1.36036,-0.720723 2.24636,-1.157443 1.77202,-0.87343 3.93995,-1.83293 5.40436,-2.17145 1.53304,-0.3544 4.00774,-0.44737 6.07176,-0.43996 1.03201,0.004 1.96515,0.0306 2.63949,0.0565 0.67433,0.0259 0.67389,0.0259 1.08747,0.0508 a 14884.268,14884.268 0 0 0 1.70925,0.10262 5232.026,5232.026 45 0 0 -1.46654,-0.88401 c -0.22082,-0.13306 -0.22043,-0.13281 -0.57645,-0.35849 -0.35602,-0.22568 -0.84546,-0.54295 -1.37635,-0.90743 -1.06178,-0.72894 -2.29749,-1.66272 -2.92888,-2.37396 -0.38409,-0.43267 -0.88574,-1.28626 -1.26645,-2.01252 -0.19036,-0.36313 -0.35417,-0.69694 -0.4701,-0.93917 -0.11588,-0.24226 -0.11569,-0.24184 -0.18277,-0.39068 l -0.54973,0.5605 c 2.38253,1.01888 4.92613,2.01741 6.18413,2.42408 2.58011,0.83406 5.22106,1.607 7.92646,2.03688 1.78123,0.28302 4.85624,0.31772 5.99127,0.32103 l 0.002,-1.1e-4 c 0.22236,-1.8e-4 0.44319,-0.40043 0.45429,-0.42086 2.7e-4,-8.5e-4 2.7e-4,-8.5e-4 2.7e-4,-8.5e-4 0,0 4e-5,1.4e-4 -2.3e-4,-8.2e-4 -0.0112,-0.0205 -0.23387,-0.4203 -0.45497,-0.42012 l 0.002,-1.1e-4 c -1.13975,-0.003 -4.19102,-0.0452 -5.86149,-0.3106 -2.63739,-0.41907 -5.23208,-1.1765 -7.79952,-2.00646 -1.02282,-0.33065 -2.55912,-0.93219 -3.83051,-1.44865 -1.2714,-0.51646 -1.27104,-0.5163 -2.28148,-0.94842 a 381758.33,381758.33 45 0 1 -0.96155,-0.4112 23.306706,23.306706 0 0 0 0.41181,0.9717 c 0.64291,1.42621 1.48478,2.91049 2.05735,3.55549 0.86511,0.97452 2.56162,2.17235 3.70533,2.92915 0.49193,0.32551 1.00682,0.65324 1.3716,0.87304 l 0.24271,-0.78139 c -0.67445,-0.0405 -1.64259,-0.076 -2.58007,-0.0946 -2.21479,-0.0439 -5.46241,-0.0141 -7.45898,0.44741 -1.91549,0.44281 -4.72158,1.78219 -6.60891,2.75084 -0.79885,0.41005 -1.61707,0.84751 -2.18044,1.16589 a 28.985555,28.985555 45 0 0 -1.08535,0.644949 l 13.15181,1.483456 -0.084,-0.818991 c -0.62281,0.204102 -1.50782,0.518563 -2.35841,0.837999 -2.00952,0.754669 -4.9177,1.948919 -6.53712,3.108743 -1.02337,0.732932 -2.33733,2.239512 -3.175,3.26065 -0.36029,0.439198 -0.72498,0.900315 -0.97145,1.228288 a 17.389448,17.389448 45 0 0 -0.58688,0.83044 z"
       id="path5" /><path
       style="display:inline;fill:#632207;fill-opacity:1;fill-rule:nonzero;stroke:none;stroke-width:0.842597;stroke-linecap:round;stroke-linejoin:round;stroke-dasharray:none;stroke-opacity:1"
       d="m 148.69135,-103.32894 c 0.0713,8.7e-4 0.27038,-0.21475 0.43542,-2.56083 0.08,-1.13786 0.14642,-2.49201 0.28363,-4.94761 0.12599,-2.25457 0.31581,-5.48364 0.60176,-9.1006 0.0887,-1.12088 0.27848,-2.57525 0.56545,-4.28816 0.27708,-1.65379 0.64312,-3.53841 1.08718,-5.55346 0.85771,-3.89206 2.00761,-8.27202 3.32027,-12.20591 0.64268,-1.92604 1.32136,-3.73557 2.01784,-5.31374 0.69413,-1.57286 1.39774,-2.89702 2.09038,-3.87435 0.3456,-0.48766 0.68081,-0.87801 1.00174,-1.16778 0.32274,-0.29141 0.61414,-0.46584 0.87103,-0.54712 0.12697,-0.0402 0.24534,-0.0576 0.35696,-0.056 0.11138,0.002 0.22331,0.0222 0.33803,0.0652 0.11569,0.0434 0.23916,0.11154 0.3699,0.2124 0.13145,0.10142 0.26928,0.2352 0.41188,0.40766 0.0782,0.0945 0.177,0.22391 0.29545,0.38789 0.11869,0.16431 0.25405,0.35905 0.40409,0.58114 0.30449,0.45073 0.66519,1.00778 1.06408,1.64146 0.83424,1.32529 1.81804,2.95763 2.81094,4.65848 0,0 0.004,0.007 0.004,0.007 0.96993,1.66163 2.05816,3.57176 3.11922,5.50764 0.98345,1.79428 1.94328,3.61049 2.7266,5.20497 1.30986,2.66772 2.72591,5.44304 3.94605,8.22483 1.27162,2.89915 2.2752,5.67803 2.90046,8.49798 1.37877,6.20559 1.51141,12.13712 1.46948,15.48617 -0.0374,2.985045 -0.23553,5.166293 -0.28875,5.739972 -0.11415,1.230601 -0.13057,1.231618 -0.13011,1.228145 a 0.59308366,0.59308366 0 0 0 1.176,0.154959 v 0 c 3.7e-4,-0.0034 0.021,-0.01712 0.13531,-1.274664 0.0532,-0.585392 0.2518,-2.808608 0.28685,-5.834202 0.0393,-3.38929 -0.0986,-9.42355 -1.51109,-15.7537 -0.65216,-2.91692 -1.69171,-5.76904 -2.98858,-8.70654 -1.24019,-2.80911 -2.68233,-5.61678 -3.99072,-8.2585 -0.79819,-1.61256 -1.77151,-3.44153 -2.76498,-5.24109 -1.0729,-1.94345 -2.17168,-3.85735 -3.153,-5.52297 0,0 -0.004,-0.007 -0.004,-0.007 -1.00383,-1.70372 -1.99745,-3.34381 -2.8415,-4.68029 -0.40341,-0.63877 -0.7711,-1.20566 -1.08427,-1.66875 -0.15436,-0.22827 -0.29627,-0.43249 -0.42317,-0.60823 -0.12536,-0.17359 -0.23909,-0.32358 -0.3377,-0.44299 -0.18411,-0.2228 -0.37765,-0.4147 -0.58176,-0.57232 -0.20399,-0.15754 -0.41932,-0.28141 -0.64602,-0.36663 -0.22694,-0.0853 -0.46015,-0.12994 -0.69691,-0.13351 -0.23589,-0.004 -0.46794,0.0337 -0.69375,0.10498 -0.4474,0.14116 -0.86931,0.41496 -1.26471,0.77153 -0.39621,0.35729 -0.78236,0.81264 -1.15808,1.34228 -0.75138,1.05918 -1.48881,2.45522 -2.19748,4.06019 -0.71398,1.61701 -1.40451,3.45938 -2.05421,5.40706 -1.32687,3.97768 -2.48445,8.39553 -3.34415,12.31612 -0.44538,2.03117 -0.81222,3.93424 -1.08902,5.60861 -0.28622,1.73135 -0.47632,3.21711 -0.56265,4.38185 -0.27141,3.66438 -0.42714,6.8404 -0.51035,9.13647 -0.0843,2.3252 -0.10321,3.96559 -0.091,4.96934 0.0287,2.35976 0.26091,2.58196 0.31798,2.58266 z"
       id="path26" /><path
       style="display:inline;fill:none;fill-opacity:1;stroke:#632207;stroke-width:0.842597;stroke-linecap:round;stroke-linejoin:round;stroke-dasharray:none;stroke-opacity:1"
       d="m 161.26145,-101.14417 c 0,0 -1.32911,-12.63061 -1.70575,-18.45859 -0.32707,-5.06095 0.0105,-10.56648 0.62126,-15.60109 0.43004,-3.54486 1.89708,-9.99134 1.89708,-9.99134 0,0 4.94603,6.12829 6.97394,9.48938 1.57884,2.61681 2.86136,5.41356 4.00433,8.248 1.348,3.34291 2.58181,6.76012 3.34629,10.28258 0.77806,3.58498 1.22631,7.26696 1.23892,10.93538 0.0127,3.68704 -1.16958,10.999183 -1.16958,10.999183 l -7.684,-3.819611 c 0,0 1.79479,-3.770382 1.88856,-6.219172 0.11574,-3.02285 -0.37331,-3.65423 -0.36917,-3.47294 l -4.05548,4.93892 c 0,0 2.21876,-5.60806 1.82617,-8.46919 -0.60742,-4.42669 -1.52826,-5.4807 -1.52826,-5.4807 0,0 -0.77969,6.39433 -1.44349,8.68522 -0.86971,3.00147 -3.84082,7.93397 -3.84082,7.93397 z"
       id="path27" /><path
       style="display:inline;fill:#311d12;fill-opacity:1;stroke-width:1.83265"
       d="m 103.08327,-25.883828 c 0,0 -1.13764,-3.80893 10.47193,-8.166123 9.2999,-3.490353 12.02664,0.272843 12.02664,0.272843 0,0 2.66303,1.998842 -0.50043,7.844508 -3.2581,6.020544 -6.85279,6.422057 -6.85279,6.422057 0,0 -5.54329,1.350007 -10.04832,-1.178084 -4.03143,-2.262323 -5.09703,-5.195201 -5.09703,-5.195201 z"
       id="path1" /><path
       style="display:inline;fill:#632207;fill-opacity:1;stroke:none;stroke-width:0.842597;stroke-linecap:round;stroke-linejoin:round;stroke-dasharray:none;stroke-opacity:1"
       d="m 150.47635,-127.02668 0.32524,-0.39142 5.8727,-8.33076 2.91339,4.96481 2.62072,-14.39831 2.81011,3.44158 5.81877,9.03313 0.48872,-5.50328 -7.31723,-12.84506 -2.1436,-2.43144 -1.13315,0.2791 -2.19879,1.42428 -4.98258,10.95272 z"
       id="path29" /><path
       style="opacity:1;fill:#632207;fill-opacity:0.992157;fill-rule:nonzero;stroke:none;stroke-width:1.05833;stroke-linecap:round;stroke-linejoin:round;stroke-dasharray:none;stroke-opacity:1"
       d="m 182.68326,-95.339014 c -1.58745,0.147319 -3.09221,0.865471 -3.09221,0.865471 0,0 1.63117,0.332977 3.19,0.188331 3.82375,-0.354832 7.25352,-0.45145 10.16928,-0.287758 2.91576,0.163692 5.31838,0.591341 7.07146,1.259586 l -0.0675,-0.957601 c -5.05626,2.794396 -9.69654,5.560301 -10.75195,6.497632 -0.11513,0.102254 -0.27276,0.25038 -0.35659,0.426293 -0.18055,0.378889 0.0278,0.793308 0.45103,0.865476 0.2519,0.04296 0.57938,-0.04129 0.84335,-0.116022 3.73029,-1.056141 9.32358,-1.102886 12.77716,-0.849105 1.1512,0.08459 2.07458,0.203928 2.57847,0.314316 0.20155,0.04416 0.34588,0.09886 0.34496,0.09839 -5e-5,-2.8e-5 -7.2e-4,-3.74e-4 -0.002,-0.0011 -0.001,-6.91e-4 -0.003,-0.0017 -0.005,-0.0032 -0.002,-0.0013 -0.005,-0.003 -0.008,-0.0052 -0.003,-0.0019 -0.006,-0.0043 -0.01,-0.0071 -0.0335,-0.02512 -0.14185,-0.100733 -0.16677,-0.303683 -0.0374,-0.304424 0.19633,-0.448538 0.22068,-0.460561 0.003,-0.0013 0.004,-0.0021 0.005,-0.0024 9.1e-4,-3.94e-4 7.1e-4,-2.87e-4 -4.6e-4,1.62e-4 -0.001,4.97e-4 -0.004,0.0014 -0.007,0.0026 -0.004,0.0013 -0.009,0.003 -0.0157,0.0049 -11.03817,3.247331 -27.01322,20.03745 -27.74789,30.174453 l 0.0113,-0.07707 c -0.0374,0.167613 -0.12038,0.623088 -0.16588,0.90973 -0.36262,2.284185 -1.03175,8.549962 1.43406,14.1508 0.62277,1.416385 1.50065,2.552083 2.31779,3.368752 0.79065,0.790199 1.41493,1.187978 1.41493,1.187978 0,0 -1.63679,-2.426104 -2.76411,-4.98317 -0.58221,-1.32243 -0.98171,-2.692791 -1.24667,-4.040028 -0.52993,-2.694475 -0.52019,-5.29566 -0.37569,-7.217661 0.0578,-0.768801 0.13694,-1.428938 0.21087,-1.943082 0.0444,-0.308487 0.0868,-0.564419 0.1217,-0.759756 0.0523,-0.293007 0.0523,-0.292369 0.0859,-0.442919 a 270.95831,270.95831 0 0 0 0.009,-0.03866 9.3449497,9.3449497 0 0 1 0.003,-0.03841 c 0.16864,-2.326878 1.24953,-5.154793 2.97075,-8.106361 1.72123,-2.951568 4.07469,-6.030122 6.74622,-8.903975 2.67153,-2.873854 5.66153,-5.544058 8.65041,-7.688072 2.98887,-2.144014 5.97978,-3.759436 8.62365,-4.537239 0.0944,-0.02778 0.292,-0.09384 0.42161,-0.252666 0.25112,-0.307726 0.1074,-0.662043 -0.0926,-0.827986 -0.0963,-0.07994 -0.20632,-0.128016 -0.28646,-0.158761 -0.73409,-0.281648 -2.91628,-0.495381 -5.12516,-0.570431 -3.41773,-0.116121 -7.92175,0.05569 -11.21544,0.988216 -0.078,0.02209 -0.14643,0.03979 -0.20442,0.05325 -0.0209,0.0048 -0.0404,0.0091 -0.0585,0.0129 -0.0163,0.0034 -0.0314,0.0063 -0.0453,0.0089 -0.0125,0.0023 -0.024,0.0042 -0.0344,0.0058 -0.0936,0.01455 -0.10619,-0.100667 0.14408,0.09145 0.3754,0.288178 0.0853,0.621213 0.18501,0.52353 0.0111,-0.01085 0.0237,-0.02281 0.0377,-0.03567 0.0155,-0.01429 0.0328,-0.02971 0.0516,-0.04607 0.0209,-0.01818 0.0438,-0.03754 0.0685,-0.05791 0.0508,-0.04192 0.10917,-0.08813 0.17421,-0.137788 0.97556,-0.744891 3.37042,-2.191598 5.58162,-3.474334 1.22845,-0.71263 2.40759,-1.381171 3.27925,-1.871339 0.87167,-0.490167 0.87148,-0.490065 1.43501,-0.801504 a 307402.76,307402.76 0 0 0 0.94323,-0.521288 12.703758,12.703758 0 0 0 -1.01071,-0.436313 c -3.79272,-1.44572 -10.04779,-1.748249 -17.71549,-1.03671 z"
       id="path7" /><path
       style="fill:#66331e;fill-opacity:1;stroke:none;stroke-width:2.64583;stroke-linecap:round;stroke-opacity:1;paint-order:fill markers stroke"
       d="m 206.62364,7.3247527 v 9.4077603 l 1.78042,1.728827 3.64331,4.228838 0.84577,2.862601 -0.26024,2.21201 -1.56142,2.081889 0.52047,1.886712 1.10601,3.383074 -1.4313,1.431298 -2.08189,0.650592 0.26024,4.749313 -3.96861,1.756595 -7.41673,-1.4313 -5.26979,-3.318013 -0.45541,-3.773427 1.49636,-2.472245 -3.44814,-2.862599 -1.17106,-4.35896 0.58553,-2.537304 1.56142,-1.171061 -1.4313,-2.992718 1.23612,-4.424019 2.8626,-3.708368 4.35896,-2.7975399 z"
       id="path13" /><path
       style="opacity:1;fill:#632207;fill-opacity:0.992157;fill-rule:nonzero;stroke:none;stroke-width:1.05833;stroke-linecap:round;stroke-linejoin:round;stroke-dasharray:none;stroke-opacity:1"
       d="m 160.1727,-39.363889 c 0.45925,0.295695 0.45852,0.295166 1.18705,0.800239 0.72853,0.505073 1.72306,1.217527 2.78197,2.043127 1.05891,0.8256 2.18242,1.764904 3.16612,2.718518 0.98371,0.953613 1.82654,1.926639 2.32234,2.781436 0.81419,1.403738 1.42783,3.740579 1.83195,6.007423 0.3031,1.700133 0.49817,3.366724 0.61689,4.605734 0.0475,0.495603 0.0828,0.92287 0.10804,1.256781 0.0379,0.500868 0.0378,0.50039 0.0529,0.788202 a 3971.6418,3971.6418 0 0 0 0.0798,1.51505 l 4.63736,-6.515131 -0.96023,-0.314211 c -0.0481,3.463782 -1.2016,7.082623 1.52518,10.181934 a 7.8496256,7.8496256 0 0 0 0.578,0.591062 158001.84,158001.84 0 0 0 0.3076,-0.736713 c 0.19167,-0.459051 0.19153,-0.458725 0.47301,-1.111332 0.28149,-0.652606 0.65256,-1.498114 1.00845,-2.264771 0.18982,-0.408884 0.37545,-0.795523 0.53921,-1.115776 0.12282,-0.240189 0.23417,-0.443933 0.32022,-0.584643 0.0344,-0.05628 0.0648,-0.102396 0.0876,-0.134345 0.003,-0.0048 0.007,-0.0093 0.01,-0.01338 0.003,-0.0037 0.005,-0.0071 0.008,-0.01026 0.002,-0.0028 0.004,-0.0054 0.006,-0.0077 0.0165,-0.02079 0.0287,-0.02105 -0.0264,0.0171 -0.009,0.0059 -0.019,0.01265 -0.0323,0.02008 -0.0108,0.006 -0.0234,0.01247 -0.0385,0.01901 -0.21376,0.09279 -0.4555,0.05923 -0.61083,-0.195895 -0.01,-0.0162 -0.0176,-0.03113 -0.0239,-0.04465 -0.008,-0.0167 -0.0133,-0.03126 -0.0176,-0.04384 -0.005,-0.01553 -0.008,-0.02807 -0.0107,-0.03816 -0.002,-0.01121 -0.004,-0.01941 -0.005,-0.02528 -8.7e-4,-0.0065 -0.001,-0.01017 -0.001,-0.01161 0.14877,2.477092 3.14733,8.111446 4.3128,10.1792654 1.91135,3.3911294 8.5212,15.1546287 11.08482,17.8144222 0.0972,0.188201 0.44469,0.3161981 0.73843,0.3039957 0.28846,-0.011983 0.39247,-0.1578687 0.39247,-0.1578687 0,0 -0.11932,-0.1229424 -0.14286,-0.293837 -0.0237,-0.1715917 0.0131,-0.4235191 -0.22604,-0.5867421 -0.90253,-0.936388 -2.56564,-3.415563 -4.29489,-6.2232742 -2.59388,-4.2115668 -5.4165,-9.2234255 -6.62995,-11.3763458 -0.74215,-1.3167335 -2.06649,-3.8004715 -3.02584,-6.0438755 -0.31978,-0.747801 -0.59895,-1.468998 -0.80211,-2.105326 -0.20316,-0.636328 -0.3275,-1.192489 -0.35041,-1.573862 -0.004,-0.07229 -0.0135,-0.197697 -0.10196,-0.335382 -0.225,-0.350358 -0.62004,-0.287438 -0.81708,-0.151064 -0.16594,0.114841 -0.28535,0.306427 -0.36101,0.427369 -0.45787,0.731951 -1.47665,2.955539 -2.43892,5.2602 l 0.8856,-0.145651 c -2.37188,-2.695936 -1.31278,-5.780218 -1.26152,-9.468152 a 20.081256,20.081256 0 0 0 -0.0419,-1.604463 l -4.67602,6.569447 0.95955,0.279114 c -0.0459,-0.873497 -0.17268,-2.288112 -0.31197,-3.479278 -0.34365,-2.938733 -1.05043,-7.259968 -2.43923,-9.654373 -1.35815,-2.341578 -4.67802,-5.034672 -7.00221,-6.750765 -0.94207,-0.69559 -2.07965,-1.488989 -2.79781,-1.951394 z"
       id="path8" /><path
       style="opacity:1;fill:none;fill-opacity:0.992157;stroke:#632207;stroke-width:1.05833;stroke-linecap:round;stroke-linejoin:round;stroke-dasharray:none;stroke-opacity:1"
       d="m 181.25183,-40.644433 c 0,0 2.93458,-5.547466 5.64132,-5.988936 7.31378,-1.192882 19.59521,10.500339 19.59521,10.500339"
       id="path10" /><path
       style="opacity:1;fill:none;fill-opacity:0.992157;stroke:#57240a;stroke-width:1.05833;stroke-linecap:round;stroke-linejoin:round;stroke-dasharray:none;stroke-opacity:1"
       d="m 206.10494,7.4129223 c 0,0 -4.93012,-0.393153 -7.32079,0.3252946 -3.054,0.9177946 -6.10033,3.4159601 -7.29179,5.8014231 -0.83813,1.678047 -1.8453,4.773622 -1.10601,7.02638 0.97065,2.957757 3.81183,5.065209 6.63603,6.570967 2.71515,1.447622 10.80383,4.449924 14.11782,2.797539 1.86855,-0.931676 3.17541,-4.327357 -0.71565,-9.498625 -2.53225,-3.36539 -6.95679,-5.017244 -8.32757,-5.464963"
       id="path16" /><path
       style="opacity:1;fill:none;fill-opacity:0.992157;stroke:#57240a;stroke-width:1.05833;stroke-linecap:round;stroke-linejoin:round;stroke-dasharray:none;stroke-opacity:1"
       d="m 190.71165,21.672025 c 0,0 -1.43556,1.924648 -1.49636,3.057776 -0.11248,2.096196 0.6342,4.109249 2.14695,5.920375 1.51275,1.811125 4.26252,3.570142 7.15649,4.684254 2.89397,1.114112 9.9601,2.597131 12.68652,1.171063 1.25988,-0.658987 2.06501,-2.149417 0.13013,-6.440849"
       id="path18" /><path
       style="opacity:1;fill:#66331e;fill-opacity:1;stroke:none;stroke-width:1.05833;stroke-linecap:round;stroke-linejoin:round;stroke-dasharray:none;stroke-opacity:1"
       d="m 192.93544,-7.8983749 1.38011,4.3243478 1.10408,4.9223973 2.4382,5.5204476 2.25418,1.7941438 3.12826,1.0120833 1.61013,-0.59805 2.20817,-3.4962809 -0.18401,-5.24442484 -12.92704,-9.93680256 z"
       id="path37" /><path
       style="fill:#66331e;fill-opacity:1;stroke:none;stroke-width:2.64583;stroke-linecap:round;paint-order:fill markers stroke"
       d="m 191.55376,-8.2779434 v 0 l -0.58553,-5.1396656 1.7566,-4.163782 -0.0651,-5.530022 3.44813,-4.684252 10.61647,-4.301115 -0.092,10.416667 3.00783,3.187896 1.62647,4.554135 0.13012,3.252955 -2.01683,2.4722446 -1.56142,0.130117 1.82166,2.79754 0.32529,2.732482 -0.58553,2.537304 -2.47225,1.951773 -2.212,0.130116 z"
       id="path11" /><path
       style="opacity:1;fill:none;fill-opacity:0.992157;stroke:#57240a;stroke-width:1.05833;stroke-linecap:round;stroke-linejoin:round;stroke-dasharray:none;stroke-opacity:1"
       d="m 193.70436,32.927243 c 0,0 -1.55754,2.142923 -1.17106,4.424018 0.51672,3.049789 4.55696,4.606953 7.54685,5.399903 2.86586,0.760056 6.77199,1.205976 8.84804,-0.910826 1.0971,-1.118633 0.39035,-4.684255 0.39035,-4.684255"
       id="path23" /><path
       style="opacity:1;fill:none;fill-opacity:0.992157;stroke:#57240a;stroke-width:4;stroke-linecap:round;stroke-linejoin:round;stroke-dasharray:none;stroke-opacity:1"
       d="m 680.545,639.12992 c 0,0 4.19933,22.02245 8.68487,32.1911 2.82918,6.4137 5.31094,13.18441 11.3017,17.73499 5.99076,4.55058 13.85414,7.11989 19.29983,3.99906 5.93707,-3.40244 8.36287,-6.79653 9.3891,-13.56205 0.56303,-3.71182 0.47431,-12.48024 0.47431,-12.48024"
       id="path28"
       transform="matrix(0.26458333,0,0,0.26458333,13.750949,-174.15581)" /><path
       style="opacity:1;fill:none;fill-opacity:0.992157;stroke:#57240a;stroke-width:1.05833;stroke-linecap:round;stroke-linejoin:round;stroke-dasharray:none;stroke-opacity:1"
       d="m 202.67187,-24.915128 c 3.87446,3.388387 7.10171,5.253706 8.46469,10.856878 1.26459,5.1987156 -2.3078,5.7361596 -2.94425,5.7964696 -4.40611,0.41752 -10.19373,-6.0365206 -12.513,-9.2007446"
       id="path30" /><path
       style="opacity:1;fill:none;fill-opacity:0.992157;stroke:#57240a;stroke-width:1.05833;stroke-linecap:round;stroke-linejoin:round;stroke-dasharray:none;stroke-opacity:1"
       d="m 208.0083,-7.8937524 c 2.42827,2.70854 2.9385,7.017838 -0.29507,9.314118 -1.89751,1.103266 -4.75558,0.06064 -6.76255,-0.828066 -3.06296,-1.356316 -5.68526,-3.809754 -7.63662,-6.532528 -1.25072,-1.745153 -2.19411,-3.674901 -2.32713,-5.8178346 -0.11983,-1.930387 1.13675,-3.707651 1.47212,-5.612455 0.34714,-1.971642 -0.29836,-4.16811 0.55204,-5.980483 1.14229,-2.434437 3.47385,-4.202566 5.70446,-5.704462 1.96086,-1.320271 7.50842,-2.955397 7.50842,-2.955397"
       id="path31" /><path
       style="opacity:1;fill:none;fill-opacity:0.992157;stroke:#632207;stroke-width:1.05833;stroke-linecap:round;stroke-linejoin:round;stroke-dasharray:none;stroke-opacity:1"
       d="m 171.41166,-28.00322 c -9.3301,4.947785 -7.213,11.012904 0.5213,20.5743335 6.65851,8.23150317 14.96497,16.8308649 18.68266,21.9205855"
       id="path32" /></g></svg>
