<?xml version="1.0" encoding="UTF-8" standalone="no"?>
<!-- Created with Inkscape (http://www.inkscape.org/) -->

<svg
   width="174.57068mm"
   height="174.91682mm"
   viewBox="0 0 174.57068 174.91682"
   version="1.1"
   id="svg1"
   xml:space="preserve"
   xmlns="http://www.w3.org/2000/svg"
   xmlns:svg="http://www.w3.org/2000/svg"><defs
     id="defs1" /><g
     id="layer1"
     transform="translate(-17.754245,-61.145987)"><path
       id="path1-5"
       style="fill:#e79937;fill-opacity:1;stroke:#e79937;stroke-width:6.44864;stroke-linecap:round;stroke-dasharray:none;stroke-opacity:1;paint-order:fill markers stroke"
       d="M 105.03958,69.132723 A 84.060944,81.85276 0 0 0 20.978565,150.98561 84.060944,81.85276 0 0 0 105.03958,232.83849 84.060944,81.85276 0 0 0 189.1006,150.98561 84.060944,81.85276 0 0 0 105.03958,69.132723 Z" /><ellipse
       style="display:inline;opacity:1;fill:#fdcc3d;fill-opacity:1;stroke:#e79937;stroke-width:6.28603;stroke-linecap:round;stroke-dasharray:none;stroke-opacity:1;paint-order:fill markers stroke"
       id="path1"
       cx="105.03959"
       cy="141.99072"
       rx="84.142242"
       ry="77.701721" /><g
       id="g2"
       transform="translate(-2.8240487,-6.0724989)"
       style="fill:#fdcc3d;fill-opacity:1"><path
         style="fill:#e79937;fill-opacity:1;stroke:#e79937;stroke-width:7;stroke-linecap:round;stroke-linejoin:round;stroke-dasharray:none;stroke-opacity:1;paint-order:fill markers stroke"
         id="path3"
         d="m -83.804133,92.64205 -0.08092,-53.685625 46.533572,26.772738 z"
         transform="matrix(0.68726344,0,0,0.75326525,128.83245,98.498943)" /><path
         style="fill:#e79937;fill-opacity:1;stroke:#e79937;stroke-width:7;stroke-linecap:round;stroke-linejoin:round;stroke-dasharray:none;stroke-opacity:1;paint-order:fill markers stroke"
         id="path3-1"
         d="m -83.804133,92.64205 -0.08092,-53.685625 46.533572,26.772738 z"
         transform="matrix(0.68726344,0,0,0.75326525,170.2165,98.498943)" /></g></g></svg>
