<?xml version="1.0" encoding="UTF-8" standalone="no"?>
<!-- Created with Inkscape (http://www.inkscape.org/) -->

<svg
   width="16.698229mm"
   height="12.653368mm"
   viewBox="0 0 16.698229 12.653368"
   version="1.1"
   id="svg1"
   xml:space="preserve"
   xmlns="http://www.w3.org/2000/svg"
   xmlns:svg="http://www.w3.org/2000/svg"><defs
     id="defs1" /><g
     transform="rotate(39 8.3491145 6.326684)"><g
     id="layer1"
     transform="translate(-70.10373,-105.5269)"><g
       id="g19"
       transform="matrix(0.14350401,-0.11440223,-0.11440223,-0.14350401,76.84142,140.18201)"><path
         style="fill:#4c290e;fill-opacity:1;stroke:none;stroke-width:1.05833;stroke-linecap:round"
         d="m 82.926221,117.6599 c 0,0 -8.750486,2.95735 -12.764723,3.42243 -4.254849,0.49294 -7.661857,5.44336 -8.952243,9.21835 -2.339606,6.84446 3.220115,7.82585 10.538048,14.08976 0,0 5.367324,4.68976 8.759202,8.98595 1.8402,2.33082 4.247313,4.38792 6.992565,5.52045 1.74078,0.71815 5.936265,0.80468 7.515431,-0.26678 3.223543,-2.18716 4.03302,-7.52715 4.279836,-11.44541 0.238449,-3.78543 1.725983,-7.1427 2.860723,-10.63338 0.9874,-3.03742 2.33462,-5.43574 3.42727,-8.94772 0.58425,-1.87787 0.81345,-5.47722 0.17476,-7.33728 -0.91731,-2.67146 -3.79617,-5.38706 -5.61245,-6.34851 -3.095873,-1.63879 -8.118935,0.0852 -8.118935,0.0852 z"
         id="path1" /><path
         style="fill:#4c290e;fill-opacity:1;stroke:none;stroke-width:1.05833;stroke-linecap:round"
         d="m 86.723753,89.78153 c -0.704194,-0.292786 -1.49899,-0.31122 -2.249851,-0.177726 -0.750861,0.133493 -1.467463,0.411517 -2.174164,0.698201 -1.663092,0.674658 -3.3308,1.42372 -4.684255,2.602362 -1.826391,1.590493 -2.933907,3.827681 -4.033663,5.985436 -0.952546,1.868927 -1.949773,3.774097 -2.212009,5.855317 -0.224405,1.78098 0.11056,3.60451 0.780708,5.26978 0.247389,0.61474 0.542013,1.21466 0.934003,1.74894 0.39199,0.53428 0.88551,1.00265 1.473184,1.30884 0.78325,0.40809 1.702981,0.50972 2.578372,0.39265 0.875392,-0.11706 1.711689,-0.44247 2.496236,-0.84806 2.763952,-1.42888 4.92565,-3.85338 6.44085,-6.57097 1.730269,-3.10333 2.675338,-6.610325 2.992718,-10.149215 0.104624,-1.166595 0.139922,-2.363374 -0.18836,-3.487705 -0.164141,-0.562165 -0.419829,-1.101 -0.781447,-1.561658 -0.361617,-0.460657 -0.831562,-0.841358 -1.372322,-1.066192 z"
         id="path2" /><path
         style="fill:#4c290e;fill-opacity:1;stroke:none;stroke-width:1.05833;stroke-linecap:round"
         d="m 99.596999,105.97662 c -0.83567,-0.24897 -1.539282,-0.85015 -2.02003,-1.57762 -0.480749,-0.72747 -0.753406,-1.57555 -0.911577,-2.43305 -0.50523,-2.739034 0.139627,-5.630781 1.556794,-8.02853 1.149378,-1.944669 2.783154,-3.579661 4.636224,-4.871538 3.09301,-2.156312 6.80922,-3.371624 10.57209,-3.610781 0.36519,-0.02321 0.73238,-0.03746 1.09654,-0.0016 0.36416,0.0359 0.72684,0.123459 1.05042,0.294324 0.43752,0.23103 0.78924,0.609561 1.02181,1.046268 0.23258,0.436706 0.34964,0.929561 0.37726,1.423565 0.0552,0.988009 -0.23745,1.959756 -0.55331,2.897542 -0.3312,0.983334 -0.69221,1.958407 -1.13853,2.895127 -1.23214,2.586004 -3.09112,4.82895 -5.13967,6.83121 -2.23611,2.18558 -4.80458,4.16167 -7.81554,5.00492 -0.89003,0.24926 -1.84668,0.39403 -2.732481,0.13012 z"
         id="path3" /><path
         style="fill:#4c290e;fill-opacity:1;stroke:none;stroke-width:1.05833;stroke-linecap:round"
         d="m 112.55221,108.19325 c 3.70081,-3.21548 8.1437,-5.57156 12.8817,-6.8312 0.87973,-0.23388 1.77565,-0.43138 2.68541,-0.46234 0.90977,-0.031 1.83963,0.11168 2.64943,0.52744 0.92332,0.47405 1.65207,1.29073 2.08842,2.23246 0.43634,0.94173 0.58913,2.00214 0.51394,3.03732 -0.12074,1.66222 -0.80811,3.23241 -1.62647,4.68426 -1.92968,3.42344 -4.69294,6.42657 -8.13239,8.32756 -1.13876,0.6294 -2.35545,1.13912 -3.63509,1.37455 -1.27965,0.23544 -2.6279,0.18691 -3.8467,-0.26855 -1.10554,-0.41314 -2.07365,-1.14868 -2.85712,-2.03134 -0.78347,-0.88266 -1.38991,-1.91021 -1.89219,-2.97821 -0.26621,-0.56604 -0.50547,-1.14814 -0.65059,-1.75659 -0.24884,-1.04334 -0.21136,-2.15347 0.10727,-3.17765 0.31863,-1.02419 0.91756,-1.95965 1.71438,-2.67767 z"
         id="path4" /><path
         style="fill:#4c290e;fill-opacity:1;stroke:none;stroke-width:1.05833;stroke-linecap:round"
         d="m 108.32528,134.51487 c 0.52787,-0.89235 1.32286,-1.60331 2.1958,-2.16269 0.87294,-0.55937 1.82735,-0.97751 2.77931,-1.38825 2.06554,-0.89122 4.15318,-1.76301 6.34326,-2.27707 0.92119,-0.21622 1.86258,-0.36864 2.80878,-0.36085 0.94619,0.008 1.90018,0.18024 2.75377,0.58856 1.27065,0.60783 2.27341,1.73779 2.76501,3.05777 0.35884,0.9635 0.45275,2.01561 0.34003,3.03757 -0.11273,1.02196 -0.42768,2.01525 -0.8605,2.94787 -0.9463,2.03905 -2.44785,3.7851 -4.16378,5.23726 -2.24174,1.89715 -4.84132,3.31273 -7.38421,4.78184 -0.80118,0.46287 -1.60866,0.93673 -2.49649,1.1973 -0.44392,0.13028 -0.90613,0.20568 -1.36863,0.19418 -0.46249,-0.0115 -0.9256,-0.11155 -1.33961,-0.31801 -0.47888,-0.23881 -0.88097,-0.61396 -1.20253,-1.04169 -0.32156,-0.42773 -0.56652,-0.9081 -0.78177,-1.39802 -1.11474,-2.53724 -1.45624,-5.36378 -1.33371,-8.13239 0.0607,-1.37093 0.24659,-2.78229 0.94527,-3.96338 z"
         id="path5" /><path
         style="fill:#4c290e;fill-opacity:1;stroke:none;stroke-width:1.05833;stroke-linecap:round"
         d="m 137.62012,124.75058 c 0.24135,0.0335 0.52081,0.10411 0.66705,0.29902 0.16725,0.22291 0.15848,0.55281 0.11501,0.82807 -0.0864,0.54703 -0.56866,1.26261 -0.92008,1.69064 -0.0659,0.0803 -1.50064,1.45218 -2.50719,1.62163 -0.52975,0.0892 -1.14021,0.1913 -1.61013,-0.069 -0.46789,-0.25917 -0.89719,-0.78785 -0.90858,-1.3226 -0.0119,-0.55619 0.47354,-1.04084 0.88558,-1.41462 0.78983,-0.71649 2.86373,-1.42611 2.86373,-1.42611 0,0 0.94258,-0.27261 1.41461,-0.20703 z"
         id="path7" /><path
         style="fill:#4c290e;fill-opacity:1;stroke:none;stroke-width:1.05833;stroke-linecap:round"
         d="m 138.04565,95.607225 c 1.60372,-0.915409 3.39368,-3.221978 3.22026,-5.060409 -0.0362,-0.383675 0.0106,-0.761831 -0.66296,-0.720951 -1.52145,0.09235 -3.40312,1.7105 -3.97191,3.124645 -0.32662,0.812055 -0.3655,1.738214 -0.14951,2.139172 0.41371,0.768028 1.14785,0.755151 1.56412,0.517543 z"
         id="path8" /><path
         style="fill:#4c290e;fill-opacity:1;stroke:none;stroke-width:1.05833;stroke-linecap:round"
         d="m 124.52056,78.861873 c 0.87762,-0.754003 1.28811,-2.288686 1.28811,-2.288686 0,0 0.32997,-1.280261 -0.0805,-1.644632 -0.45123,-0.400546 -1.25187,-0.112999 -1.80565,0.126511 -0.95863,0.414605 -1.62354,1.066562 -2.03566,1.897652 -0.3064,0.617886 -0.52253,1.428274 -0.20702,2.058667 0.20864,0.416851 0.73017,0.710344 1.1961,0.724559 0.4285,0.01307 1.31945,-0.594704 1.64462,-0.874071 z"
         id="path9" /><path
         style="fill:#4c290e;fill-opacity:1;stroke:none;stroke-width:1.05833;stroke-linecap:round"
         d="m 88.687514,82.963278 c 0.291205,-0.488053 1.091933,-1.273179 1.81905,-1.778217 0.691355,-0.4802 1.461306,-1.036572 2.259931,-0.770564 0.29459,0.09812 0.464673,0.47433 0.506042,0.782063 0.08788,0.653685 -0.26547,1.316576 -0.598048,1.886154 -0.385704,0.660562 -1.216787,1.481514 -2.05207,1.890577 -0.789158,0.386474 -1.942208,-0.0049 -2.149618,-0.303927 -0.503978,-0.726497 -0.0121,-1.325955 0.214713,-1.706086 z"
         id="path10" /></g></g></g></svg>
