<?xml version="1.0" encoding="UTF-8" standalone="no"?>
<!-- Created with Inkscape (http://www.inkscape.org/) -->

<svg
   version="1.1"
   id="svg1"
   width="1672"
   height="1672"
   viewBox="0 0 1672 1672"
   xml:space="preserve"
   xmlns:xlink="http://www.w3.org/1999/xlink"
   xmlns="http://www.w3.org/2000/svg"
   xmlns:svg="http://www.w3.org/2000/svg"><defs
     id="defs1"><linearGradient
       id="linearGradient2"><stop
         style="stop-color:#946ace;stop-opacity:0;"
         offset="0"
         id="stop3" /><stop
         style="stop-color:#946ace;stop-opacity:1;"
         offset="0.92218351"
         id="stop2" /></linearGradient><linearGradient
       xlink:href="#linearGradient2"
       id="linearGradient3"
       x1="1025.5323"
       y1="1130.6053"
       x2="1426.9572"
       y2="1130.6053"
       gradientUnits="userSpaceOnUse" /><linearGradient
       xlink:href="#linearGradient2"
       id="linearGradient4"
       gradientUnits="userSpaceOnUse"
       x1="1025.5323"
       y1="1130.6053"
       x2="1426.9572"
       y2="1130.6053" /></defs><g
     id="g1"><path
       style="display:inline;fill:#ecdaf9;fill-opacity:1;stroke:none;stroke-width:26.4567;stroke-linecap:round;stroke-linejoin:round;stroke-opacity:1;paint-order:fill markers stroke"
       d="m 439.64638,192.88114 c 108.3452,-6.97022 198.87064,91.12302 305.601,97.37795 141.42109,8.28798 263.07902,-183.14656 417.23072,-80.8461 58.5473,45.30003 126.6083,103.97973 177.4699,167.49653 48.3423,60.3706 174.9663,96.8348 168.4057,189.5017 -7.4433,105.1348 -90.0062,195.3091 -98.8898,300.332 -9.4403,111.6043 87.7673,226.83218 49.9848,332.26998 -34.8065,97.1327 -132.8069,172.4871 -229.9777,207.1871 -103.2922,36.8859 -215.2206,-30.9262 -328.6734,-15.5695 -103.3327,13.9869 -201.0533,95.6851 -305.3191,94.3007 -117.0599,-1.5542 -246.4527,-38.418 -324.5297,-134.2731 C 233.386,1304.5427 243.5611,1223.8917 218.3979,1157.5758 186.4535,1073.3883 81.808,996.64822 78.5466,898.59202 c -4.2531,-127.8742 99.0316,-236.3746 159.5341,-349.1103 36.6341,-68.2613 1.48313,-163.61637 34.6963,-242.24731 33.21313,-78.63087 78.40808,-108.66224 166.86938,-114.35327 z"
       id="path19" /><path
       style="display:inline;fill:#b286e5;fill-opacity:1;stroke-width:26.4567;stroke-linecap:round;stroke-linejoin:round;paint-order:fill markers stroke"
       d="m 320.63307,1265.0846 6.9925,-95.565 7.6401,95.824 42.3438,-37.0347 -33.2794,45.7107 80.6735,7.64 -81.8389,6.4746 34.7038,46.3581 -42.9913,-37.5526 -6.8631,96.342 -7.5105,-95.3061 -42.0849,36.1282 34.1859,-45.0631 -80.6735,-7.5106 80.544,-7.3811 -34.3154,-45.3221 z"
       id="path18" /><path
       style="display:inline;fill:#b286e5;fill-opacity:1;stroke-width:20.2107;stroke-linecap:round;stroke-linejoin:round;paint-order:fill markers stroke"
       d="m 1320.3583,602.17481 5.3418,-73.0037 5.8363,73.2016 32.3472,-28.2914 -25.4227,34.9191 61.6278,5.8364 -62.5181,4.946 26.5108,35.4138 -32.8418,-28.6871 -5.2428,73.5973 -5.7374,-72.806 -32.1494,27.599 26.1152,-34.4245 -61.6278,-5.7375 61.5289,-5.6385 -26.2141,-34.6223 z"
       id="path18-8" /><path
       style="display:inline;fill:#b286e5;fill-opacity:1;stroke-width:29.0257;stroke-linecap:round;stroke-linejoin:round;paint-order:fill markers stroke"
       d="m 441.81353,277.6571 7.67156,-104.84447 8.38185,105.12861 46.45545,-40.6308 -36.51083,50.14926 88.50697,8.38185 -89.78552,7.10325 38.07351,50.85954 -47.16573,-41.19896 -7.52954,105.69691 -8.23983,-104.56047 -46.17131,39.63627 37.50533,-49.43869 -88.50697,-8.23993 88.36495,-8.0978 -37.64753,-49.72293 z"
       id="path18-1" /><path
       id="path4-4"
       style="display:inline;fill:#c2a1e9;fill-opacity:1;stroke:#c2a1e9;stroke-width:10;stroke-linecap:round;stroke-linejoin:round;stroke-dasharray:none;stroke-opacity:1;paint-order:fill markers stroke"
       d="m 1114.9165,360.67988 c -2.0052,0.0265 -4.0065,0.18438 -5.9911,0.47277 l -685.42449,99.58062 c -25.18793,3.65923 -42.69867,26.96441 -39.20298,52.17555 l 106.02819,764.45408 c 3.49658,25.2031 26.69505,42.848 51.91675,39.4882 l 494.64663,-65.6116 -0.9102,-13.201 c -21.5793,-4.796 -48.81853,-10.0116 -68.07762,-13.5165 l -2.52216,-24.1672 179.40398,-19.137 27.0413,52.0207 60.0873,-8.257 c 25.1153,-3.3458 42.6838,-26.5288 39.1133,-51.6131 L 1160.9298,400.07849 c -3.2514,-22.83329 -22.9517,-39.70149 -46.0133,-39.39861 z"
       transform="matrix(0.9584531,0,0,0.9584531,-10.540528,99.371657)" /><path
       style="display:inline;fill:#f8f1fc;fill-opacity:1;stroke:#f7f1fd;stroke-width:10;stroke-linecap:round;stroke-linejoin:round;stroke-dasharray:none;stroke-opacity:1;paint-order:fill markers stroke"
       d="m 423.50089,460.7323 685.42391,-99.58045 a 45.869035,45.869035 36.81541 0 1 52.0059,38.92717 l 110.0953,773.28858 a 45.588131,45.588131 127.15474 0 1 -39.1134,51.6147 l -689.6688,91.8696 A 46.248646,46.248646 37.257966 0 1 490.32693,1277.362 L 384.29844,512.90971 a 46.297857,46.297857 126.91863 0 1 39.20245,-52.17741 z"
       id="path4" /><g
       id="g4"
       style="display:inline"><g
         id="g3"><path
           style="fill:none;stroke:url(#linearGradient3);stroke-width:58.1;stroke-linecap:round;stroke-linejoin:round;stroke-dasharray:none;stroke-opacity:1;paint-order:fill markers stroke"
           d="m 1054.5824,1124.508 c 15.3664,-25.3804 31.5529,-52.1155 56.3141,-70.9111 24.7612,-18.7956 63.6817,-33.891 100.7165,-35.8765 37.0347,-1.9855 74.155,8.3736 102.9027,26.6755 28.7477,18.3018 49.1208,44.545 62.2427,68.8032 13.1219,24.2582 18.9922,46.5307 20.6271,67.9565 1.635,21.4258 -0.9653,42.0048 -3.5657,62.5838"
           id="path1"
           transform="translate(5.6976456,-5.1796778)" /><path
           style="fill:#946ace;fill-opacity:1;stroke:#946ace;stroke-width:10;stroke-linecap:round;stroke-linejoin:round;stroke-dasharray:none;stroke-opacity:1;paint-order:fill markers stroke"
           d="m 1331.4362,1194.9517 142.1821,26.1573 -88.8314,77.9542 -55.4226,-104.6295 z"
           id="path2" /></g><g
         id="g3-5"
         transform="rotate(180,1212.9436,1241.3217)"><path
           style="fill:none;stroke:url(#linearGradient4);stroke-width:58.1;stroke-linecap:round;stroke-linejoin:round;stroke-dasharray:none;stroke-opacity:1;paint-order:fill markers stroke"
           d="m 1054.5824,1124.508 c 15.3664,-25.3804 31.5529,-52.1155 56.3141,-70.9111 24.7612,-18.7956 63.6817,-33.891 100.7165,-35.8765 37.0347,-1.9855 74.155,8.3736 102.9027,26.6755 28.7477,18.3018 49.1208,44.545 62.2427,68.8032 13.1219,24.2582 18.9922,46.5307 20.6271,67.9565 1.635,21.4258 -0.9653,42.0048 -3.5657,62.5838"
           id="path1-5"
           transform="translate(5.6976456,-5.1796778)" /><path
           style="fill:#946ace;fill-opacity:1;stroke:#946ace;stroke-width:10;stroke-linecap:round;stroke-linejoin:round;stroke-dasharray:none;stroke-opacity:1;paint-order:fill markers stroke"
           d="m 1331.4362,1194.9517 142.1821,26.1573 -88.8314,77.9542 -55.4226,-104.6295 z"
           id="path2-1" /></g></g><path
       style="fill:none;fill-opacity:1;stroke:#d4bcf5;stroke-width:7;stroke-linecap:round;stroke-linejoin:round;stroke-dasharray:none;stroke-opacity:1;paint-order:fill markers stroke"
       d="M 466.61337,638.02236 1125.1462,540.59759"
       id="path5" /><path
       style="fill:none;fill-opacity:1;stroke:#d4bcf5;stroke-width:7;stroke-linecap:round;stroke-linejoin:round;stroke-dasharray:none;stroke-opacity:1;paint-order:fill markers stroke"
       d="m 668.05556,515.69201 92.29715,681.97339"
       id="path6" /><path
       style="fill:none;fill-opacity:1;stroke:#d4bcf5;stroke-width:7;stroke-linecap:round;stroke-linejoin:round;stroke-dasharray:none;stroke-opacity:1;paint-order:fill markers stroke"
       d="m 886.76084,482.74597 89.86741,685.27143"
       id="path7" /><path
       style="fill:none;fill-opacity:1;stroke:#b286e5;stroke-width:22.2;stroke-linecap:round;stroke-linejoin:round;stroke-dasharray:none;stroke-opacity:1;paint-order:fill markers stroke"
       d="M 494.81527,717.86673 647.91133,695.1587"
       id="path8" /><path
       style="fill:none;fill-opacity:1;stroke:#b286e5;stroke-width:22.2;stroke-linecap:round;stroke-linejoin:round;stroke-dasharray:none;stroke-opacity:1;paint-order:fill markers stroke"
       d="M 511.31851,828.12967 664.41457,805.42164"
       id="path8-6" /><path
       style="fill:none;fill-opacity:1;stroke:#b286e5;stroke-width:22.2;stroke-linecap:round;stroke-linejoin:round;stroke-dasharray:none;stroke-opacity:1;paint-order:fill markers stroke"
       d="M 526.28531,939.75552 679.38137,917.04749"
       id="path8-1" /><path
       style="fill:none;fill-opacity:1;stroke:#b286e5;stroke-width:22.2;stroke-linecap:round;stroke-linejoin:round;stroke-dasharray:none;stroke-opacity:1;paint-order:fill markers stroke"
       d="m 538.93565,1050.0964 153.09606,-22.708"
       id="path8-9" /><path
       style="fill:none;fill-opacity:1;stroke:#b286e5;stroke-width:22.2;stroke-linecap:round;stroke-linejoin:round;stroke-dasharray:none;stroke-opacity:1;paint-order:fill markers stroke"
       d="m 552.9234,1160.2782 153.09606,-22.708"
       id="path8-2" /><path
       style="fill:none;fill-opacity:1;stroke:#ceb5f1;stroke-width:15;stroke-linecap:round;stroke-linejoin:round;stroke-dasharray:none;stroke-opacity:1;paint-order:fill markers stroke"
       d="M 744.38491,686.14108 C 845.58668,672.55137 811.29849,677.5938 862.32015,670.0257"
       id="path8-13" /><path
       style="fill:none;fill-opacity:1;stroke:#ceb5f1;stroke-width:15;stroke-linecap:round;stroke-linejoin:round;stroke-dasharray:none;stroke-opacity:1;paint-order:fill markers stroke"
       d="m 758.44966,794.13403 c 101.20177,-13.58971 66.91358,-8.54728 117.93524,-16.11538"
       id="path8-13-7" /><path
       style="fill:none;fill-opacity:1;stroke:#ceb5f1;stroke-width:15;stroke-linecap:round;stroke-linejoin:round;stroke-dasharray:none;stroke-opacity:1;paint-order:fill markers stroke"
       d="m 769.02813,905.2761 c 101.20177,-13.58971 66.91358,-8.54728 117.93524,-16.11538"
       id="path8-13-7-9" /><path
       style="fill:none;fill-opacity:1;stroke:#ceb5f1;stroke-width:15;stroke-linecap:round;stroke-linejoin:round;stroke-dasharray:none;stroke-opacity:1;paint-order:fill markers stroke"
       d="m 787.74064,1015.1324 c 101.20177,-13.5898 66.91358,-8.5473 117.93524,-16.11542"
       id="path8-13-7-2" /><path
       style="fill:none;fill-opacity:1;stroke:#ceb5f1;stroke-width:15;stroke-linecap:round;stroke-linejoin:round;stroke-dasharray:none;stroke-opacity:1;paint-order:fill markers stroke"
       d="m 975.45911,654.02802 c 101.20179,-13.58971 66.91359,-8.54728 117.93519,-16.11538"
       id="path8-13-9" /><path
       style="fill:none;fill-opacity:1;stroke:#ceb5f1;stroke-width:15;stroke-linecap:round;stroke-linejoin:round;stroke-dasharray:none;stroke-opacity:1;paint-order:fill markers stroke"
       d="m 989.52386,762.02097 c 101.20174,-13.58971 66.91354,-8.54728 117.93524,-16.11538"
       id="path8-13-7-0" /><path
       style="fill:none;fill-opacity:1;stroke:#ceb5f1;stroke-width:15;stroke-linecap:round;stroke-linejoin:round;stroke-dasharray:none;stroke-opacity:1;paint-order:fill markers stroke"
       d="m 1000.1023,873.16304 c 101.2018,-13.58971 66.9136,-8.54728 117.9353,-16.11538"
       id="path8-13-7-9-0" /><path
       style="fill:none;fill-opacity:1;stroke:#ceb5f1;stroke-width:15;stroke-linecap:round;stroke-linejoin:round;stroke-dasharray:none;stroke-opacity:1;paint-order:fill markers stroke"
       d="m 1018.8148,983.01934 c 101.2018,-13.5898 66.9136,-8.5473 117.9353,-16.1154"
       id="path8-13-7-2-6" /><path
       style="fill:none;fill-opacity:1;stroke:#ceb5f1;stroke-width:15;stroke-linecap:round;stroke-linejoin:round;stroke-dasharray:none;stroke-opacity:1;paint-order:fill markers stroke"
       d="m 802.6031,1125.0246 c 101.20177,-13.5897 66.91358,-8.5473 117.93524,-16.1154"
       id="path8-13-7-4" /></g></svg>
