<svg width="3835" height="1541" xmlns="http://www.w3.org/2000/svg" xmlns:xlink="http://www.w3.org/1999/xlink" xml:space="preserve" overflow="hidden"><g transform="translate(-224 -112)"><text font-family="Mileast,Mileast_MSFontService,sans-serif" font-weight="400" font-size="733" transform="matrix(1 0 0 1 732.474 1018)">En</text><text fill="#000000" fill-opacity="0" font-family="Mileast,Mileast_MSFontService,sans-serif" font-weight="400" font-size="733" transform="matrix(1 0 0 1 1535.13 1018)">g</text><text font-family="Mileast,Mileast_MSFontService,sans-serif" font-weight="400" font-size="733" transform="matrix(1 0 0 1 1944.77 1018)">a</text><text fill="#000000" fill-opacity="0" font-family="Mileast,Mileast_MSFontService,sans-serif" font-weight="400" font-size="733" transform="matrix(1 0 0 1 2326.9 1018)">g</text><text font-family="Mileast,Mileast_MSFontService,sans-serif" font-weight="400" font-size="733" transform="matrix(1 0 0 1 2736.54 1018)">Ed</text><path d="M1738.38 628.254C1700.75 628.254 1670.24 689.151 1670.24 764.27 1670.24 839.39 1700.75 900.287 1738.38 900.287 1776.01 900.287 1806.52 839.39 1806.52 764.27 1806.52 689.151 1776.01 628.254 1738.38 628.254ZM1878.92 523C1893.06 523.208 1904.85 527.525 1914.29 535.952 1923.73 544.378 1928.63 555.662 1929 569.805 1928.7 583.616 1924.45 595.098 1916.25 604.251 1908.06 613.404 1897.71 620.254 1885.23 624.802 1872.74 629.35 1859.9 631.621 1846.72 631.617 1844.77 631.609 1842.86 631.535 1841 631.394 1839.14 631.252 1837.23 631.088 1835.28 630.902 1855.14 645.648 1870.06 664.302 1880.04 686.863 1890.02 709.425 1895.01 734.242 1895.02 761.314 1895.01 790.61 1889.1 817.213 1877.28 841.123 1865.45 865.033 1847.75 884.119 1824.16 898.382 1818.26 901.948 1812 905.079 1805.37 907.776L1803.04 908.529 1798.99 910.775C1780.36 918.821 1759.88 923.27 1738.38 923.27L1709.62 920.309 1699.7 920.309C1694.97 920.302 1689.94 920.317 1684.59 920.354 1679.23 920.392 1672.94 920.496 1665.72 920.667 1655.64 920.905 1646.14 922.215 1637.22 924.597 1628.29 926.979 1621.02 930.433 1615.4 934.959 1609.77 939.484 1606.87 945.082 1606.69 951.751 1606.71 957.23 1609.36 961.726 1614.65 965.239 1619.94 968.753 1627.78 970.569 1638.17 970.688 1649.17 970.445 1660.48 968.747 1672.1 965.593 1683.72 962.439 1696.91 959.285 1711.68 956.132 1726.44 952.978 1744.03 951.28 1764.45 951.037 1800.03 951.383 1830.02 957.797 1854.39 970.278 1878.77 982.759 1897.23 999.229 1909.76 1019.69 1922.3 1040.15 1928.59 1062.52 1928.64 1086.81 1928.7 1107.15 1924.18 1126.17 1915.08 1143.87 1905.98 1161.57 1891.97 1175.93 1873.05 1186.96 1854.13 1197.98 1829.97 1203.66 1800.58 1204 1777.06 1203.43 1754.1 1199.45 1731.7 1192.05 1709.29 1184.65 1687.6 1177.26 1666.63 1169.86 1645.66 1162.46 1625.56 1158.48 1606.33 1157.91 1593.15 1157.63 1581.51 1160.78 1571.41 1167.33 1561.31 1173.89 1554.59 1185.52 1551.24 1202.21L1546.59 1202.21C1541.96 1193.42 1538.53 1184.56 1536.31 1175.64 1534.09 1166.72 1532.99 1157.95 1533 1149.33 1533.03 1127.13 1540.12 1108.57 1554.28 1093.64 1568.44 1078.72 1589.49 1070.96 1617.42 1070.37 1633.72 1070.76 1649.62 1075.27 1665.11 1083.9 1680.6 1092.53 1695.19 1102.96 1708.89 1115.21 1722.6 1127.45 1734.91 1139.18 1745.85 1150.41 1756.1 1160.39 1767.43 1168.38 1779.83 1174.39 1792.23 1180.4 1804.27 1183.48 1815.96 1183.63 1829.62 1183.75 1840.66 1179.14 1849.09 1169.79 1857.52 1160.44 1861.86 1145.64 1862.11 1125.4 1862.15 1110.92 1856.7 1096.82 1845.74 1083.1 1834.78 1069.38 1818.06 1058.23 1795.57 1049.65 1785.14 1046.14 1773.98 1043.69 1762.08 1042.33 1750.18 1040.96 1737.85 1040.3 1725.1 1040.36 1707.32 1040.49 1691.63 1041.03 1678.01 1041.97 1664.4 1042.91 1651.12 1043.44 1638.17 1043.58 1619.11 1043.37 1603.3 1040.01 1590.75 1033.49 1578.21 1026.97 1568.84 1018.53 1562.65 1008.16 1556.46 997.796 1553.38 986.733 1553.39 974.975 1553.43 962.567 1556.84 950.761 1563.63 939.559 1570.42 928.356 1580.36 919.32 1593.46 912.449 1602.09 908.005 1611.03 904.656 1620.28 902.4 1629.54 900.145 1638.84 898.85 1648.19 898.515 1624.22 884.067 1606.24 864.818 1594.26 840.767 1582.28 816.717 1576.28 789.875 1576.28 760.242 1576.29 730.955 1582.24 704.414 1594.12 680.619 1606 656.824 1623.76 637.852 1647.41 623.703 1671.05 609.555 1700.53 602.308 1735.83 601.962 1760.09 601.962 1781.68 605.534 1800.58 612.68 1802.71 613.037 1804.71 613.305 1806.57 613.484 1808.43 613.663 1810.25 613.752 1812.02 613.752 1825.82 613.313 1836.24 609.1 1843.28 601.113 1850.32 593.126 1853.86 584 1853.88 573.735 1853.89 567.587 1852.61 561.84 1850.03 556.496 1847.45 551.151 1843.49 546.655 1838.14 543.008L1838.5 537.291C1845.14 532.476 1851.88 528.888 1858.71 526.528 1865.53 524.168 1872.27 522.992 1878.92 523Z" fill="#002A7E" fill-rule="evenodd"/><path d="M1707 764C1707 746.327 1721.1 732 1738.5 732 1755.9 732 1770 746.327 1770 764 1770 781.673 1755.9 796 1738.5 796 1721.1 796 1707 781.673 1707 764Z" fill="#CD1025" fill-rule="evenodd"/><path d="M2530.38 628.254C2492.75 628.254 2462.24 689.151 2462.24 764.27 2462.24 839.39 2492.75 900.287 2530.38 900.287 2568.01 900.287 2598.52 839.39 2598.52 764.27 2598.52 689.151 2568.01 628.254 2530.38 628.254ZM2670.92 523C2685.06 523.208 2696.85 527.525 2706.29 535.952 2715.73 544.378 2720.64 555.662 2721 569.805 2720.7 583.616 2716.45 595.098 2708.25 604.251 2700.06 613.404 2689.72 620.254 2677.23 624.802 2664.74 629.35 2651.9 631.621 2638.72 631.617 2636.77 631.609 2634.86 631.535 2633 631.394 2631.14 631.252 2629.23 631.088 2627.28 630.902 2647.14 645.648 2662.06 664.302 2672.04 686.863 2682.02 709.425 2687.01 734.242 2687.02 761.314 2687.01 790.61 2681.1 817.213 2669.28 841.123 2657.45 865.033 2639.75 884.119 2616.16 898.382 2610.26 901.948 2604 905.079 2597.37 907.776L2595.04 908.529 2590.99 910.775C2572.36 918.821 2551.88 923.27 2530.38 923.27L2501.62 920.309 2491.7 920.309C2486.97 920.302 2481.94 920.317 2476.59 920.354 2471.23 920.392 2464.94 920.496 2457.72 920.667 2447.64 920.905 2438.14 922.215 2429.22 924.597 2420.29 926.979 2413.02 930.433 2407.4 934.959 2401.77 939.484 2398.87 945.082 2398.69 951.751 2398.71 957.23 2401.36 961.726 2406.65 965.239 2411.94 968.753 2419.78 970.569 2430.17 970.688 2441.17 970.445 2452.48 968.747 2464.1 965.593 2475.72 962.439 2488.91 959.285 2503.68 956.132 2518.44 952.978 2536.03 951.28 2556.45 951.037 2592.03 951.383 2622.02 957.797 2646.4 970.278 2670.77 982.759 2689.23 999.229 2701.76 1019.69 2714.3 1040.15 2720.59 1062.52 2720.64 1086.81 2720.7 1107.15 2716.18 1126.17 2707.08 1143.87 2697.98 1161.57 2683.97 1175.93 2665.05 1186.96 2646.13 1197.98 2621.98 1203.66 2592.58 1204 2569.06 1203.43 2546.1 1199.45 2523.7 1192.05 2501.29 1184.65 2479.6 1177.26 2458.63 1169.86 2437.66 1162.46 2417.56 1158.48 2398.33 1157.91 2385.15 1157.63 2373.51 1160.78 2363.41 1167.33 2353.31 1173.89 2346.59 1185.52 2343.24 1202.21L2338.59 1202.21C2333.96 1193.42 2330.53 1184.56 2328.31 1175.64 2326.09 1166.72 2324.99 1157.95 2325 1149.33 2325.03 1127.13 2332.12 1108.57 2346.28 1093.64 2360.44 1078.72 2381.49 1070.96 2409.42 1070.37 2425.72 1070.76 2441.62 1075.27 2457.11 1083.9 2472.6 1092.53 2487.19 1102.96 2500.89 1115.21 2514.6 1127.45 2526.91 1139.18 2537.85 1150.41 2548.1 1160.39 2559.43 1168.38 2571.83 1174.39 2584.23 1180.4 2596.27 1183.48 2607.96 1183.63 2621.62 1183.75 2632.67 1179.14 2641.09 1169.79 2649.52 1160.44 2653.86 1145.64 2654.11 1125.4 2654.15 1110.92 2648.7 1096.82 2637.74 1083.1 2626.78 1069.38 2610.06 1058.23 2587.57 1049.65 2577.14 1046.14 2565.98 1043.69 2554.08 1042.33 2542.18 1040.96 2529.85 1040.3 2517.1 1040.36 2499.32 1040.49 2483.63 1041.03 2470.01 1041.97 2456.4 1042.91 2443.12 1043.44 2430.17 1043.58 2411.11 1043.37 2395.3 1040.01 2382.75 1033.49 2370.21 1026.97 2360.84 1018.53 2354.65 1008.16 2348.46 997.796 2345.38 986.733 2345.39 974.975 2345.43 962.567 2348.84 950.761 2355.63 939.559 2362.42 928.356 2372.36 919.32 2385.46 912.449 2394.09 908.005 2403.03 904.656 2412.28 902.4 2421.54 900.145 2430.84 898.85 2440.19 898.515 2416.22 884.067 2398.24 864.818 2386.26 840.767 2374.28 816.717 2368.28 789.875 2368.28 760.242 2368.29 730.955 2374.24 704.414 2386.12 680.619 2398 656.824 2415.76 637.852 2439.41 623.703 2463.05 609.555 2492.53 602.308 2527.83 601.962 2552.1 601.962 2573.68 605.534 2592.58 612.68 2594.71 613.037 2596.71 613.305 2598.57 613.484 2600.43 613.663 2602.25 613.752 2604.02 613.752 2617.82 613.313 2628.24 609.1 2635.28 601.113 2642.32 593.126 2645.86 584 2645.88 573.735 2645.89 567.587 2644.61 561.84 2642.03 556.496 2639.45 551.151 2635.49 546.655 2630.14 543.008L2630.5 537.291C2637.14 532.476 2643.88 528.888 2650.71 526.528 2657.53 524.168 2664.27 522.992 2670.92 523Z" fill="#002A7E" fill-rule="evenodd"/><path d="M2499 764C2499 746.327 2513.1 732 2530.5 732 2547.9 732 2562 746.327 2562 764 2562 781.673 2547.9 796 2530.5 796 2513.1 796 2499 781.673 2499 764Z" fill="#CD1025" fill-rule="evenodd"/></g></svg>