<?xml version="1.0" encoding="UTF-8" standalone="no"?>
<!-- Created with Inkscape (http://www.inkscape.org/) -->

<svg
   version="1.1"
   id="svg1"
   width="809.56464"
   height="210.9472"
   viewBox="0 0 809.56467 210.9472"
   xmlns="http://www.w3.org/2000/svg"
   xmlns:svg="http://www.w3.org/2000/svg">
  <defs
     id="defs1" />
  <g
     id="g1"
     transform="translate(-168.77575,-121.1285)">
    <g
       id="g5"
       transform="translate(15.757576,14.49697)">
      <path
         style="fill:#cc1025"
         d="m 923.69307,250.9091 c 0.006,-0.48 0.0711,-0.64115 0.14488,-0.3581 0.0738,0.28304 0.0689,0.67577 -0.0108,0.87273 -0.0797,0.19695 -0.14003,-0.0346 -0.1341,-0.51463 z m -357.49681,-30.4 c 0,-0.88 0.0545,-1.24 0.12119,-0.8 0.0666,0.44 0.0666,1.16 0,1.6 -0.0666,0.44 -0.12119,0.08 -0.12119,-0.8 z M 437.93347,198.56926 c -2.86129,-0.89555 -5.21507,-3.40918 -6.12573,-6.54174 -1.53662,-5.28577 2.47207,-11.08091 8.01255,-11.58331 4.68527,-0.42484 9.07986,3.15111 9.8036,7.97735 0.97017,6.46961 -5.49939,12.08541 -11.69042,10.1477 z m 230.28471,-0.0383 c -2.18684,-0.68542 -4.08152,-2.35769 -5.23637,-4.6217 -0.9002,-1.76479 -1.01796,-2.25231 -1.01627,-4.20724 0.008,-9.71122 12.62526,-12.87421 17.01627,-4.26589 0.90272,1.76972 1.01818,2.25016 1.01818,4.23656 0,1.9864 -0.11546,2.46684 -1.01818,4.23657 -2.08038,4.07846 -6.47559,5.96568 -10.76363,4.6217 z M 514.56363,144.67401 c 0.21,-0.084 0.46091,-0.0737 0.55758,0.023 0.0967,0.0967 -0.0752,0.16543 -0.38182,0.1528 -0.33889,-0.014 -0.40783,-0.0829 -0.17576,-0.17576 z"
         id="path7" />
      <path
         style="fill:#00297d"
         d="m 455.12727,317.49959 c -7.98984,-0.80628 -11.97796,-1.82445 -26.61818,-6.79565 -13.0222,-4.42178 -15.92568,-5.25788 -20.69188,-5.95851 -6.01427,-0.8841 -10.35195,-0.48436 -14.087,1.29822 -3.607,1.72146 -5.7474,4.41073 -7.11393,8.93818 -0.54672,1.81136 -0.72976,2.10909 -1.29658,2.10909 -0.53694,0 -0.83102,-0.38252 -1.57739,-2.05174 -5.13217,-11.47786 -3.38764,-23.26028 4.5163,-30.5028 3.76837,-3.45303 8.60461,-5.19684 15.18417,-5.47496 5.86356,-0.24786 10.09745,0.7435 15.46631,3.62144 6.51483,3.49223 11.51099,7.49633 22.26657,17.84521 2.56662,2.46957 5.59179,5.10786 6.72261,5.86286 12.9401,8.63969 24.79236,6.69503 27.8698,-4.57274 0.73876,-2.7049 0.90758,-8.28755 0.32524,-10.7556 -2.46814,-10.46045 -13.4451,-18.46844 -27.90725,-20.3591 -5.02721,-0.65721 -12.48607,-0.83236 -19.38606,-0.45522 -11.64546,0.63652 -20.48254,0.70769 -23.46172,0.18895 -9.15555,-1.59416 -16.05511,-7.20989 -17.96805,-14.62466 -0.58921,-2.28384 -0.60032,-6.99548 -0.0219,-9.2787 0.61398,-2.42352 2.46884,-6.07172 4.12506,-8.11332 4.21502,-5.19577 12.68087,-8.91865 21.70316,-9.54402 l 1.10384,-0.0765 -2.70384,-1.89091 c -12.48373,-8.73041 -19.26516,-24.54353 -17.9858,-41.93974 0.9043,-12.29627 4.81385,-21.79331 12.05133,-29.27497 8.69517,-8.98851 19.21949,-12.982 34.21245,-12.982 6.6983,0 10.26648,0.44825 15.22997,1.91324 4.63146,1.36699 6.07473,1.56164 8.72013,1.17607 5.06694,-0.73851 8.5883,-3.64426 9.91514,-8.18177 1.19376,-4.08241 -0.20882,-9.13605 -3.22581,-11.62291 -0.8319,-0.68573 -0.96627,-0.95201 -0.80486,-1.59512 0.50003,-1.99225 7.32523,-4.82816 11.61998,-4.82816 3.89341,0 8.17945,1.70251 10.81444,4.29573 5.1133,5.03225 5.02794,13.76209 -0.19171,19.60787 -4.19248,4.6954 -11.45413,7.48994 -19.49546,7.50254 l -3.63636,0.006 1.45454,1.21287 c 9.01325,7.51571 14.22252,17.91174 15.54979,31.03238 1.70843,16.88853 -4.23845,33.04302 -15.49387,42.08857 -3.06558,2.46369 -6.3814,4.4679 -10.14555,6.13238 -8.91899,3.9439 -15.3894,5.04054 -24.00689,4.06881 -4.62283,-0.52128 -12.8795,-0.60034 -18.34092,-0.17561 -9.67354,0.75229 -15.48983,4.0694 -15.48983,8.83405 0,1.68706 0.55686,2.82317 1.87749,3.83046 3.04831,2.32507 8.90884,2.36923 17.69739,0.13337 12.4569,-3.16911 17.02256,-3.86049 25.66148,-3.8859 10.59756,-0.0312 18.15305,1.45981 25.7373,5.07894 15.31404,7.30772 23.49418,20.88695 22.37659,37.14571 -0.55892,8.13133 -3.89127,15.69504 -9.26692,21.03396 -4.98938,4.95528 -11.08204,7.99888 -18.62879,9.30604 -3.19297,0.55305 -10.182,0.9275 -12.65454,0.67798 z m -9.7171,-89.48552 c 11.22431,-5.55028 17.64045,-28.96681 13.92037,-50.80419 -2.95973,-17.37399 -11.42685,-28.53807 -20.38107,-26.87286 -3.7551,0.69833 -7.19236,3.22524 -10.07502,7.40664 -6.02979,8.74645 -9.14778,23.78842 -7.91493,38.18362 1.4152,16.52452 7.49754,29.20993 15.64579,32.63104 1.37995,0.57938 2.05562,0.67939 4.1382,0.61252 2.19698,-0.0705 2.74443,-0.20625 4.66666,-1.15677 z m 240.1171,89.48552 c -7.98985,-0.80628 -11.97796,-1.82445 -26.61819,-6.79565 -13.02219,-4.42178 -15.92567,-5.25788 -20.69188,-5.95851 -6.01427,-0.8841 -10.35195,-0.48436 -14.08699,1.29822 -3.607,1.72146 -5.74741,4.41073 -7.11393,8.93818 -0.54673,1.81136 -0.72976,2.10909 -1.29658,2.10909 -0.53694,0 -0.83103,-0.38252 -1.57739,-2.05174 -5.13217,-11.47786 -3.38764,-23.26028 4.5163,-30.5028 3.76837,-3.45303 8.60461,-5.19684 15.18417,-5.47496 5.86356,-0.24786 10.09745,0.7435 15.4663,3.62144 6.51484,3.49223 11.511,7.49633 22.26658,17.84521 2.56662,2.46957 5.59179,5.10786 6.72261,5.86286 12.9401,8.63969 24.79236,6.69503 27.8698,-4.57274 0.73876,-2.7049 0.90757,-8.28755 0.32524,-10.7556 -2.46814,-10.46045 -13.4451,-18.46844 -27.90725,-20.3591 -5.02721,-0.65721 -12.48608,-0.83236 -19.38607,-0.45522 -11.64545,0.63652 -20.48253,0.70769 -23.46172,0.18895 -9.15554,-1.59416 -16.0551,-7.20989 -17.96804,-14.62466 -0.58921,-2.28384 -0.60033,-6.99548 -0.0219,-9.2787 0.61398,-2.42352 2.46884,-6.07172 4.12506,-8.11332 4.21502,-5.19577 12.68087,-8.91865 21.70316,-9.54402 l 1.10383,-0.0765 -2.70383,-1.89091 c -12.48373,-8.73041 -19.26517,-24.54353 -17.9858,-41.93974 0.9043,-12.29627 4.81385,-21.79331 12.05133,-29.27497 8.69517,-8.98851 19.21949,-12.982 34.21245,-12.982 6.6983,0 10.26648,0.44825 15.22997,1.91324 4.63146,1.36699 6.07473,1.56164 8.72013,1.17607 5.06694,-0.73851 8.58829,-3.64426 9.91513,-8.18177 1.19376,-4.08241 -0.20882,-9.13605 -3.2258,-11.62291 -0.83191,-0.68573 -0.96627,-0.95201 -0.80486,-1.59512 0.50003,-1.99225 7.32522,-4.82816 11.61997,-4.82816 3.89342,0 8.17946,1.70251 10.81445,4.29573 5.11329,5.03225 5.02794,13.76209 -0.19171,19.60787 -4.19248,4.6954 -11.45413,7.48994 -19.49546,7.50254 l -3.63637,0.006 1.45455,1.21287 c 9.01325,7.51571 14.22252,17.91174 15.54979,31.03238 1.70843,16.88853 -4.23845,33.04302 -15.49387,42.08857 -3.06558,2.46369 -6.3814,4.4679 -10.14555,6.13238 -8.919,3.9439 -15.3894,5.04054 -24.0069,4.06881 -4.62282,-0.52128 -12.87949,-0.60034 -18.34091,-0.17561 -9.67354,0.75229 -15.48983,4.0694 -15.48983,8.83405 0,1.68706 0.55686,2.82317 1.87748,3.83046 3.04832,2.32507 8.90885,2.36923 17.6974,0.13337 12.4569,-3.16911 17.02256,-3.86049 25.66148,-3.8859 10.59756,-0.0312 18.15304,1.45981 25.73729,5.07894 15.31405,7.30772 23.49419,20.88695 22.3766,37.14571 -0.55893,8.13133 -3.89127,15.69504 -9.26692,21.03396 -4.98939,4.95528 -11.08205,7.99888 -18.62879,9.30604 -3.19297,0.55305 -10.182,0.9275 -12.65454,0.67798 z m -9.7171,-89.48552 c 11.22431,-5.55028 17.64045,-28.96681 13.92037,-50.80419 -2.95973,-17.37399 -11.42685,-28.53807 -20.38108,-26.87286 -3.75509,0.69833 -7.19236,3.22524 -10.07501,7.40664 -6.02979,8.74645 -9.14778,23.78842 -7.91494,38.18362 1.41521,16.52452 7.49755,29.20993 15.6458,32.63104 1.37995,0.57938 2.05562,0.67939 4.13819,0.61252 2.19699,-0.0705 2.74443,-0.20625 4.66667,-1.15677 z m -137.99199,36.81146 c 0.2,-0.0807 0.52727,-0.0807 0.72727,0 0.2,0.0807 0.0364,0.14673 -0.36364,0.14673 -0.4,0 -0.56363,-0.066 -0.36363,-0.14673 z m 8.74545,-0.006 c 0.21,-0.084 0.46091,-0.0737 0.55758,0.023 0.0967,0.0967 -0.0752,0.16543 -0.38182,0.15279 -0.33889,-0.014 -0.40783,-0.0829 -0.17576,-0.17575 z m 341.50909,0.006 c 0.2,-0.0807 0.52727,-0.0807 0.72727,0 0.2,0.0807 0.0364,0.14673 -0.36364,0.14673 -0.4,0 -0.56363,-0.066 -0.36363,-0.14673 z m 7.29091,-0.006 c 0.21,-0.084 0.46091,-0.0737 0.55757,0.023 0.0967,0.0967 -0.0752,0.16543 -0.38181,0.15279 -0.3389,-0.014 -0.40783,-0.0829 -0.17576,-0.17575 z M 548.8909,264.52856 c 0.21,-0.084 0.46091,-0.0737 0.55758,0.023 0.0967,0.0967 -0.0752,0.16543 -0.38182,0.1528 -0.33889,-0.014 -0.40782,-0.0829 -0.17576,-0.17576 z m -15.41818,-0.29091 c 0.21,-0.084 0.46091,-0.0737 0.55758,0.023 0.0967,0.0967 -0.0752,0.16543 -0.38182,0.1528 -0.33889,-0.014 -0.40783,-0.0829 -0.17576,-0.17576 z m -380.38705,-1.83764 c 0,-0.56 0.0599,-0.78909 0.13304,-0.50909 0.0732,0.28 0.0732,0.73818 0,1.01818 -0.0732,0.28 -0.13304,0.0509 -0.13304,-0.50909 z m 582.98181,0 c 0,-0.56 0.0599,-0.78909 0.13304,-0.50909 0.0732,0.28 0.0732,0.73818 0,1.01818 -0.0732,0.28 -0.13304,0.0509 -0.13304,-0.50909 z m 226.28275,0.41212 c 0.014,-0.33889 0.0829,-0.40783 0.17576,-0.17576 0.084,0.21 0.0737,0.46091 -0.023,0.55758 -0.0967,0.0967 -0.16542,-0.0751 -0.15279,-0.38182 z m -623.4568,-2.66667 -1.00252,-1.09091 1.0909,1.00253 c 0.6,0.55138 1.09091,1.04229 1.09091,1.0909 0,0.22215 -0.24617,0.0129 -1.17929,-1.00252 z m 587.92726,0 -1.00252,-1.09091 1.09091,1.00253 c 0.6,0.55138 1.09091,1.04229 1.09091,1.0909 0,0.22215 -0.24617,0.0129 -1.1793,-1.00252 z m 33.29712,0.43637 -0.55418,-0.65455 0.65454,0.55418 c 0.61511,0.52079 0.78698,0.75491 0.55418,0.75491 -0.0552,0 -0.34975,-0.29454 -0.65454,-0.65454 z m -647.85454,-0.29091 -0.55418,-0.65455 0.65454,0.55418 c 0.61511,0.52079 0.78698,0.75491 0.55418,0.75491 -0.0552,0 -0.34975,-0.29454 -0.65454,-0.65454 z m 61.22689,0.14545 c -0.36185,-0.4614 -0.35156,-0.47169 0.10984,-0.10983 0.28,0.21959 0.50909,0.44868 0.50909,0.50909 0,0.23943 -0.23889,0.0853 -0.61893,-0.39926 z m 535.60074,-1.05529 c 0,-0.0604 0.22909,-0.2895 0.50909,-0.50909 0.4614,-0.36185 0.47169,-0.35156 0.10984,0.10984 -0.38004,0.48458 -0.61893,0.63868 -0.61893,0.39925 z M 198.32727,257.5528 c 0.2,-0.0807 0.52727,-0.0807 0.72727,0 0.2,0.0807 0.0364,0.14673 -0.36363,0.14673 -0.4,0 -0.56364,-0.066 -0.36364,-0.14673 z m 582.98181,0 c 0.2,-0.0807 0.52728,-0.0807 0.72728,0 0.2,0.0807 0.0364,0.14673 -0.36364,0.14673 -0.4,0 -0.56364,-0.066 -0.36364,-0.14673 z m -580.05454,-0.29697 c 0.21,-0.084 0.46091,-0.0737 0.55758,0.023 0.0967,0.0967 -0.0751,0.16542 -0.38182,0.15279 -0.33889,-0.014 -0.40782,-0.0829 -0.17576,-0.17576 z m 361.36364,0.0889 c 0,-0.0604 0.22909,-0.2895 0.50909,-0.50909 0.4614,-0.36185 0.47168,-0.35156 0.10983,0.10983 -0.38003,0.48458 -0.61892,0.63869 -0.61892,0.39926 z m 221.61818,-0.0889 c 0.21,-0.084 0.4609,-0.0737 0.55757,0.023 0.0967,0.0967 -0.0752,0.16542 -0.38182,0.15279 -0.33889,-0.014 -0.40782,-0.0829 -0.17575,-0.17576 z m 52.15023,-0.26188 c 0.014,-0.33889 0.0829,-0.40783 0.17576,-0.17576 0.084,0.21 0.0737,0.46091 -0.023,0.55758 -0.0967,0.0967 -0.16543,-0.0752 -0.1528,-0.38182 z m 75.03158,0.36958 c 0,-0.0501 0.42546,-0.47552 0.94546,-0.94546 l 0.94545,-0.85443 -0.85442,0.94546 c -0.79645,0.8813 -1.03649,1.07917 -1.03649,0.85443 z m -657.72248,-2.69685 c 0.014,-0.3389 0.0829,-0.40783 0.17576,-0.17576 0.084,0.21 0.0737,0.46091 -0.023,0.55757 -0.0967,0.0967 -0.16542,-0.0751 -0.15279,-0.38181 z m 642.13121,-1.06667 -0.55418,-0.65455 0.65454,0.55418 c 0.36,0.3048 0.65455,0.59934 0.65455,0.65455 0,0.2328 -0.23412,0.0609 -0.75491,-0.55418 z M 335.85036,215.12728 c 10e-6,-21.44 0.0346,-30.16798 0.0769,-19.39551 0.0423,10.77247 0.0423,28.31429 -10e-6,38.98182 -0.0423,10.66753 -0.0769,1.85369 -0.0769,-19.58631 z m 176.40344,37.45455 c -0.36186,-0.4614 -0.35157,-0.47169 0.10983,-0.10984 0.48458,0.38004 0.63869,0.61893 0.39926,0.61893 -0.0604,0 -0.2895,-0.22909 -0.50909,-0.50909 z m 32.74608,-0.43637 -0.85443,-0.94545 0.94545,0.85442 c 0.8813,0.79645 1.07918,1.03649 0.85443,1.03649 -0.0501,0 -0.47552,-0.42546 -0.94545,-0.94546 z m 291.96853,0.48485 c 0.014,-0.33889 0.0829,-0.40782 0.17576,-0.17576 0.084,0.21 0.0737,0.46091 -0.023,0.55758 -0.0967,0.0967 -0.16542,-0.0752 -0.15279,-0.38182 z m 28.44902,-0.0485 c -0.36185,-0.4614 -0.35156,-0.47169 0.10983,-0.10984 0.28,0.21959 0.5091,0.44868 0.5091,0.50909 0,0.23943 -0.2389,0.0853 -0.61893,-0.39925 z m 43.38256,-0.8 c 0.54277,-0.56 1.05232,-1.01819 1.13232,-1.01819 0.08,0 -0.29864,0.45819 -0.84141,1.01819 -0.54277,0.56 -1.05232,1.01818 -1.13232,1.01818 -0.08,0 0.29864,-0.45818 0.84141,-1.01818 z m -538.74066,-0.0243 c 0.014,-0.33889 0.0829,-0.40782 0.17575,-0.17575 0.084,0.21 0.0737,0.46091 -0.023,0.55757 -0.0967,0.0967 -0.16543,-0.0752 -0.15279,-0.38182 z m -211.2,-1.45454 c 0.014,-0.33889 0.0829,-0.40783 0.17576,-0.17576 0.084,0.21 0.0737,0.46091 -0.023,0.55758 -0.0967,0.0967 -0.16542,-0.0751 -0.15279,-0.38182 z m 149.81818,0 c 0.014,-0.33889 0.0829,-0.40783 0.17576,-0.17576 0.084,0.21 0.0737,0.46091 -0.023,0.55758 -0.0967,0.0967 -0.16542,-0.0751 -0.15279,-0.38182 z m 647.56363,0 c 0.014,-0.33889 0.0829,-0.40783 0.17576,-0.17576 0.084,0.21 0.0737,0.46091 -0.023,0.55758 -0.0967,0.0967 -0.16542,-0.0751 -0.15279,-0.38182 z m -586.44976,-0.70303 c 0,-0.4 0.066,-0.56364 0.14673,-0.36364 0.0807,0.2 0.0807,0.52727 0,0.72727 -0.0807,0.2 -0.14673,0.0364 -0.14673,-0.36363 z M 923.5737,243.1714 c -0.0455,-3.85574 0.0134,-7.16119 0.13093,-7.34546 0.11755,-0.18426 0.21573,2.97043 0.21818,7.01043 0.002,4.04 -0.0565,7.34546 -0.13093,7.34546 -0.0745,0 -0.17264,-3.1547 -0.21818,-7.01043 z m -323.38232,5.84679 c 0,-0.4 0.066,-0.56364 0.14673,-0.36364 0.0807,0.2 0.0807,0.52728 0,0.72728 -0.0807,0.2 -0.14673,0.0364 -0.14673,-0.36364 z M 274.3732,248.43637 c 0,-0.4 0.066,-0.56363 0.14673,-0.36363 0.0807,0.2 0.0807,0.52727 0,0.72727 -0.0807,0.2 -0.14673,0.0364 -0.14673,-0.36364 z m -115.22296,-0.1697 c 0.014,-0.33889 0.0829,-0.40782 0.17576,-0.17575 0.084,0.21 0.0737,0.46091 -0.023,0.55757 -0.0967,0.0967 -0.16542,-0.0752 -0.15279,-0.38182 z m 582.98181,0 c 0.014,-0.33889 0.0829,-0.40782 0.17576,-0.17575 0.084,0.21 0.0737,0.46091 -0.023,0.55757 -0.0967,0.0967 -0.16542,-0.0752 -0.15279,-0.38182 z m -433.72248,-0.99393 c 0,-0.4 0.066,-0.56364 0.14673,-0.36364 0.0807,0.2 0.0807,0.52727 0,0.72727 -0.0807,0.2 -0.14673,0.0364 -0.14673,-0.36363 z m 647.56363,0 c 0,-0.4 0.066,-0.56364 0.14673,-0.36364 0.0807,0.2 0.0807,0.52727 0,0.72727 -0.0807,0.2 -0.14673,0.0364 -0.14673,-0.36363 z m -586.46195,-1.01819 c 0.006,-0.48 0.0711,-0.64114 0.14489,-0.3581 0.0738,0.28305 0.0689,0.67578 -0.0108,0.87273 -0.0797,0.19696 -0.14003,-0.0346 -0.13411,-0.51463 z m 468.32989,-0.0242 c 0.014,-0.33889 0.0829,-0.40782 0.17576,-0.17576 0.084,0.21 0.0737,0.46091 -0.023,0.55758 -0.0967,0.0967 -0.16542,-0.0752 -0.15279,-0.38182 z m -237.9034,-1.4303 c 0.002,-0.8 0.0587,-1.09275 0.12555,-0.65055 0.0669,0.4422 0.0651,1.09675 -0.004,1.45455 -0.069,0.3578 -0.12376,-0.004 -0.12158,-0.804 z m -325.22645,-1.01818 c 0,-1.04 0.0528,-1.46546 0.11733,-0.94546 0.0645,0.52 0.0645,1.37091 0,1.89091 -0.0645,0.52 -0.11733,0.0945 -0.11733,-0.94545 z m 467.74541,1.01818 c 0.006,-0.48 0.0711,-0.64115 0.14489,-0.3581 0.0738,0.28304 0.0689,0.67577 -0.0108,0.87273 -0.0797,0.19695 -0.14003,-0.0346 -0.13411,-0.51463 z m -582.99259,-0.14546 c 0,-0.4 0.066,-0.56363 0.14673,-0.36363 0.0807,0.2 0.0807,0.52727 0,0.72727 -0.0807,0.2 -0.14673,0.0364 -0.14673,-0.36364 z m 95.68613,-0.75151 c 0.014,-0.33889 0.0829,-0.40783 0.17575,-0.17576 0.084,0.21 0.0737,0.46091 -0.023,0.55758 -0.0967,0.0967 -0.16542,-0.0752 -0.15279,-0.38182 z m 583.27272,-2.03637 c 0.014,-0.33889 0.0829,-0.40782 0.17576,-0.17575 0.084,0.21 0.0737,0.46091 -0.023,0.55757 -0.0967,0.0967 -0.16542,-0.0752 -0.15279,-0.38182 z m -597.55024,-0.52195 c 0,-0.0604 0.2291,-0.2895 0.5091,-0.50909 0.46139,-0.36185 0.47168,-0.35157 0.10983,0.10983 -0.38003,0.48458 -0.61893,0.63869 -0.61893,0.39926 z m 582.98182,0 c 0,-0.0604 0.22909,-0.2895 0.50909,-0.50909 0.4614,-0.36185 0.47169,-0.35157 0.10983,0.10983 -0.38003,0.48458 -0.61892,0.63869 -0.61892,0.39926 z M 955.77543,215.7091 c 2e-5,-13.76 0.0356,-19.34654 0.079,-12.41453 0.0435,6.93202 0.0434,18.1902 -3e-5,25.01819 -0.0435,6.82798 -0.079,1.15634 -0.079,-12.60366 z m -713.15725,24.19988 c 0,-0.0501 0.42545,-0.47552 0.94545,-0.94545 l 0.94546,-0.85443 -0.85443,0.94545 c -0.79644,0.8813 -1.03648,1.07917 -1.03648,0.85443 z m 583.56363,-0.63624 c 0.37578,-0.4 0.74869,-0.72728 0.82869,-0.72728 0.08,0 -0.162,0.32728 -0.53778,0.72728 -0.37578,0.4 -0.74869,0.72727 -0.82869,0.72727 -0.08,0 0.162,-0.32727 0.53778,-0.72727 z m -83.34862,-51.92728 c 0,-28.56 0.0341,-40.24364 0.0759,-25.96364 0.0417,14.28 0.0417,37.64728 0,51.92728 -0.0417,14.28 -0.0759,2.59636 -0.0759,-25.96364 z m -202.88296,50.7394 c 0.014,-0.3389 0.0829,-0.40783 0.17576,-0.17576 0.084,0.21 0.0737,0.46091 -0.023,0.55757 -0.0967,0.0967 -0.16542,-0.0751 -0.15279,-0.38181 z m -380.0989,-50.88485 c 1e-5,-28.16 0.0342,-39.63691 0.0759,-25.50424 0.0418,14.13267 0.0417,37.17267 -1e-5,51.2 -0.0418,14.02733 -0.0759,2.46424 -0.0759,-25.69576 z m 346.08551,49.89091 c 0,-0.4 0.066,-0.56364 0.14673,-0.36364 0.0807,0.2 0.0807,0.52727 0,0.72727 -0.0807,0.2 -0.14673,0.0364 -0.14673,-0.36363 z m 59.61339,-1.62425 c 0.014,-0.33889 0.0829,-0.40782 0.17576,-0.17575 0.084,0.21 0.0737,0.46091 -0.023,0.55757 -0.0967,0.0967 -0.16542,-0.0752 -0.15279,-0.38182 z m 273.74546,0 c 0.0139,-0.33889 0.0829,-0.40782 0.17575,-0.17575 0.084,0.21 0.0737,0.46091 -0.023,0.55757 -0.0967,0.0967 -0.16543,-0.0752 -0.15279,-0.38182 z m -299.57216,-1.86666 c 0,-0.88 0.0545,-1.24 0.12119,-0.8 0.0667,0.44 0.0667,1.16 0,1.6 -0.0667,0.44 -0.12119,0.08 -0.12119,-0.8 z M 256.60478,233.1394 c 0.014,-0.33889 0.0829,-0.40782 0.17576,-0.17576 0.084,0.21 0.0737,0.46091 -0.023,0.55758 -0.0967,0.0967 -0.16542,-0.0752 -0.15279,-0.38182 z M 249.6,232.92716 c 0,-0.0501 0.42545,-0.47552 0.94545,-0.94545 l 0.94546,-0.85443 -0.85443,0.94546 c -0.79645,0.88129 -1.03648,1.07917 -1.03648,0.85442 z m 316.27489,-0.92715 c 0.006,-0.48 0.0711,-0.64115 0.14488,-0.3581 0.0738,0.28304 0.0689,0.67577 -0.0108,0.87273 -0.0797,0.19695 -0.14003,-0.0346 -0.1341,-0.51463 z m 266.99783,0.63624 c 0,-0.0501 0.42545,-0.47552 0.94545,-0.94545 l 0.94546,-0.85443 -0.85443,0.94546 c -0.79644,0.88129 -1.03648,1.07917 -1.03648,0.85442 z m 55.87751,-1.2423 c 0.014,-0.3389 0.0829,-0.40783 0.17576,-0.17576 0.084,0.21 0.0737,0.46091 -0.023,0.55758 -0.0967,0.0967 -0.16542,-0.0752 -0.15279,-0.38182 z m -48.87273,-0.29091 c 0.014,-0.33889 0.0829,-0.40783 0.17576,-0.17576 0.084,0.21 0.0737,0.46091 -0.023,0.55758 -0.0967,0.0967 -0.16542,-0.0752 -0.15279,-0.38182 z m -333.94066,-1.57576 c 0,-0.4 0.066,-0.56364 0.14673,-0.36364 0.0807,0.2 0.0807,0.52728 0,0.72728 -0.0807,0.2 -0.14673,0.0364 -0.14673,-0.36364 z m -252.70048,-0.58182 c 0.2896,-0.32 0.59199,-0.58182 0.67199,-0.58182 0.08,0 -0.0915,0.26182 -0.38108,0.58182 -0.2896,0.32 -0.59199,0.58182 -0.67199,0.58182 -0.08,0 0.0915,-0.26182 0.38108,-0.58182 z m 582.98181,0 c 0.2896,-0.32 0.592,-0.58182 0.672,-0.58182 0.08,0 -0.0915,0.26182 -0.38109,0.58182 -0.28959,0.32 -0.59199,0.58182 -0.67199,0.58182 -0.08,0 0.0915,-0.26182 0.38108,-0.58182 z m 52.26412,0 c 0,-0.4 0.066,-0.56363 0.14673,-0.36363 0.0807,0.2 0.0807,0.52727 0,0.72727 -0.0807,0.2 -0.14673,0.0364 -0.14673,-0.36364 z M 257.1866,228.77577 c 0.014,-0.3389 0.0829,-0.40783 0.17576,-0.17576 0.084,0.21 0.0737,0.46091 -0.023,0.55757 -0.0967,0.0967 -0.16542,-0.0752 -0.15279,-0.38181 z m 282.53296,-1.72122 c 0.002,-0.8 0.0587,-1.09274 0.12555,-0.65054 0.0669,0.4422 0.0651,1.09674 -0.004,1.45454 -0.069,0.3578 -0.12376,-0.004 -0.12158,-0.804 z m -33.51478,0.26667 c 0.014,-0.33889 0.0829,-0.40783 0.17576,-0.17576 0.084,0.21 0.0737,0.46091 -0.023,0.55758 -0.0967,0.0967 -0.16542,-0.0751 -0.15279,-0.38182 z m 60.01055,-2.59394 c 7.6e-4,-1.6 0.0496,-2.21743 0.10856,-1.37207 0.0589,0.84537 0.0583,2.15446 -10e-4,2.90909 -0.0597,0.75464 -0.10794,0.063 -0.10719,-1.53702 z m -311.37897,2.36289 c 0,-0.0604 0.22909,-0.2895 0.50909,-0.50909 0.4614,-0.36185 0.47169,-0.35156 0.10984,0.10984 -0.38004,0.48458 -0.61893,0.63868 -0.61893,0.39925 z m 582.98181,0 c 0,-0.0604 0.22909,-0.2895 0.50909,-0.50909 0.4614,-0.36185 0.47169,-0.35156 0.10984,0.10984 -0.38004,0.48458 -0.61893,0.63868 -0.61893,0.39925 z m 50.37321,-1.0538 c 0,-0.4 0.066,-0.56364 0.14673,-0.36364 0.0807,0.2 0.0807,0.52728 0,0.72728 -0.0807,0.2 -0.14673,0.0364 -0.14673,-0.36364 z m -0.28013,-3.63636 c 0.006,-0.48 0.0711,-0.64115 0.14488,-0.3581 0.0738,0.28304 0.0689,0.67577 -0.0108,0.87272 -0.0797,0.19696 -0.14003,-0.0346 -0.1341,-0.51462 z m -34.07011,-1.47879 c 0.014,-0.33889 0.0829,-0.40783 0.17576,-0.17576 0.084,0.21 0.0737,0.46091 -0.023,0.55758 -0.0967,0.0967 -0.16542,-0.0752 -0.15279,-0.38182 z M 566.2436,205.23637 c 5e-5,-7.68 0.0376,-10.78004 0.0835,-6.88898 0.0458,3.89106 0.0458,10.1747 -1.1e-4,13.96364 -0.0459,3.78894 -0.0834,0.60534 -0.0834,-7.07466 z m 287.3296,12.94546 c 0,-0.4 0.066,-0.56364 0.14673,-0.36364 0.0807,0.2 0.0807,0.52727 0,0.72727 -0.0807,0.2 -0.14673,0.0364 -0.14673,-0.36363 z m 34.06966,-0.87273 c 0,-0.72 0.0567,-1.01455 0.12607,-0.65455 0.0693,0.36 0.0693,0.94909 0,1.30909 -0.0693,0.36 -0.12607,0.0655 -0.12607,-0.65454 z m 34.00306,-0.87273 c 0,-0.4 0.066,-0.56364 0.14673,-0.36364 0.0807,0.2 0.0807,0.52728 0,0.72728 -0.0807,0.2 -0.14673,0.0364 -0.14673,-0.36364 z m -68.34207,-1.74545 c 0,-0.56 0.0599,-0.78909 0.13304,-0.50909 0.0732,0.28 0.0732,0.73818 0,1.01818 -0.0732,0.28 -0.13304,0.0509 -0.13304,-0.50909 z m 68.65454,-1.45455 c 0,-0.56 0.0599,-0.78909 0.13304,-0.50909 0.0732,0.28 0.0732,0.73818 0,1.01818 -0.0732,0.28 -0.13304,0.0509 -0.13304,-0.50909 z M 308.437,211.05455 c 0.003,-0.64 0.0628,-0.86756 0.13238,-0.5057 0.0696,0.36187 0.0669,0.88551 -0.006,1.16364 -0.0728,0.27813 -0.12974,-0.0179 -0.12651,-0.65794 z m 544.61607,-3.05454 c 0,-1.68 0.0481,-2.36728 0.10685,-1.52728 0.0588,0.84 0.0588,2.21455 0,3.05455 -0.0588,0.84 -0.10685,0.15273 -0.10685,-1.52727 z m 34.33525,-2.03637 c 0,-2.32 0.0452,-3.26909 0.1004,-2.10909 0.0552,1.16 0.0552,3.05818 0,4.21818 -0.0552,1.16 -0.1004,0.21091 -0.1004,-2.10909 z m -372.47923,2.21744 c 0,-0.0604 0.22909,-0.2895 0.50909,-0.50909 0.46139,-0.36185 0.47168,-0.35156 0.10983,0.10984 -0.38003,0.48458 -0.61892,0.63868 -0.61892,0.39925 z m -206.20861,-2.21744 c 0,-0.4 0.066,-0.56363 0.14673,-0.36363 0.0807,0.2 0.0807,0.52727 0,0.72727 -0.0807,0.2 -0.14673,0.0364 -0.14673,-0.36364 z m 209.84497,-1.45454 c 0.2896,-0.32 0.59199,-0.58182 0.67199,-0.58182 0.08,0 -0.0915,0.26182 -0.38108,0.58182 -0.2896,0.32 -0.59199,0.58182 -0.67199,0.58182 -0.08,0 0.0915,-0.26182 0.38108,-0.58182 z m 334.49546,-1.89091 c 10e-4,-1.12 0.0539,-1.54254 0.11684,-0.93897 0.063,0.60357 0.0619,1.51993 -0.002,2.03637 -0.0643,0.51643 -0.11579,0.0226 -0.11449,-1.0974 z m -305.55001,1.19926 c 0,-0.0604 0.22909,-0.2895 0.50909,-0.5091 0.4614,-0.36185 0.47169,-0.35156 0.10984,0.10984 -0.38004,0.48458 -0.61893,0.63868 -0.61893,0.39926 z m -238.49952,-1.63563 c 0,-0.4 0.066,-0.56363 0.14673,-0.36363 0.0807,0.2 0.0807,0.52727 0,0.72727 -0.0807,0.2 -0.14673,0.0364 -0.14673,-0.36364 z m 241.26316,-1.45454 c 0.62494,-0.64 1.20172,-1.16364 1.28172,-1.16364 0.08,0 -0.36587,0.52364 -0.99081,1.16364 -0.62494,0.64 -1.20172,1.16364 -1.28172,1.16364 -0.08,0 0.36587,-0.52364 0.99081,-1.16364 z m -240.99521,-1.04242 c 0.014,-0.3389 0.0829,-0.40783 0.17575,-0.17576 0.084,0.21 0.0737,0.46091 -0.023,0.55757 -0.0967,0.0967 -0.16542,-0.0751 -0.15279,-0.38181 z m 243.17703,-0.81287 c 0,-0.0604 0.22909,-0.2895 0.50909,-0.50909 0.4614,-0.36185 0.47169,-0.35156 0.10983,0.10983 -0.38003,0.48459 -0.61892,0.63869 -0.61892,0.39926 z m -242.88612,-1.80532 c 0.014,-0.33889 0.0829,-0.40782 0.17575,-0.17575 0.084,0.21 0.0737,0.4609 -0.023,0.55757 -0.0967,0.0967 -0.16543,-0.0751 -0.15279,-0.38182 z m 543.74283,-0.26666 c 0.006,-0.48 0.0711,-0.64115 0.14488,-0.3581 0.0738,0.28304 0.0689,0.67577 -0.0108,0.87272 -0.0797,0.19696 -0.14003,-0.0346 -0.1341,-0.51462 z m 34.32727,-1.16364 c 0.006,-0.48 0.0711,-0.64114 0.14488,-0.3581 0.0738,0.28305 0.0689,0.67577 -0.0108,0.87273 -0.0797,0.19695 -0.14004,-0.0346 -0.13411,-0.51463 z m -34.04714,-1.6 c 0,-0.4 0.066,-0.56364 0.14673,-0.36364 0.0807,0.2 0.0807,0.52728 0,0.72728 -0.0807,0.2 -0.14673,0.0364 -0.14673,-0.36364 z m 0.26794,-2.20606 c 0.014,-0.33889 0.0829,-0.40783 0.17576,-0.17576 0.084,0.21 0.0737,0.46091 -0.023,0.55758 -0.0967,0.0967 -0.16542,-0.0752 -0.15279,-0.38182 z m 34.05933,-0.12121 c 0,-0.4 0.066,-0.56364 0.14673,-0.36364 0.0807,0.2 0.0807,0.52727 0,0.72727 -0.0807,0.2 -0.14673,0.0364 -0.14673,-0.36363 z m 0.26794,-2.78788 c 0.014,-0.33889 0.0829,-0.40783 0.17576,-0.17576 0.084,0.21 0.0737,0.46091 -0.023,0.55758 -0.0967,0.0967 -0.16542,-0.0752 -0.15279,-0.38182 z M 566.04065,169.30905 c -0.0424,-10.08002 0.0212,-18.3273 0.14116,-18.32727 0.12,2e-5 0.21818,8.24732 0.21818,18.32732 0,10.08 -0.0635,18.32727 -0.14116,18.32727 -0.0776,0 -0.17582,-8.24729 -0.21818,-18.32732 z m 322.41867,16.99399 c 0.014,-0.3389 0.0829,-0.40783 0.17576,-0.17576 0.084,0.21 0.0737,0.46091 -0.023,0.55757 -0.0967,0.0967 -0.16542,-0.0752 -0.15279,-0.38181 z m -653.32651,-1.77736 c 0.28304,-0.0738 0.67577,-0.0689 0.87272,0.0108 0.19696,0.0797 -0.0346,0.14004 -0.51462,0.13411 -0.48,-0.006 -0.64115,-0.0711 -0.3581,-0.14489 z m 1.50724,-9.83477 c 1e-4,-5.6 0.0392,-7.84973 0.0868,-4.99941 0.0477,2.85032 0.0476,7.43214 -1.8e-4,10.18182 -0.0478,2.74968 -0.0868,0.4176 -0.0867,-5.18241 z m 581.9016,9.82621 0.94166,-0.11705 0.0805,-9.94549 0.0805,-9.94548 0.0688,10.10909 0.0688,10.10909 -1.09091,-0.0466 c -1.06865,-0.0456 -1.0717,-0.0489 -0.14925,-0.1636 z m 70.20858,-0.25045 c 0.014,-0.33889 0.0829,-0.40782 0.17576,-0.17575 0.084,0.21 0.0737,0.4609 -0.023,0.55757 -0.0967,0.0967 -0.16542,-0.0752 -0.15279,-0.38182 z m -656.60478,-2.88485 c -0.70662,-0.72 -1.21932,-1.30909 -1.13932,-1.30909 0.08,0 0.7236,0.58909 1.43023,1.30909 0.70663,0.72 1.21932,1.3091 1.13932,1.3091 -0.08,0 -0.7236,-0.5891 -1.43023,-1.3091 z m 582.82542,-0.21818 -1.44361,-1.52727 1.52728,1.44361 c 1.41917,1.34143 1.66068,1.61094 1.44361,1.61094 -0.046,0 -0.73329,-0.68728 -1.52728,-1.52728 z m -445.73975,-1.96363 c 0,-0.56 0.0599,-0.78909 0.13304,-0.50909 0.0732,0.28 0.0732,0.73818 0,1.01818 -0.0732,0.28 -0.13304,0.0509 -0.13304,-0.50909 z m 158.69615,0.0856 c 0.36,-0.0693 0.94909,-0.0693 1.30909,0 0.36,0.0693 0.0655,0.12607 -0.65455,0.12607 -0.72,0 -1.01454,-0.0567 -0.65454,-0.12607 z m 2.47272,0.005 c 0.28,-0.0732 0.73819,-0.0732 1.01819,0 0.28,0.0732 0.0509,0.13304 -0.50909,0.13304 -0.56,0 -0.7891,-0.0599 -0.5091,-0.13304 z m -161.5043,-3.16916 c 0.014,-0.33889 0.0829,-0.40783 0.17576,-0.17576 0.084,0.21 0.0737,0.46091 -0.023,0.55758 -0.0967,0.0967 -0.16542,-0.0752 -0.15279,-0.38182 z m 146.57955,-2.08485 -1.00252,-1.09091 1.09091,1.00252 c 1.0154,0.93313 1.22467,1.1793 1.00252,1.1793 -0.0486,0 -0.53952,-0.49091 -1.09091,-1.09091 z m 28.23385,-0.18256 c 0,-0.0604 0.22909,-0.2895 0.50909,-0.50909 0.46139,-0.36186 0.47168,-0.35157 0.10983,0.10983 -0.38003,0.48458 -0.61892,0.63869 -0.61892,0.39926 z m 1.74545,-1.45455 c 0,-0.0604 0.22909,-0.2895 0.50909,-0.50909 0.4614,-0.36185 0.47169,-0.35156 0.10984,0.10984 -0.38004,0.48458 -0.61893,0.63868 -0.61893,0.39925 z M 274.70832,170.0366 c 0.002,-0.96 0.0559,-1.31766 0.12069,-0.79479 0.0648,0.52286 0.0634,1.30832 -0.003,1.74545 -0.0664,0.43714 -0.11935,0.009 -0.11772,-0.95066 z m -68.21741,1.11037 c 0.21,-0.084 0.46091,-0.0737 0.55757,0.023 0.0967,0.0967 -0.0752,0.16543 -0.38182,0.15279 -0.33889,-0.014 -0.40782,-0.0829 -0.17575,-0.17575 z m 128.9732,-0.3831 c 0,-0.4 0.066,-0.56363 0.14673,-0.36363 0.0807,0.2 0.0807,0.52727 0,0.72727 -0.0807,0.2 -0.14673,0.0364 -0.14673,-0.36364 z m 454.00861,0.3831 c 0.21,-0.084 0.46091,-0.0737 0.55758,0.023 0.0967,0.0967 -0.0752,0.16543 -0.38182,0.15279 -0.3389,-0.014 -0.40783,-0.0829 -0.17576,-0.17575 z m -586.19999,-0.28485 c 0.2,-0.0807 0.52727,-0.0807 0.72727,0 0.2,0.0807 0.0364,0.14673 -0.36364,0.14673 -0.4,0 -0.56363,-0.066 -0.36363,-0.14673 z m 582.98181,0 c 0.2,-0.0807 0.52727,-0.0807 0.72727,0 0.2,0.0807 0.0364,0.14673 -0.36364,0.14673 -0.4,0 -0.56363,-0.066 -0.36363,-0.14673 z m -588.50388,-0.30908 c 0.52287,-0.0647 1.30832,-0.0634 1.74546,0.003 0.43713,0.0664 0.009,0.11935 -0.95067,0.11772 -0.96,-0.002 -1.31765,-0.0559 -0.79479,-0.12069 z m 582.9766,3.9e-4 c 0.52,-0.0645 1.37091,-0.0645 1.89091,0 0.52,0.0645 0.0946,0.11733 -0.94545,0.11733 -1.04,0 -1.46546,-0.0528 -0.94546,-0.11733 z M 549.0909,169.01819 c 0.2896,-0.32 0.592,-0.58182 0.672,-0.58182 0.08,0 -0.0915,0.26182 -0.38109,0.58182 -0.28959,0.32 -0.59199,0.58182 -0.67199,0.58182 -0.08,0 0.0915,-0.26182 0.38108,-0.58182 z m -213.94066,-0.75152 c 0.014,-0.33889 0.0829,-0.40782 0.17575,-0.17576 0.084,0.21 0.0737,0.46091 -0.023,0.55758 -0.0967,0.0967 -0.16543,-0.0752 -0.15279,-0.38182 z m -60.77704,-3.0303 c 0,-0.4 0.066,-0.56364 0.14673,-0.36364 0.0807,0.2 0.0807,0.52728 0,0.72728 -0.0807,0.2 -0.14673,0.0364 -0.14673,-0.36364 z m 278.49952,-0.29091 c 0.2896,-0.32 0.59199,-0.58182 0.67199,-0.58182 0.08,0 -0.0915,0.26182 -0.38108,0.58182 -0.2896,0.32 -0.59199,0.58182 -0.67199,0.58182 -0.08,0 0.0915,-0.26182 0.38108,-0.58182 z m -42.59521,-1.33333 c 0.014,-0.3389 0.0829,-0.40783 0.17575,-0.17576 0.084,0.21 0.0737,0.46091 -0.023,0.55757 -0.0967,0.0967 -0.16542,-0.0752 -0.15279,-0.38181 z M 274.05933,162.7394 c 0.014,-0.33889 0.0829,-0.40783 0.17575,-0.17576 0.084,0.21 0.0737,0.46091 -0.023,0.55758 -0.0967,0.0967 -0.16542,-0.0752 -0.15279,-0.38182 z m 280.7043,0.0599 c 0,-0.0604 0.22909,-0.2895 0.50909,-0.50909 0.4614,-0.36185 0.47169,-0.35156 0.10984,0.10984 -0.38004,0.48458 -0.61893,0.63868 -0.61893,0.39925 z M 321.6,160.29091 c 0.62494,-0.64 1.20171,-1.16363 1.28171,-1.16363 0.08,0 -0.36586,0.52363 -0.9908,1.16363 -0.62495,0.64 -1.20172,1.16364 -1.28172,1.16364 -0.08,0 0.36586,-0.52364 0.99081,-1.16364 z m 188.45674,-0.58181 c 0,-1.04 0.0528,-1.46546 0.11733,-0.94546 0.0645,0.52 0.0645,1.37091 0,1.89091 -0.0645,0.52 -0.11733,0.0945 -0.11733,-0.94545 z m 46.45235,1.0538 c 0,-0.0604 0.22909,-0.2895 0.50909,-0.50909 0.46139,-0.36186 0.47168,-0.35157 0.10983,0.10983 -0.38003,0.48458 -0.61892,0.63869 -0.61892,0.39926 z m -224.75492,-1.12653 -0.55417,-0.65455 0.65454,0.55418 c 0.61511,0.52079 0.78698,0.75491 0.55418,0.75491 -0.0552,0 -0.34975,-0.29454 -0.65455,-0.65454 z m 226.64582,-1.09091 c 0.2896,-0.32 0.592,-0.58182 0.672,-0.58182 0.08,0 -0.0915,0.26182 -0.38109,0.58182 -0.28959,0.32 -0.59199,0.58182 -0.67199,0.58182 -0.08,0 0.0915,-0.26182 0.38108,-0.58182 z m -232.63636,-0.78054 c 0.21,-0.084 0.46091,-0.0737 0.55758,0.023 0.0967,0.0967 -0.0752,0.16543 -0.38182,0.1528 -0.33889,-0.014 -0.40782,-0.0829 -0.17576,-0.17576 z m 1.43637,0.006 c 0.2,-0.0807 0.52727,-0.0807 0.72727,0 0.2,0.0807 0.0364,0.14673 -0.36364,0.14673 -0.4,0 -0.56363,-0.066 -0.36363,-0.14673 z m 200.14545,-0.87273 c 0.2,-0.0807 0.52727,-0.0807 0.72727,0 0.2,0.0807 0.0364,0.14673 -0.36363,0.14673 -0.4,0 -0.56364,-0.066 -0.36364,-0.14673 z m 5.23636,0 c 0.2,-0.0807 0.52728,-0.0807 0.72728,0 0.2,0.0807 0.0364,0.14673 -0.36364,0.14673 -0.4,0 -0.56364,-0.066 -0.36364,-0.14673 z m 27.56364,-0.38915 c 0.28959,-0.32 0.59199,-0.58182 0.67199,-0.58182 0.08,0 -0.0915,0.26182 -0.38108,0.58182 -0.2896,0.32 -0.59199,0.58181 -0.67199,0.58181 -0.08,0 0.0915,-0.26181 0.38108,-0.58181 z m 311.41818,-0.98257 c 0,-0.0604 0.22909,-0.2895 0.50909,-0.50909 0.4614,-0.36185 0.47169,-0.35156 0.10983,0.10984 -0.38003,0.48458 -0.61892,0.63868 -0.61892,0.39925 z m -553.01818,-0.58181 c 0,-0.0604 0.22909,-0.2895 0.50909,-0.50909 0.4614,-0.36186 0.47169,-0.35157 0.10984,0.10983 -0.38004,0.48458 -0.61893,0.63868 -0.61893,0.39926 z m 40.69017,-0.98108 c -0.36186,-0.4614 -0.35157,-0.47169 0.10983,-0.10983 0.28,0.21959 0.50909,0.44868 0.50909,0.50909 0,0.23943 -0.23889,0.0853 -0.61892,-0.39926 z m 549.80073,-2.30781 c 0.21,-0.084 0.46091,-0.0737 0.55758,0.023 0.0967,0.0967 -0.0752,0.16543 -0.38182,0.15279 -0.33889,-0.0139 -0.40782,-0.0829 -0.17576,-0.17575 z m -586.99999,-0.20202 c 0,-0.0604 0.22909,-0.2895 0.50909,-0.50909 0.4614,-0.36186 0.47169,-0.35157 0.10984,0.10983 -0.38004,0.48458 -0.61893,0.63869 -0.61893,0.39926 z m 33.70835,-0.98108 c -0.36186,-0.4614 -0.35157,-0.47169 0.10983,-0.10983 0.28,0.21959 0.50909,0.44868 0.50909,0.50909 0,0.23943 -0.23889,0.0853 -0.61892,-0.39926 z m -78.57768,-0.27847 c 0.36186,-0.0696 0.8855,-0.067 1.16363,0.006 0.27814,0.0728 -0.0179,0.12974 -0.65794,0.12651 -0.64,-0.003 -0.86756,-0.0628 -0.50569,-0.13238 z m 4.51123,-0.28676 c 0.28305,-0.0738 0.67577,-0.0689 0.87273,0.0108 0.19695,0.0797 -0.0346,0.14003 -0.51463,0.1341 -0.48,-0.006 -0.64114,-0.0711 -0.3581,-0.14488 z M 591.38107,149.6 c -0.36185,-0.46139 -0.35156,-0.47168 0.10983,-0.10983 0.48458,0.38004 0.63869,0.61893 0.39926,0.61893 -0.0604,0 -0.2895,-0.22909 -0.50909,-0.5091 z m -306.63562,0.0195 c 0.21,-0.084 0.46091,-0.0737 0.55758,0.023 0.0967,0.0967 -0.0751,0.16542 -0.38182,0.15279 -0.33889,-0.014 -0.40783,-0.0829 -0.17576,-0.17576 z m 2.61818,-0.29091 c 0.21,-0.084 0.46091,-0.0737 0.55758,0.023 0.0967,0.0967 -0.0751,0.16542 -0.38182,0.15279 -0.33889,-0.014 -0.40782,-0.0829 -0.17576,-0.17576 z m 49.16364,-4.36363 c 0.21,-0.084 0.46091,-0.0737 0.55758,0.023 0.0967,0.0967 -0.0752,0.16543 -0.38182,0.15279 -0.3389,-0.0139 -0.40783,-0.0829 -0.17576,-0.17575 z m 6.67273,0.006 c 0.2,-0.0807 0.52727,-0.0807 0.72727,0 0.2,0.0807 0.0364,0.14673 -0.36364,0.14673 -0.4,0 -0.56363,-0.066 -0.36363,-0.14673 z m 554.04189,-0.009 c 0.28305,-0.0737 0.67577,-0.0689 0.87273,0.0108 0.19695,0.0797 -0.0346,0.14004 -0.51463,0.13411 -0.48,-0.006 -0.64114,-0.0711 -0.3581,-0.14489 z m 9.17628,0.003 c 0.21,-0.084 0.46091,-0.0737 0.55758,0.023 0.0967,0.0967 -0.0751,0.16543 -0.38182,0.15279 -0.33889,-0.0139 -0.40782,-0.0829 -0.17576,-0.17575 z M 253.23842,142.8397 c -0.10192,-0.1649 0.0148,-0.21367 0.27374,-0.11433 0.50398,0.19339 0.59619,0.40191 0.17773,0.40191 -0.15055,0 -0.35372,-0.12941 -0.45147,-0.28758 z m 582.98181,0 c -0.10191,-0.1649 0.0149,-0.21367 0.27374,-0.11433 0.50398,0.19339 0.59619,0.40191 0.17774,0.40191 -0.15056,0 -0.35372,-0.12941 -0.45148,-0.28758 z m -1.77515,-2.11242 -0.55418,-0.65455 0.65455,0.55418 c 0.61511,0.52079 0.78698,0.75491 0.55417,0.75491 -0.0552,0 -0.34974,-0.29454 -0.65454,-0.65454 z m -583.13673,-0.14546 c -0.36186,-0.4614 -0.35157,-0.47168 0.10983,-0.10983 0.48458,0.38003 0.63868,0.61892 0.39926,0.61892 -0.0604,0 -0.2895,-0.22909 -0.50909,-0.50909 z m 579.08254,-4.21818 -1.73635,-1.81818 1.81818,1.73635 c 1,0.95499 1.81818,1.77317 1.81818,1.81818 0,0.21495 -0.2871,-0.0474 -1.90001,-1.73635 z m -582.98365,0 -1.44361,-1.52727 1.52728,1.44361 c 1.41917,1.34143 1.66068,1.61093 1.44361,1.61093 -0.046,0 -0.73329,-0.68727 -1.52728,-1.52727 z m -3.79852,-3.49091 -0.55418,-0.65454 0.65455,0.55417 c 0.36,0.3048 0.65454,0.59935 0.65454,0.65455 0,0.2328 -0.23412,0.0609 -0.75491,-0.55418 z m 582.82689,-0.14545 c -0.36185,-0.4614 -0.35156,-0.47169 0.10984,-0.10984 0.48458,0.38004 0.63868,0.61893 0.39925,0.61893 -0.0604,0 -0.2895,-0.22909 -0.50909,-0.50909 z m -666.96072,-2.25455 c 0.006,-0.48 0.0711,-0.64114 0.14489,-0.3581 0.0738,0.28305 0.0689,0.67577 -0.0108,0.87273 -0.0797,0.19695 -0.14004,-0.0346 -0.13411,-0.51463 z m 582.98181,-0.29091 c 0.006,-0.48 0.0711,-0.64114 0.14489,-0.3581 0.0738,0.28305 0.0689,0.67578 -0.0108,0.87273 -0.0797,0.19695 -0.14003,-0.0346 -0.13411,-0.51463 z m 181.24715,-0.72727 c 0,-0.56 0.0599,-0.78909 0.13304,-0.50909 0.0732,0.28 0.0732,0.73818 0,1.01818 -0.0732,0.28 -0.13304,0.0509 -0.13304,-0.50909 z m -181.5718,-2.49697 c 0.014,-0.33889 0.0829,-0.40783 0.17576,-0.17576 0.084,0.21 0.0737,0.46091 -0.023,0.55758 -0.0967,0.0967 -0.16542,-0.0751 -0.15279,-0.38182 z m 181.25933,-0.99394 c 0,-0.4 0.066,-0.56364 0.14673,-0.36364 0.0807,0.2 0.0807,0.52728 0,0.72728 -0.0807,0.2 -0.14673,0.0364 -0.14673,-0.36364 z m -764.53205,-1.04242 c 0.014,-0.3389 0.0829,-0.40783 0.17576,-0.17576 0.084,0.21 0.0737,0.46091 -0.023,0.55757 -0.0967,0.0967 -0.16542,-0.0752 -0.15279,-0.38181 z m 49.95885,-6.42903 c 0.21,-0.084 0.46091,-0.0737 0.55758,0.023 0.0967,0.0967 -0.0752,0.16542 -0.38182,0.15279 -0.3389,-0.014 -0.40783,-0.0829 -0.17576,-0.17576 z m 582.98181,0 c 0.21,-0.084 0.46091,-0.0737 0.55758,0.023 0.0967,0.0967 -0.0752,0.16542 -0.38182,0.15279 -0.33889,-0.014 -0.40783,-0.0829 -0.17576,-0.17576 z M 206.2,118.20128 c 0.21,-0.084 0.46091,-0.0737 0.55757,0.023 0.0967,0.0967 -0.0751,0.16542 -0.38181,0.15279 -0.3389,-0.014 -0.40783,-0.0829 -0.17576,-0.17576 z m 583.27272,0 c 0.21,-0.084 0.46091,-0.0737 0.55758,0.023 0.0967,0.0967 -0.0752,0.16542 -0.38182,0.15279 -0.3389,-0.014 -0.40783,-0.0829 -0.17576,-0.17576 z m -586.19999,-0.28485 c 0.2,-0.0807 0.52727,-0.0807 0.72727,0 0.2,0.0807 0.0364,0.14673 -0.36364,0.14673 -0.4,0 -0.56363,-0.066 -0.36363,-0.14673 z m 582.98181,0 c 0.2,-0.0807 0.52727,-0.0807 0.72727,0 0.2,0.0807 0.0364,0.14673 -0.36364,0.14673 -0.4,0 -0.56363,-0.066 -0.36363,-0.14673 z m -587.34206,-0.30399 c 0.36187,-0.0696 0.8855,-0.0669 1.16364,0.006 0.27813,0.0728 -0.0179,0.12974 -0.65794,0.12651 -0.64,-0.003 -0.86756,-0.0628 -0.5057,-0.13238 z m 582.98181,0 c 0.36187,-0.0696 0.8855,-0.0669 1.16364,0.006 0.27813,0.0728 -0.0179,0.12974 -0.65794,0.12651 -0.64,-0.003 -0.86756,-0.0628 -0.5057,-0.13238 z m -626.87685,-2.63062 c -0.36186,-0.4614 -0.35157,-0.47169 0.10983,-0.10983 0.48458,0.38003 0.63869,0.61892 0.39926,0.61892 -0.0604,0 -0.2895,-0.22909 -0.50909,-0.50909 z m 582.98181,0 c -0.36185,-0.4614 -0.35156,-0.47169 0.10983,-0.10983 0.48458,0.38003 0.63869,0.61892 0.39926,0.61892 -0.0604,0 -0.2895,-0.22909 -0.50909,-0.50909 z m 181.52727,0 c -0.36185,-0.4614 -0.35156,-0.47169 0.10983,-0.10983 0.28,0.21959 0.5091,0.44868 0.5091,0.50909 0,0.23943 -0.23889,0.0853 -0.61893,-0.39926 z m -766.50834,-1.96363 c 0,-0.56 0.0511,-1.01819 0.11363,-1.01819 0.0625,0 0.16712,0.45819 0.23249,1.01819 0.0654,0.56 0.0143,1.01818 -0.11363,1.01818 -0.12787,0 -0.23249,-0.45818 -0.23249,-1.01818 z m 583.09513,0.60297 c -0.0876,-0.22836 -0.11056,-0.71927 -0.0509,-1.09091 0.0797,-0.49709 0.14727,-0.38734 0.2555,0.41521 0.15232,1.12944 0.0717,1.39566 -0.20455,0.6757 z m 190.0685,-1.82646 c 0.36,-0.0693 0.94909,-0.0693 1.30909,0 0.36,0.0693 0.0654,0.12607 -0.65455,0.12607 -0.72,0 -1.01454,-0.0567 -0.65454,-0.12607 z m 4.51463,-0.2872 c 0.28304,-0.0738 0.67577,-0.0689 0.87272,0.0108 0.19696,0.0797 -0.0346,0.14003 -0.51462,0.1341 -0.48,-0.006 -0.64115,-0.0711 -0.3581,-0.14488 z m 3.3581,-0.28804 c 0.21,-0.084 0.46091,-0.0737 0.55757,0.023 0.0967,0.0967 -0.0752,0.16542 -0.38182,0.15279 -0.33889,-0.014 -0.40782,-0.0829 -0.17575,-0.17576 z m 2.32727,-0.29091 c 0.21,-0.084 0.46091,-0.0737 0.55757,0.023 0.0967,0.0967 -0.0752,0.16542 -0.38181,0.15279 -0.3389,-0.014 -0.40783,-0.0829 -0.17576,-0.17576 z m 2.32727,-0.29091 c 0.21,-0.084 0.46091,-0.0737 0.55758,0.023 0.0967,0.0967 -0.0752,0.16542 -0.38182,0.15279 -0.33889,-0.014 -0.40783,-0.0829 -0.17576,-0.17576 z"
         id="path6" />
      <path
         style="fill:#000000"
         d="m 538.18181,264.83617 c -0.4,-0.0565 -1.84,-0.25211 -3.2,-0.4346 -5.45265,-0.73169 -12.00175,-3.17441 -16.32877,-6.09039 -2.35589,-1.58764 -5.90629,-5.13032 -7.47523,-7.45896 -4.85128,-7.20036 -6.37014,-15.87446 -4.43362,-25.32019 2.00231,-9.76666 7.66445,-18.4104 15.48768,-23.64328 8.42596,-5.63603 18.93945,-9.19305 38.4954,-13.02412 l 5.52727,-1.08281 0.0749,-18.4 c 0.0496,-12.17669 -0.0239,-18.4 -0.21731,-18.4 -0.59611,0 -4.87873,4.36686 -8.98687,9.16364 -7.25487,8.47098 -11.33861,12.40864 -15.97098,15.39971 -4.22042,2.72507 -7.34284,3.6974 -11.81436,3.67901 -8.74696,-0.036 -15.4593,-4.65223 -18.10642,-12.45227 -0.92527,-2.7264 -1.26469,-8.09227 -0.71247,-11.26334 0.73078,-4.19646 3.19593,-10.63584 4.07166,-10.63584 0.34781,0 0.61968,0.54829 0.99576,2.0082 0.954,3.70333 3.30719,6.8446 6.33728,8.45962 4.64187,2.47409 11.69694,2.2938 21.92881,-0.56039 2.24,-0.62485 8.26182,-2.59586 13.38182,-4.38002 16.09764,-5.60952 19.13768,-6.23637 24.68641,-5.09025 4.67299,0.96524 8.22134,2.90613 11.68209,6.38992 1.8626,1.875 2.60952,2.90295 3.70989,5.10575 2.58612,5.17705 2.35906,0.79316 2.54612,49.15808 0.15048,38.90453 0.21271,43.16253 0.66686,45.62467 1.00712,5.46017 2.68152,8.84545 4.87478,9.85576 0.82496,0.38001 1.12994,0.69864 1.13543,1.1862 l 0.008,0.66662 -15.34546,-0.0848 c -15.25028,-0.0843 -15.35433,-0.0889 -16.77682,-0.74492 -3.10258,-1.43081 -5.28715,-3.99673 -6.11777,-7.1857 -0.27986,-1.07445 -0.45695,-3.05941 -0.46691,-5.23349 l -0.016,-3.50252 -0.85653,2.57347 c -3.10917,9.34161 -8.68645,13.98442 -18.59306,15.47783 -2.48113,0.37402 -8.27548,0.51015 -10.19105,0.23941 z m 19.08463,-10.11495 c 4.60797,-2.14562 7.188,-8.19153 8.57874,-20.10303 0.46312,-3.9665 0.73313,-43.2 0.29731,-43.2 -0.54687,0 -3.89337,1.33995 -6.01475,2.40833 -14.22217,7.16264 -21.04715,20.17963 -20.39617,38.90076 0.55076,15.83883 4.65675,22.62255 13.72297,22.67242 1.85797,0.0102 2.62665,-0.12659 3.8119,-0.67848 z m 331.16991,10.12787 c -0.4,-0.0707 -1.51272,-0.26702 -2.47272,-0.43621 -8.92547,-1.57303 -17.48111,-7.21782 -22.79089,-15.03682 -3.22835,-4.75395 -6.31943,-12.84027 -7.89656,-20.65752 -2.2609,-11.20643 -2.74875,-26.6202 -1.17925,-37.25834 4.46755,-30.28129 23.34061,-47.7106 50.33942,-46.48858 5.8132,0.26312 11.33399,1.65107 17.08386,4.29495 l 2.46453,1.13323 -0.14737,-12.29081 c -0.11428,-9.53037 -0.25018,-12.80949 -0.60511,-14.60023 -1.02945,-5.19401 -2.59394,-8.25094 -4.7697,-9.31975 -0.93851,-0.46102 -1.202,-0.75388 -1.21263,-1.3478 l -0.0136,-0.75879 6.76364,-0.16578 c 11.89784,-0.29161 20.82176,-1.72835 27.61378,-4.44579 2.48712,-0.99508 2.57607,-1.00891 3.48071,-0.5411 l 0.92837,0.48008 -0.19441,65.34963 c -0.2023,68.00307 -0.11831,75.10662 0.94888,80.25328 0.89643,4.32312 2.76132,7.72095 4.672,8.51238 0.62867,0.26041 0.87794,0.56013 0.87794,1.05564 v 0.69198 H 947.667 c -13.91982,0 -14.75702,-0.0299 -16.57588,-0.59168 -2.43104,-0.75087 -5.00462,-3.017 -6.20719,-5.46564 l -0.81121,-1.65178 -0.14546,-10.03636 -0.14545,-10.03636 -1.26598,3.49091 c -2.69809,7.43987 -6.10775,13.19759 -10.35916,17.49295 -4.05522,4.09713 -8.24861,6.5113 -13.60963,7.83516 -1.76026,0.43468 -8.62974,0.801 -10.11069,0.53915 z m 16.88006,-10.32446 c 7.9474,-4.20831 14.21162,-18.56599 16.42666,-37.65011 0.36272,-3.1251 0.43874,-8.78509 0.43874,-32.66708 v -28.88705 l -2.69091,-1.295 c -2.99628,-1.44195 -6.58432,-2.46175 -8.66137,-2.46175 -8.61221,0 -15.53073,7.30069 -19.33984,20.40818 -2.89024,9.94554 -4.03204,19.78738 -4.01106,34.57364 0.0348,24.49133 3.08371,41.52102 8.41617,47.00771 1.7796,1.83108 2.70662,2.18963 5.34893,2.06886 1.8186,-0.0831 2.50804,-0.26889 4.07268,-1.0974 z m -752.00732,7.87621 c 0,-0.48046 0.12086,-0.87356 0.26859,-0.87356 0.48285,0 2.09735,-1.52736 2.81324,-2.6614 0.99627,-1.5782 2.06341,-4.93777 2.58133,-8.12653 0.93488,-5.75595 1.07339,-15.72131 0.95188,-68.4848 -0.13358,-58.00224 -0.0638,-55.97138 -2.1462,-62.44496 -0.85894,-2.67018 -2.11295,-4.65556 -3.47047,-5.49455 -0.76821,-0.47479 -0.99837,-0.81276 -0.99837,-1.46604 V 112 h 48.58182 c 26.72,0 48.58202,0.0982 48.58227,0.21819 2.6e-4,0.12 1.03841,6.89454 2.30701,15.05454 2.10307,13.52752 2.26494,14.86845 1.83485,15.2 -0.25943,0.2 -0.62328,0.36364 -0.80854,0.36364 -0.18526,0 -1.63044,-1.44506 -3.2115,-3.21123 -12.51972,-13.98555 -25.44023,-19.83959 -48.12227,-21.80326 -1.84,-0.15929 -4.42546,-0.29075 -5.74546,-0.29212 l -2.4,-0.002 v 23.56363 23.56364 h 21.09091 21.09091 v 9.99962 9.99963 l -0.83903,-0.18144 c -0.53584,-0.11588 -1.25439,-0.70706 -1.98847,-1.63599 -3.30139,-4.17769 -8.81892,-7.43583 -16.27531,-9.61068 -4.98049,-1.45269 -14.89272,-2.75296 -20.98637,-2.75296 h -2.09264 v 43.63637 43.63636 h 2.02524 c 1.11388,0 4.04625,-0.25949 6.51637,-0.57665 15.31351,-1.96624 26.73813,-6.66244 37.71294,-15.5023 3.11002,-2.50502 10.66804,-10.05478 13.8056,-13.79051 1.57603,-1.87649 1.79327,-2.03573 2.4,-1.75929 0.45476,0.2072 0.66149,0.54376 0.64942,1.05727 -0.01,0.41431 -1.09239,8.6733 -2.40591,18.3533 l -2.3882,17.6 -49.66682,0.0736 -49.66682,0.0736 z m 114.90988,0.21735 c 5.4e-4,-0.45613 0.32783,-0.83091 1.07969,-1.23636 2.91576,-1.57237 4.5702,-5.88545 5.30047,-13.81819 0.41814,-4.54219 0.41678,-76.53196 -0.002,-81.30096 -0.67748,-7.72345 -2.37399,-12.10354 -5.29893,-13.68086 -0.8186,-0.44144 -1.0791,-0.76446 -1.07969,-1.33884 l -7.9e-4,-0.75702 6.76364,-0.17367 c 11.60902,-0.29809 20.98966,-1.80834 27.61193,-4.44543 2.1696,-0.86397 2.62552,-0.95631 3.27061,-0.66238 l 0.74958,0.34153 0.0748,18.62229 0.0748,18.62229 1.0815,-4.24671 c 4.75077,-18.6549 13.17868,-29.6148 25.24578,-32.83035 3.60845,-0.96155 10.20636,-0.97276 13.50743,-0.0229 11.0261,3.17256 19.07492,13.73267 22.20917,29.13863 0.37888,1.8623 0.47535,7.61572 0.64645,38.55261 0.17334,31.34107 0.2642,36.67457 0.65784,38.61484 1.06095,5.22947 2.6424,8.31443 4.80745,9.37797 0.86348,0.42416 1.20285,0.77219 1.21262,1.24355 l 0.0136,0.65455 h -15.55753 c -15.22054,0 -15.59954,-0.0138 -17.49735,-0.6368 -2.45679,-0.80651 -4.95019,-3.00993 -6.13403,-5.42064 l -0.81109,-1.65166 -0.17106,-42.32727 c -0.16941,-41.91761 -0.20475,-43.39914 -1.1339,-47.54523 -1.17733,-5.25348 -4.00215,-8.03742 -8.12966,-8.01202 -8.38795,0.0516 -16.16744,21.46791 -18.04976,49.68948 -0.3873,5.80679 -0.38436,38.6674 0.004,42.05529 0.71313,6.22485 2.31182,10.09013 4.87997,11.79873 0.88645,0.58976 1.50973,1.22028 1.50973,1.52727 0,0.49886 -1.07447,0.52285 -23.41818,0.52285 h -23.41818 z m 468.08314,-0.14462 c 0.008,-0.57607 0.26977,-0.96413 0.93246,-1.38265 3.33808,-2.10815 4.89238,-7.59968 5.47545,-19.34546 0.43738,-8.81074 0.20224,-110.61082 -0.2634,-114.03636 -1.0556,-7.7657 -2.61864,-11.82506 -5.15734,-13.39406 -0.76822,-0.47479 -0.99838,-0.81276 -0.99838,-1.46604 V 112 h 48.58182 c 26.72,0 48.58365,0.0982 48.58589,0.21819 0.002,0.12 1.04458,6.89454 2.3163,15.05454 2.12554,13.63851 2.27339,14.86572 1.83123,15.2 -0.26454,0.2 -0.62666,0.36364 -0.8047,0.36364 -0.17804,0 -1.60902,-1.4358 -3.17995,-3.19065 -7.95109,-8.88202 -16.14054,-14.41287 -26.27796,-17.74715 -7.69926,-2.53235 -19.24734,-4.3578 -27.63445,-4.36829 l -2.4,-0.003 v 23.56363 23.56364 h 21.09091 21.09091 v 9.89091 9.89091 l -0.8,-0.001 c -0.624,-8.6e-4 -1.06806,-0.34821 -2.01847,-1.57884 -2.32088,-3.0052 -6.81701,-6.1598 -11.48934,-8.06122 -5.89361,-2.39842 -17.2722,-4.32247 -25.56258,-4.32247 h -2.31143 v 43.68078 43.68078 l 3.41818,-0.18236 c 16.60082,-0.88565 31.88527,-6.69666 43.56364,-16.56248 3.12957,-2.64384 10.26348,-9.84759 13.06918,-13.19712 1.60357,-1.91439 1.77638,-2.03796 2.47912,-1.7727 l 0.75539,0.28513 -2.48006,18.36126 -2.48007,18.36126 -49.67178,0.0736 -49.67178,0.0736 z"
         id="path5" />
    </g>
  </g>
</svg>
