<?xml version="1.0" encoding="UTF-8" standalone="no"?>
<!-- Created with Inkscape (http://www.inkscape.org/) -->

<svg
   version="1.1"
   id="svg1"
   width="1672"
   height="1672"
   viewBox="0 0 1672 1672"
   xml:space="preserve"
   xmlns="http://www.w3.org/2000/svg"
   xmlns:svg="http://www.w3.org/2000/svg"><defs
     id="defs1" /><g
     id="g1"><path
       style="fill:#dbeafe;fill-opacity:1;stroke:none;stroke-width:11.2288;stroke-linecap:round;stroke-linejoin:round;stroke-miterlimit:4;stroke-dasharray:none;stroke-opacity:1;paint-order:fill markers stroke"
       d="m 336.03331,608.99901 c -8.79824,-9.00364 -21.69859,-20.0821 -36.80215,-31.77782 -15.10356,-11.69572 -32.40956,-24.00822 -49.16499,-37.87719 -16.75542,-13.86895 -32.95924,-29.29351 -45.63564,-48.54169 -12.6763,-19.24823 -21.82447,-42.31885 -25.73872,-64.15841 -3.91415,-21.83962 -2.59425,-42.44688 2.63174,-62.04581 5.22611,-19.59897 14.35791,-38.18842 26.66108,-54.97297 12.30318,-16.78455 27.77688,-31.76322 44.28329,-43.19436 16.50641,-11.43112 34.04445,-19.31407 52.30629,-24.46516 18.26194,-5.15113 37.24647,-7.57012 54.43328,-8.16826 17.18681,-0.59813 32.57495,0.6246 43.52829,2.17888 10.95345,1.55425 17.4716,3.43996 88.99633,3.7276 71.52477,0.28762 208.05061,-1.02281 291.41417,-2.31507 83.36357,-1.29226 113.56091,-2.56628 145.76795,-7.29573 32.20706,-4.72944 66.42176,-12.91396 93.34797,-19.27202 26.9261,-6.35807 46.5621,-10.88933 68.2035,-12.86283 21.6415,-1.9735 45.287,-1.38915 66.4122,2.11892 21.1253,3.50809 39.729,9.93965 57.9026,20.16225 18.1736,10.2226 35.916,24.23553 49.3805,37.89917 13.4645,13.66362 22.6504,26.97712 30.553,43.47185 7.9026,16.49472 14.5215,36.16961 17.3038,58.85236 2.7823,22.68273 1.7278,48.37189 -2.694,71.19047 -4.4218,22.81859 -12.2107,42.76529 -21.7929,66.19 -9.5822,23.42471 -20.9571,50.32595 -29.5537,76.90164 -8.5966,26.5757 -14.4144,52.82428 -17.6012,75.07173 -3.1869,22.24743 -3.7427,40.49249 -2.495,58.57363 1.2476,18.08114 4.2986,35.99728 10.2165,52.72506 5.9179,16.72778 14.7023,32.26622 28.0567,47.00802 13.3545,14.74182 31.2782,28.68611 56.147,42.90418 24.8687,14.21806 56.6809,28.70903 78.7358,39.3279 22.055,10.61888 34.3517,17.36509 45.8672,24.51103 11.5154,7.14594 22.2489,14.69115 33.0935,24.99339 10.8445,10.3021 21.7994,23.3604 30.2894,35.3831 8.49,12.0226 14.5146,23.0088 19.094,36.20103 4.5793,13.1921 7.7133,28.5894 9.2154,44.6048 1.5021,16.0154 1.3725,32.6481 -1.6901,51.1171 -3.0625,18.4689 -9.0576,38.7731 -19.3314,58.7282 -10.2738,19.955 -24.8255,39.5598 -43.4922,56.784 -18.6668,17.2242 -41.4474,32.0667 -64.9351,42.3057 -23.4877,10.2388 -47.6811,15.8735 -74.6863,18.7374 -27.0052,2.8638 -56.8205,2.9566 -81.5812,5.1782 -24.7606,2.2215 -44.4653,6.5714 -63.7561,12.8377 -19.2908,6.2662 -38.1667,14.4483 -57.5276,27.3747 -19.3608,12.9264 -39.2055,30.5962 -77.9474,53.658 -38.7419,23.0617 -96.37841,51.514 -135.77062,66.0116 -39.3922,14.4976 -60.53824,15.04 -82.77602,11.3312 -22.23778,-3.7088 -45.56601,-11.6687 -75.85734,-25.6998 -30.29139,-14.031 -67.5441,-34.1323 -94.23556,-47.1419 -26.6915,-13.0098 -42.8203,-18.9271 -63.66915,-24.7165 -20.84873,-5.7894 -46.41608,-11.4505 -74.65991,-16.5134 -28.24394,-5.0629 -59.16259,-9.5274 -89.67808,-15.3887 -30.51543,-5.8615 -60.62598,-13.1194 -87.79019,-24.9138 -27.16429,-11.7943 -51.38082,-28.1242 -75.61867,-51.0805 -24.23785,-22.9562 -48.49563,-52.5374 -63.95754,-84.6202 -15.46202,-32.0828 -22.12734,-66.6654 -17.99019,-108.0334 4.13715,-41.368 19.0764,-89.51883 40.08884,-133.12898 21.01255,-43.61019 48.09695,-82.67721 68.24149,-113.5208 20.14454,-30.84358 33.3481,-53.46197 41.55087,-75.32796 8.20277,-21.86599 11.40451,-42.97832 11.05365,-60.88068 -0.35076,-17.90238 -4.25398,-32.59377 -8.55368,-43.4041 -4.2997,-10.81033 -8.99556,-17.73909 -17.79369,-26.74277 z"
       id="path16" /><path
       style="fill:#3b82f6;fill-opacity:1;stroke:none;stroke-width:11.2288;stroke-linecap:round;stroke-linejoin:miter;stroke-miterlimit:4;stroke-dasharray:none;stroke-opacity:1;paint-order:fill markers stroke"
       d="m 294.50878,369.6193 9.92378,-157.72725 9.75426,158.05095 61.30431,-56.31763 -49.55754,69.88941 113.99764,9.45909 -114.33181,10.25594 50.02023,68.21861 -60.89291,-54.51836 -9.93066,150.40267 -9.81486,-150.56608 -62.45108,55.25359 50.81882,-68.77619 -123.1574,-9.81481 123.8117,-10.25098 -51.40034,-69.64866 z"
       id="path20" /><path
       style="fill:#3b82f6;fill-opacity:1;stroke:none;stroke-width:7.48701;stroke-linecap:round;stroke-linejoin:miter;stroke-miterlimit:4;stroke-dasharray:none;stroke-opacity:1;paint-order:fill markers stroke"
       d="m 398.55703,1285.1356 6.61688,-105.1673 6.50381,105.3831 40.87571,-37.5507 -33.04334,46.6 76.00989,6.3069 -76.23271,6.8384 33.35185,45.4859 -40.6014,-36.351 -6.62145,100.2835 -6.54421,-100.3925 -41.64033,36.8414 33.88429,-45.8579 -82.11732,-6.5441 82.55359,-6.8351 -34.27206,-46.4394 z"
       id="path20-1" /><path
       style="fill:#3b82f6;fill-opacity:1;stroke:none;stroke-width:9.98155;stroke-linecap:round;stroke-linejoin:miter;stroke-miterlimit:4;stroke-dasharray:none;stroke-opacity:1;paint-order:fill markers stroke"
       d="m 1307.7343,1177.0997 8.8214,-140.2072 8.6709,140.4949 54.4948,-50.062 -44.0529,62.1262 101.335,8.4085 -101.632,9.1167 44.4641,60.641 -54.1291,-48.4625 -8.8276,133.6962 -8.7246,-133.8414 -55.5142,49.1161 45.1739,-61.1368 -109.4773,-8.7245 110.0589,-9.1124 -45.6909,-61.9122 z"
       id="path20-1-9" /><path
       id="path1-2"
       style="display:inline;fill:#7bb8f7;fill-opacity:1;stroke:none;stroke-width:2;stroke-linecap:round;stroke-linejoin:round;stroke-opacity:1;paint-order:fill markers stroke"
       d="m 606.82422,368.52912 c -18.75143,0.98318 -44.05193,10.24316 -47.125,59.76757 l -37.95899,611.75001 c -1.8365,29.2936 10.24877,34.9881 37.45118,37.3887 l 532.25589,46.9727 c 33.9512,1.366 58.7478,-13.6229 65.332,-48.1524 l 28.2715,-342.6719 -8.2285,21.20118 -88.0547,20.71875 -6.2149,-46.61719 106.0254,-38.05859 18.086,-219.22461 c 3.2946,-39.93494 -45.8935,-55.33203 -59.9004,-56.5586 L 622.32812,369.11896 c -3.72911,-0.32655 -9.25342,-0.91757 -15.5039,-0.58984 z" /><path
       style="display:inline;fill:#eff6ff;fill-opacity:1;stroke:none;stroke-width:2;stroke-linecap:round;stroke-linejoin:round;stroke-opacity:1;paint-order:fill markers stroke"
       d="m 482.487,502.40598 524.9591,-39.51209 c 14.0208,-1.0553 65.0512,6.18336 68.2597,46.12531 l 48.5798,604.7585 c -0.9121,35.1399 -22.9589,53.9414 -56.684,58.0852 l -532.84306,39.7431 c -27.23251,2.0312 -40.08103,-1.6332 -43.00718,-30.838 L 430.25593,570.93325 c -6.63784,-65.82575 37.29975,-67.40343 52.23107,-68.52727 z"
       id="path1" /><path
       id="path4"
       style="fill:#2563eb;fill-opacity:1;stroke:none;stroke-width:41.2;stroke-linecap:round;stroke-linejoin:round;stroke-dasharray:none;stroke-opacity:1;paint-order:fill markers stroke"
       d="m 450.80859,773.61115 c -8.87126,4.64675 -17.34586,10.05043 -25.29882,16.13672 -15.17279,11.6115 -28.38823,25.65837 -39.88282,40.91992 -19.30496,25.63152 -33.90767,54.98835 -41.17773,86.24219 -4.07951,17.53773 -5.84579,35.61569 -5.17969,53.60939 0.47517,12.8359 2.18736,25.6436 5.4375,38.07033 4.80973,18.3897 12.94633,35.7964 22.79102,52.0566 6.50989,10.7523 13.78839,21.0542 22.01367,30.5586 12.1516,14.0414 26.30956,26.2664 41.4375,37.0352 10.68232,7.6042 21.86345,14.5015 33.4082,20.7187 23.45322,12.6305 48.3614,22.4318 73.81055,30.3008 31.00544,9.5871 62.9539,16.3469 95.30664,18.9063 27.92076,2.2088 56.02123,1.2849 83.91016,-1.295 51.57597,-4.771 94.53984,-14.4819 118.61523,-20.9765 26.02698,-7.0211 51.53159,-15.8808 76.66016,-25.6406 30.52246,-11.8549 60.55569,-25.066 89.34764,-40.6602 23.3524,-12.6481 45.843,-26.8373 67.8555,-41.6953 16.3356,-11.0262 32.4349,-22.4385 47.6523,-34.9629 22.4539,-18.4802 42.869,-39.28463 63.1914,-60.08593 12.3604,-12.6516 24.7495,-25.3698 35.2227,-39.62309 2.673,-3.63781 5.2731,-7.49908 6.2148,-11.91406 0.9946,-4.66283 0.05,-9.48635 -0.2578,-14.24414 -0.2477,-3.83301 -0.078,-7.68495 -0.3594,-11.51563 -0.2815,-3.83067 -1.0476,-7.71244 -3.0078,-11.01562 -1.5158,-2.55442 -3.708,-4.67959 -6.2207,-6.26367 -2.5126,-1.58409 -5.3409,-2.63721 -8.2461,-3.25586 -5.8103,-1.23731 -11.8442,-0.75135 -17.7304,0.0508 -5.8863,0.80213 -11.7606,1.91677 -17.7012,1.91992 -5.9407,0.003 -12.0662,-1.19778 -16.9199,-4.62305 -4.2387,-2.99125 -7.2137,-7.45721 -9.5528,-12.08789 -2.339,-4.63067 -4.1414,-9.52459 -6.6093,-14.08789 -2.468,-4.56329 -5.7145,-8.8812 -10.1895,-11.50586 -2.2375,-1.31232 -4.7591,-2.17278 -7.3476,-2.33984 -2.5886,-0.16706 -5.2414,0.37855 -7.4786,1.69141 -2.046,1.2007 -3.6887,2.99586 -5.0293,4.95312 -1.3406,1.95726 -2.4041,4.08875 -3.5175,6.18359 -16.3637,30.78737 -43.6247,54.07176 -70.1856,76.65821 -27.1185,23.06055 -54.23556,46.25145 -83.65038,66.30075 -123.07164,83.81643 -278.88039,117.46993 -370.08789,102.29883 -50.49937,-8.3998 -110.20398,-26.6089 -137.26171,-68.8906 -12.02599,-19.3047 -16.70272,-42.75103 -14.80664,-65.41603 1.89607,-22.66495 10.13104,-44.54755 22.10156,-63.8867 2.29241,-3.70354 4.72271,-7.32288 6.94922,-11.06641 1.79827,-3.02351 3.45032,-6.12837 4.95703,-9.30078 z" /><path
       style="display:inline;fill:#eff6ff;fill-opacity:1;stroke:#60a5fa;stroke-width:35;stroke-linecap:round;stroke-linejoin:round;stroke-dasharray:none;stroke-opacity:1;paint-order:fill markers stroke"
       d="m 572.3544,654.81801 366.46983,-24.1039"
       id="path2" /><path
       style="display:inline;fill:#eff6ff;fill-opacity:1;stroke:#60a5fa;stroke-width:35;stroke-linecap:round;stroke-linejoin:round;stroke-dasharray:none;stroke-opacity:1;paint-order:fill markers stroke"
       d="M 584.83458,778.98254 892.70305,757.44245"
       id="path2-8" /><path
       style="display:inline;fill:#eff6ff;fill-opacity:1;stroke:#60a5fa;stroke-width:35;stroke-linecap:round;stroke-linejoin:round;stroke-dasharray:none;stroke-opacity:1;paint-order:fill markers stroke"
       d="M 598.41326,901.82464 817.78024,888.08009"
       id="path2-1" /><path
       style="fill:#2563eb;fill-opacity:1;stroke:none;stroke-width:41.2;stroke-linecap:round;stroke-linejoin:round;stroke-dasharray:none;stroke-opacity:1;paint-order:fill markers stroke"
       d="m 1102.2354,846.46609 -68.3717,-41.43742 c -25.5944,-15.51177 -10.7581,-33.03485 8.676,-39.75403 l 229.5892,-79.37856 c 28.8199,-8.77567 40.3222,4.87219 40.4015,23.30855 l 1.0359,240.85504 c 0.1206,28.0414 -18.5397,35.1964 -44.0273,16.5749 z"
       id="path5" /></g></svg>
