<?xml version="1.0" encoding="UTF-8" standalone="no"?>
<!-- Created with Inkscape (http://www.inkscape.org/) -->

<svg
   version="1.1"
   id="svg1"
   width="1672"
   height="1672"
   viewBox="0 0 1672 1672"
   xml:space="preserve"
   xmlns="http://www.w3.org/2000/svg"
   xmlns:svg="http://www.w3.org/2000/svg"><defs
     id="defs1" /><g
     id="g1"><path
       style="display:inline;fill:#9ec9f5;fill-opacity:1;stroke:none;stroke-width:26.4567;stroke-linecap:round;stroke-linejoin:round;stroke-opacity:1;paint-order:fill markers stroke"
       d="m 527.18231,195.10767 c 108.34515,-6.97022 198.87064,91.12302 305.60099,97.37795 141.42108,8.28798 263.079,-183.14656 417.2307,-80.8461 58.5473,45.30003 82.6573,142.07065 133.5189,205.58746 48.3423,60.37056 174.9663,96.83475 168.4057,189.5017 -7.4433,105.13477 -90.0062,195.30912 -98.8898,300.33199 -9.4403,111.60433 87.7673,226.83223 49.9848,332.27003 -34.8065,97.1327 -132.8069,172.4871 -229.9777,207.1871 -103.2922,36.8859 -215.2206,-30.9262 -328.67341,-15.5695 -103.33272,13.9869 -201.05329,95.6851 -305.31914,94.3007 -117.05983,-1.5542 -246.45268,-38.418 -324.52969,-134.2731 -37.56274,-46.1157 -27.3877,-126.7667 -52.55086,-193.0826 C 230.0384,1113.7058 125.39285,1036.9657 122.1315,938.90942 117.87839,811.03521 221.16309,702.53489 281.66557,589.79913 318.2997,521.53785 291.93894,399.81211 325.15207,321.18122 358.3652,242.55033 438.721,200.7987 527.18231,195.10767 Z"
       id="path19" /><path
       style="display:inline;fill:#6ea7ef;fill-opacity:1;stroke-width:26.4567;stroke-linecap:round;stroke-linejoin:round;paint-order:fill markers stroke"
       d="m 632.20027,1366.4918 6.99256,-95.565 7.64003,95.824 42.34386,-37.0347 -33.27943,45.7107 80.67349,7.64 -81.83891,6.4746 34.70384,46.3581 -42.99133,-37.5526 -6.86307,96.342 -7.51053,-95.3061 -42.08489,36.1282 34.18588,-45.0631 -80.67349,-7.5106 80.544,-7.3811 -34.31537,-45.3221 z"
       id="path18" /><path
       style="display:inline;fill:#6ea7ef;fill-opacity:1;stroke-width:20.2107;stroke-linecap:round;stroke-linejoin:round;paint-order:fill markers stroke"
       d="m 1293.3066,1234.4223 5.3418,-73.0037 5.8363,73.2016 32.3472,-28.2914 -25.4227,34.9191 61.6278,5.8364 -62.5181,4.946 26.5108,35.4138 -32.8418,-28.6871 -5.2428,73.5973 -5.7374,-72.806 -32.1494,27.599 26.1152,-34.4245 -61.6278,-5.7375 61.5289,-5.6385 -26.2141,-34.6223 z"
       id="path18-8" /><path
       style="display:inline;fill:#6ea7ef;fill-opacity:1;stroke-width:32.9452;stroke-linecap:round;stroke-linejoin:round;paint-order:fill markers stroke"
       d="m 557.5505,309.69719 8.70752,-119.00225 9.5137,119.32476 52.72859,-46.11742 -41.44114,56.92121 100.45861,9.5137 -101.90982,8.06249 43.21488,57.7274 -53.53488,-46.76235 -8.54628,119.96981 -9.35245,-118.67986 -52.40618,44.98861 42.56996,-56.11479 -100.45861,-9.35257 100.29735,-9.1913 -42.73123,-56.43731 z"
       id="path18-1" /><path
       style="display:inline;fill:#ebf6fd;fill-opacity:1;stroke:none;stroke-width:30;stroke-linecap:round;stroke-linejoin:round;stroke-dasharray:none;stroke-opacity:1;paint-order:fill markers stroke"
       d="m 342.89467,618.45353 c 8.28749,-3.1078 170.96427,-85.71503 263.12764,-84.94671 75.89138,0.63267 215.47459,73.55142 215.47459,73.55142 0,0 116.0238,-122.58622 191.6481,-154.3544 73.41,-30.83798 237.2292,-27.97026 237.2292,-27.97026 l 102.5576,562.51301 c 0,0 -164.3141,1.95086 -240.337,29.00621 -74.2801,26.4351 -199.93557,126.3841 -199.93557,126.3841 0,0 -180.63693,-36.7302 -271.41512,-30.0421 -67.65963,4.9849 -196.82775,51.7968 -196.82775,51.7968 z"
       id="path9" /><path
       d="m 949.71355,818.42255 c 31.8593,-29.29711 129.94455,-89.2677 259.08025,-87.51204"
       style="display:inline;fill:none;fill-opacity:1;stroke:#7bb8f7;stroke-width:30;stroke-linecap:round;stroke-linejoin:round;stroke-dasharray:none;stroke-opacity:1;paint-order:fill markers stroke"
       id="path1" /><path
       d="m 973.5537,938.64812 c 31.8593,-29.2972 129.9445,-89.2678 259.0802,-87.5121"
       style="display:inline;fill:none;fill-opacity:1;stroke:#7bb8f7;stroke-width:30;stroke-linecap:round;stroke-linejoin:round;stroke-dasharray:none;stroke-opacity:1;paint-order:fill markers stroke"
       id="path1-0" /><path
       style="display:inline;fill:none;fill-opacity:1;stroke:#7bb8f7;stroke-width:30;stroke-linecap:round;stroke-linejoin:round;stroke-dasharray:none;stroke-opacity:1;paint-order:fill markers stroke"
       d="M 465.14834,760.35272 C 543.96198,735.22109 633.2578,709.90448 758.88768,739.84224"
       id="path8" /><path
       style="display:inline;fill:none;fill-opacity:1;stroke:#7bb8f7;stroke-width:30;stroke-linecap:round;stroke-linejoin:round;stroke-dasharray:none;stroke-opacity:1;paint-order:fill markers stroke"
       d="m 487.13115,875.93216 c 78.81364,-25.13163 168.10946,-50.44824 293.73934,-20.51048"
       id="path8-9" /><path
       style="display:inline;fill:none;fill-opacity:1;stroke:#7bb8f7;stroke-width:30;stroke-linecap:round;stroke-linejoin:round;stroke-dasharray:none;stroke-opacity:1;paint-order:fill markers stroke"
       d="m 505.05769,993.60699 c 78.81364,-25.13163 168.10946,-50.44824 293.73934,-20.51048"
       id="path8-6" /><path
       style="display:inline;fill:none;fill-opacity:1;stroke:#7bb8f7;stroke-width:30;stroke-linecap:round;stroke-linejoin:round;stroke-dasharray:none;stroke-opacity:1;paint-order:fill markers stroke"
       d="m 929.5537,701.18215 c 31.85928,-29.29711 129.9445,-89.2677 259.0802,-87.51204"
       id="path8-4" /><path
       d="m 824.36413,606.9954 95.31686,563.8237"
       id="path13"
       style="display:inline;fill:#deebfb" /><path
       style="display:inline;fill:#7bb8f7;fill-opacity:1;fill-rule:nonzero;stroke:none;stroke-width:30;stroke-linecap:round;stroke-linejoin:round;stroke-dasharray:none;stroke-opacity:1;paint-order:fill markers stroke"
       d="m 824.36413,606.9954 2.81683,59.04819 31.13281,227.59755 38.61178,192.79596 22.75544,84.382 -6.24667,-87.1729 -26.90867,-194.7744 -45.41183,-225.18362 z"
       id="path11" /><ellipse
       style="display:inline;fill:#70a8ef;fill-opacity:1;stroke:none;stroke-width:30.637;stroke-linecap:round;stroke-linejoin:round;stroke-dasharray:none;stroke-opacity:1;paint-order:fill markers stroke"
       id="path14"
       cx="921.3656"
       cy="1178.2277"
       rx="72.319504"
       ry="71.313416" /><path
       style="display:inline;fill:#70a8ef;fill-opacity:1;stroke:none;stroke-width:2;stroke-linecap:round;stroke-linejoin:round;stroke-dasharray:none;stroke-opacity:1;paint-order:fill markers stroke"
       d="m 312.78479,707.24522 88.2683,484.92628 c 4.04802,22.2389 26.30779,29.0304 40.28844,25.2719 170.95799,-45.9599 325.87702,-62.6578 478.33364,-32.2308 103.63203,-57.3087 213.43733,-121.7626 335.49283,-137.3469 l 116.4702,-20.1443 c 30.8703,-5.3392 28.4993,-37.25239 26.3706,-49.0786 l -85.7045,-476.13609 c 23.8745,-1.54978 54.6511,-6.90996 60.7989,27.10313 l 95.5935,528.87736 c 0.7937,9.1787 1.6571,35.0128 -39.9222,44.6835 l -507.26803,110.6101 -514.59324,83.5069 c -34.83959,3.5649 -46.21716,-7.6283 -49.81116,-26.7369 L 261.14233,760.35271 c -3.31377,-51.38984 36.61911,-48.1972 51.64246,-53.10749 z"
       id="path15" /></g></svg>
