<?xml version="1.0" encoding="UTF-8" standalone="no"?>
<!-- Created with Inkscape (http://www.inkscape.org/) -->

<svg
   version="1.1"
   id="svg1"
   width="1672"
   height="1672"
   viewBox="0 0 1672 1672"
   xmlns="http://www.w3.org/2000/svg"
   xmlns:svg="http://www.w3.org/2000/svg">
  <defs
     id="defs1" />
  <g
     id="g1">
    <g
       id="g15"
       transform="rotate(-15.475423,844.24817,846.15132)">
      <g
         id="g21"
         transform="matrix(1.1228826,0,0,1.1228826,-142.64855,-138.86755)">
        <path
           style="fill:#ffd98a;fill-opacity:1;stroke:none;stroke-width:10;stroke-linecap:round;stroke-linejoin:round;stroke-miterlimit:4;stroke-dasharray:none;stroke-opacity:1;paint-order:fill markers stroke"
           d="m -1208.0735,426.3738 c -4.4891,-10.27303 -11.7406,-23.56751 -20.6325,-38.07077 -8.8919,-14.50326 -19.4237,-30.21464 -29.0062,-47.04878 -9.5825,-16.83413 -18.2151,-34.78998 -22.7042,-54.81829 -4.489,-20.02831 -4.8343,-42.12782 -1.2085,-61.55178 3.6259,-19.42397 11.2226,-36.17126 21.7547,-50.84715 10.5322,-14.67589 23.9991,-27.27952 39.5383,-37.37996 15.5392,-10.10044 33.1497,-17.69714 50.5018,-22.01355 17.3521,-4.3164 34.4447,-5.35231 51.2788,-3.8847 16.8342,1.46762 33.4088,5.43862 47.912,10.35936 14.5032,4.92075 26.9342,10.79095 35.567,15.53903 8.6329,4.74808 13.4672,8.3738 72.94828,31.16479 59.48111,22.79099 173.6044,64.74553 243.44398,89.95338 69.83958,25.20785 95.39214,33.66783 123.70803,39.88348 28.31588,6.21566 59.39332,10.18666 83.82431,13.38082 24.431,3.19416 42.2142,5.61129 60.86124,10.79105 18.64703,5.17975 38.15676,13.12177 54.64554,22.70428 16.48877,9.58252 29.95567,20.80493 41.86903,35.04922 11.91336,14.24429 22.2725,31.50953 29.17878,47.13504 6.90627,15.6255 10.35932,29.61035 11.74056,45.84019 1.38124,16.22984 0.69063,34.70365 -4.14382,54.47297 -4.83446,19.76931 -13.81239,40.83292 -24.68984,58.44396 -10.87745,17.61105 -23.65373,31.76855 -39.02029,48.25738 -15.36656,16.48883 -33.32241,35.30795 -48.86157,54.73194 -15.53917,19.42399 -28.66076,39.45168 -38.32955,56.97641 -9.6688,17.52472 -15.88429,32.54549 -20.54603,47.99836 -4.66174,15.45286 -7.76948,31.33689 -8.11477,47.13506 -0.34529,15.79817 2.07185,31.50955 8.54655,47.99836 6.4747,16.48882 17.0065,33.75406 33.23638,53.43706 16.22988,19.68299 38.15675,41.7825 53.17789,57.58062 15.02115,15.79812 23.13581,25.29402 30.47375,34.87652 7.33793,9.5825 13.89871,19.251 19.68274,31.2508 5.78404,11.9997 10.79095,26.3298 14.07144,39.0202 3.28049,12.6903 4.83435,23.74 4.48902,36.1714 -0.34534,12.4314 -2.58982,26.2436 -6.38831,40.0562 -3.79848,13.8126 -9.1507,27.6248 -17.52461,42.0417 -8.37391,14.4169 -19.76899,29.4377 -34.61758,42.8187 -14.84859,13.3809 -33.14978,25.1213 -54.12771,33.5815 -20.97794,8.4602 -44.63131,13.6397 -67.42212,14.762 -22.7908,1.1222 -44.71767,-1.8129 -68.11281,-7.9422 -23.39514,-6.1294 -48.25708,-15.4527 -69.58026,-21.4093 -21.32318,-5.9567 -39.10638,-8.5465 -57.14911,-9.4097 -18.04273,-0.8633 -36.34389,-10e-5 -56.54485,4.6617 -20.20097,4.6618 -42.30049,13.1218 -81.83927,20.1144 -39.53877,6.9926 -96.51408,12.5175 -133.89425,12.1721 -37.38017,-0.3453 -55.16337,-6.5608 -72.51547,-16.6613 -17.3521,-10.1005 -34.2721,-24.0854 -55.0773,-45.3224 -20.8053,-21.2369 -45.4946,-49.7246 -63.6236,-68.9758 -18.129,-19.2513 -29.6967,-29.2651 -45.236,-40.6605 -15.5392,-11.3954 -35.0489,-24.1717 -56.9764,-37.2937 -21.9276,-13.122 -46.2716,-26.5889 -69.8394,-41.0921 -23.5677,-14.5033 -46.3579,-30.042 -65.2638,-48.4301 -18.906,-18.38805 -33.9268,-39.62433 -46.8761,-66.38631 -12.9493,-26.76199 -23.8264,-59.048 -26.5888,-90.64433 -2.7625,-31.59633 2.5898,-62.50115 19.0787,-95.65144 16.4889,-33.15029 44.1133,-68.54405 75.3643,-98.24111 31.2511,-29.69705 66.1269,-53.69574 92.6298,-73.03337 26.5029,-19.33763 44.6314,-34.01309 58.3576,-49.63862 13.7262,-15.62552 23.0495,-32.20014 28.4018,-47.22134 5.3524,-15.02119 6.7336,-28.48808 6.5609,-38.8475 -0.1727,-10.35942 -1.8992,-17.61085 -6.3882,-27.88388 z"
           id="path16"
           transform="rotate(-5.259183,1649.8986,-17952.903)" />
        <path
           style="fill:#ffca6b;fill-opacity:1;stroke:none;stroke-width:10;stroke-linecap:round;stroke-linejoin:round;stroke-miterlimit:4;stroke-dasharray:none;stroke-opacity:1;paint-order:fill markers stroke"
           d="m 641.68495,678.3108 5.86013,-350.14316 29.30069,-69.58912 37.35837,-40.28844 46.88109,-22.70802 59.33388,-19.04545 52.00871,1.46504 73.98422,24.90558 43.21851,32.96326 41.02095,56.40382 11.7203,85.70449 -3.6626,50.54368 2.1975,138.44573 -0.7325,119.40028 z"
           id="path15" />
        <path
           id="path1"
           style="display:inline;fill:#e28000;fill-opacity:1;stroke:none;stroke-width:10;stroke-linecap:round;stroke-linejoin:round;stroke-dasharray:none;stroke-opacity:1"
           d="m 1121.8809,607.19336 c -12.9631,7.3e-4 -23.4712,10.48087 -23.4707,23.4082 -10e-5,0.66104 0.028,1.32179 0.084,1.98047 -0.2092,96.53225 4.2232,195.06596 -1.916,290.75586 -2.2915,35.71698 -17.9477,71.32253 -36.0703,102.18551 -19.683,33.5205 -43.5586,64.4961 -76.37108,85.3379 -41.78129,26.5385 -91.88021,44.93 -141.375,45.416 -44.22358,0.4343 -89.7536,-14.3881 -127.0918,-38.0898 -41.38674,-26.2717 -74.64834,-66.496 -98.1582,-109.5117 -18.46649,-33.78793 -27.44758,-73.20402 -28.56836,-111.709 -2.57313,-88.40159 0.76915,-172.70324 -0.18945,-260.06641 0.12779,-0.98908 0.19172,-1.98525 0.1914,-2.98242 5.1e-4,-12.92786 -10.56642,-23.40822 -23.60156,-23.4082 -11.59703,6.5e-4 -21.47529,8.35726 -23.30469,19.71484 -0.0373,0.2048 -0.0672,0.40864 -0.0898,0.61133 -0.13736,1.0217 -0.20652,2.05129 -0.20703,3.08203 2.4e-4,0.71467 0.0335,1.42896 0.0996,2.14062 -0.19698,14.93416 -0.46423,29.80403 -0.75782,44.63086 -6.78073,-8.24197 -16.89361,-13.01753 -27.5664,-13.01757 -19.7144,-2.7e-4 -35.69646,15.98091 -35.69727,35.69531 -2.6e-4,19.71517 15.9821,35.69753 35.69727,35.69726 10.16037,-8e-5 19.83928,-4.32983 26.61133,-11.90429 -1.18893,59.16549 -2.0151,117.99715 0.46875,177.86523 1.93805,46.71276 15.8905,94.901 39.18945,135.88081 29.11437,51.2085 69.955,99.2912 120.86523,128.9239 39.27567,22.8607 89.017,32.4108 135.22852,34.1211 l -23.51953,-0.4258 v 196.9707 c -125.6514,3.5623 -220.30973,29.0827 -220.3086,59.3965 -2.7e-4,33.0323 111.76931,59.8104 249.64454,59.8105 137.87601,10e-5 249.6468,-26.778 249.6465,-59.8105 10e-4,-30.1182 -93.47398,-55.5383 -218.18361,-59.334 V 1204.625 l -17.94922,-0.3242 c 56.90293,-1.5559 120.07575,-26.0852 169.94723,-61.207 38.2863,-26.9631 66.3605,-68.1121 87.5352,-109.879 18.0794,-35.6613 28.4618,-75.8693 31.498,-115.73628 4.7931,-62.9354 4.1366,-127.09984 2.8672,-191.26563 6.7731,8.50251 17.0514,13.45544 27.9219,13.45508 19.7144,-8.2e-4 35.6956,-15.98287 35.6953,-35.69727 -8e-4,-19.71363 -15.9817,-35.69449 -35.6953,-35.69531 -11.3888,-3.5e-4 -22.0942,5.43362 -28.8164,14.62695 -0.3455,-17.03631 -0.6584,-34.05279 -0.8457,-51.02734 0.023,-0.42408 0.035,-0.84872 0.035,-1.27344 -0.013,-0.29069 -0.032,-0.5811 -0.057,-0.87109 0,-0.16603 0,-0.33203 -0.01,-0.49805 0,-0.43044 -0.049,-0.85607 -0.1113,-1.27734 -1.3481,-11.81894 -11.3707,-20.75015 -23.2988,-20.76172 z m -85.5531,114.75915 c 0,0 -391.49429,-20.94037 -389.29674,7.6278 0,0 -2.38382,118.78314 4.57246,176.86305 4.43233,37.00679 17.9814,73.59379 41.4375,102.55864 23.2163,28.6687 55.97018,50.2908 90.12695,64.2265 16.50538,6.7341 52.83203,8.2891 52.83203,8.2891 0,0 45.04341,-8e-4 64.74609,-6.7344 34.49673,-11.7923 65.64618,-29.4963 90.12696,-57.4941 24.07145,-27.52964 42.33425,-65.98926 45.06245,-103.07621 4.264,-57.96324 0.3923,-192.26038 0.3923,-192.26038 z" />
        <path
           style="fill:none;stroke:#ffca6b;stroke-width:9.62393;stroke-linecap:round;stroke-linejoin:round;stroke-miterlimit:4;stroke-dasharray:none;stroke-opacity:1;paint-order:fill markers stroke"
           d="M 786.44059,276.65302 C 787.88461,177.27479 868.41888,97.234706 967.80411,96.402393 1067.1893,95.570081 1149.0528,174.25015 1152.161,273.59025"
           id="path7"
           transform="matrix(1.082204,0,0,0.99766814,-205.48897,81.229216)" />
        <path
           id="path8"
           style="fill:none;stroke:#ffca6b;stroke-width:10.2;stroke-linecap:round;stroke-linejoin:round;stroke-miterlimit:4;stroke-dasharray:none;stroke-opacity:1;paint-order:fill markers stroke"
           d="m 645.66797,353.59961 -1.37305,325.42187 z" />
        <path
           style="fill:none;stroke:#ffca6b;stroke-width:10.2;stroke-linecap:round;stroke-linejoin:round;stroke-miterlimit:4;stroke-dasharray:none;stroke-opacity:1;paint-order:fill markers stroke"
           d="m 1041.4472,352.85768 1.066,331.95948"
           id="path8-2" />
        <rect
           style="display:inline;fill:#e28000;fill-opacity:1;stroke:none;stroke-width:10;stroke-linecap:round;stroke-linejoin:round;stroke-miterlimit:4;stroke-dasharray:none;stroke-opacity:1;paint-order:fill markers stroke"
           id="rect13"
           width="531.80737"
           height="35.893337"
           x="586.74615"
           y="684.90344" />
        <g
           id="g20"
           transform="matrix(0.85514121,0,0,0.85514121,160.77134,99.335026)">
          <rect
             style="opacity:1;fill:#fff3c7;fill-opacity:1;stroke:#fff3c7;stroke-width:10;stroke-linecap:round;stroke-linejoin:miter;stroke-miterlimit:4;stroke-dasharray:none;stroke-opacity:1;paint-order:fill markers stroke"
             id="rect18"
             width="71.479553"
             height="448.56009"
             x="683.50629"
             y="401.2988"
             transform="rotate(0.14124735)" />
          <ellipse
             style="opacity:1;fill:#fff3c7;fill-opacity:1;stroke:#fff3c7;stroke-width:8.9445;stroke-linecap:round;stroke-linejoin:round;stroke-miterlimit:4;stroke-dasharray:none;stroke-opacity:1;paint-order:fill markers stroke"
             id="path18"
             cx="719.24463"
             cy="396.70898"
             transform="rotate(0.14124735)"
             rx="36.266075"
             ry="36.008545" />
          <ellipse
             style="opacity:1;fill:#fff3c7;fill-opacity:1;stroke:#fff3c7;stroke-width:8.9445;stroke-linecap:round;stroke-linejoin:round;stroke-miterlimit:4;stroke-dasharray:none;stroke-opacity:1;paint-order:fill markers stroke"
             id="path18-6"
             cx="719.23163"
             cy="853.65173"
             transform="rotate(0.14124735)"
             rx="36.266075"
             ry="36.008545" />
        </g>
        <path
           d="m 886.12901,657.36604 c -64.899,-1.27323 -143.428,0.78143 -251.1015,9.95313 -3.8521,0.32812 -6.9727,3.73557 -6.9727,7.60156 v 54.12305 c 0,3.86599 3.1291,6.83847 6.9903,6.64453 145.5001,-7.30837 286.5313,-8.16164 420.41009,1.3164 3.8563,0.27302 6.9824,-2.6301 6.9824,-6.49609 v -55.58789 c 0,-3.86599 -3.1264,-7.24089 -6.9804,-7.54102 C 1002.297,663.24 951.02811,658.63928 886.12901,657.36604 Z"
           style="display:inline;fill:#ffa126;fill-opacity:1;stroke:none;stroke-width:10;stroke-linecap:round;stroke-linejoin:round;stroke-dasharray:none;stroke-opacity:1"
           id="path1-2" />
        <path
           style="opacity:1;fill:#e28000;fill-opacity:1;stroke:none;stroke-width:10;stroke-linecap:round;stroke-linejoin:miter;stroke-miterlimit:4;stroke-dasharray:none;stroke-opacity:1;paint-order:fill markers stroke"
           d="m 455.37415,426.5072 45.9973,-133.01563 -29.185,137.96945 65.9986,-33.76872 -59.1416,48.2084 95.5939,35.20722 -100.5655,-18.36566 26.7208,70.43657 -39.3081,-61.26157 -44.2627,126.72747 27.3544,-131.55975 -66.73,32.58298 59.9596,-46.95324 -103.371,-37.68911 108.7007,20.62257 -27.5655,-71.99189 z"
           id="path20" />
        <path
           style="fill:#e28000;fill-opacity:1;stroke:none;stroke-width:6.66767;stroke-linecap:round;stroke-linejoin:miter;stroke-miterlimit:4;stroke-dasharray:none;stroke-opacity:1;paint-order:fill markers stroke"
           d="m 482.21454,1117.6788 30.6695,-88.6904 -19.45961,91.9935 44.00571,-22.5159 -39.43368,32.1438 63.73889,23.475 -67.05379,-12.2456 17.81655,46.9648 -26.20936,-40.8472 -29.51292,84.4977 18.23902,-87.7197 -44.49338,21.7253 39.9791,-31.307 -68.92441,-25.1298 72.47808,13.7504 -18.37978,-48.0018 z"
           id="path20-1" />
        <path
           style="fill:#e28000;fill-opacity:1;stroke:none;stroke-width:8.88922;stroke-linecap:round;stroke-linejoin:miter;stroke-miterlimit:4;stroke-dasharray:none;stroke-opacity:1;paint-order:fill markers stroke"
           d="m 1205.2257,1127.5588 40.888,-118.2405 -25.9431,122.6441 58.6676,-30.0178 -52.5723,42.8535 84.9755,31.2965 -89.3949,-16.3256 23.7528,62.6126 -34.9419,-54.4567 -39.3461,112.6508 24.3159,-116.9463 -59.3178,28.9637 53.2994,-41.7379 -91.8888,-33.5026 96.6265,18.3318 -24.5036,-63.9952 z"
           id="path20-1-9" />
      </g>
    </g>
  </g>
</svg>
