<?xml version="1.0" encoding="UTF-8" standalone="no"?>
<!-- Created with Inkscape (http://www.inkscape.org/) -->

<svg
   width="133.53299mm"
   height="55.96244mm"
   viewBox="0 0 133.53299 55.962441"
   version="1.1"
   id="svg1"
   xml:space="preserve"
   xmlns="http://www.w3.org/2000/svg"
   xmlns:svg="http://www.w3.org/2000/svg"><defs
     id="defs1" /><g
     id="g1"
     transform="translate(8.5002924,7.5804867)"><path
       style="fill:#ffffff;stroke-width:1.05833;stroke-linecap:round"
       d="M 5.2490788,0.94450064 4.7587035,5.5276245 7.9272828,4.4714314 Z"
       id="path2" /><path
       style="fill:#ffffff;stroke-width:1.05833;stroke-linecap:round"
       d="m 11.34105,1.4160154 -2.0746652,3.2440218 2.9233922,0.32063 z"
       id="path3" /><path
       id="path27"
       style="fill:#f47417;fill-opacity:1;stroke:none;stroke-width:0.193646;stroke-dasharray:none;stroke-opacity:1"
       d="m 5.061801,0.02428479 c 0.180726,-0.099571 0.444737,0.097812 1.055715,0.7638464 C 7.196626,1.9644805 8.093313,3.4712787 8.772753,5.2490493 8.3851245,5.1862432 7.9983736,5.1425651 7.613671,5.1181472 7.506004,4.7953136 7.238096,4.1669544 7.016833,3.7237471 6.646363,2.9816644 6.034592,2.1226016 5.626971,1.772381 5.471596,1.6388892 5.467781,1.6372928 5.437422,1.6872336 5.350172,1.8307547 5.188891,2.6027737 5.122216,3.1950564 5.057916,3.7662071 5.025346,4.6794246 5.053866,5.113077 l 0.009,0.1335714 C 4.6489005,5.3169839 4.2990098,5.5813456 3.9015968,5.6998782 3.9583668,5.6643552 3.913075,5.3949178 3.908135,5.0893067 3.881235,3.426988 4.025818,2.2841716 4.397291,1.2166645 4.556035,0.76046489 4.839051,0.22597489 5.007821,0.06439999 c 0.01719,-0.016473 0.03531,-0.02981 0.054,-0.040114 z" /><path
       id="path4"
       style="display:inline;fill:#f47417;fill-opacity:1;stroke:none;stroke-width:0.152291;stroke-dasharray:none;stroke-opacity:1"
       d="m 11.323283,0.64833009 c -0.09138,0.015484 -0.274461,0.1353084 -0.448192,0.2996954 C 10.249551,1.5399314 9.62587,2.5756151 9.157633,3.7996528 9.048568,4.0847837 8.940862,4.3643391 8.918058,4.4209472 c -0.0087,0.021562 -0.01549,0.038601 -0.0256,0.051891 a 12.721559,8.8684325 86.198416 0 1 1.194544,0.2494502 c 0.03683,-0.2273981 0.199393,-0.7945004 0.367312,-1.2604843 0.186177,-0.5166505 0.614738,-1.3356462 0.705068,-1.3477194 0.183483,-0.024524 0.490773,1.9891449 0.452781,2.9671601 -0.0046,0.1165392 -0.0122,0.2211069 -0.02113,0.299374 a 12.721559,8.8684325 86.198416 0 1 0.583862,0.3690187 l 0.0087,-0.2253288 c 0.02843,-0.7388693 -0.01,-1.5532759 -0.108732,-2.2979188 C 11.928919,2.12565 11.571215,0.81912639 11.370881,0.65504219 c -0.01012,-0.00826 -0.02651,-0.010276 -0.04761,-0.00671 z" /><path
       id="text1"
       style="font-size:50.8px;font-family:Mileast;-inkscape-font-specification:Mileast;text-align:start;writing-mode:lr-tb;direction:ltr;text-anchor:start;display:inline;fill:#f47417;fill-opacity:1;stroke-width:2.30187"
       d="m 8.557617,3.9417021 c -4.886523,0 -7.441406,3.9687501 -7.441406,8.3839839 0,2.306836 0.694531,4.712891 2.108398,6.746875 2.728516,3.894336 14.659571,10.715625 17.51211,15.50293 0.694531,1.141015 0.967383,2.00918 0.967383,2.678906 0,1.016992 -0.694532,1.488281 -1.736329,1.488281 -0.843359,0 -1.909961,-0.297656 -3.050976,-0.868164 -4.067969,-2.058789 -6.35,-6.920508 -11.261328,-6.920508 C 2.00918,30.954006 0,34.203421 0,37.651272 c 0,1.066602 0.198438,2.133203 0.570508,3.150195 h 0.37207 C 1.537891,38.59385 3.050977,37.84971 5.010547,37.84971 c 3.91914,0 9.599414,2.951757 13.369726,2.951757 4.81211,0 7.714258,-4.092773 7.714258,-8.904882 0,-7.788672 -14.535547,-14.215545 -19.79414,-20.515935 C 5.233789,10.090806 4.7625,8.8530303 4.7625,7.9352568 c 0,-1.2154297 0.818555,-1.8851563 2.058789,-1.8851563 0.744141,0 1.711524,0.2480469 2.80293,0.8185547 3.943945,1.9843751 6.201172,6.5980468 10.095508,6.5980468 3.571875,0 5.457031,-2.43086 5.457031,-5.705078 0,-0.4946777 -0.04281,-1.006832 -0.130225,-1.5322062 H 22.799125 V 6.1208972 c -0.663508,0.5726054 -1.505357,0.7973674 -2.459281,0.7973674 -3.497461,0 -8.408789,-2.9765625 -11.782227,-2.9765625 z M 28.575,4.3385771 v 0.4216797 c 1.463477,0.4464844 1.5875,3.8943355 1.5875,5.9283202 v 19.471679 c 0,6.796485 5.531445,10.641211 12.27832,10.641211 h 1.190625 c 6.746875,0 12.278321,-3.844726 12.278321,-10.641211 V 10.936624 c 0,-2.3564453 0.124023,-5.7298828 1.562695,-6.1763672 V 4.3385771 H 46.111914 v 0.4216797 c 1.463477,0.4464844 1.5875,3.8943355 1.5875,5.9283202 v 24.010937 c 0,2.554883 -2.108398,4.638477 -4.663281,4.638477 -2.554883,0 -4.663281,-2.083594 -4.663281,-4.638477 V 11.085452 c 0,-2.3316407 0.09922,-5.8539062 1.5875,-6.3251952 V 4.3385771 Z m 31.37793,0 v 0.4216797 l 1.661914,2.9765625 V 33.583303 c 0,2.158008 -0.04961,5.903516 -1.5875,6.374805 v 0.42168 h 10.740429 v -0.372071 c -0.942578,-0.272851 -1.413867,-2.033984 -1.860351,-3.96875 L 62.656641,9.6467803 79.647852,40.379788 H 86.56836 V 11.035842 c 0,-2.3316397 0.0992,-5.8042962 1.5875,-6.2755852 V 4.3385771 H 77.440234 v 0.3720703 c 0.868164,0.2480469 1.339454,1.8355469 1.761133,3.6214844 2.058789,8.6816402 4.117578,17.3632812 6.151563,26.0449212 L 68.609766,4.3385771 Z m 31.67559,0 v 0.4216797 c 1.46347,0.4464844 1.5875,3.8943355 1.5875,5.9283202 v 23.068359 c 0,2.356445 -0.12403,5.754688 -1.5875,6.201172 v 0.42168 h 23.71328 l 1.19062,-8.805664 -0.37207,-0.148828 c -3.15019,3.671093 -6.59805,7.292578 -14.73398,7.639843 V 18.254006 c 3.62148,0.07442 7.78867,0.545704 9.69863,3.373438 h 0.39687 v -4.7625 h -10.0955 V 5.6284208 c 8.06152,0.2232422 10.98847,2.4308595 14.13867,6.1019532 l 0.37207,-0.173633 -1.11621,-7.2181639 z" /><path
       style="fill:#ffffff;fill-opacity:1;stroke:none;stroke-width:0.9667;stroke-opacity:1"
       d="M 6.71794,37.049204 C 5.783837,36.72062 4.7624,36.639161 3.826388,36.876255 2.76998,37.143847 1.049362,38.601531 1.049362,38.601531 c 0,0 -0.0092,-1.796854 0.199684,-2.685632 0.208906,-0.888776 0.677551,-1.963675 1.381104,-2.706103 0.802926,-0.847291 2.409581,-1.16626 3.326587,-1.147187 2.373723,0.04937 4.360193,1.489586 3.160575,1.323017 L 8.04649,33.236941 c -1.006915,-0.139813 -0.724292,0.558437 0.194206,1.075694 0.407619,0.229554 0.818572,0.499779 0.913228,0.600497 0.158464,0.168616 0.111388,0.198658 -0.59409,0.379142 -0.950669,0.243214 -1.243004,0.07394 -1.422615,0.549507 -0.09609,0.254409 0.02575,0.471939 0.376705,0.723672 0.92422,0.662936 1.078971,0.805834 0.843881,0.854832 -0.307067,0.064 -1.110502,-0.184877 -1.639857,-0.371086 z"
       id="path1" /><path
       style="fill:#4c290e;fill-opacity:1;stroke-width:1.69541"
       d="m 22.50727,6.3582586 c 0,0 0.914108,0.4192398 1.458354,0.4896927 0.400719,0.051873 1.156816,-0.049006 1.156816,-0.049006 -0.02705,-0.586647 0.05183,-1.8433128 -0.898029,-1.8955675 -0.620102,0.033321 -0.775467,0.4309746 -1.146529,0.843656 -0.284734,0.3166714 -0.570612,0.6112246 -0.570612,0.6112248 z"
       id="path5" /><path
       style="fill:none;stroke:#f47417;stroke-width:0.257298;stroke-linecap:round;stroke-linejoin:round;stroke-dasharray:none;stroke-opacity:1"
       d="m 5.255904,8.2303694 c 0,0 1.5964131,-0.1770813 2.3722338,-0.02397 4.2843402,0.8455326 8.0532312,5.2937546 12.0677572,5.0993846 1.565786,-0.07581 3.2864,-1.005834 3.2864,-1.005834"
       id="path7" /><path
       style="fill:none;stroke:#ffffff;stroke-width:0.026942;stroke-linecap:round;stroke-linejoin:round;stroke-dasharray:none;stroke-opacity:1"
       d="m 94.914816,75.904201 c -2.169817,-0.951479 -4.313025,-2.062495 -7.057129,-3.658337 -1.206565,-0.701682 -2.718673,-1.613489 -5.417593,-3.266833 -5.302019,-3.247988 -7.567041,-4.548545 -10.282736,-5.904263 -4.01601,-2.004856 -7.563469,-3.267303 -10.825187,-3.852394 -1.903524,-0.341457 -4.258789,-0.336298 -7.833433,0.01716 -0.839978,0.08306 -2.652662,0.299936 -3.083039,0.368873 -0.107817,0.01727 -0.203147,0.02456 -0.211845,0.01621 -0.04393,-0.04219 -0.06723,-0.993421 -0.0371,-1.514502 0.149934,-2.592911 1.340268,-4.551353 3.415163,-5.618928 0.591693,-0.304438 1.045634,-0.47689 1.6811,-0.63865 3.032796,-0.772008 7.04601,-0.09625 11.512387,1.938497 0.730354,0.332727 2.240921,1.097361 3.011754,1.524519 3.108628,1.722651 6.345715,4.103263 10.033241,7.378627 1.204094,1.06951 2.189948,1.9773 4.988822,4.593785 4.206214,3.932116 6.261966,5.700919 8.541551,7.349293 0.655657,0.474106 1.820732,1.259275 2.161046,1.456376 0.160963,0.09323 0.202012,0.129226 0.142568,0.125039 -0.0147,-10e-4 -0.34751,-0.142547 -0.739573,-0.31447 z"
       id="path8"
       transform="matrix(0.26458333,0,0,0.26458333,-8.5002924,-7.5804867)" /><path
       style="fill:none;stroke:#ffffff;stroke-width:0.026942;stroke-linecap:round;stroke-linejoin:round;stroke-dasharray:none;stroke-opacity:1"
       d="m 94.9861,75.939315 c -1.961201,-0.854647 -4.167334,-1.985562 -6.575961,-3.370995 -1.548986,-0.89097 -2.395521,-1.400594 -6.968023,-4.194837 -5.613023,-3.430102 -8.50878,-5.023722 -11.726239,-6.453296 -3.513553,-1.561133 -7.138176,-2.633923 -9.730284,-2.879899 -1.484581,-0.140878 -4.140103,-0.04963 -6.825455,0.234531 -0.929424,0.09835 -2.799317,0.329615 -2.89473,0.358014 -0.04289,0.01277 -0.06622,-0.0064 -0.07802,-0.06401 -0.04396,-0.214709 -0.05496,-0.959088 -0.02187,-1.479856 0.178396,-2.807441 1.521363,-4.815384 3.903493,-5.836321 3.11295,-1.334153 7.575457,-0.791651 12.742038,1.549034 0.609116,0.275956 2.28704,1.126873 2.958291,1.500223 3.04179,1.691846 6.063842,3.890422 9.552073,6.949236 1.343379,1.178004 2.577114,2.309821 5.61396,5.150194 3.913199,3.660032 6.010959,5.469861 8.194057,7.069368 0.624225,0.457356 1.793666,1.254703 2.275464,1.551454 0.262665,0.161781 0.310243,0.199456 0.249495,0.197566 -0.0147,-4.58e-4 -0.315432,-0.126641 -0.668289,-0.280407 z"
       id="path9"
       transform="matrix(0.26458333,0,0,0.26458333,-8.5002924,-7.5804867)" /><path
       style="fill:#f47417;fill-opacity:1;stroke:#f47417;stroke-width:0.2;stroke-linecap:round;stroke-linejoin:round;stroke-dasharray:none;stroke-opacity:1"
       d="m 4.5492299,8.4687897 c 0,0 1.5876604,-0.365269 2.4894553,-0.3200749 0.5557521,0.027852 1.8250834,0.3545601 1.8250834,0.3545601 l 1.7337394,0.7735141 1.226953,0.6668228 2.347216,1.4136642 1.973795,1.093589 1.627047,0.453439 -0.133365,-2.9073464 -9.8689744,-4.7744501 -3.12073,0.8268602 z"
       id="path10" /><path
       style="fill:none;fill-opacity:1;stroke:#f47417;stroke-width:0.206513;stroke-linecap:round;stroke-linejoin:round;stroke-dasharray:none;stroke-opacity:1"
       d="M 8.0271963,13.308874 C 6.6635317,12.219067 4.7747723,10.044713 5.8300812,8.7153611 7.144866,7.0591526 12.024787,10.08313 12.024787,10.08313"
       id="path11" /><path
       style="fill:#f47417;fill-opacity:1;stroke:none;stroke-width:0.2;stroke-linecap:round;stroke-linejoin:round;stroke-dasharray:none;stroke-opacity:1"
       d="M 4.6094404,8.4632657 C 4.6961272,8.449928 5.4496369,8.3032282 5.4496369,8.3032282 l -0.5534628,0.82686 z"
       id="path12" /><path
       style="fill:#f47417;fill-opacity:1;stroke:none;stroke-width:0.2;stroke-linecap:round;stroke-linejoin:round;stroke-dasharray:none;stroke-opacity:1"
       d="m 4.9028424,9.063406 c 0,0.093355 0.5068665,1.557373 0.5735486,1.464018 0.066682,-0.09336 0.1206171,-1.5239509 0.1206171,-1.5239509 L 6.4589085,8.2243535 5.9097444,8.1098495 c 0,0 -0.6068086,0.060014 -0.6334815,0.066683 -0.026673,0.00667 -0.4200983,0.8735374 -0.4200983,0.8735374 z"
       id="path13" /></g></svg>
