<?xml version="1.0" encoding="UTF-8" standalone="no"?>
<!-- Created with Inkscape (http://www.inkscape.org/) -->

<svg
   width="133.53299mm"
   height="55.96244mm"
   viewBox="0 0 133.53299 55.962441"
   version="1.1"
   id="svg1"
   xml:space="preserve"
   sodipodi:docname="sunelogoreduced.svg"
   inkscape:export-filename="sunelogoreduced.png"
   inkscape:export-xdpi="96"
   inkscape:export-ydpi="96"
   inkscape:version="1.4.2 (f4327f4, 2025-05-13)"
   xmlns:inkscape="http://www.inkscape.org/namespaces/inkscape"
   xmlns:sodipodi="http://sodipodi.sourceforge.net/DTD/sodipodi-0.dtd"
   xmlns="http://www.w3.org/2000/svg"
   xmlns:svg="http://www.w3.org/2000/svg"><sodipodi:namedview
     id="namedview1"
     pagecolor="#ffffff"
     bordercolor="#000000"
     borderopacity="0.25"
     inkscape:showpageshadow="2"
     inkscape:pageopacity="0.0"
     inkscape:pagecheckerboard="0"
     inkscape:deskcolor="#d1d1d1"
     inkscape:document-units="mm"
     inkscape:zoom="1.2399443"
     inkscape:cx="125.8121"
     inkscape:cy="93.149344"
     inkscape:window-width="1920"
     inkscape:window-height="1009"
     inkscape:window-x="1912"
     inkscape:window-y="-8"
     inkscape:window-maximized="1"
     inkscape:current-layer="g1" /><defs
     id="defs1" /><g
     id="g1"
     transform="translate(8.5002924,7.5804867)"><path
       style="fill:#ffffff;stroke-width:1.05833;stroke-linecap:round"
       d="M 5.2490788,0.94450064 4.7587035,5.5276245 7.9272828,4.4714314 Z"
       id="path2" /><path
       style="fill:#ffffff;stroke-width:1.05833;stroke-linecap:round"
       d="m 11.34105,1.4160154 -2.0746652,3.2440218 2.9233922,0.32063 z"
       id="path3" /><path
       id="path27"
       style="fill:#f47417;fill-opacity:1;stroke:none;stroke-width:0.193646;stroke-dasharray:none;stroke-opacity:1"
       d="m 5.061801,0.02428479 c 0.180726,-0.099571 0.444737,0.097812 1.055715,0.7638464 C 7.196626,1.9644805 8.093313,3.4712787 8.772753,5.2490493 8.3851245,5.1862432 7.9983736,5.1425651 7.613671,5.1181472 7.506004,4.7953136 7.238096,4.1669544 7.016833,3.7237471 6.646363,2.9816644 6.034592,2.1226016 5.626971,1.772381 5.471596,1.6388892 5.467781,1.6372928 5.437422,1.6872336 5.350172,1.8307547 5.188891,2.6027737 5.122216,3.1950564 5.057916,3.7662071 5.025346,4.6794246 5.053866,5.113077 l 0.009,0.1335714 C 4.6489005,5.3169839 4.2990098,5.5813456 3.9015968,5.6998782 3.9583668,5.6643552 3.913075,5.3949178 3.908135,5.0893067 3.881235,3.426988 4.025818,2.2841716 4.397291,1.2166645 4.556035,0.76046489 4.839051,0.22597489 5.007821,0.06439999 c 0.01719,-0.016473 0.03531,-0.02981 0.054,-0.040114 z"
       sodipodi:nodetypes="csccsssccccccccc" /><path
       id="path4"
       style="display:inline;fill:#f47417;fill-opacity:1;stroke:none;stroke-width:0.152291;stroke-dasharray:none;stroke-opacity:1"
       d="m 11.323283,0.64833009 c -0.09138,0.015484 -0.274461,0.1353084 -0.448192,0.2996954 C 10.249551,1.5399314 9.62587,2.5756151 9.157633,3.7996528 9.048568,4.0847837 8.940862,4.3643391 8.918058,4.4209472 c -0.0087,0.021562 -0.01549,0.038601 -0.0256,0.051891 a 12.721559,8.8684325 86.198416 0 1 1.194544,0.2494502 c 0.03683,-0.2273981 0.199393,-0.7945004 0.367312,-1.2604843 0.186177,-0.5166505 0.614738,-1.3356462 0.705068,-1.3477194 0.183483,-0.024524 0.490773,1.9891449 0.452781,2.9671601 -0.0046,0.1165392 -0.0122,0.2211069 -0.02113,0.299374 a 12.721559,8.8684325 86.198416 0 1 0.583862,0.3690187 l 0.0087,-0.2253288 c 0.02843,-0.7388693 -0.01,-1.5532759 -0.108732,-2.2979188 C 11.928919,2.12565 11.571215,0.81912639 11.370881,0.65504219 c -0.01012,-0.00826 -0.02651,-0.010276 -0.04761,-0.00671 z" /><path
       id="text1"
       style="font-size:50.8px;font-family:Mileast;-inkscape-font-specification:Mileast;text-align:start;writing-mode:lr-tb;direction:ltr;text-anchor:start;display:inline;fill:#f47417;fill-opacity:1;stroke-width:2.30187"
       d="m 8.557617,3.9417021 c -4.886523,0 -7.441406,3.9687501 -7.441406,8.3839839 0,2.306836 0.694531,4.712891 2.108398,6.746875 2.728516,3.894336 14.659571,10.715625 17.51211,15.50293 0.694531,1.141015 0.967383,2.00918 0.967383,2.678906 0,1.016992 -0.694532,1.488281 -1.736329,1.488281 -0.843359,0 -1.909961,-0.297656 -3.050976,-0.868164 -4.067969,-2.058789 -6.35,-6.920508 -11.261328,-6.920508 C 2.00918,30.954006 0,34.203421 0,37.651272 c 0,1.066602 0.198438,2.133203 0.570508,3.150195 h 0.37207 C 1.537891,38.59385 3.050977,37.84971 5.010547,37.84971 c 3.91914,0 9.599414,2.951757 13.369726,2.951757 4.81211,0 7.714258,-4.092773 7.714258,-8.904882 0,-7.788672 -14.535547,-14.262696 -19.79414,-20.563086 C 5.233789,10.043655 4.7625,8.8530303 4.7625,7.9352568 c 0,-1.2154297 0.818555,-1.8851563 2.058789,-1.8851563 0.744141,0 1.711524,0.2480469 2.80293,0.8185547 3.943945,1.9843751 6.201172,6.5980468 10.095508,6.5980468 3.571875,0 5.457031,-2.43086 5.457031,-5.705078 0,-0.4946777 -0.04281,-1.006832 -0.130225,-1.5322062 H 22.799125 V 6.1208972 c -0.663508,0.5726054 -1.505357,0.7973674 -2.459281,0.7973674 -3.497461,0 -8.408789,-2.9765625 -11.782227,-2.9765625 z M 28.575,4.3385771 v 0.4216797 c 1.463477,0.4464844 1.5875,3.8943355 1.5875,5.9283202 v 19.471679 c 0,6.796485 5.531445,10.641211 12.27832,10.641211 h 1.190625 c 6.746875,0 12.278321,-3.844726 12.278321,-10.641211 V 10.936624 c 0,-2.3564453 0.124023,-5.7298828 1.562695,-6.1763672 V 4.3385771 H 46.111914 v 0.4216797 c 1.463477,0.4464844 1.5875,3.8943355 1.5875,5.9283202 v 24.010937 c 0,2.554883 -2.108398,4.638477 -4.663281,4.638477 -2.554883,0 -4.663281,-2.083594 -4.663281,-4.638477 V 11.085452 c 0,-2.3316407 0.09922,-5.8539062 1.5875,-6.3251952 V 4.3385771 Z m 31.37793,0 v 0.4216797 l 1.661914,2.9765625 V 33.583303 c 0,2.158008 -0.04961,5.903516 -1.5875,6.374805 v 0.42168 h 10.740429 v -0.372071 c -0.942578,-0.272851 -1.413867,-2.033984 -1.860351,-3.96875 L 62.656641,9.6467803 79.647852,40.379788 H 86.56836 V 11.035842 c 0,-2.3316397 0.0992,-5.8042962 1.5875,-6.2755852 V 4.3385771 H 77.440234 v 0.3720703 c 0.868164,0.2480469 1.339454,1.8355469 1.761133,3.6214844 2.058789,8.6816402 4.117578,17.3632812 6.151563,26.0449212 L 68.609766,4.3385771 Z m 31.67559,0 v 0.4216797 c 1.46347,0.4464844 1.5875,3.8943355 1.5875,5.9283202 v 23.068359 c 0,2.356445 -0.12403,5.754688 -1.5875,6.201172 v 0.42168 h 23.71328 l 1.19062,-8.805664 -0.37207,-0.148828 c -3.15019,3.671093 -6.59805,7.292578 -14.73398,7.639843 V 18.254006 c 3.62148,0.07442 7.78867,0.545704 9.69863,3.373438 h 0.39687 v -4.7625 h -10.0955 V 5.6284208 c 8.06152,0.2232422 10.98847,2.4308595 14.13867,6.1019532 l 0.37207,-0.173633 -1.11621,-7.2181639 z" /><path
       style="fill:#ffffff;fill-opacity:1;stroke:none;stroke-width:0.9667;stroke-opacity:1"
       d="M 6.71794,37.049204 C 5.783837,36.72062 4.7624,36.639161 3.826388,36.876255 2.76998,37.143847 1.049362,38.601531 1.049362,38.601531 c 0,0 -0.0092,-1.796854 0.199684,-2.685632 0.208906,-0.888776 0.677551,-1.963675 1.381104,-2.706103 0.802926,-0.847291 2.409581,-1.16626 3.326587,-1.147187 2.373723,0.04937 4.360193,1.489586 3.160575,1.323017 L 8.04649,33.236941 c -1.006915,-0.139813 -0.724292,0.558437 0.194206,1.075694 0.407619,0.229554 0.818572,0.499779 0.913228,0.600497 0.158464,0.168616 0.111388,0.198658 -0.59409,0.379142 -0.950669,0.243214 -1.243004,0.07394 -1.422615,0.549507 -0.09609,0.254409 0.02575,0.471939 0.376705,0.723672 0.92422,0.662936 1.078971,0.805834 0.843881,0.854832 -0.307067,0.064 -1.110502,-0.184877 -1.639857,-0.371086 z"
       id="path1" /><path
       style="fill:#4c290e;fill-opacity:1;stroke-width:1.69541"
       d="m 22.50727,6.3582586 c 0,0 0.914108,0.4192398 1.458354,0.4896927 0.400719,0.051873 1.156816,-0.049006 1.156816,-0.049006 -0.02705,-0.586647 0.05183,-1.8433128 -0.898029,-1.8955675 -0.620102,0.033321 -0.775467,0.4309746 -1.146529,0.843656 -0.284734,0.3166714 -0.570612,0.6112246 -0.570612,0.6112248 z"
       id="path5" /></g></svg>
