<?xml version="1.0" encoding="UTF-8" standalone="no"?>
<!-- Created with Inkscape (http://www.inkscape.org/) -->

<svg
   version="1.1"
   id="svg1"
   width="1365.3333"
   height="2048"
   viewBox="0 0 1365.3333 2048"
   xml:space="preserve"
   xmlns="http://www.w3.org/2000/svg"
   xmlns:svg="http://www.w3.org/2000/svg"><defs
     id="defs1" /><g
     id="g1"
     style="display:inline"><g
       id="g25"
       style="display:inline"><path
         style="display:inline;fill:#e66814;fill-opacity:1;stroke:#632207;stroke-width:4;stroke-linecap:round;stroke-linejoin:round;stroke-opacity:1"
         d="m 536.10434,324.35434 c 0,0 -23.05905,-42.76337 -30.28204,-65.27462 -7.12757,-22.21385 -13.36462,-45.27784 -17.04912,-68.26236 -6.22903,-39.97484 -10.66732,-81.69931 -0.27728,-121.546346 0,0 38.56736,31.373526 55.80959,49.198436 28.88953,29.86583 79.28032,96.1966 79.28032,96.1966 0,0 2.78815,11.03077 -0.71996,11.803 -7.26856,1.6 -0.3343,12.64775 -0.3343,12.64775 l -9.00594,10.34554 -24.65558,19.60334 -7.71677,24.37104 -25.56764,15.34803 -14.86832,22.03694 z"
         id="path12" /><path
         id="path12-5"
         style="display:inline;fill:#e66814;fill-opacity:1;stroke:#632207;stroke-width:4;stroke-linecap:round;stroke-linejoin:round;stroke-opacity:1"
         d="m 575.70508,153.43359 -0.25977,0.10352 -28.86719,-6.82031 -9.51757,16.65429 -50.45117,11.67969 c 0.69452,5.02138 1.4417,10.02386 2.21679,14.99805 3.6845,22.98452 9.92321,46.04787 17.05078,68.26172 7.22299,22.51125 30.28125,65.27539 30.28125,65.27539 l 4.61328,6.46679 14.86719,-22.03711 25.56836,-15.34765 7.7168,-24.37109 24.65625,-19.60352 9.00586,-10.3457 c 0,0 -6.93458,-11.04844 0.33398,-12.64844 3.50811,-0.77223 0.7207,-11.80274 0.7207,-11.80274 0,0 -23.71608,-31.21744 -47.93554,-60.46289 z" /><path
         id="path25"
         style="display:inline;fill:#632207;fill-opacity:1;stroke:#632207;stroke-width:4;stroke-linecap:round;stroke-linejoin:round;stroke-opacity:1"
         d="m 488.54883,68.501953 c -9.09718,34.888747 -6.82644,71.216107 -1.93945,106.548827 l 50.45117,-11.67969 9.51757,-16.65429 28.86719,6.82031 0.25977,-0.10352 C 564.62043,140.04868 553.43,127.07638 544.35938,117.69922 527.11714,99.874312 488.54883,68.501953 488.54883,68.501953 Z" /><path
         style="display:inline;fill:#fce6c6;fill-opacity:1;stroke:#632207;stroke-width:4;stroke-linecap:round;stroke-linejoin:round;stroke-dasharray:none;stroke-opacity:1"
         d="m 547.88482,318.11879 c 0,0 -29.68107,-59.98465 -38.12134,-92.1303 -8.04454,-30.63851 -12.13986,-60.18435 -11.49044,-94.3338 0.17353,-9.12525 1.26229,-26.34557 1.26229,-26.34557 0,0 27.54962,39.05014 39.01858,59.95539 10.4473,19.04299 26.42254,54.88914 26.42254,54.88914 l 19.6679,50.12144 -35.54506,44.5362 z"
         id="path24" /></g><path
       style="display:inline;fill:#e66714;fill-opacity:1;stroke:none;stroke-width:4;stroke-linecap:round;stroke-linejoin:round;stroke-dasharray:none;stroke-opacity:1"
       d="m 449.82403,397.1648 4.44114,0.63445 30.45353,-0.95167 -26.32961,-21.88848 -16.49566,-24.42627 36.16356,5.39282 30.45354,-5.07559 31.08797,-28.23296 13.64065,-32.99133 22.2057,-29.81908 40.60471,-26.32962 -26.96407,-8.56505 31.72243,-11.7373 43.77695,4.75836 -49.16976,-32.03965 40.92193,0.31722 19.66791,8.24784 28.23296,14.59231 -13.32342,-25.06072 -1.58612,-20.9368 34.57744,37.11524 18.71624,14.59232 23.47459,12.68897 49.80422,-84.38166 103.09789,-70.423789 11.10285,82.795539 -3.80669,88.50557 -21.25403,52.65923 -26.01239,50.12144 53.29368,39.65304 24.42627,25.69516 -41.55638,-4.75836 -23.79183,3.48947 26.96407,11.10285 20.61958,19.6679 8.88228,15.86122 -46.63197,-0.31723 -60.90707,14.27509 -38.38413,19.98513 -40.60471,35.2119 -19.98513,29.18463 -9.19951,29.81909 -2.85501,28.55018 30.45353,-6.66171 h 21.57125 l 12.68897,8.24783 8.24783,11.7373 4.75837,18.08179 -2.22057,33.94299 -11.42008,39.65304 -36.79802,113.24907 -26.64684,67.88599 -18.08178,35.52912 -10.15118,9.83396 -17.44733,-0.31723 -27.59851,-10.78562 -47.26642,-29.18464 -13.32342,-12.05452 -71.69269,30.45353 -33.943,10.4684 -42.19083,4.75837 -16.49566,-6.97894 -3.48947,-19.98513 7.61338,-27.59851 18.08179,-40.60471 79.62329,-127.52416 45.99752,-77.71995 25.69517,-30.13631 19.03346,-1.26889 10.4684,0.95167 15.28877,-32.31148 -1.34587,-32.74947 -31.62791,9.42108 -28.03893,0.67293 -44.18936,13.23438 -37.46001,-0.89725 -28.03893,-8.52383 -29.60911,-16.82336 -24.00132,-22.65545 32.52516,-60.33978 33.64671,-1.12156 20.18803,-3.14036 z"
       id="path45" /><path
       style="display:inline;fill:#e66714;fill-opacity:1;stroke:none;stroke-width:4;stroke-linecap:round;stroke-linejoin:round;stroke-dasharray:none;stroke-opacity:1"
       d="m 676.95662,1071.5836 c 0,0 33.39819,52.7951 47.58364,80.575 17.09958,33.4867 30.40643,68.7821 45.04585,103.4151 14.32742,33.8949 24.42193,69.749 41.8736,102.1462 22.17149,39.8183 48.34233,93.0296 97.70508,103.4151 39.97951,7.4756 56.4647,-16.5191 60.90707,-52.0247 6.51539,-53.1677 -20.53961,-101.0337 -36.79802,-149.7299 -7.20218,-23.012 -17.38059,-45.7333 -19.03346,-69.7893 -3.37928,-49.1826 11.43244,-105.8965 43.77695,-141.4821 12.66691,-13.9362 29.52802,-23.8202 46.31477,-32.3568 47.6346,-24.22391 65.5038,-24.62205 103.4151,-14.5924 0,0 -31.3936,20.3754 -39.9703,36.1636 -20.3171,39.8991 -6.8736,80.9703 11.4201,118.6419 40.6981,58.1799 65.2403,102.7328 80.575,142.1165 16.7687,43.0668 29.092,81.4935 17.7645,156.0743 -5.5732,36.6945 -13.4704,86.1017 -72.9615,140.8476 -103.2042,94.9717 -221.77707,47.4097 -253.14503,26.0124 -65.80675,-49.2943 -95.68263,-130.1446 -118.00743,-206.1958 -11.7513,-40.2087 -16.06628,-82.2403 -25.37794,-123.083 -8.91595,-39.107 -29.18464,-116.7386 -29.18464,-116.7386"
       id="path61" /><path
       style="display:inline;fill:#fce5c5;fill-opacity:1;stroke:none;stroke-width:4;stroke-linecap:round;stroke-linejoin:round;stroke-dasharray:none;stroke-opacity:1"
       d="m 492.96654,488.5254 c 0,0 32.15125,-0.0623 47.90086,-2.85502 23.91436,-4.24046 47.75198,-10.72736 69.78934,-20.93681 27.11791,-12.56316 46.37669,-34.23918 72.73728,-45.18659 20.86826,-8.66646 43.5002,-13.27875 65.98265,-15.54399 13.78877,-1.3893 30.14928,0.0185 43.77695,2.5378 12.33155,2.27971 32.61307,7.88552 32.61307,7.88552 l -25.72705,9.38533 c 17.08423,4.89863 29.1954,11.7327 39.64644,25.91288 0,0 -46.76865,10.46372 -65.18218,24.61871 -21.10342,16.22278 -39.06079,52.14657 -46.47417,64.93805 -17.59539,30.36013 -26.66655,69.76025 -33.62577,97.07064 -6.95923,27.31038 -40.29652,126.91519 -40.28748,147.82651 0.009,20.91282 19.90854,-9.44463 11.42007,-3.48946 -6.6766,4.68404 -9.19951,-6.02727 -9.19951,-6.02727 l -30.92936,44.4114 -26.32962,8.08922 -55.536,-18.79514 13.75611,-28.12957 40.6696,-77.90305 -33.943,34.89467 15.06349,-35.52912 32.20293,-40.28748 -31.4052,8.88228 c 0,0 28.26273,-25.45177 41.21001,-41.16879 9.08436,-11.02771 26.35876,-35.28226 26.35876,-35.28226 l 0.63445,-49.80422 -37.74969,9.51673 -29.18464,2.5378 -38.70136,7.61338 c 0,0 -37.21527,3.59754 -54.56257,-1.90335 -16.01913,-5.07972 -42.19083,-27.59851 -42.19083,-27.59851 l -25.69517,-25.69516 z"
       id="path49" /><path
       style="fill:#fce6c5;fill-opacity:1;stroke:none;stroke-width:4;stroke-linecap:round;stroke-linejoin:round;stroke-dasharray:none;stroke-opacity:1"
       d="m 918.33104,1215.9923 1.12155,2.6918 c 0,0 14.98531,22.4346 23.10409,33.1981 5.05614,6.7032 17.49629,19.5151 17.49629,19.5151 0,0 -6.45592,-35.6311 -6.05641,-53.6105 0.26571,-11.9578 5.60779,-35.4412 5.60779,-35.4412 0,0 7.06887,27.9825 13.01006,41.049 5.1803,11.3931 12.04802,22.0326 19.5151,32.0765 8.27629,11.1325 27.81459,30.955 27.81459,30.955 l -8.9724,-38.1329 55.6292,65.4989 c 5.9621,-20.2227 2.4864,-38.0476 0.8973,-56.9751 -1.476,-17.5803 -5.435,-34.8157 -9.6454,-52.0402 l 17.7206,19.0664 c 0,0 21.0077,24.2726 27.8146,33.8711 6.8069,9.5985 13.9073,22.8797 13.9073,22.8797 0,0 3.3975,-12.2999 4.0376,-18.6178 1.2964,-12.7959 -0.4486,-38.5816 -0.4486,-38.5816 l -33.1981,-55.1806 -9.8697,-13.4587 -18.6179,-51.8159 -2.4674,-30.7307 12.3371,-37.0114 19.2908,-20.4123 18.8422,-13.683 -27.1417,-5.83213 -30.2821,1.34586 -47.3297,18.84217 -43.7407,32.0765 -24.67426,36.1142 -14.13162,41.2733 -5.8321,34.3196 -0.22431,32.5252 z"
       id="path57" /><path
       style="display:inline;fill:none;fill-opacity:1;stroke:#632207;stroke-width:4;stroke-linecap:round;stroke-linejoin:round;stroke-dasharray:none;stroke-opacity:1"
       d="m 676.95662,1071.5836 c 0,0 33.39819,52.7951 47.58364,80.575 17.09958,33.4867 30.40643,68.7821 45.04585,103.4151 14.32742,33.8949 24.42193,69.749 41.8736,102.1462 22.17149,39.8183 48.34233,93.0296 97.70508,103.4151 39.97951,7.4756 56.4647,-16.5191 60.90707,-52.0247 6.51539,-53.1677 -20.53961,-101.0337 -36.79802,-149.7299 -7.20218,-23.012 -17.38059,-45.7333 -19.03346,-69.7893 -3.37928,-49.1826 11.43244,-105.8965 43.77695,-141.4821 12.66691,-13.9362 29.52802,-23.8202 46.31477,-32.3568 47.6346,-24.22391 65.5038,-24.62205 103.4151,-14.5924 0,0 -31.3936,20.3754 -39.9703,36.1636 -20.3171,39.8991 -6.8736,80.9703 11.4201,118.6419 40.6981,58.1799 65.2403,102.7328 80.575,142.1165 16.7687,43.0668 29.092,81.4935 17.7645,156.0743 -5.5732,36.6945 -13.4704,86.1017 -72.9615,140.8476 -103.2042,94.9717 -221.77707,47.4097 -253.14503,26.0124 -65.80675,-49.2943 -95.68263,-130.1446 -118.00743,-206.1958 -11.7513,-40.2087 -16.06628,-82.2403 -25.37794,-123.083 -8.91595,-39.107 -29.18464,-116.7386 -29.18464,-116.7386"
       id="path34" /><path
       style="display:inline;opacity:1;fill:#632207;fill-opacity:1;fill-rule:nonzero;stroke:none;stroke-width:4;stroke-linecap:butt;stroke-linejoin:miter;stroke-dasharray:none;stroke-opacity:1"
       d="m 444.01722,457.61664 c 1.43012,0.40531 4.38905,1.771 9.1141,2.38369 6.9735,0.90423 20.56789,1.0275 36.99181,-1.25943 20.76809,-2.85836 41.78862,-8.7336 62.0919,-17.64726 5.80692,-2.60311 11.0859,-5.23464 15.96449,-7.85148 4.83281,-2.59228 10.00187,-5.60632 15.28616,-9.11042 15.60969,-10.31095 29.14699,-22.95441 38.42225,-38.1546 5.12339,-8.53888 7.7742,-16.1817 8.72203,-20.16441 0.60419,-2.53871 0.58589,-4.34132 0.66637,-5.12871 -0.37391,0.77246 -1.27278,2.16395 -2.35801,4.55058 -1.71775,3.77764 -4.55961,10.80663 -9.82483,19.00884 -9.17818,14.54387 -22.36409,26.72289 -37.71159,36.71032 -5.20461,3.37342 -10.29845,6.27462 -15.06937,8.75084 -4.80195,2.49233 -10.08936,4.93021 -15.85594,7.27858 -20.11157,8.37551 -40.75588,13.6118 -61.07036,16.24132 -15.88195,2.02963 -29.42861,2.19754 -36.16497,2.77684 -4.73407,0.4071 -7.65852,1.37632 -9.20404,1.6153 z"
       id="path2" /><path
       style="display:inline;opacity:1;fill:none;fill-opacity:1;stroke:#632207;stroke-width:4;stroke-linecap:butt;stroke-linejoin:miter;stroke-dasharray:none;stroke-opacity:1"
       d="m 414.81721,506.02387 c 12.37741,15.0399 27.00906,28.22133 43.25466,38.96746 12.12828,8.02261 25.26368,14.73394 39.33581,18.39901 20.48439,5.33514 42.31071,4.00712 62.81041,-1.2689 33.79522,-8.6979 64.09651,-27.70536 91.3606,-49.48699 18.53012,-14.80396 36.09152,-31.18336 49.48699,-50.75589 5.08759,-7.43364 9.54961,-15.29529 13.32342,-23.47459"
       id="path3" /><path
       style="display:inline;opacity:1;fill:#632207;fill-opacity:1;fill-rule:nonzero;stroke:none;stroke-width:4;stroke-linecap:square;stroke-linejoin:miter;stroke-dasharray:none;stroke-opacity:1;paint-order:normal"
       d="m 694.26864,442.71194 c 0.0134,0.0215 0.0157,0.1097 0.0805,0.12906 0.38515,0.11503 3.77971,-1.56363 7.9713,-2.45015 4.65574,-0.9847 8.6279,-0.83304 11.73867,-0.37578 0.063,0.009 0.12481,0.0181 0.18557,0.0272 3.10835,0.46318 6.68853,1.63 9.18123,2.50407 0.13746,0.0482 0.59922,0.20871 0.73668,0.25691 3.4578,1.20563 8.37082,3.67046 9.89438,4.80027 -0.57484,-0.83328 -1.55629,-2.29477 -3.08479,-3.95317 -1.53858,-1.66932 -3.30794,-3.17795 -5.13815,-4.30559 -0.2583,-0.15914 -0.51205,-0.30697 -0.75959,-0.44292 -3.02768,-1.66281 -6.39902,-2.57167 -10.41289,-2.83779 -0.0698,-0.005 -0.14089,-0.009 -0.21318,-0.0133 -3.51457,-0.19574 -8.08148,0.21952 -12.81604,2.03999 -4.36837,1.67966 -7.37219,4.07185 -7.44425,4.4922 -0.0115,0.067 0.0671,0.10755 0.0805,0.12906 z"
       id="path4"
       transform="translate(-1.3458687,-0.33646717)" /><path
       style="display:inline;opacity:1;fill:#632207;fill-opacity:1;fill-rule:nonzero;stroke:none;stroke-width:4;stroke-linecap:square;stroke-linejoin:miter;stroke-dasharray:none;stroke-opacity:1;paint-order:normal"
       d="m 587.49938,552.60471 c -0.053,0.30016 -0.57357,1.27131 -0.32562,1.84246 0.80834,1.86199 8.65651,2.99172 17.42444,2.14204 8.52469,-0.71647 16.33359,-2.87861 22.58274,-4.58693 9.02202,-2.44078 18.10419,-5.65335 27.56029,-9.55339 12.37962,-5.06009 22.42077,-10.03935 27.37533,-12.93433 2.87068,-1.67735 4.59414,-3.11116 5.46708,-3.7153 -1.03951,0.36114 -3.1367,0.87859 -6.24818,2.11136 -5.10219,2.02148 -15.6704,6.73306 -27.84373,11.37531 -9.53986,3.6032 -18.40288,6.61212 -27.31951,8.84563 -6.14861,1.5225 -13.90492,2.69614 -21.82866,2.70921 -8.02399,-0.0971 -15.29391,-1.42676 -16.51856,-0.0785 -0.41809,0.46028 -0.27135,1.53538 -0.32562,1.84246 z"
       id="path6" /><path
       style="display:inline;fill:#ffffff;fill-opacity:1;stroke:none;stroke-width:4;stroke-linecap:round;stroke-linejoin:round;stroke-dasharray:none;stroke-opacity:1"
       d="m 653.41923,361.59004 51.81594,-6.28072 51.14301,-1.79449 -2.46743,20.41234 -7.40227,15.92612 -16.15043,16.82335 -13.68299,6.95366 -18.61785,3.58898 -18.16923,-4.48623 -11.88851,-8.07521 -10.31832,-17.27198 -4.03761,-16.59905 z"
       id="path48" /><path
       style="display:inline;fill:#ffffff;fill-opacity:1;stroke:none;stroke-width:4;stroke-linecap:round;stroke-linejoin:round;stroke-dasharray:none;stroke-opacity:1"
       d="m 543.88103,355.60842 76.45106,5.86865 -1.11029,15.22677 -7.77199,19.35068 -15.70261,16.33705 -21.09541,1.90334 -15.22677,-8.72366 -13.32342,-22.84015 z"
       id="path47" /><path
       style="display:inline;opacity:1;fill:none;fill-opacity:1;stroke:#632207;stroke-width:4.17922;stroke-linecap:square;stroke-linejoin:miter;stroke-dasharray:none;stroke-opacity:1;paint-order:normal"
       id="path9"
       d="m 608.82796,399.06846 c -7.06581,9.14204 -16.43846,14.7108 -26.72139,14.7108 -12.88458,0 -24.33999,-8.74309 -31.61885,-22.30364 -9.28765,-17.30293 -9.28765,-51.89361 0,-69.19654 7.27886,-13.56055 18.73427,-22.30364 31.61885,-22.30364 10.28293,0 19.65558,5.56877 26.72139,14.7108 14.92082,19.30518 14.92082,65.07704 0,84.38222 z"
       transform="matrix(0.99833209,0.06897493,-0.06719091,0.9725104,26.073029,-28.501229)" /><path
       id="path17"
       style="display:inline;opacity:1;fill:#000000;fill-opacity:1;stroke:none;stroke-width:4.61063;stroke-linecap:square;stroke-linejoin:miter;stroke-dasharray:none;stroke-opacity:1;paint-order:normal"
       d="m 608.08789,359.85547 -24.5293,-2.06445 a 14.911336,21.178024 0 0 0 -3.14648,13.01171 14.911336,21.178024 0 0 0 14.91211,21.17774 14.911336,21.178024 0 0 0 14.91016,-21.17774 14.911336,21.178024 0 0 0 -2.14649,-10.94726 z" /><path
       id="path17-2"
       style="display:inline;fill:#000000;fill-opacity:1;stroke:none;stroke-width:4.84731;stroke-linecap:square;stroke-linejoin:miter;stroke-dasharray:none;stroke-opacity:1;paint-order:normal"
       d="m 731.11914,354.24609 c -4.90618,0.25337 -9.81028,0.53854 -14.71289,0.85352 -3.24389,0.20841 -6.48648,0.43064 -9.72852,0.66601 a 16.481516,21.178024 0 0 0 -3.72851,13.41211 16.481516,21.178024 0 0 0 16.48242,21.17774 16.481516,21.178024 0 0 0 16.48242,-21.17774 16.481516,21.178024 0 0 0 -4.79492,-14.93164 z" /><path
       style="display:inline;fill:#000000;fill-opacity:1;stroke:#632207;stroke-width:4;stroke-linecap:round;stroke-linejoin:miter;stroke-dasharray:none;stroke-opacity:1;paint-order:normal"
       transform="translate(2.0211388,0.11960876)"
       d="m 532.96399,353.51484 90.62183,7.62659"
       id="path18-7" /><path
       style="display:inline;opacity:1;fill:#000000;fill-opacity:1;stroke:#632207;stroke-width:4;stroke-linecap:round;stroke-linejoin:miter;stroke-dasharray:none;stroke-opacity:1;paint-order:normal"
       d="m 646.18587,361.63569 c 23.40052,-2.92776 46.88936,-5.14967 70.4238,-6.66171 17.95584,-1.15362 35.93823,-1.89408 53.92813,-2.22057"
       id="path19" /><path
       style="display:inline;opacity:1;fill:none;fill-opacity:1;stroke:#632207;stroke-width:4;stroke-linecap:round;stroke-linejoin:miter;stroke-dasharray:none;stroke-opacity:1;paint-order:normal"
       d="m 695.36548,296.76404 c 6.90075,-2.46377 14.52679,-2.71605 21.65463,-1.0177 7.12784,1.69835 13.75176,5.30877 19.25714,10.14419 11.01076,9.67085 17.2869,23.93003 19.42801,38.42754 0.9866,6.68032 1.16239,13.50072 0.22431,20.18803 -1.91729,13.66782 -8.61054,26.60946 -18.61785,36.11414 -9.62189,9.13862 -22.40911,15.09938 -35.66552,15.7018 -12.59793,0.5725 -25.5758,-3.92268 -34.31965,-13.01006 -7.90976,-8.22052 -11.95196,-19.59621 -13.01006,-30.95498 -0.80475,-8.63901 -6.7e-4,-17.41456 2.24311,-25.79582 1.88621,-7.04559 4.77722,-13.8012 8.29952,-20.18803 4.54964,-8.24966 10.23234,-15.98328 17.4963,-21.98252 3.89554,-3.2173 8.25188,-5.92778 13.01006,-7.62659 z"
       id="path20" /><path
       style="display:inline;opacity:1;fill:none;fill-opacity:1;stroke:#632207;stroke-width:4;stroke-linecap:round;stroke-linejoin:miter;stroke-dasharray:none;stroke-opacity:1;paint-order:normal"
       d="m 512,452.04461 c 0,0 -34.69916,-30.70521 -63.76208,-55.03842 -1.70294,-1.4258 37.88645,1.16987 34.26022,-1.74472 -13.10138,-10.53027 -18.51649,-15.31333 -27.75711,-25.85379 -14.05371,-16.03058 -15.08762,-19.16761 -10.70634,-18.71622 0,0 27.16761,5.55383 40.70327,4.42986 12.03211,-0.99912 24.90827,-4.7048 34.16167,-12.12256 7.79007,-6.24471 14.84526,-13.75391 19.98513,-21.25402 8.15865,-11.90513 13.96387,-31.69748 18.85657,-39.86705 10.95287,-18.28855 32.61307,-32.22218 32.61307,-32.22218 l 25.69517,-15.22676"
       id="path21" /><path
       style="display:inline;opacity:1;fill:#2b170d;fill-opacity:1;stroke:none;stroke-width:4;stroke-linecap:round;stroke-linejoin:miter;stroke-dasharray:none;stroke-opacity:1;paint-order:normal"
       d="m 613.98761,300.88724 c -3.99659,-2.00383 -13.53187,-12.07198 -21.57125,-16.01983 -4.73267,-2.32405 -9.95624,-4.4272 -15.22677,-4.28253 -4.57945,0.1257 -8.97325,2.268 -13.00619,4.44114 -3.79844,2.04678 -10.23048,7.93061 -10.23048,7.93061 0,0 -4.34713,4.11031 -5.07559,2.69641 -2.49599,-4.8446 3.9653,-14.59232 3.9653,-14.59232 0,0 7.17831,-10.66742 12.68897,-13.40273 6.76473,-3.35778 15.72166,-3.45024 22.52293,-2.45849 5.03383,0.73402 7.66913,1.30789 14.35439,7.29616 6.60802,5.91908 18.09007,31.65629 11.57869,28.39158 z"
       id="path22" /><path
       style="display:inline;fill:#2b170d;fill-opacity:1;stroke:none;stroke-width:5.40676;stroke-linecap:round;stroke-linejoin:miter;stroke-dasharray:none;stroke-opacity:1;paint-order:normal"
       d="m 763.28859,287.25664 c -2.65036,-0.89884 -18.27917,-16.36918 -29.45868,-20.77184 -6.31342,-2.48632 -13.40056,-3.26142 -20.16761,-2.76341 -6.59426,0.48529 -13.08271,2.68592 -19.04669,5.54087 -8.78577,4.20573 -23.95431,16.73594 -23.95431,16.73594 0,0 -6.8147,4.79166 -7.88148,3.02764 -3.6552,-6.04425 6.03123,-18.99084 6.03123,-18.99084 0,0 13.27056,-16.37959 23.35838,-21.381 10.08782,-5.00142 21.88324,-7.07817 32.80545,-5.24936 8.54499,1.43077 16.91719,6.00321 22.92768,12.24323 8.12934,8.43978 25.20567,34.93901 15.38603,31.60877 z"
       id="path22-2" /><path
       style="fill:#e66714;fill-opacity:1;stroke:none;stroke-width:4;stroke-linecap:round;stroke-linejoin:round;stroke-dasharray:none;stroke-opacity:1"
       d="m 560.85253,1763.1326 -2.31704,-37.2804 0.44862,-45.7595 -2.69174,-44.8623 -8.97245,-85.2383 -17.04767,-117.9879 -16.15043,-109.0153 -8.97245,-96.9026 -3.58899,-76.7145 v -42.1705 l -7.62659,-26.0202 -4.93485,-43.0677 5.38348,-40.82473 8.97245,-51.14301 2.24312,-16.59905 47.1054,-17.49629 43.0678,-19.29078 32.30085,26.02012 50.24576,24.22564 6.28072,0.44862 0.89724,43.51642 5.38348,36.78706 9.8697,43.5164 5.38348,31.8523 -1.34587,23.777 -4.93485,33.1981 -8.07521,17.9449 -7.62659,13.9073 -3.58899,3.589 3.58899,63.2558 14.80455,92.4163 19.73941,132.3438 12.56144,84.7897 48.00265,184.8326 -24.67426,17.9449 -46.20816,-3.1403 -9.42108,-87.0329 -14.80455,-94.6594 -39.92744,-212.6472 -13.45869,-50.6944 -30.95498,-120.231 -15.7018,-6.7293 -1.79449,38.1329 -1.34587,85.2384 7.62659,102.286 12.11282,130.9979 24.22564,180.3464 4.0376,39.9274 z"
       id="path58" /><path
       style="display:inline;fill:#fce6c6;fill-opacity:1;stroke:none;stroke-width:4;stroke-linecap:round;stroke-linejoin:round;stroke-dasharray:none;stroke-opacity:1"
       d="m 807.65302,277.57125 c 0,0 29.40412,-77.74835 41.71499,-102.46345 19.7,-39.54941 58.21066,-87.236674 58.21066,-87.236674 0,0 9.48178,47.160704 9.51673,71.058244 0.0131,8.95811 -0.78669,21.08673 -1.80713,31.58169 -0.92392,9.50215 -1.91314,19.0364 -3.90291,28.3737 -3.0757,14.4332 -12.37174,42.50805 -12.37174,42.50805 0,0 -6.24471,20.1851 -11.10285,29.50186 -8.12302,15.57803 -29.81909,43.45972 -29.81909,43.45972 l -24.74349,-32.99132 c 0,0 13.62488,-9.00088 18.71623,-15.22677 2.03891,-2.49326 10.15118,-15.95892 10.15118,-21.57125 0,0 -5.70758,2.12148 -8.56506,3.17224 -6.65602,2.44757 -19.98513,7.29616 -19.98513,7.29616 0,0 17.70895,-16.82736 23.31599,-27.43989 4.20026,-7.94991 8.6684,-19.88898 7.13754,-26.01239 -11.63333,12.99821 -19.19769,25.37408 -31.72242,37.59107 -7.55063,6.97341 -24.7435,18.39901 -24.7435,18.39901 z"
       id="path46" /><path
       style="display:inline;fill:#fce5c5;fill-opacity:1;stroke:none;stroke-width:4;stroke-linecap:round;stroke-linejoin:round;stroke-dasharray:none;stroke-opacity:1"
       d="m 507.87608,928.7079 c 50.52224,-15.6166 55.38811,-21.45301 96.43235,-39.93164 35.51136,-15.98765 45.36565,-49.82379 40.29132,-34.80849 -14.38672,42.5713 -28.82435,97.5678 -31.71309,148.19423 -2.71979,47.6654 19.95068,107.4017 -10.79497,144.7693 -12.08322,14.6857 -37.40112,22.2992 -55.01258,15.1221 -33.44899,-13.6312 -33.32982,-19.1081 -54.64751,-93.5706 0,0 -3.58956,-42.46 -1.84345,-59.4368 3.37761,-32.83924 17.28793,-80.3381 17.28793,-80.3381 z"
       id="path50" /><path
       style="display:inline;fill:none;fill-opacity:1;stroke:#632207;stroke-width:4;stroke-linecap:round;stroke-linejoin:round;stroke-dasharray:none;stroke-opacity:1"
       d="m 507.00371,929.70506 -4.75836,20.61958 c 0,0 -13.60003,58.64836 -12.45106,88.26766 1.0804,27.8515 5.22575,56.6415 17.13011,81.8439 9.38072,19.8596 24.34905,37.3501 41.23916,51.3903 15.13426,12.5806 52.02478,27.9157 52.02478,27.9157 l 43.1425,170.0323 34.89468,182.0867 c 11.34196,61.3132 24.58541,155.1003 31.55527,217.022 l 42.05944,34.8387 27.29605,-54.8347 -46.86718,-179.7034 -47.06465,-312.9756 -3.88366,-64.1376 c 27.77676,-32.3389 26.12297,-86.1994 22.11989,-109.5436 -4.12402,-24.0493 -11.96413,-52.6196 -14.35593,-71.7797 -8.67419,-69.48671 -3.40624,-141.03136 7.17796,-210.40408 6.45673,-42.31976 34.09534,-123.81991 34.09534,-123.81991"
       id="path32" /><path
       style="display:inline;fill:#632207;fill-rule:nonzero;stroke:none;stroke-width:4;stroke-linecap:round;stroke-linejoin:round;stroke-opacity:1"
       d="m 637.10378,241.78901 c 5.82107,1.87162 12.25432,1.83924 12.25432,1.83924 0,0 -5.20888,-3.77563 -11.02994,-5.64725 l -46.56852,-14.97298 0.26449,3.70162 c 1.0581,-0.51603 1.05606,-0.51514 2.80562,-1.31946 1.74955,-0.80432 4.18179,-1.89248 6.89773,-3.02157 5.43189,-2.25817 12.08393,-4.67058 16.36356,-5.31268 7.11274,-1.06717 18.47039,-0.47393 27.90808,0.4362 4.71884,0.45507 8.97739,0.98083 12.05224,1.39242 3.07484,0.41159 3.07263,0.41133 4.95408,0.70705 a 59294.884,59294.884 0 0 0 9.06764,1.42451 l -55.07788,-36.47298 -1.02068,3.66577 c 1.8805,-0.0786 1.87839,-0.0786 4.94416,-0.14063 3.06577,-0.062 7.30752,-0.10679 11.99628,-0.0382 9.37753,0.13727 20.61451,0.76627 27.53592,2.4998 7.24584,1.81477 17.90704,6.76935 26.61542,11.26084 4.35419,2.24575 8.24039,4.37576 11.03469,5.94258 2.7943,1.56682 2.79244,1.56582 4.48689,2.56459 a 70658.971,70658.971 0 0 0 7.00306,4.12732 24837.605,24837.605 0 0 0 -4.28863,-6.9057 c -0.64586,-1.0396 -0.64477,-1.03768 -1.66195,-2.76094 -1.01718,-1.72326 -2.40038,-4.12195 -3.85681,-6.80975 -2.91286,-5.3756 -6.11826,-11.9928 -7.25016,-16.36353 -0.68856,-2.65881 -0.96447,-7.35088 -1.00432,-11.2434 -0.0199,-1.94625 0.009,-3.71121 0.0424,-4.98561 0.0337,-1.2744 0.0336,-1.27219 0.0717,-2.0463 l -3.53485,1.18125 c 7.869,9.45513 16.4628,19.17229 20.90144,23.60964 9.10354,9.10088 18.59633,18.07485 29.10286,25.738 6.91744,5.04537 19.84021,11.83684 24.63072,14.30351 l 0.007,0.003 c 0.94029,0.47973 2.73862,-0.73486 2.82967,-0.79724 0.003,-0.003 0.003,-0.003 0.003,-0.003 0,0 -1.3e-4,6.4e-4 8e-4,-0.004 -0.003,-0.1106 -0.0803,-2.28193 -1.01527,-2.75894 l 0.007,0.003 c -4.81043,-2.47694 -17.61741,-9.24732 -24.10475,-13.97899 -10.24238,-7.47048 -19.57314,-16.27894 -28.63196,-25.33512 -3.60888,-3.60783 -8.80276,-9.47025 -13.06079,-14.40064 -4.25803,-4.93039 -4.25688,-4.92897 -7.59415,-8.93892 a 1812292.7,1812292.7 0 0 1 -3.17579,-3.81594 110.64218,110.64218 0 0 0 -0.35906,4.99719 c -0.36441,7.4177 -0.0133,15.51078 1.01313,19.47439 1.5509,5.98863 6.13345,14.7177 9.33244,20.38808 1.37592,2.43888 2.84412,4.93679 3.91104,6.65416 l 2.71443,-2.77838 c -2.76327,-1.62878 -6.77873,-3.87095 -10.7012,-5.9753 -9.26683,-4.97154 -23.05849,-11.86346 -32.49514,-14.22695 -9.05343,-2.2675 -23.80876,-2.66975 -33.87948,-2.65373 -4.26273,0.007 -8.66656,0.088 -11.73584,0.21637 a 137.60095,137.60095 0 0 0 -5.98133,0.38079 l 52.38568,34.69019 1.41479,-3.64326 c -3.07357,-0.4831 -7.49394,-1.06633 -11.77956,-1.55415 -10.12479,-1.15247 -24.99805,-2.38881 -34.34942,-0.98576 -5.90946,0.88663 -14.71901,4.41544 -20.46636,6.92155 -2.47197,1.07789 -5.0099,2.23893 -6.76041,3.09264 a 82.551623,82.551623 0 0 0 -4.27517,2.242 z"
       id="path5" /><path
       style="display:inline;fill:#632207;fill-opacity:1;fill-rule:nonzero;stroke:none;stroke-width:4;stroke-linecap:round;stroke-linejoin:round;stroke-dasharray:none;stroke-opacity:1"
       d="m 758.73345,240.01324 c 0.29953,0.15775 1.60692,-0.32347 7.37419,-9.88345 2.79716,-4.63664 6.00387,-10.21706 11.89018,-20.30013 5.40443,-9.25761 13.1845,-22.49635 22.20908,-37.16694 2.7969,-4.54625 6.74196,-10.28354 11.65641,-16.9037 4.74485,-6.3917 10.36454,-13.56679 16.59589,-21.12463 12.03582,-14.5979 26.361,-30.62671 40.41023,-44.418331 6.8785,-6.752376 13.65745,-12.934502 20.01168,-18.100258 6.3328,-5.148334 12.16826,-9.22501 17.20788,-11.859374 2.51462,-1.314469 4.77503,-2.240044 6.75775,-2.771403 1.99386,-0.534347 3.60254,-0.641957 4.86399,-0.430409 0.62353,0.104565 1.1615,0.286674 1.6299,0.534582 0.46736,0.247351 0.89602,0.576252 1.28792,1.006048 0.39523,0.433451 0.76989,0.988271 1.10454,1.697112 0.33649,0.712715 0.62999,1.576036 0.86007,2.613148 0.12632,0.568171 0.26431,1.328952 0.41065,2.278031 0.14664,0.950992 0.29797,2.066639 0.45224,3.329608 0.31309,2.563135 0.63398,5.697183 0.95072,9.237625 0.66243,7.404602 1.29351,16.43024 1.81505,25.765101 0,0 0.002,0.0366 0.002,0.0366 0.50918,9.11943 0.98139,19.54494 1.28316,30.02053 0.27969,9.70938 0.41214,19.46041 0.27759,27.89278 -0.22803,14.10666 -0.23971,28.89761 -1.09349,43.29254 -0.8898,15.00227 -2.65265,28.91695 -6.10338,42.18767 -7.58177,29.20978 -19.83856,54.56835 -27.2528,68.63381 -6.6084,12.53672 -12.15943,21.32844 -13.62403,23.63833 -3.14171,4.95495 -3.21333,4.92376 -3.20389,4.91007 a 2.8155016,2.8155016 90 0 0 4.63598,3.19622 l 0,0 c 0.009,-0.0137 0.12597,-0.0269 3.32639,-5.09547 1.48983,-2.35944 7.13347,-11.32757 13.81965,-24.04072 7.48988,-14.24132 19.94668,-40.04538 27.65498,-69.85457 3.54657,-13.73876 5.31568,-28.04072 6.18158,-43.25962 0.82805,-14.55377 0.7994,-29.53781 0.97749,-43.53139 0.11071,-8.54095 -0.0512,-18.37507 -0.36182,-28.1284 -0.33542,-10.53319 -0.84407,-20.99741 -1.39276,-30.15834 0,0 -0.002,-0.0368 -0.002,-0.0368 -0.56154,-9.370597 -1.21738,-18.450217 -1.89707,-25.923267 -0.32486,-3.571782 -0.65406,-6.762488 -0.97707,-9.396664 -0.15921,-1.298402 -0.31774,-2.468294 -0.47441,-3.485337 -0.15476,-1.004648 -0.31139,-1.884381 -0.47016,-2.60223 -0.29678,-1.339573 -0.70017,-2.568944 -1.2223,-3.676259 -0.52183,-1.106691 -1.16433,-2.095574 -1.93838,-2.945684 -0.77492,-0.851061 -1.66424,-1.543598 -2.65728,-2.070272 -0.98942,-0.524756 -2.05084,-0.868547 -3.15926,-1.055378 -2.19616,-0.370175 -4.57116,-0.124514 -7.01303,0.528243 -2.44677,0.654066 -5.06297,1.744353 -7.79559,3.171166 -5.46478,2.853392 -11.59855,7.160791 -18.06218,12.413464 -6.51213,5.292085 -13.41211,11.587418 -20.36707,18.416102 -14.20394,13.946036 -28.64346,30.118356 -40.74932,44.832576 -6.27176,7.6231 -11.9347,14.87451 -16.72286,21.35374 -4.95111,6.69972 -8.96523,12.5691 -11.847,17.3058 -9.0656,14.90247 -16.58694,27.99064 -21.90023,37.51609 -5.38069,9.64627 -9.0055,16.53908 -11.12285,20.80824 -4.97777,10.03657 -4.47654,11.4775 -4.2368,11.60376 z"
       id="path26" /><path
       style="display:inline;fill:none;fill-opacity:1;stroke:#632207;stroke-width:4;stroke-linecap:round;stroke-linejoin:round;stroke-dasharray:none;stroke-opacity:1"
       d="m 807.14487,276.41079 c 0,0 21.67549,-56.26034 32.67717,-81.70846 9.55375,-22.09891 22.8775,-44.64076 36.33845,-64.60169 9.47785,-14.05448 29.60911,-38.132949 29.60911,-38.132949 0,0 7.66372,36.591519 8.97246,55.180619 1.01893,14.47273 0.3965,29.06566 -0.89725,43.51642 -1.52583,17.043 -3.69494,34.15336 -8.07521,50.69438 -4.45803,16.83467 -10.51975,33.36659 -18.39354,48.8999 -7.91374,15.61214 -28.71186,43.96504 -28.71186,43.96504 l -24.22564,-32.74947 c 0,0 15.73381,-12.05866 21.42175,-22.20683 7.02133,-12.52714 6.3185,-16.25273 5.94425,-15.47749 l -27.81462,12.11281 c 0,0 21.49694,-18.91014 26.02013,-31.85222 6.99818,-20.0237 5.38347,-26.46875 5.38347,-26.46875 0,0 -17.11318,25.34336 -24.86942,33.59229 -10.16202,10.80753 -33.37925,25.2364 -33.37925,25.2364 z"
       id="path27" /><path
       style="display:inline;opacity:1;fill:#311d12;fill-opacity:1;stroke-width:8.7"
       d="m 398.60144,468.81092 c 0,0 3.42208,-18.55826 61.90996,-11.88851 46.85204,5.34284 50.24576,27.14169 50.24576,27.14169 0,0 6.93707,14.20346 -19.06647,32.07654 -26.78146,18.40777 -42.84349,12.33713 -42.84349,12.33713 0,0 -26.34811,-6.27216 -39.92744,-26.69307 -12.15178,-18.27414 -10.31832,-32.97378 -10.31832,-32.97378 z"
       id="path1" /><path
       style="display:inline;fill:#632207;fill-opacity:1;fill-rule:nonzero;stroke:none;stroke-width:4;stroke-linecap:round;stroke-linejoin:round;stroke-dasharray:none;stroke-opacity:1"
       d="m 886.2957,350.04091 c -9.02787,-6.12872 -19.25575,-10.31392 -19.25575,-10.31392 0,0 8.05971,7.54777 17.00906,13.62336 25.09856,17.03881 52.9633,38.27235 69.7018,59.48699 l 1.90221,-3.21108 c -2.84799,-0.47954 -6.92271,-1.10085 -10.8609,-1.656 -9.30397,-1.31156 -22.87396,-2.95384 -30.9435,-2.65289 -3.64451,0.13592 -12.63841,1.13801 -21.76978,2.39652 a 541.77637,541.77637 0 0 0 -7.97325,1.15937 160.76214,160.76214 0 0 1 7.52705,2.68809 c 12.54351,4.83444 22.88679,10.62792 31.71573,17.92623 8.82895,7.29831 16.15932,16.11023 22.6377,27.06457 l 1.82109,-3.0156 c -0.74192,-0.037 -2.79175,-0.10388 -4.09794,-0.13386 -10.40869,-0.23888 -39.2663,-0.26378 -66.35944,5.40803 a 193.57246,193.57246 0 0 0 -0.0821,0.0172 360.04006,360.04006 0 0 1 -0.0798,0.0238 c -31.47683,9.39049 -79.98096,19.16974 -125.03707,76.65801 -13.70849,17.49102 -22.24049,45.18602 -24.52405,67.00823 -0.20238,1.93403 -0.25652,5.74608 -0.26457,8.43916 l 2e-5,0.0139 c 0.008,2.12683 1.97015,4.23061 2.01612,4.2796 0,0 0,0 0,0 0,0 0,0 0,0 0,0 0,0 0,0 9.6e-4,5e-4 8.2e-4,4.3e-4 8.2e-4,4.3e-4 0,0 -1.3e-4,7e-5 8.1e-4,-4.5e-4 0,0 0,0 0,0 0,0 0,0 0,0 0,0 0,0 0,0 0.0456,-0.0497 1.99053,-2.18413 1.98219,-4.2954 l 2e-5,0.0139 c 0.008,-2.83288 0.0746,-6.42668 0.24287,-8.03481 1.113,-10.63613 3.75951,-22.72777 7.77515,-34.23113 4.01564,-11.50337 9.4094,-22.42031 15.9189,-30.72595 17.69879,-22.58234 35.85811,-37.60754 53.29336,-48.1388 26.15289,-15.79689 50.68302,-21.46864 69.73895,-27.1536 l -0.16195,0.041 c 16.65002,-3.48559 34.0411,-4.79174 47.24721,-5.21734 5.28244,-0.17024 9.89614,-0.20037 13.52814,-0.17527 2.1792,0.015 4.005,0.05 5.4099,0.0864 2.10734,0.0546 2.10595,0.0547 3.25329,0.11194 a 13248.743,13248.743 0 0 0 3.65437,0.18173 136.93723,136.93723 0 0 0 -1.83328,-3.19733 c -13.39944,-22.65724 -30.54485,-36.73833 -56.35787,-46.68702 l -0.4462,3.84746 c 3.90378,-0.53803 3.90246,-0.53781 8.5394,-1.10294 4.63693,-0.56512 10.05718,-1.15536 12.83334,-1.2589 6.23819,-0.23265 16.59291,0.81695 25.26793,1.94322 4.33751,0.56314 8.2727,1.14202 11.12098,1.57979 2.84828,0.43777 2.84688,0.43757 4.60223,0.73314 a 134301.65,134301.65 0 0 0 4.96958,0.83668 130.02,130.02 0 0 0 -3.06737,-4.04776 C 939.69099,388.56003 911.43213,367.10544 886.2957,350.04091 Z"
       id="path28" /><path
       style="display:inline;fill:#632207;fill-opacity:1;stroke:none;stroke-width:4;stroke-linecap:round;stroke-linejoin:round;stroke-dasharray:none;stroke-opacity:1"
       d="m 817.48698,143.7026 2.22057,-0.95167 42.82527,-22.52293 1.58613,27.28129 42.19083,-55.197024 4.44114,20.619574 5.07558,50.75589 13.95787,-22.2057 -3.17224,-70.106566 -3.80669,-14.909542 -5.39281,-1.268897 -12.37175,1.268897 -44.72862,35.52912 z"
       id="path29" /><path
       style="display:inline;fill:#632207;fill-opacity:1;fill-rule:nonzero;stroke:none;stroke-width:4;stroke-linecap:round;stroke-linejoin:round;stroke-dasharray:none;stroke-opacity:1"
       d="m 651.35931,543.73641 c -0.0172,-0.52771 -0.57604,-1.3577 -1.23669,-1.8374 0,0 0,0 0,0 l 0,0 c -0.0805,0.10144 -0.27846,0.0597 -0.56144,-0.0326 -0.20385,-0.0665 -0.42896,-0.11983 -0.66072,-0.21358 0,0 -10e-6,0 -10e-6,0 -0.35148,0.86357 0.11555,1.03866 0.11555,1.03866 0,0 0.38813,-0.33093 0.25862,-0.12377 0,0 0,0 0,0 -0.2154,-0.13803 -0.42067,-0.27653 -0.57826,-0.31855 -0.2214,-0.059 -0.41129,-0.0137 -0.47336,0.16018 l 0,0 c 0,0 0,0 0,0 -0.37936,0.43192 -0.92825,0.87249 -0.85322,1.61636 0.26014,3.58796 0.51884,12.43742 0.28958,20.72155 -0.15285,5.52275 -0.5391,10.85729 -1.21123,14.0982 -2.12837,10.26272 -6.1482,20.33191 -11.78153,29.14835 -4.64277,7.26616 -12.12134,16.11482 -20.11727,24.71105 -11.9939,12.89436 -25.16195,25.26903 -31.85881,31.42058 -2.79035,2.56314 -2.7894,2.56222 -4.45123,4.04094 a 138844.18,138844.18 0 0 0 -5.66831,5.04402 l 41.36112,-8.89071 -1.70187,-3.49079 c -2.03747,1.70057 -4.91727,4.22432 -7.67349,6.7248 -6.51157,5.9074 -15.88608,14.92796 -20.77101,22.08244 -5.89536,8.63438 -13.11863,25.31684 -17.8373,36.94193 -1.99732,4.92067 -4.00442,10.05771 -5.35018,13.69325 a 227.76243,227.76243 0 0 0 -2.92404,8.39942 l 39.58883,-40.07937 -3.12886,-2.44935 c -19.60117,32.0336 -36.84563,65.0763 -51.64877,99.51056 -0.74798,1.73991 0.35739,4.25653 0.35739,4.25653 0,0 2.5767,-0.95371 3.31742,-2.67674 14.72423,-34.25068 31.87935,-67.12365 51.3859,-99.00261 a 829.91979,829.91979 0 0 1 9.644,-15.38048 l -46.13914,46.71085 3.29851,2.09977 c 0.83109,-2.24517 0.83048,-2.24364 2.23086,-5.8425 1.40039,-3.59886 3.36772,-8.5448 5.63086,-13.92204 4.52628,-10.75449 10.30116,-23.30051 14.87796,-30.0037 3.74981,-5.492 10.72197,-12.58476 16.71034,-18.19927 2.99418,-2.80726 5.74775,-5.25989 7.74995,-7.00811 2.00221,-1.74823 2.00062,-1.74679 3.24389,-2.78448 a 43775.258,43775.258 0 0 0 6.22181,-5.19401 l -41.86668,8.99938 1.74981,3.44947 c 3.99442,-3.55429 10.39564,-9.51269 15.75207,-14.66246 13.42632,-12.9083 32.27956,-32.09118 41.38692,-46.34465 5.90609,-9.24332 10.10381,-19.76743 12.32751,-30.48981 1.87878,-9.05924 1.4429,-29.73697 0.99452,-35.92126 z"
       id="path31" /><path
       style="display:inline;fill:none;fill-opacity:1;stroke:#632207;stroke-width:4;stroke-linecap:round;stroke-linejoin:round;stroke-dasharray:none;stroke-opacity:1"
       d="m 636.46387,608.54503 c 0,0 -21.2659,-3.43951 -29.29659,-0.10886 -14.95914,6.20415 -42.938,58.78054 -42.938,58.78054 l -98.06819,156.29753 c 0,0 -26.63274,44.79461 -32.35688,69.78934 -2.92742,12.78272 -9.84843,30.00467 -0.63445,39.33581 10.71874,10.85504 35.43168,4.57822 52.81785,1.74474 36.96866,-6.02491 106.66432,-40.52307 106.66432,-40.52307 l -49.21099,-45.71878 c 0,0 -29.71886,-2.36686 -44.35423,-0.5256 -9.59035,1.20655 -25.40982,5.52421 -25.40982,5.52421"
       id="path33" /><path
       style="display:inline;fill:#66331e;fill-opacity:1;stroke:none;stroke-width:4;stroke-linecap:round;stroke-linejoin:round;stroke-dasharray:none;stroke-opacity:1"
       d="m 494.30545,847.55281 14.4329,-28.81605 c 0,0 15.59312,-10.55307 25.41289,-11.31508 23.50659,-1.82412 72.83552,24.32514 72.83552,24.32514 l 11.21557,25.57151 -24.22564,0.33647 13.01007,24.33779 -23.32839,4.0376 c 0,0 -37.17312,-33.17037 -60.48382,-39.45626 -9.41882,-2.53986 -28.8691,0.97888 -28.8691,0.97888 z"
       id="path36" /><path
       style="fill:#e66714;fill-opacity:1;stroke:none;stroke-width:4;stroke-linecap:round;stroke-linejoin:round;stroke-dasharray:none;stroke-opacity:1"
       d="m 594.87394,892.53523 2.13096,1.0094 34.54396,25.23503 15.92612,-72.11612 z"
       id="path62" /><path
       style="fill:#e66714;fill-opacity:1;stroke:none;stroke-width:4;stroke-linecap:round;stroke-linejoin:round;stroke-dasharray:none;stroke-opacity:1"
       d="m 682.03221,846.03716 -12.37175,91.99504 16.49566,7.93061 11.7373,-0.31722 1.2689,-98.97398 z"
       id="path59" /><path
       style="display:inline;fill:none;fill-opacity:1;stroke:#632207;stroke-width:4;stroke-linecap:round;stroke-linejoin:round;stroke-dasharray:none;stroke-opacity:1"
       d="m 500.39876,1104.4933 c 0,0 1.8544,79.4761 4.6223,118.7235 10.24925,145.3291 42.73203,288.181 52.92203,433.5143 4.29052,61.1929 -1.10562,114.2598 -1.10562,114.2598 22.89146,5.0559 47.30619,-24.9213 72.12867,-10.2103 0,0 -28.76418,-198.7056 -40.56952,-342.6022 -3.73908,-45.5761 -6.8465,-90.8648 -7.24173,-136.5923 -0.25234,-29.1958 2.53779,-87.5539 2.53779,-87.5539 v 0 0"
       id="path35" /><path
       style="display:inline;fill:#66331e;fill-opacity:1;stroke:none;stroke-width:4;stroke-linecap:round;stroke-linejoin:round;stroke-dasharray:none;stroke-opacity:1"
       d="m 622.68856,822.77437 52.48888,-68.19068 c 0,0 19.76465,-13.28669 31.16335,-15.16687 10.34175,-1.70584 27.12053,6.07598 37.7166,14.36528 4.84496,3.7902 10.5263,15.15752 10.5263,15.15752 0,0 0.69315,15.42664 -3.14036,20.58057 -2.03713,2.7388 -12.92062,2.28822 -15.87003,4.09368 -1.80371,1.10414 -1.40195,3.58899 -1.40195,3.58899 l 8.29952,16.15043 -1.79449,17.49629 -16.15042,8.97246 -6.28072,-0.89725 -2.69174,15.7018 -8.97246,6.28072 -10.76695,-0.44862 -21.5339,-14.80456 -9.8697,-6.72934 -7.17797,11.21558 -54.73199,-21.53391"
       id="path37" /><path
       style="display:inline;fill:#66331e;fill-opacity:1;stroke:none;stroke-width:4;stroke-linecap:round;stroke-linejoin:round;stroke-dasharray:none;stroke-opacity:1"
       d="m 515.17224,875.2218 19.98512,-25.69517 55.51425,44.09417 -46.94919,20.93681 -24.10904,-15.54399 16.17843,-20.30236 z"
       id="path38" /><path
       style="display:inline;fill:#632207;fill-opacity:1;fill-rule:nonzero;stroke:none;stroke-width:4;stroke-linecap:round;stroke-linejoin:round;stroke-dasharray:none;stroke-opacity:1"
       d="m 669.94523,841.5737 c -5.70977,14.89072 -9.55213,30.49749 -9.55213,30.49749 0,0 7.5772,-14.17466 13.28698,-29.06538 l 1.1e-4,-3e-4 -1.86742,-0.71605 z"
       id="path44"
       transform="translate(1.0309789,-0.71375464)" /><path
       style="display:inline;fill:none;fill-opacity:1;stroke:#632207;stroke-width:4;stroke-linecap:round;stroke-linejoin:round;stroke-dasharray:none;stroke-opacity:1"
       d="m 721.807,616.18353 c 0,0 42.62232,-15.75115 61.5111,-7.40228 12.36981,5.46747 21.18767,17.33143 23.53016,33.05269 4.51182,30.28032 -20.41235,96.82364 -20.41235,96.82364 0,0 -24.11374,81.93437 -40.82468,121.12818 -12.50432,29.3276 -19.12832,57.76616 -38.51714,81.01104 -13.89246,16.6554 -63.04616,-12.49857 -82.61104,-26.27905 L 521.29979,841.84084"
       id="path30" /><path
       style="display:inline;fill:none;fill-opacity:1;stroke:#552208;stroke-width:4;stroke-linecap:round;stroke-linejoin:round;stroke-dasharray:none;stroke-opacity:0.968627"
       d="m 599.03361,828.21227 27.01962,-8.57826 c 0,0 17.12348,-26.99458 27.36133,-39.75755 8.81402,-10.98795 18.01976,-23.98045 29.69542,-31.55755 9.79745,-6.3582 22.23229,-9.95051 33.87103,-8.97246 10.80338,0.90786 21.7464,6.71492 28.1816,15.23724 6.92661,9.17312 13.26796,23.73907 7.47071,33.66459 -3.28235,5.61974 -18.67996,5.67953 -18.67996,5.67953 0,0 -8.38006,-13.79003 -14.36226,-17.81022 -5.94536,-3.99543 -13.70402,-4.86087 -20.86096,-5.15917 -6.12859,-0.25544 -18.16923,2.91605 -18.16923,2.91605 v 0 0"
       id="path40" /><path
       style="display:inline;fill:none;fill-opacity:1;stroke:#552208;stroke-width:4;stroke-linecap:round;stroke-linejoin:round;stroke-dasharray:none;stroke-opacity:0.968627"
       d="m 724.19746,780.87012 c 0,0 12.60979,15.53182 14.81116,24.94949 2.1258,9.09438 2.81748,21.99215 -2.14086,27.93667 -4.95834,5.94452 -18.28606,4.71989 -18.28606,4.71989 0,0 -2.59246,-8.59881 -4.48623,-11.8885 -4.54068,-7.8877 -10.18334,-14.36334 -17.38413,-19.06648 -5.08764,-3.32295 -11.20927,-5.42025 -17.27198,-5.8321 -5.92531,-0.40251 -17.4963,3.36467 -17.4963,3.36467"
       id="path41" /><path
       style="display:inline;fill:none;fill-opacity:1;stroke:#552308;stroke-width:4;stroke-linecap:round;stroke-linejoin:round;stroke-dasharray:none;stroke-opacity:1"
       d="m 718.24524,836.90599 c 0,0 0.23767,12.35815 -2.91605,17.27198 -2.46409,3.83931 -6.6568,6.50586 -11.31976,7.69229 -10.32713,1.23823 -20.55134,-9.15692 -27.48612,-15.54319 l -9.42108,-7.40228 -10.99126,9.8697 -0.89725,0.89725"
       id="path42" /><path
       style="fill:#66331e;fill-opacity:1;stroke:#511f08;stroke-width:4;stroke-linecap:round;stroke-linejoin:round;stroke-dasharray:none;stroke-opacity:1"
       d="m 331.81661,1790.5031 c 29.49809,-21.9437 56.60203,-31.1042 111.66293,-26.4882 29.52291,2.4751 54.50548,3.8061 81.20942,-0.6345 9.23592,-1.5358 18.46394,-3.6747 25.74959,-9.5552 9.37015,-7.563 22.15128,-31.3667 22.15128,-31.3667 l 6.78207,23.6929 6.54135,15.9601 18.71623,-38.7013 24.44221,37.4324 c 0,0 7.43212,33.8729 -0.15394,47.6221 -7.11042,12.8872 -111.5642,43.3984 -142.2957,51.9863 0,0 -46.06603,14.6004 -71.46177,17.7712 -17.71674,2.212 -57.48524,-0.3013 -57.48524,-0.3013 -65.86918,-10.1728 -65.46673,-57.9531 -25.85843,-87.4178 z"
       id="path51" /><path
       style="display:inline;fill:none;fill-opacity:1;stroke:#632207;stroke-width:4;stroke-linecap:round;stroke-linejoin:round;stroke-dasharray:none;stroke-opacity:1"
       d="m 493.26086,847.22431 c 0,0 10.12782,-24.08931 19.88675,-32.36655 5.1018,-4.32719 14.78597,-7.39043 22.74836,-7.29341 25.02369,0.3049 70.91237,24.65637 70.91237,24.65637 l 60.06958,23.07881"
       id="path39" /><path
       style="fill:none;fill-opacity:1;stroke:#511f08;stroke-width:4;stroke-linecap:round;stroke-linejoin:round;stroke-dasharray:none;stroke-opacity:1"
       d="m 328.64435,1869.0161 c 0,0 -1.83839,-30.5827 5.39282,-43.1425 9.43638,-16.39 45.1547,-34.3531 45.1547,-34.3531"
       id="path52" /><path
       style="fill:none;fill-opacity:1;stroke:#511f08;stroke-width:4;stroke-linecap:round;stroke-linejoin:round;stroke-dasharray:none;stroke-opacity:1"
       d="m 378.76579,1876.9467 c 0,0 -1.33233,-28.9605 5.07559,-41.2391 7.03279,-13.4759 21.17452,-23.89 33.943,-30.4536"
       id="path53" /><path
       style="fill:#66331e;fill-opacity:1;stroke:#552108;stroke-width:4;stroke-linecap:round;stroke-linejoin:round;stroke-dasharray:none;stroke-opacity:0.937255"
       d="m 709.36406,1765.4443 21.91102,-30.1363 20.61958,28.5501 10.15118,-31.7224 15.70067,15.7617 c 0,0 14.28396,12.8551 19.19399,16.278 19.13891,13.3423 67.25156,17.1301 67.25156,17.1301 39.31849,8.1914 51.91932,7.6966 79.94051,29.1846 20.78365,15.9379 47.61534,52.4973 28.23296,76.1338 -5.62729,6.8624 -47.43974,27.2776 -118.00743,11.1029 -20.21828,-4.6342 -39.89323,-12.1431 -58.36927,-21.5713 -15.41247,-7.8649 -32.28035,-18.3204 -45.99752,-28.8674 -12.94849,-9.956 -26.55279,-17.7909 -33.943,-32.3569 -7.49354,-14.7697 -6.68425,-49.4869 -6.68425,-49.4869 z"
       id="path54" /><path
       style="fill:none;fill-opacity:1;stroke:#552108;stroke-width:4;stroke-linecap:round;stroke-linejoin:round;stroke-dasharray:none;stroke-opacity:0.937255"
       d="m 856.26145,1828.2547 c 0,0 20.2262,11.2921 26.96406,20.3023 6.49267,8.6823 9.48569,19.7861 11.42008,30.4536 1.37728,7.5952 0,23.1573 0,23.1573"
       id="path55" /><path
       style="fill:none;fill-opacity:1;stroke:#552108;stroke-width:4;stroke-linecap:round;stroke-linejoin:round;stroke-dasharray:none;stroke-opacity:0.937255"
       d="m 901.62452,1813.6624 c 0,0 16.31766,8.524 24.10905,15.8612 9.45888,8.9075 17.24126,20.3164 21.25402,32.6741 3.82595,11.7824 2.85502,35.8463 2.85502,35.8463"
       id="path56" /></g></svg>
