<svg xmlns="http://www.w3.org/2000/svg" xml:space="preserve" width="504.692" height="211.512" viewBox="0 0 133.533 55.962"><path d="m5.25.945-.491 4.583L7.927 4.47ZM11.341 1.416 9.266 4.66l2.924.32z" style="fill:#fff;stroke-width:1.05833;stroke-linecap:round" transform="translate(8.5 7.58)"/><path d="M8.558 3.942c-4.887 0-7.442 3.968-7.442 8.384 0 2.307.695 4.713 2.109 6.747 2.728 3.894 14.66 10.715 17.512 15.502.694 1.142.967 2.01.967 2.68 0 1.016-.694 1.488-1.736 1.488-.844 0-1.91-.298-3.051-.868-4.068-2.06-6.35-6.921-11.262-6.921C2.01 30.954 0 34.204 0 37.651c0 1.067.198 2.133.57 3.15h.373c.595-2.207 2.108-2.951 4.068-2.951 3.919 0 9.599 2.951 13.37 2.951 4.811 0 7.714-4.092 7.714-8.904 0-7.79-14.536-14.263-19.795-20.564-1.066-1.29-1.537-2.48-1.537-3.398 0-1.215.818-1.885 2.058-1.885.744 0 1.712.248 2.803.819 3.944 1.984 6.201 6.598 10.096 6.598 3.572 0 5.457-2.431 5.457-5.705a9.3 9.3 0 0 0-.13-1.533h-2.248v-.108c-.663.573-1.505.797-2.46.797-3.497 0-8.408-2.976-11.781-2.976m20.017.397v.421c1.463.447 1.588 3.895 1.588 5.929V30.16c0 6.797 5.53 10.641 12.278 10.641h1.19c6.747 0 12.279-3.844 12.279-10.64V10.936c0-2.357.124-5.73 1.562-6.177V4.34h-11.36v.421c1.463.447 1.587 3.895 1.587 5.929v24.01c0 2.555-2.108 4.639-4.663 4.639s-4.663-2.084-4.663-4.638V11.085c0-2.331.1-5.853 1.587-6.325V4.34Zm31.378 0v.421l1.662 2.977v25.846c0 2.158-.05 5.904-1.588 6.375v.422h10.74v-.372c-.942-.273-1.413-2.034-1.86-3.969l-6.25-26.392 16.99 30.733h6.921V11.036c0-2.332.1-5.804 1.588-6.276V4.34H77.44v.372c.868.248 1.34 1.835 1.761 3.621a9889 9889 0 0 1 6.152 26.045L68.61 4.34Zm31.676 0v.421c1.463.447 1.587 3.895 1.587 5.929v23.068c0 2.356-.124 5.755-1.587 6.201v.422h23.713l1.19-8.806-.372-.149c-3.15 3.671-6.598 7.293-14.734 7.64V18.254c3.622.074 7.789.546 9.699 3.373h.397v-4.762h-10.096V5.628c8.062.224 10.989 2.431 14.139 6.102l.372-.173-1.116-7.218z" style="font-size:50.8px;font-family:Mileast;-inkscape-font-specification:Mileast;text-align:start;writing-mode:lr-tb;direction:ltr;text-anchor:start;display:inline;fill:#f47417;fill-opacity:1;stroke-width:2.30187" transform="translate(8.5 7.58)"/><path d="M22.507 6.358s.914.42 1.459.49c.4.052 1.156-.05 1.156-.05-.027-.586.052-1.842-.898-1.895-.62.034-.775.431-1.146.844-.285.317-.57.611-.57.611" style="fill:#4c290e;fill-opacity:1;stroke-width:1.69541" transform="translate(8.5 7.58)"/></svg>