<?xml version="1.0" encoding="UTF-8" standalone="no"?>
<!-- Created with Inkscape (http://www.inkscape.org/) -->

<svg
   version="1.1"
   id="svg1"
   width="1496"
   height="1869.3333"
   viewBox="0 0 1496 1869.3333"
   xml:space="preserve"
   xmlns:xlink="http://www.w3.org/1999/xlink"
   xmlns="http://www.w3.org/2000/svg"
   xmlns:svg="http://www.w3.org/2000/svg"><defs
     id="defs1" /><g
     id="g1"
     style="display:inline"><image
       width="1496"
       height="1869.3333"
       preserveAspectRatio="none"
       style="display:none;opacity:1;image-rendering:optimizeQuality"
       xlink:href="../23fe4ac0-243c-45a3-aa14-1a685a9f7614.png"
       id="image1" /><path
       style="display:inline;opacity:1;fill:#e66714;fill-opacity:1;stroke:none;stroke-width:4;stroke-linecap:round;stroke-dasharray:none;stroke-opacity:1;paint-order:fill markers stroke"
       d="m 886.71191,1520.2796 c 0,0 61.15602,94.736 125.15789,114.5513 76.6961,23.7455 191.5394,18.1283 260.9224,-39.598 68.3788,-56.8908 98.2365,-157.2632 103.2376,-246.0732 4.529,-80.4262 -39.7096,-158.4506 -67.8823,-231.931 -18.0354,-47.0402 6.6696,-108.1579 40.3052,-145.66398 15.7507,-17.56327 65.7609,-26.16295 65.7609,-26.16295 0,0 -65.1533,-16.30346 -104.6519,-17.32411 -39.4986,-1.02066 -123.0365,25.10228 -123.0365,25.10228 l -59.397,353.55336 z"
       id="path79" /><path
       style="display:inline;opacity:1;fill:#fce6c6;fill-opacity:1;stroke:none;stroke-width:4;stroke-linecap:round;stroke-dasharray:none;stroke-opacity:1;paint-order:fill markers stroke"
       d="m 1167.4333,1260.7714 c 17.6777,-30.4056 17.6777,-66.468 17.6777,-66.468 16.8318,27.8099 31.891,57.5894 40.3051,94.7523 0,0 19.0427,-49.1194 22.9809,-74.9534 3.5166,-23.0683 0.3536,-70.0035 0.3536,-70.0035 0,0 37.0163,40.6388 48.7903,65.0538 7.3008,15.1393 12.728,48.7904 12.728,48.7904 l 9.1924,-108.1874 -16.6171,-43.3103 c 0,0 -0.3114,-43.6452 6.0105,-66.2912 3.6143,-12.9472 13.2923,-37.9673 22.2383,-50.4546 10.2584,-14.31946 21.8858,-23.26344 35.6075,-30.94328 13.7886,-7.71727 45.215,-14.23833 45.215,-14.23833 l -41.7193,-16.08668 c 0,0 -37.193,-9.40672 -57.0989,-10.25305 -13.7439,-0.58434 -41.3657,2.12132 -41.3657,2.12132 l -38.7141,11.66726 z"
       id="path80" /><path
       style="display:inline;fill:none;fill-opacity:1;stroke:#632207;stroke-width:4;stroke-linecap:round;stroke-dasharray:none;stroke-opacity:1;paint-order:fill markers stroke"
       d="m 886.71191,1520.2796 c 0,0 61.15602,94.736 125.15789,114.5513 76.6961,23.7455 191.5394,18.1283 260.9224,-39.598 68.3788,-56.8908 98.2365,-157.2632 103.2376,-246.0732 4.529,-80.4262 -38.2954,-151.3795 -66.4681,-224.8599 -18.0354,-47.0402 8.5409,-120.4504 33.2341,-147.98508 24.6932,-27.53467 71.4178,-30.91295 71.4178,-30.91295 2.605,-1.86075 -122.2413,-56.51546 -193.0403,-6.0104 -104.8901,74.82433 -94.0451,367.34193 -94.0451,367.34193 z"
       id="path79-8" /><g
       id="g78"
       style="display:inline"><path
         style="display:inline;opacity:1;fill:#524029;fill-opacity:1;stroke:#372111;stroke-width:4;stroke-linecap:round;stroke-dasharray:none;stroke-opacity:1;paint-order:fill markers stroke"
         d="m 290,1464 c -2,10 -35,253 -35,253 9.26692,12.6656 21.77144,11.8412 35,8 l 66,-242 z"
         id="path75" /><path
         style="display:inline;opacity:1;fill:#524029;fill-opacity:1;stroke:#372111;stroke-width:4;stroke-linecap:round;stroke-dasharray:none;stroke-opacity:1;paint-order:fill markers stroke"
         d="m 642,1517 c 0,37 13,108 13,108 16.79357,12.3263 25.93736,4.9818 36,0 l 4,-104 z"
         id="path76" /><path
         style="display:inline;opacity:1;fill:#524029;fill-opacity:1;stroke:#372111;stroke-width:4;stroke-linecap:round;stroke-dasharray:none;stroke-opacity:1;paint-order:fill markers stroke"
         d="m 765,1541 40,274 c 14.37277,10.5559 28.29181,7.046 42,-3 l -8,-279 z"
         id="path77" /><path
         style="display:inline;opacity:1;fill:#524029;fill-opacity:1;stroke:#372111;stroke-width:4;stroke-linecap:round;stroke-dasharray:none;stroke-opacity:1;paint-order:fill markers stroke"
         d="m 1057,1388 52,319 c -8.3765,5.3627 -15.3653,12.46 -34,5 l -77,-275 z"
         id="path78" /><path
         style="display:inline;fill:#c9b493;fill-opacity:1;stroke:#524029;stroke-width:4;stroke-linecap:round;stroke-dasharray:none;stroke-opacity:1;paint-order:fill markers stroke"
         d="m 634,765 c 0,0 22.91984,-60.01358 54.5,-80.5 28.15687,-18.26569 81.20279,-29.28811 114.5,-33.5 116.75939,-14.76934 238.5928,-20.60209 353,7 36.2301,8.74095 81.2492,13.46336 100.5,49 24.3849,45.01409 -0.6362,120.65527 -15.5,178.5 -9.1391,35.56615 -18.5,106 -18.5,106 0,0 -32.5,339.5 -42.5,345.5 -10,6 -216,136 -216,136 l -119.68629,70.747 C 800.01636,1569.9313 725.89405,1549.7033 670,1541 c -127.82801,-21.6266 -214.6383,-26.7325 -404.5,-79.5 -12.11835,-3.368 -23.05893,-9.0106 -38,-80.5 -20.23471,-96.8182 -38.24459,-209.4125 -38.85355,-274.9142 C 188.43647,1083.5005 195.7657,1057.2412 218.5,1046.5 260.41023,1026.6988 384,1005 384,1005 Z"
         id="path71" /><path
         style="fill:none;fill-opacity:1;stroke:#524029;stroke-width:4;stroke-linecap:round;stroke-dasharray:none;stroke-opacity:1;paint-order:fill markers stroke"
         d="m 306.00046,1416.8653 c 0,0.066 -14.16068,-52.9342 -15.9099,-69.2965 -2.55737,-23.9217 -6.25147,-73.4028 15.73312,-87.8581 23.46665,-15.4298 69.39876,-21.5594 69.39876,-21.5594"
         id="path72" /><path
         style="fill:#524029;fill-opacity:1;fill-rule:nonzero;stroke:none;stroke-width:4;stroke-linecap:round;stroke-dasharray:none;stroke-opacity:1;paint-order:fill markers stroke"
         d="m 340.57801,1298.714 c -7.56432,-3.2045 -15.19638,-6.1001 -20.84596,-8.5543 -2.72737,-1.188 -4.39962,-1.9596 -6.11269,-2.9545 -0.78957,-0.4599 -1.30577,-0.8028 -1.76937,-1.1907 C 311.17663,1285.4388 311,1285 311,1285 c 0,0 0.0456,0.4867 0.6269,1.2278 0.37749,0.4899 0.84732,0.9793 1.54246,1.5969 1.4619,1.3018 3.14103,2.5215 5.61601,4.107 5.57897,3.579 12.29102,7.1062 20.23332,10.4658 43.806,18.544 127.37124,47.0105 179.04526,58.5544 52.17136,11.655 134.52086,15.896 187.1249,14.7452 12.46543,-0.2709 23.34514,-1.22 32.99174,-2.7835 4.40966,-0.7136 7.61018,-1.3978 10.52967,-2.2555 0,0 0,0 0,0 3.86041,-1.11 5.58263,-2.4813 5.58263,-2.4813 0,0 -1.90927,1.0057 -5.77239,1.634 0,0 0,0 0,0 -3.0345,0.4708 -6.08013,0.7303 -10.5714,0.9873 -11.26404,0.6406 -18.83106,0.5913 -32.84773,0.9 -52.40064,1.1463 -134.56523,-3.1226 -186.16532,-14.65 -51.30476,-11.4614 -134.79492,-39.893 -178.35804,-58.3341 z"
         id="path73" /><path
         style="fill:none;fill-opacity:1;stroke:#524029;stroke-width:4;stroke-linecap:round;stroke-dasharray:none;stroke-opacity:1;paint-order:fill markers stroke"
         d="m 391,1450 c 1.06321,-2.3391 239.21013,61.6355 352.27817,60.4948 21.20269,-0.2139 17.28272,-23.1715 19.25216,-38.3397 8.66667,-101.5 3.16952,-142.7588 25.64645,-275.3319 0,0 14.51337,-66.1616 40.32322,-80.8232 63.02325,-35.8011 164.09703,-57.7571 240,-52 15.4055,1.1685 30.8011,7.2005 43.5,16 10.6521,7.3812 25.3813,29.4505 25.3813,29.4505 0,0 -13.2252,-35.7559 -11.6495,-67.7597 3.5365,-71.82888 29.4616,-181.7441 46.6513,-238.4175 13.5618,-44.71257 42.7799,-93.33809 42.7799,-93.33809"
         id="path74" /></g><path
       style="display:inline;fill:none;stroke:#969184;stroke-width:4;stroke-linecap:round;stroke-opacity:1;paint-order:fill markers stroke"
       d="m 601.38478,1121.5679 102.59115,-9.4638"
       id="path40-2" /><path
       style="display:inline;fill:none;stroke:#969184;stroke-width:4;stroke-linecap:round;stroke-opacity:1;paint-order:fill markers stroke"
       d="m 606.33413,1146.8788 102.59115,-9.4638"
       id="path40-1-7" /><path
       id="path43"
       style="display:inline;fill:#e66714;fill-opacity:1;stroke:none;stroke-width:4;stroke-linecap:round;stroke-opacity:1;paint-order:fill markers stroke"
       d="m 861.5,638.5 -86.51172,59.06055 -33.41016,-5.83399 -16.43945,6.71875 -19.0918,22.62696 c 0,0 -25.10314,76.54408 -28.63867,84.32226 L 745.25,1209 l -21.5,-17 -95.75,-61 -88,-37.25 -44.25,-7.25 -37.25,3.25 -34.5,31.75 -34,66.25 -110.25,295.25 97,28.25 45.25,-124 9.75,-22 4,314.25 90.25,7.5 4.5,-193.75 1.25,-89 11.625,-56.5 2.875,-1 57.5,-9 46.5,-3.75 27.25,7.75 34.75,-1.5 60.25,-14.5 2,-23.5 2.25,-35.5 7.75,-51.75 6,-31.25 16.25,-35.5 12.75,-22 27,-23 41.98047,-15.7207 45.60742,15.3809 70.00391,15.0253 26.5156,-3.1816 14.3203,-11.3144 5.4785,-23.8633 -4.7715,-68.0606 -17.5019,-97.22654 -10.252,-69.11914 -12.375,-75.48437 L 991.1875,724.96094 970.5,697 l -25,-10 -18.5,1 -35.5,16 c 0,0 4.5,-37 4.5,-40 0,-3 8,-23 8,-23 z m 60,246.75 32,119.5 4,4 -59.75,-12.5 1.75,-11.25 11.75,-64.5 z" /><path
       style="display:inline;fill:#e66814;fill-opacity:1;stroke:#632207;stroke-width:4.94402;stroke-linecap:round;stroke-linejoin:round;stroke-opacity:1"
       d="m 635.14205,366.99707 c 0,0 -30.86846,-50.11997 -40.80737,-76.66083 -9.80761,-26.19022 -18.49712,-53.41991 -23.90731,-80.63662 -9.17953,-47.34121 -16.11187,-96.82036 -3.952,-144.540367 0,0 50.4411,36.079267 73.1041,56.726887 37.97207,34.59533 104.62637,111.86994 104.62637,111.86994 0,0 3.90579,13.02932 -0.57509,14.05974 -9.28406,2.13495 -0.055,15.05204 -0.055,15.05204 l -11.25578,12.59109 -31.07293,24.10074 -9.18578,29.22977 -32.36973,19.06925 -18.43602,26.68234 z"
       id="path12" /><path
       id="path12-5"
       style="display:inline;fill:#e66814;fill-opacity:1;stroke:#632207;stroke-width:4.94402;stroke-linecap:round;stroke-linejoin:round;stroke-opacity:1"
       d="m 680.9248,162.46448 -0.33043,0.13142 -37.26158,-7.18911 -11.72595,20.11012 -64.42383,15.50139 c 1.04019,5.94951 2.14743,11.87485 3.28965,17.76567 5.41019,27.2167 14.10181,54.44559 23.90942,80.63581 9.93891,26.54085 40.80638,76.66176 40.80638,76.66176 l 6.11387,7.5433 18.43457,-26.6825 32.37067,-19.06882 9.18581,-29.22982 31.07379,-24.101 11.25567,-12.59126 c 0,0 -9.22951,-12.91791 0.0545,-15.05285 4.48088,-1.03042 0.57605,-14.05946 0.57605,-14.05946 0,0 -31.37037,-36.36795 -63.32864,-70.37463 z" /><path
       id="path25"
       style="display:inline;fill:#632207;fill-opacity:1;stroke:#632207;stroke-width:4.94402;stroke-linecap:round;stroke-linejoin:round;stroke-opacity:1"
       d="m 566.52056,64.242956 c -10.64678,41.782064 -6.65682,84.911914 0.66245,126.775334 l 64.42383,-15.50139 11.72595,-20.11013 37.26158,7.18911 0.33043,-0.13141 c -14.62651,-15.56401 -29.37662,-30.63394 -41.29894,-41.49606 -22.663,-20.64761 -73.1053,-56.725467 -73.1053,-56.725467 z" /><path
       style="display:inline;fill:#fce6c6;fill-opacity:1;stroke:#632207;stroke-width:4.94402;stroke-linecap:round;stroke-linejoin:round;stroke-dasharray:none;stroke-opacity:1"
       d="m 650.08139,359.20518 c 0,0 -39.87934,-70.3889 -51.66604,-108.34862 -11.23407,-36.17997 -17.36579,-71.18663 -17.5424,-111.81966 -0.0472,-10.85776 0.84108,-31.37184 0.84108,-31.37184 0,0 36.52362,45.56059 51.866,70.0559 13.97568,22.31324 35.54528,64.43312 35.54528,64.43312 l 26.73259,58.97887 -44.31523,54.1 z"
       id="path24" /><path
       id="path45"
       style="display:inline;fill:#e66714;fill-opacity:1;stroke:none;stroke-width:4.94402;stroke-linecap:round;stroke-linejoin:round;stroke-dasharray:none;stroke-opacity:1"
       d="m 1119.2559,55.421873 -130.27347,87.044927 -61.44336,101.9414 -30.51172,-14.3418 -24.45899,-16.75585 -45.48828,-43.03516 2.6543,24.84962 17.84766,29.37695 -36.67774,-16.45117 -25.49414,-9.18165 -52.54493,0.92968 64.07227,36.53321 -56.3418,-4.26172 -40.3789,14.97265 34.87109,9.32423 -51.34961,32.60938 -27.62499,36.17186 -16.53712,39.67189 c 0,0 -10.42146,28.34984 -25.81596,35.98256 -13.49072,6.68881 -52.20553,5.59361 -52.20553,5.59361 l -46.58593,-5.25782 21.90039,28.52149 34.44922,25.1914 -39.06836,2.10352 -5.72071,-0.61329 81.60157,64.27736 -25.82422,4.3789 -43.16211,2.40819 -39.9707,72.79884 31.48242,26.17578 38.51172,19.0625 47.22644,10.13083 56.61731,-6.94919 36.86133,-11.2207 35.97656,-1.69532 40.32422,-12.21484 1.74218,25.13086 h 113.61134 l 3.96093,-12.96289 24.79297,-35.34571 51.08789,-43.17383 48.68556,-24.99217 77.7695,-18.92188 59.877,-1.11329 -11.8731,-18.57813 -27.0527,-22.73241 -34.9453,-12.34375 30.4414,-4.9082 53.4902,4.33008 -32.1191,-29.77735 -69.5918,-45.45508 31.9121,-60.4375 25.7285,-63.30468 2.2676,-105.37696 z" /><path
       style="display:inline;fill:#fce6c6;fill-opacity:1;stroke:none;stroke-width:4;stroke-linecap:round;stroke-dasharray:none;stroke-opacity:1;paint-order:fill markers stroke"
       d="m 605.00004,554 c 0,0 83.52209,-18.91878 123,-35 33.70391,-13.7292 62.32366,-38.20331 96,-52 28.89582,-11.83818 59.27721,-20.4124 90,-26 C 955.77906,433.40159 1049,430 1041,431 c -8,1 -75.99996,37 -75.99996,37 L 1032,460 c 0,0 -71.36484,32.21398 -99.99996,58 -26.06063,23.46769 -42.71612,52.36063 -56.75,84.5 -6.25228,14.31852 -13.75,49 -13.75,49"
       id="path35" /><path
       style="display:inline;fill:#fce6c6;fill-opacity:1;stroke:none;stroke-width:4;stroke-linecap:round;stroke-dasharray:none;stroke-opacity:1;paint-order:fill markers stroke"
       d="m 604.50004,553.75 -107.5,44.75 47,36 46.5,18 c 0,0 44.54562,3.86713 66,0.75 18.43752,-2.67881 52,-16.25 52,-16.25 l 16,1.5 60.5,-15 2.5,20 c 0,0 0.95228,12.66998 0.20711,18.93934 -0.99667,8.38527 -3.11123,17.13518 -6.20711,24.56066 -4.4666,10.71315 -18.5,29.5 -18.5,29.5 0,0 -22.53782,25.92681 -34.76256,38.20711 C 722.99873,759.96966 711.00004,769.5 711.00004,769.5 l 39,-9.5 c 0,0 -21.40741,18.4961 -30.4948,29.82322 -3.74962,4.67378 -8.5069,9.91393 -10.59099,15.20711 C 704.49557,816.25296 700.50004,840 700.50004,840 l 28,-36 c 0,0 -17.6366,22.66093 -25,35 -6.15705,10.31755 -16,32 -16,32 l -63,258 126,83 c -2.63324,-2.8726 16.71936,-217.16436 21.62623,-253.23194 15.69281,-115.3486 37.92204,-161.91659 50.37377,-211.26806 9.56033,-37.89162 40.625,-103.25 40.625,-103.25"
       id="path36" /><path
       style="display:inline;opacity:1;fill:#e3b215;fill-opacity:1;stroke:none;stroke-width:4;stroke-linecap:round;stroke-opacity:1;paint-order:fill markers stroke"
       d="m 701.875,911.125 6.375,16.625 17.625,-5.25 12.625,-23.125 -9.75,-8.75 -12.875,-2.125 z"
       id="path68" /><path
       style="display:inline;opacity:1;fill:#c3aa70;fill-opacity:1;stroke:none;stroke-width:4;stroke-linecap:round;stroke-opacity:1;paint-order:fill markers stroke"
       d="m 717.77773,887.98744 c 0.75,-1 9.22227,-15.11244 9.22227,-15.11244 l 12.125,3.125 7.25,8.5 -7.97855,14.52405 c -5.57267,-4.97911 -11.77587,-9.32769 -20.61872,-11.03661 z"
       id="path69" /><path
       style="display:inline;opacity:1;fill:#f7877b;fill-opacity:1;stroke:none;stroke-width:4;stroke-linecap:round;stroke-opacity:1;paint-order:fill markers stroke"
       d="m 726.75,871.875 c 3.625,-2.625 9,-16.375 9,-16.375 0,0 10.35827,0.15691 14.06066,2.49372 3.30311,2.0848 5.43934,9.13128 5.43934,9.13128 l -8.5,16.625 c -5.82734,-5.77687 -12.77018,-9.13684 -20,-11.875 z"
       id="path70" /><path
       style="display:inline;opacity:1;fill:none;fill-opacity:1;stroke:#000000;stroke-width:2;stroke-linecap:round;stroke-dasharray:none;stroke-opacity:1;paint-order:fill markers stroke"
       d="m 716.82951,888.3029 c 0,0 8.34282,1.55643 12.02081,3.53553 3.05624,1.64455 7.95495,6.71752 7.95495,6.71752 l 0.17678,0.53033"
       id="path66" /><path
       style="display:inline;fill:none;fill-opacity:1;stroke:#000000;stroke-width:2.013;stroke-linecap:round;stroke-dasharray:none;stroke-opacity:1;paint-order:fill markers stroke"
       d="m 726.36665,872.99443 c 0,0 7.85432,1.4653 11.31695,3.32852 2.87729,1.54825 7.48916,6.32418 7.48916,6.32418 l 0.16643,0.49928"
       id="path66-5" /><path
       style="display:inline;opacity:1;fill:#000000;fill-opacity:1;fill-rule:nonzero;stroke:none;stroke-width:1.82955;stroke-linecap:round;stroke-dasharray:none;stroke-opacity:1;paint-order:fill markers stroke"
       d="m 715.39987,921.20024 c -1.71766,3.17546 -2.29188,6.96943 -2.29188,6.96943 0,0 2.8611,-2.55695 4.57876,-5.73241 l 3.02938,-5.60046 c 5.35595,-9.90161 9.56846,-20.42173 9.56846,-20.42173 0,0 -6.49939,9.28311 -11.85534,19.18472 z"
       id="path67"
       transform="matrix(1.0931677,0,0,1.0931677,-66.766783,-86.038639)" /><path
       style="display:inline;opacity:1;fill:none;fill-opacity:1;stroke:#000000;stroke-width:2;stroke-linecap:round;stroke-dasharray:none;stroke-opacity:1;paint-order:fill markers stroke"
       d="m 702.86414,911.10709 c 1.06066,-1.41421 33.23403,-54.97755 33.23403,-54.97755 8.47039,-0.98399 16.10431,-0.0669 19.44543,10.6066 l -29.34493,54.624 v 0"
       id="path65" /><path
       style="display:inline;opacity:1;fill:none;fill-opacity:1;stroke:#632207;stroke-width:4;stroke-linecap:round;stroke-dasharray:none;stroke-opacity:1;paint-order:fill markers stroke"
       d="m 874.38388,715.62132 c 0,0 43.03109,-30.60376 67.61612,-29.62132 13.52384,0.54042 28.17481,7.3018 36.35355,18.08579 34.48935,45.47555 39.17685,144.12798 42.88385,168.91421 7.0858,47.37815 33.5033,164.3276 28.2626,212.5 -2.3781,17.6411 -9.7362,31.6966 -35.5,32.5 -59.3928,-4.3743 -115.86489,-25.515 -168.72487,-47.6213 l 7.69885,-81.32324 C 895.57326,996.49047 953.33823,1005.5441 994,1017.5"
       id="path16" /><path
       style="display:inline;opacity:1;fill:#66331e;fill-opacity:1;stroke:#391706;stroke-width:4;stroke-linecap:round;stroke-opacity:1;paint-order:fill markers stroke"
       d="m 867,991.75 -40,-9.25 c 0,0 -28.89565,-43.65823 -52.73223,-55.02513 C 762.64899,921.93425 746.72646,920.06826 734,922 c -20.92955,3.17689 -45.1616,7.48009 -59,23.5 -8.95847,10.3707 -15.20103,27.53791 -9.5,40 3.9074,8.54134 25,13 25,13 0,0 -4.18904,19.0343 0,27 4.44878,8.4596 23.625,16.25 23.625,16.25 0,0 4.71933,11.5671 10.875,15.75 9.59929,6.5229 23.53196,8.7681 34.875,6.3125 7.3302,-1.5869 15.00368,-10.8983 15.00368,-10.8983 0,0 18.67308,9.2286 28.12132,10.5858 6.75435,0.9702 14.55123,-2.1664 21.31066,-1.2322 8.36904,1.1565 22.06434,8.6072 22.06434,8.6072 L 878,1054.5 851.5,1027 l 31,-12 z"
       id="path59" /><path
       style="display:inline;opacity:1;fill:none;fill-opacity:1;stroke:#391706;stroke-width:4;stroke-linecap:round;stroke-opacity:1;paint-order:fill markers stroke"
       d="m 690.48977,999.14189 c 0,0 12.54619,-17.01606 21.74355,-22.62742 9.19735,-5.61136 29.60012,-8.6495 29.60012,-8.6495"
       id="path60" /><path
       style="display:inline;opacity:1;fill:none;fill-opacity:1;stroke:#391706;stroke-width:4;stroke-linecap:round;stroke-opacity:1;paint-order:fill markers stroke"
       d="m 719.22074,1051.3257 c 0,0 -5.08293,-9.4761 -4.17109,-15.1079 0.91183,-5.6317 6.74627,-12.1273 10.331,-15.416 11.85825,-10.879 31.58452,-11.853 31.58452,-11.853"
       id="path61" /><path
       style="display:inline;opacity:1;fill:none;fill-opacity:1;stroke:#391706;stroke-width:4;stroke-linecap:round;stroke-opacity:1;paint-order:fill markers stroke"
       d="m 778.75,1054.75 c -6.02856,-1.6107 -9.87548,-7.1248 -12.125,-10.625"
       id="path63" /><path
       style="display:inline;opacity:1;fill:#391706;fill-opacity:1;fill-rule:nonzero;stroke:none;stroke-width:4;stroke-linecap:round;stroke-opacity:1;paint-order:fill markers stroke"
       d="m 765.88914,1041.9034 c -2.85131,1.8258 -5.62135,3.7355 -7.92837,5.1108 -1.23354,0.7278 -1.98437,1.1576 -2.8894,1.5268 0,0 0,0 0,0 -1.13881,0.3432 -1.71414,0.2835 -1.71414,0.2835 0,0 0.41115,0.6193 1.85578,0.5804 0,0 0,0 0,0 0.99179,0.044 2.10656,-0.06 3.52387,-0.3489 2.88483,-0.5811 6.18823,-1.7741 9.31375,-3.7869 0.15226,-0.098 0.30437,-0.1965 0.45623,-0.2962 2.10148,-1.3728 3.70449,-3.2297 4.75862,-4.8631 1.03117,-1.5978 1.44293,-2.8182 1.44293,-2.8182 0,0 -1.15876,0.5522 -2.77646,1.3296 -1.49661,0.7192 -3.827,1.825 -5.61994,3.0077 -0.14068,0.092 -0.28167,0.1839 -0.42287,0.2745 z"
       id="path64" /><g
       id="g42"
       style="display:inline"><path
         id="path7"
         style="display:inline;fill:#f3ede2;fill-opacity:1;stroke:#969184;stroke-width:4;stroke-linecap:round;stroke-opacity:1;paint-order:fill markers stroke"
         d="m 200.81836,652.66016 3.18161,24.74796 c 45.18687,9.84446 109.75333,57.94566 160.58206,94.37704 6.72323,4.81886 -83.27271,-66.12683 -135.1144,-85.68496 C 212.52304,679.70757 177.5,670.25 177.5,670.25 l 66.25,229 73.25,232.75 152,62 282,-18 -78,-434 -307.74805,29.97461 c -0.34073,-0.398 -0.69293,-0.80881 -1.05664,-1.23242 l 300.48438,-28.98633 0.70703,-16.26367 c 0,0 -113.99271,8.82926 -170.41211,17.67773 -43.54406,6.82919 -128.9224,27.12558 -130.7832,27.56836 -15.18093,-17.6812 -49.95864,-57.10696 -70.74219,-72.11719 -27.94336,-20.18116 -92.63086,-45.96093 -92.63086,-45.96093 z" /><path
         style="opacity:1;fill:none;stroke:#969184;stroke-width:4;stroke-linecap:round;stroke-opacity:1;paint-order:fill markers stroke"
         d="m 396.68691,799.03066 251.2729,-22.9632"
         id="path37" /><path
         style="opacity:1;fill:#969184;fill-opacity:1;stroke:none;stroke-width:4;stroke-linecap:round;stroke-opacity:1;paint-order:fill markers stroke"
         d="m 415.5,862.5 106.5,-9 10.5,53.5 -105,8 z"
         id="path38" /><path
         style="fill:#969184;fill-opacity:1;stroke:none;stroke-width:4;stroke-linecap:round;stroke-opacity:1;paint-order:fill markers stroke"
         d="m 570.7359,947.6621 105.5,-8.5 9,53 -105,8 z"
         id="path38-8" /><path
         style="opacity:1;fill:none;stroke:#969184;stroke-width:4;stroke-linecap:round;stroke-opacity:1;paint-order:fill markers stroke"
         d="M 406.5864,830.14336 652.65956,807.51595"
         id="path39" /><path
         style="opacity:1;fill:none;stroke:#969184;stroke-width:4;stroke-linecap:round;stroke-opacity:1;paint-order:fill markers stroke"
         d="m 553.18238,850.56241 102.59115,-9.46383"
         id="path40" /><path
         style="fill:none;stroke:#969184;stroke-width:4;stroke-linecap:round;stroke-opacity:1;paint-order:fill markers stroke"
         d="m 558.13173,875.87329 102.59115,-9.46383"
         id="path40-1" /><path
         style="fill:none;stroke:#969184;stroke-width:4;stroke-linecap:round;stroke-opacity:1;paint-order:fill markers stroke"
         d="m 562.54594,901.18417 102.59115,-9.46383"
         id="path40-1-2" /><path
         style="fill:none;stroke:#969184;stroke-width:4;stroke-linecap:round;stroke-opacity:1;paint-order:fill markers stroke"
         d="m 566.96016,926.49505 102.59115,-9.46383"
         id="path40-1-23" /><path
         style="fill:none;stroke:#969184;stroke-width:4;stroke-linecap:round;stroke-opacity:1;paint-order:fill markers stroke"
         d="m 434.04783,936.52257 102.73141,-7.79521"
         id="path40-8" /><path
         style="fill:none;stroke:#969184;stroke-width:4;stroke-linecap:round;stroke-opacity:1;paint-order:fill markers stroke"
         d="m 438.58516,961.91055 102.73141,-7.79521"
         id="path40-1-5" /><path
         style="fill:none;stroke:#969184;stroke-width:4;stroke-linecap:round;stroke-opacity:1;paint-order:fill markers stroke"
         d="m 442.58742,987.28983 102.73141,-7.79521"
         id="path40-1-2-7" /><path
         style="fill:none;stroke:#969184;stroke-width:4;stroke-linecap:round;stroke-opacity:1;paint-order:fill markers stroke"
         d="m 446.58969,1012.6691 102.73141,-7.7952"
         id="path40-1-23-6" /><path
         style="fill:none;stroke:#969184;stroke-width:4;stroke-linecap:round;stroke-opacity:1;paint-order:fill markers stroke"
         d="m 449.59619,1039.6308 102.73141,-7.7952"
         id="path40-8-5" /><path
         style="fill:none;stroke:#969184;stroke-width:4;stroke-linecap:round;stroke-opacity:1;paint-order:fill markers stroke"
         d="m 454.13352,1065.0188 102.73141,-7.7952"
         id="path40-1-5-0" /><path
         style="fill:none;stroke:#969184;stroke-width:4;stroke-linecap:round;stroke-opacity:1;paint-order:fill markers stroke"
         d="m 458.13578,1090.398 102.73141,-7.7952"
         id="path40-1-2-7-2" /><path
         style="fill:none;stroke:#969184;stroke-width:4;stroke-linecap:round;stroke-opacity:1;paint-order:fill markers stroke"
         d="m 584.2254,1019.3547 102.59115,-9.4638"
         id="path40-7" /><path
         style="fill:none;stroke:#969184;stroke-width:4;stroke-linecap:round;stroke-opacity:1;paint-order:fill markers stroke"
         d="m 589.17475,1044.6656 102.59115,-9.4638"
         id="path40-1-9" /><path
         style="fill:none;stroke:#969184;stroke-width:4;stroke-linecap:round;stroke-opacity:1;paint-order:fill markers stroke"
         d="m 593.58896,1069.9765 102.59115,-9.4638"
         id="path40-1-2-5" /><path
         style="fill:none;stroke:#969184;stroke-width:4;stroke-linecap:round;stroke-opacity:1;paint-order:fill markers stroke"
         d="m 598.00318,1095.2874 102.59115,-9.4639"
         id="path40-1-23-4" /><path
         style="opacity:1;fill:#969184;fill-opacity:1;stroke:none;stroke-width:4;stroke-linecap:round;stroke-opacity:1;paint-order:fill markers stroke"
         d="m 217.08178,717.71338 45.96194,174.65538 115.96552,65.05382 -38.89088,-168.99852 z"
         id="path41" /><path
         style="opacity:1;fill:none;stroke:#969184;stroke-width:4;stroke-linecap:round;stroke-opacity:1;paint-order:fill markers stroke"
         d="m 269.5,927.5 118,63"
         id="path42" /><path
         d="m 282.5,975.5884 113.47487,55.1464"
         style="fill:none;stroke:#969184;stroke-width:4;stroke-linecap:round;stroke-opacity:1;paint-order:fill markers stroke"
         id="path1-86" /><path
         d="m 297,1015.8232 107,52.5"
         style="fill:none;stroke:#969184;stroke-width:4;stroke-linecap:round;stroke-opacity:1;paint-order:fill markers stroke"
         id="path1-0" /><path
         d="m 307.5,1053.4116 105.5,53.5"
         style="fill:none;stroke:#969184;stroke-width:4;stroke-linecap:round;stroke-opacity:1;paint-order:fill markers stroke"
         id="path1-9" /><path
         d="m 321,1092 95.61523,48.6256"
         style="fill:none;stroke:#969184;stroke-width:4;stroke-linecap:round;stroke-opacity:1;paint-order:fill markers stroke"
         id="path1-06" /></g><path
       style="display:inline;fill:#632207;fill-opacity:1;fill-rule:nonzero;stroke:none;stroke-width:4.94402;stroke-linecap:butt;stroke-linejoin:miter;stroke-dasharray:none;stroke-opacity:1"
       d="m 520.86302,528.42058 c 1.84799,0.43634 5.68708,1.96599 11.77124,2.54372 8.97935,0.85264 26.43552,0.56506 47.45294,-2.67922 26.57757,-4.06261 53.38997,-11.7211 79.19167,-22.97012 7.37793,-3.28123 14.07725,-6.57937 20.26298,-9.84727 6.12768,-3.23723 12.67456,-6.98676 19.35488,-11.32279 19.73471,-12.76085 36.73987,-28.22947 48.19778,-46.60256 6.32479,-10.3185 9.50179,-19.4924 10.60079,-24.25912 0.70055,-3.03847 0.62372,-5.18163 0.70375,-6.12061 -0.45717,0.9306 -1.56998,2.61413 -2.89259,5.4871 -2.09349,4.54742 -5.53392,12.99743 -12.05076,22.92008 -11.35268,17.58945 -27.92047,32.49451 -47.32816,44.86225 -6.58189,4.17807 -13.03554,7.79102 -19.0872,10.88823 -6.09103,3.11737 -12.80689,6.1855 -20.14057,9.16247 -25.5715,10.60292 -51.91981,17.48952 -77.92181,21.26549 -20.32925,2.92097 -37.71553,3.55331 -46.34655,4.45738 -6.06557,0.63535 -9.79131,1.8814 -11.76839,2.21497 z"
       id="path2" /><path
       style="display:inline;fill:none;fill-opacity:1;stroke:#632207;stroke-width:4.94402;stroke-linecap:butt;stroke-linejoin:miter;stroke-dasharray:none;stroke-opacity:1"
       d="m 484.80812,586.92156 c 16.33512,17.49092 35.50926,32.69965 56.68335,44.96066 15.80768,9.15355 32.86951,16.71549 51.04379,20.62475 26.45577,5.69059 54.43717,3.41416 80.59866,-3.51508 43.12908,-11.42334 81.46762,-34.99575 115.82492,-61.77036 23.35105,-18.19746 45.41183,-38.23755 62.02991,-61.94205 6.31154,-9.00296 11.8073,-18.49495 16.41014,-28.34272"
       id="path3" /><path
       style="display:inline;fill:#632207;fill-opacity:1;fill-rule:nonzero;stroke:none;stroke-width:4.94402;stroke-linecap:square;stroke-linejoin:miter;stroke-dasharray:none;stroke-opacity:1;paint-order:normal"
       d="m 839.95784,502.34546 c 0.0178,0.0251 0.0234,0.12996 0.10717,0.15092 0.49786,0.12449 4.80614,-1.98027 10.16109,-3.16843 5.94792,-1.31976 11.05188,-1.26626 15.05902,-0.82182 0.0811,0.008 0.16077,0.0176 0.23904,0.0264 4.00422,0.45156 8.63499,1.72486 11.86098,2.68474 0.1779,0.0529 0.77546,0.22907 0.95335,0.28201 4.47481,1.32335 10.85508,4.09775 12.84446,5.39272 -0.76263,-0.97262 -2.06586,-2.67936 -4.07722,-4.60279 -2.02462,-1.93611 -4.34077,-3.67374 -6.72376,-4.95634 -0.33631,-0.18101 -0.66645,-0.34871 -0.98827,-0.50248 -3.93614,-1.8808 -8.29116,-2.854 -13.45206,-3.04229 -0.0898,-0.004 -0.18113,-0.006 -0.27407,-0.009 -4.51781,-0.12053 -10.36853,0.51918 -16.39292,2.83539 -5.55843,2.13705 -9.34397,5.0779 -9.42404,5.5801 -0.0128,0.0801 0.0893,0.12573 0.10716,0.15092 z"
       id="path4" /><path
       style="display:inline;fill:#632207;fill-opacity:1;fill-rule:nonzero;stroke:none;stroke-width:4.94402;stroke-linecap:square;stroke-linejoin:miter;stroke-dasharray:none;stroke-opacity:1;paint-order:normal"
       d="m 707.87617,636.80279 c -0.0592,0.35866 -0.69874,1.53023 -0.36352,2.20155 1.09283,2.18856 11.20176,3.28144 22.43292,1.99093 10.92283,-1.12432 20.88395,-3.94505 28.85609,-6.17627 11.51028,-3.19083 23.07496,-7.30146 35.09934,-12.2416 15.74329,-6.4131 28.48684,-12.65538 34.76187,-16.25649 3.63576,-2.08647 5.80592,-3.84667 6.90873,-4.59303 -1.32384,0.46268 -4.00091,1.14504 -7.95896,2.71049 -6.4904,2.56701 -19.91851,8.50778 -35.40933,14.41738 -12.1407,4.5898 -23.43005,8.45123 -34.81117,11.39221 -7.84856,2.00701 -17.77141,3.65049 -27.94355,3.9191 -10.30409,0.14086 -19.67658,-1.20832 -21.2089,0.43424 -0.52313,0.56074 -0.30293,1.83462 -0.36352,2.20154 z"
       id="path6" /><path
       style="display:inline;opacity:1;fill:#e66714;fill-opacity:1;stroke:none;stroke-width:4;stroke-linecap:round;stroke-opacity:1;paint-order:fill markers stroke"
       d="m 396.68691,1170.2617 c 0,0 19.09188,-42.0728 26.5165,-46.3155 7.42462,-4.2426 26.87006,-30.7591 26.87006,-30.7591 l 30.40559,-9.1924 59.04342,8.4853 54.44722,20.5061 94.39875,54.4472 65.40738,45.9619 -295.57063,-10.6066 z"
       id="path44" /><path
       style="display:inline;fill:none;fill-opacity:1;stroke:#632207;stroke-width:4.94402;stroke-linecap:round;stroke-linejoin:miter;stroke-dasharray:none;stroke-opacity:1;paint-order:normal"
       d="m 607.97468,519.62279 c 0,0 -45.45533,-35.40801 -83.48631,-63.41811 -2.22842,-1.64125 48.67336,0.18126 43.93176,-3.16911 -17.13114,-12.10471 -24.22458,-17.62002 -36.39957,-29.86017 -18.51647,-18.61554 -19.93662,-22.31324 -14.29857,-21.91636 0,0 34.90386,4.99025 52.38605,3.96825 17.14401,-1.00223 40.00661,0.5177 50.56928,-9.85097 2.15832,-2.11868 3.20806,-5.02735 5.11061,-7.96691 4.94282,-7.63702 10.0796,-17.02837 12.84648,-23.60462 6.83201,-16.23812 16.98907,-38.14226 23.02863,-48.01421 13.52025,-22.09949 40.91545,-39.36187 40.91545,-39.36187 l 32.53704,-18.92911"
       id="path21" /><path
       style="display:inline;fill:#2b170d;fill-opacity:1;stroke:none;stroke-width:4.94402;stroke-linecap:round;stroke-linejoin:miter;stroke-dasharray:none;stroke-opacity:1;paint-order:normal"
       d="m 734.4346,336.60134 c -5.19012,-2.25542 -17.72941,-13.92444 -28.16719,-18.36268 -6.14458,-2.61272 -12.91284,-4.94707 -19.67488,-4.60669 -5.87539,0.29575 -11.45279,2.98381 -16.566,5.69703 -4.81589,2.55545 -12.89929,9.75823 -12.89929,9.75823 0,0 -5.45925,5.02704 -6.43628,3.36882 -3.34769,-5.68174 4.65894,-17.4806 4.65894,-17.4806 0,0 8.89994,-12.9155 15.89361,-16.34447 8.58524,-4.20929 20.08144,-4.60532 28.84228,-3.64311 6.48416,0.71217 9.88435,1.31049 18.64407,8.21854 8.65852,6.82822 24.16066,37.06954 15.70474,33.39493 z"
       id="path22" /><path
       style="display:inline;fill:#2b170d;fill-opacity:1;stroke:none;stroke-width:6.68279;stroke-linecap:round;stroke-linejoin:miter;stroke-dasharray:none;stroke-opacity:1;paint-order:normal"
       d="m 925.70441,315.62277 c -3.42913,-0.9843 -23.95115,-18.88328 -38.4337,-23.76211 -8.17875,-2.75522 -17.30017,-3.45067 -25.973,-2.64227 -8.45137,0.78773 -16.71616,3.61206 -24.28827,7.19779 -11.15477,5.28227 -30.25747,20.6683 -30.25747,20.6683 0,0 -8.60697,5.91614 -10.0287,3.85235 -4.87138,-7.0714 7.18106,-22.77752 7.18106,-22.77752 0,0 16.55218,-19.90329 29.35499,-26.17341 12.8028,-6.27013 27.88436,-9.11664 41.96043,-7.29055 11.01242,1.42864 21.89596,6.59903 29.79686,13.82803 10.68617,9.77738 33.39281,40.74626 20.6878,37.09939 z"
       id="path22-2" /><path
       style="display:inline;fill:#fce6c6;fill-opacity:1;stroke:none;stroke-width:4.94402;stroke-linecap:round;stroke-linejoin:round;stroke-dasharray:none;stroke-opacity:1"
       d="m 982.37306,302.68749 c 0,0 35.44884,-93.40148 50.52234,-123.18714 24.1209,-47.66339 72.1501,-105.605501 72.1501,-105.605501 0,0 13.568,55.783121 14.3199,84.202191 0.2819,10.65303 -0.3861,25.10257 -1.3856,37.61631 -0.905,11.32995 -1.8929,22.70017 -4.1711,33.86813 -3.5216,17.26294 -14.6253,50.9479 -14.6253,50.9479 0,0 -7.4198,24.20461 -13.381,35.43975 -9.9675,18.78563 -36.9961,52.63691 -36.9961,52.63691 l -32.7418,-38.44473 c 0,0 17.2254,-11.13947 23.5775,-18.70623 2.5438,-3.03023 12.5599,-19.30337 12.3939,-25.97785 0,0 -7.2647,2.70525 -10.902,4.04614 -8.4726,3.12335 -25.4411,9.31526 -25.4411,9.31526 0,0 22.2369,-20.57757 29.1213,-33.37761 5.1571,-9.58859 10.5401,-23.92986 8.3936,-31.16324 -14.5504,15.82969 -23.8954,30.7893 -39.6132,45.7184 -9.4872,8.53429 -31.22144,22.67131 -31.22144,22.67131 z"
       id="path46" /><path
       style="display:inline;fill:#632207;fill-rule:nonzero;stroke:none;stroke-width:4.94402;stroke-linecap:round;stroke-linejoin:round;stroke-opacity:1"
       d="m 762.36275,265.58038 c 7.52849,2.03992 15.78656,1.79594 15.78656,1.79594 0,0 -6.79889,-4.32381 -14.32735,-6.36373 l -60.22781,-16.31934 0.44907,4.39371 c 1.34313,-0.64749 1.34053,-0.64636 3.56283,-1.65877 2.22228,-1.01243 5.3126,-2.38419 8.76593,-3.81372 6.90667,-2.859 15.37521,-5.94042 20.85041,-6.84072 9.09979,-1.49631 23.69833,-1.15354 35.84139,-0.37258 6.07153,0.39049 11.55422,0.87973 15.5139,1.27101 3.95967,0.39129 3.95682,0.39105 6.38098,0.68265 a 70538.37,76146.514 88.574914 0 0 11.68321,1.40449 l -71.78823,-41.61648 -1.2019,4.39211 c 2.41186,-0.15352 2.40916,-0.15345 6.34317,-0.32515 3.93401,-0.1716 9.37825,-0.36035 15.39973,-0.42858 12.04296,-0.13625 26.48764,0.25291 35.42466,2.09346 9.35592,1.9268 23.18939,7.47855 34.50212,12.54193 5.65636,2.5317 10.7085,4.9407 14.34219,6.7148 3.63368,1.7741 3.63126,1.77297 5.83615,2.90664 a 84057.313,90740.279 88.574914 0 0 9.11267,4.68477 29547.308,31896.462 88.574914 0 0 -5.71007,-8.07565 c -0.85992,-1.21572 -0.85846,-1.21348 -2.2153,-3.23038 -1.35685,-2.0169 -3.20357,-4.82537 -5.15286,-7.97532 -3.89858,-6.29991 -8.20946,-14.06706 -9.7919,-19.22881 -0.96264,-3.14 -1.45567,-8.71124 -1.622,-13.33916 -0.0831,-2.31394 -0.0982,-4.41385 -0.0931,-5.93049 0.006,-1.51666 0.005,-1.51404 0.0315,-2.43586 l -4.5031,1.5177 c 10.38198,10.9932 21.70222,22.27489 27.53184,27.41025 11.95641,10.5325 24.40879,20.90163 38.12382,29.67948 9.0299,5.77929 25.82113,13.44334 32.04418,16.22383 l 0.009,0.004 c 1.22134,0.54049 3.49411,-0.9614 3.60915,-1.0385 0.004,-0.004 0.004,-0.004 0.004,-0.004 0,0 -1.5e-4,7.7e-4 9e-4,-0.005 -0.007,-0.13144 -0.1706,-2.71123 -1.38503,-3.24865 l 0.009,0.004 c -6.24893,-2.79206 -22.89088,-10.43473 -31.35933,-15.85467 -13.37022,-8.55717 -25.60969,-18.73464 -37.50736,-29.21541 -4.73984,-4.17535 -11.5812,-10.98136 -17.19354,-16.70885 -5.61234,-5.72748 -5.61082,-5.72582 -10.01386,-10.38808 a 2155939.3,2327347 88.574914 0 1 -4.18999,-4.43669 131.62213,142.08673 88.574914 0 0 -0.31311,5.95439 c -0.24838,8.83315 0.44182,18.44665 1.87682,23.12759 2.16823,7.07246 8.30958,17.30716 12.58421,23.94851 1.83857,2.8565 3.79735,5.78025 5.21788,7.78856 l 3.40259,-3.39089 c -3.59568,-1.84878 -8.81708,-4.38703 -13.91502,-6.76436 -12.04387,-5.61645 -29.95355,-13.3722 -42.13828,-15.8816 -11.68991,-2.40748 -30.64475,-2.41461 -43.5731,-2.07392 -5.47231,0.14385 -11.12355,0.38143 -15.0601,0.63215 a 163.69281,176.7072 88.574914 0 0 -7.66759,0.64388 l 68.27924,39.58228 1.70852,-4.37794 c -3.96015,-0.47636 -9.65229,-1.02879 -15.16861,-1.47205 -13.03234,-1.04721 -32.16326,-2.04252 -44.12706,-0.0753 -7.56036,1.24316 -18.76568,5.72116 -26.07,8.88512 -3.14164,1.36082 -6.36549,2.82265 -8.58754,3.89384 a 98.205047,106.01283 88.574914 0 0 -5.42215,2.80284 z"
       id="path5" /><path
       style="display:inline;fill:#632207;fill-opacity:1;fill-rule:nonzero;stroke:none;stroke-width:4.94402;stroke-linecap:round;stroke-linejoin:round;stroke-dasharray:none;stroke-opacity:1"
       d="m 918.45878,259.58395 c 0.3892,0.17803 2.0534,-0.43601 9.1746,-11.98943 3.45382,-5.60347 7.40551,-12.34241 14.66405,-24.52172 6.66434,-11.18223 16.26074,-27.17491 27.41248,-44.91017 3.45617,-5.49596 8.35111,-12.44503 14.46443,-20.47503 5.90235,-7.75289 12.90465,-16.46536 20.68086,-25.65255 15.0197,-17.74498 32.9362,-37.264775 50.5646,-54.115193 8.6309,-8.249964 17.1508,-15.818579 25.1556,-22.164904 7.9777,-6.324919 15.3487,-11.359484 21.7407,-14.653355 3.1893,-1.643548 6.0639,-2.816486 8.5936,-3.511737 2.5439,-0.699149 4.6059,-0.878497 6.2317,-0.667211 0.8035,0.104487 1.4996,0.303844 2.1082,0.58371 0.6074,0.279231 1.1674,0.65669 1.6832,1.155307 0.5203,0.502862 1.0177,1.150707 1.4683,1.983016 0.453,0.836845 0.8554,1.85418 1.1814,3.08022 0.179,0.67167 0.3787,1.572023 0.5946,2.696044 0.2164,1.126283 0.4437,2.448234 0.6791,3.945293 0.4778,3.038211 0.9825,6.755139 1.4939,10.955499 1.0695,8.784784 2.1467,19.498378 3.0924,30.58323 0,0 0,0.04346 0,0.04346 0.9235,10.829031 1.8381,23.212511 2.5355,35.660981 0.6463,11.53796 1.1048,23.13017 1.1816,33.16268 0.1246,16.78365 0.5472,34.3742 -0.123,51.52066 -0.6985,17.86989 -2.55,34.47425 -6.5874,50.36669 -8.8693,34.97993 -23.8544,65.52912 -32.9567,82.49328 -8.1129,15.12038 -14.9793,25.75324 -16.7912,28.54706 -3.8867,5.99303 -3.9796,5.95821 -3.9679,5.94163 a 3.349394,3.6156871 88.574914 0 0 6.0463,3.65305 v 0 c 0.011,-0.0166 0.1609,-0.036 4.1197,-6.16604 1.8428,-2.85355 8.8228,-13.69916 17.0304,-29.03183 9.1942,-17.17573 24.4228,-48.26111 33.4369,-83.95793 4.1466,-16.45212 5.9946,-33.51725 6.656,-51.644 0.6325,-17.33456 0.1524,-35.15343 -0.033,-51.80101 -0.1105,-10.16088 -0.6094,-21.85095 -1.2967,-33.4402 -0.7422,-12.5159 -1.7048,-24.94426 -2.6803,-35.821378 0,0 0,-0.04371 0,-0.04371 -0.9982,-11.126068 -2.1088,-21.903075 -3.2024,-30.7687 -0.5228,-4.23737 -1.0398,-8.021419 -1.5324,-11.143801 -0.2428,-1.539035 -0.481,-2.925268 -0.7122,-4.129786 -0.2284,-1.189842 -0.4555,-2.231062 -0.6806,-3.079695 -0.4206,-1.583605 -0.9749,-3.032755 -1.6779,-4.332954 -0.7027,-1.299476 -1.5568,-2.454984 -2.5757,-3.441257 -1.02,-0.987375 -2.1822,-1.782571 -3.4726,-2.37721 -1.2858,-0.592457 -2.6586,-0.967423 -4.0871,-1.15421 -2.8304,-0.370088 -5.8722,-0.0021 -8.9878,0.852198 -3.1218,0.856001 -6.4482,2.236172 -9.9141,4.020288 -6.9313,3.567933 -14.6784,8.886426 -22.8211,15.339604 -8.2037,6.50161 -16.8757,14.208711 -25.6024,22.551869 -17.8225,17.038995 -35.8815,36.733112 -50.98773,54.618672 -7.82617,9.26609 -14.88173,18.07071 -20.8371,25.92907 -6.15803,8.12578 -11.13772,15.23416 -14.69721,20.95932 -11.19754,18.01233 -20.46624,33.81768 -27.00564,45.31553 -6.62236,11.64369 -11.07197,19.95675 -13.66393,25.10148 -6.09354,12.09499 -5.40742,13.79261 -5.09591,13.93511 z"
       id="path26" /><path
       style="display:inline;fill:none;fill-opacity:1;stroke:#632207;stroke-width:4.94402;stroke-linecap:round;stroke-linejoin:round;stroke-dasharray:none;stroke-opacity:1"
       d="m 981.68636,301.32364 c 0,0 26.16254,-67.59998 39.53364,-98.21558 11.6113,-26.5863 28.0495,-53.81977 44.7401,-77.98826 11.7519,-17.01701 36.8841,-46.295333 36.8841,-46.295333 0,0 10.9213,43.271773 13.1515,65.337093 1.7362,17.17918 1.3689,34.55373 0.1355,51.78064 -1.4546,20.31716 -3.7331,40.73496 -8.8671,60.54629 -5.2252,20.16305 -12.5181,40.01726 -22.167,58.74176 -9.6978,18.81951 -35.5596,53.2025 -35.5596,53.2025 l -32.0699,-38.17365 c 0,0 19.8424,-14.84329 26.8443,-27.09368 8.6434,-15.12218 7.6309,-19.53039 7.1734,-18.59649 l -35.3502,15.29352 c 0,0 27.0384,-23.17548 32.4624,-38.71133 8.3919,-24.03674 6.1282,-31.64995 6.1282,-31.64995 0,0 -21.2202,30.68619 -30.9336,40.74396 -12.7263,13.17744 -42.10574,31.07851 -42.10574,31.07851 z"
       id="path27" /><path
       style="display:inline;fill:#311d12;fill-opacity:1;stroke-width:10.7533"
       d="m 462.88929,543.18388 c 0,0 3.84422,-22.17974 79.12848,-16.11571 60.30687,4.85762 65.30867,30.67356 65.30867,30.67356 0,0 9.32605,16.66993 -23.52859,38.75603 -33.83752,22.74682 -54.63761,16.04029 -54.63761,16.04029 0,0 -34.01135,-6.61768 -52.0487,-30.46959 -16.14115,-21.34445 -14.22225,-38.88458 -14.22225,-38.88458 z"
       id="path1-8" /><path
       style="display:inline;fill:#632207;fill-opacity:1;fill-rule:nonzero;stroke:none;stroke-width:4.94402;stroke-linecap:round;stroke-linejoin:round;stroke-dasharray:none;stroke-opacity:1"
       d="m 1085.4788,386.36049 c -11.7713,-7.00027 -25.0257,-11.65086 -25.0257,-11.65086 0,0 10.5704,8.71878 22.2394,15.65837 32.7257,19.46184 69.1267,43.82392 91.2433,68.51889 l 2.3471,-3.87954 c -3.6705,-0.47934 -8.92,-1.08809 -13.9923,-1.62254 -11.9833,-1.26262 -29.453,-2.78231 -39.8038,-2.16667 -4.6748,0.27804 -16.1916,1.75702 -27.8772,3.54535 a 644.50791,695.74944 88.574914 0 0 -10.2018,1.63343 191.24583,206.45081 88.574914 0 1 9.7428,2.95641 c 16.2464,5.34876 29.6965,11.90832 41.2471,20.30588 11.5505,8.39754 21.222,18.64302 29.863,31.46358 l 2.2487,-3.64447 c -0.9535,-0.0203 -3.5871,-0.0343 -5.2649,-0.0283 -13.3697,0.0484 -50.418,0.94039 -85.0324,8.55091 a 230.27764,248.58583 88.574914 0 0 -0.1049,0.023 428.3108,462.36359 88.574914 0 1 -0.1018,0.0309 c -40.1322,12.17296 -102.11262,25.35207 -158.25497,95.1591 -17.08151,21.23905 -27.21555,54.44788 -29.50156,80.4729 -0.2026,2.30652 -0.15932,6.84174 -0.09,10.04475 l 4.4e-4,0.0166 c 0.0732,2.52908 2.65445,4.96834 2.71491,5.02513 0,0 0,0 0,0 0,0 0,0 0,0 0,0 0,0 0,0 10e-4,5.8e-4 10e-4,4.9e-4 10e-4,4.9e-4 0,0 -1.7e-4,10e-5 10e-4,-5.6e-4 0,0 0,0 0,0 0,0 0,0 0,0 0,0 0,0 0,0 0.0571,-0.0605 2.49082,-2.66106 2.41765,-5.17161 l 4.4e-4,0.0166 c -0.0735,-3.36927 -0.0944,-7.64533 0.0741,-9.56317 1.1142,-12.68458 4.15406,-27.14911 8.96901,-40.95776 4.81496,-13.80865 11.4165,-26.9639 19.52769,-37.04931 22.05365,-27.42135 44.92211,-45.87007 66.99397,-58.95124 33.10782,-19.62174 64.43182,-27.15032 88.72772,-34.51978 l -0.2067,0.054 c 21.2722,-4.67702 43.5603,-6.78579 60.5018,-7.71372 6.7765,-0.37116 12.6987,-0.55435 17.3623,-0.6405 2.7981,-0.0517 5.1431,-0.0685 6.9478,-0.0701 2.707,-0.002 2.7052,-0.002 4.1798,0.0292 a 15760.967,17014.041 88.574914 0 0 4.6969,0.0994 162.90325,175.85485 88.574914 0 0 -2.4481,-3.74388 c -17.8726,-26.51722 -40.3006,-42.71559 -73.7337,-53.72268 l -0.459,4.58985 c 4.9957,-0.76452 4.994,-0.76422 10.9302,-1.5844 5.9362,-0.82017 12.8773,-1.69522 16.4383,-1.90702 8.0017,-0.47592 21.3262,0.44162 32.4965,1.50397 5.5852,0.53119 10.6543,1.09394 14.3239,1.52359 3.6696,0.42965 3.6678,0.42945 5.9301,0.72491 a 159767.91,172470.23 88.574914 0 0 6.4047,0.83629 154.67438,166.97174 88.574914 0 0 -4.0577,-4.71583 c -22.7265,-25.37585 -59.6401,-49.98824 -92.4152,-69.47945 z"
       id="path28" /><path
       style="display:inline;fill:#632207;fill-opacity:1;stroke:none;stroke-width:4.94402;stroke-linecap:round;stroke-linejoin:round;stroke-dasharray:none;stroke-opacity:1"
       d="m 991.03733,143.16987 2.82262,-1.20269 54.31285,-28.15319 2.8434,32.39367 52.5317,-66.990655 6.3116,24.380015 8.0177,60.19944 17.2622,-26.85395 -6.1467,-83.273052 -5.3282,-17.609619 -6.9608,-1.336798 -15.8454,1.904161 -56.3715,43.681609 z"
       id="path29" /><path
       style="display:inline;fill:#ffffff;fill-opacity:1;stroke:none;stroke-width:3.84988;stroke-linecap:round;stroke-linejoin:round;stroke-dasharray:none;stroke-opacity:1"
       d="m 435.82874,405.61254 -49.86107,2.31204 -43.84937,-5.93319 0.47867,9.41651 2.9068,14.08607 13.42584,15.6521 13.68299,6.44153 18.61785,3.32465 18.16923,-4.15582 11.88851,-7.48048 10.31832,-15.99991 4.03761,-15.37654 z"
       id="path48"
       transform="matrix(-1.2838032,0.03193791,0.03193791,1.2838032,1333.6669,-119.11324)" /><path
       style="display:inline;fill:#ffffff;fill-opacity:1;stroke:none;stroke-width:4.94402;stroke-linecap:round;stroke-linejoin:round;stroke-dasharray:none;stroke-opacity:1"
       d="m 648.87411,414.49556 88.32174,5.53762 -0.5999,15.89393 -9.0302,20.13605 -12.30072,12.05538 -23.27604,5.06229 -17.43127,-5.26332 -19.15539,-22.86217 z"
       id="path47" /><path
       style="display:inline;fill:none;fill-opacity:1;stroke:#632207;stroke-width:3.84988;stroke-linecap:round;stroke-linejoin:miter;stroke-dasharray:none;stroke-opacity:1;paint-order:normal"
       d="m 404.40615,345.88333 c -6.90075,-2.28231 -14.52679,-2.51601 -21.65463,-0.94274 -7.12784,1.57326 -13.75176,4.91777 -19.25714,9.39707 -3.14598,2.55964 -5.90545,5.46626 -8.29239,8.62587 -5.96723,7.89887 -9.60627,17.37887 -11.13562,26.97151 -1.48222,9.29704 -4.25319,34.8996 7.90957,45.60068 9.62189,8.46556 22.40911,13.98732 35.66552,14.54537 12.59793,0.53034 25.5758,-3.63378 34.31965,-12.05188 7.90976,-7.61508 13.95181,-17.16147 14.79063,-27.55105 0.86548,-10.71985 -0.39824,-16.51154 -2.07755,-25.0685 -2.45074,-12.48785 -6.87591,-24.25907 -17.25798,-32.46143 -3.89554,-2.98035 -8.25188,-5.4912 -13.01006,-7.0649 z"
       id="path20"
       transform="matrix(-1.2838032,0.03193791,0.03193791,1.2838032,1333.6669,-119.11324)" /><path
       style="display:inline;opacity:1;fill:#000000;fill-opacity:1;stroke:none;stroke-width:3;stroke-linecap:square;stroke-dasharray:none;stroke-opacity:1;paint-order:fill markers stroke"
       d="m 690.71832,418.17155 c -4.19044,5.50908 -2.51665,31.12116 12.2172,32.14119 17.64451,1.27233 18.09902,-17.00601 16.89918,-30.11454 -0.0121,-0.004 -29.028,-2.64537 -29.11638,-2.02665 z"
       id="path14" /><path
       style="display:inline;fill:#000000;fill-opacity:1;stroke:none;stroke-width:3.09982;stroke-linecap:square;stroke-dasharray:none;stroke-opacity:1;paint-order:fill markers stroke"
       d="m 828.31543,417.65205 c -2.04495,4.86831 0.70402,32.21018 15.9574,31.7437 17.90906,-1.38952 19.33731,-20.04943 16.97603,-33.42281 -0.003,-0.0129 -35.55969,0.94542 -32.93343,1.67911 z"
       id="path14-1" /><path
       style="display:inline;opacity:1;fill:none;fill-opacity:1;stroke:#632207;stroke-width:4;stroke-linecap:round;stroke-dasharray:none;stroke-opacity:1;paint-order:fill markers stroke"
       d="m 778,415.25 c 0,0 44.60502,2.98352 66.83839,1.46967 C 866.44516,415.24848 909,406.5 909,406.5"
       id="path15" /><path
       style="display:inline;fill:none;fill-opacity:1;stroke:#632207;stroke-width:3.97285;stroke-linecap:square;stroke-linejoin:miter;stroke-dasharray:none;stroke-opacity:1;paint-order:normal"
       id="path9"
       d="m 482.21591,436.43485 c 7.66829,7.78447 15.799,10.48963 26.06478,9.8326 12.86309,-0.82326 22.98189,-7.46622 29.33747,-20.14782 8.10956,-16.18139 7.38586,-45.63085 -3.0489,-60.62537 -8.17787,-11.75142 -15.73036,-19.20197 -28.59345,-18.37871 -10.26578,0.65703 -19.24862,6.27272 -25.68839,14.96011 -13.5988,18.34513 -14.26457,57.9208 1.92849,74.35919 z"
       transform="matrix(-1.2838032,0.03193791,0.03193791,1.2838032,1333.6669,-119.11324)" /><path
       style="display:inline;fill:#000000;fill-opacity:1;stroke:#632207;stroke-width:4.94402;stroke-linecap:round;stroke-linejoin:miter;stroke-dasharray:none;stroke-opacity:1;paint-order:normal"
       d="m 635.07153,412.35423 111.31623,7.92567"
       id="path18-7" /><path
       id="path1"
       style="display:inline;opacity:1;fill:#9146b4;fill-opacity:1;stroke:#5f2f76;stroke-width:3;stroke-linecap:round;stroke-dasharray:none;stroke-opacity:1;paint-order:fill markers stroke"
       d="m 1046.7949,352.42383 c -1.673,0.0421 -3.294,0.3804 -4.8144,1.08789 -34.1949,15.91191 -115.8038,42.18724 -116.1348,41.64062 -0.15796,-0.26086 -122.06443,-4.08524 -161.69531,4.89454 -5.51614,1.24986 -3.32617,14.76171 -3.32617,14.76171 L 743.25,415.31055 c -0.0769,-3.10596 -0.24201,-7.26856 -1.05859,-9.10157 -1.59372,-3.57742 -6.6311,-7.00213 -10.83008,-7.49023 -36.87753,-4.28669 -111.93309,-7.76136 -111.93309,-7.76136 0,0 20.15003,-22.94525 15.48109,-21.20818 -13.00554,4.8387 -16.51007,7.93085 -30.30427,14.98342 -4.81543,2.26909 -5.55278,4.90618 -5.6821,8.65961 -0.19781,5.74131 0.0168,2.33455 0.0566,7.625 0.0165,2.18493 6.3443,0.7986 6.78125,2.93945 3.70492,18.15202 11.83247,58.58769 26.07313,65.78354 9.96974,5.03774 40.73539,8.1358 62.65235,8.12891 12.26345,-0.004 23.43905,-3.1923 32.69531,-12.10547 6.00647,-5.78383 12.67429,-22.85783 15.47852,-36.91601 l 18.98242,-0.52539 c 0.19562,-0.0734 11.5272,37.65976 23.33984,44.01953 19.73988,10.62769 103.441,13.00686 123.86914,-2.86719 14.16816,-11.00963 17.60784,-58.64739 17.60784,-58.64739 l 121.08554,-42.76863 30.377,17.44336 c 0,0 -4.455,-18.23008 -9.9961,-23.02734 -5.6203,-4.86584 -13.8812,-10.23305 -21.1309,-10.05078 z m -176.99802,51.89844 c 14.01428,0.0631 29.83797,0.74882 37.08203,3.23632 7.6614,2.63081 1.87731,32.5541 0.33984,41.10157 -5.87051,32.63674 -71.99383,26.30769 -111.63477,17.76562 -7.21059,-1.55378 -12.69221,-13.00706 -17.66601,-23.89062 -4.17056,-9.12594 -12.24628,-29.65202 -2.39844,-34.53516 9.31916,-4.621 68.05859,-3.18164 68.05859,-3.18164 0,0 12.20447,-0.55923 26.21876,-0.49609 z M 702.0625,405.5957 c 1.43317,5e-5 22.34829,-0.44151 27.02539,4.70899 7.50118,8.26042 4.78639,25.27148 -0.91992,35.83008 -4.20641,7.78327 -10.31365,17.2146 -20.81836,20.25195 -18.71262,5.41059 -50.03531,-2.40368 -67.16211,-6.80274 -12.31532,-3.16322 -23.04624,-34.12426 -24.6454,-51.20346 -0.88861,-7.36316 6.90397,-7.29094 13.5536,-8.07779 0.51186,-0.10237 71.53361,5.29292 72.9668,5.29297 z" /><path
       style="display:inline;opacity:1;fill:none;fill-opacity:1;stroke:#632207;stroke-width:4;stroke-linecap:round;stroke-dasharray:none;stroke-opacity:1;paint-order:fill markers stroke"
       d="m 905,802.5 c 0.75,5 8.625,56.375 21.3125,106.5 C 939,959.125 954.5,1006.75 954.5,1006.75"
       id="path17" /><path
       style="display:inline;opacity:1;fill:#632207;fill-opacity:1;fill-rule:nonzero;stroke:none;stroke-width:4;stroke-linecap:round;stroke-dasharray:none;stroke-opacity:1;paint-order:fill markers stroke"
       d="m 787.5908,628.08481 c -0.18867,-1.13434 -2.34855,-1.9408 -2.34855,-1.9408 0,0 -1.78252,1.46221 -1.59385,2.59655 l -0.004,-0.0121 c 0.5433,3.39771 1.54189,10.17659 2.03523,16.78817 0.3289,4.40772 0.42178,8.76155 0.0512,11.85477 -1.81372,15.14022 -6.57525,30.30254 -14.237,43.42355 -7.67419,13.14232 -23.26441,30.11728 -36.98075,43.84285 -12.34471,12.35302 -23.00538,21.95071 -25.56417,24.56059 -0.12438,0.12687 -0.59284,0.58702 -0.80289,1.00712 -0.73483,1.46968 0.39152,2.68091 1.36295,2.92516 0.95457,0.24001 2.86995,-0.27515 3.50589,-0.42647 6.96303,-1.65686 26.28081,-7.58081 34.05117,-9.77111 1.25329,-0.35327 2.24545,-0.62032 2.83354,-0.76045 0.047,-0.0112 0.0914,-0.0216 0.13274,-0.0311 0.0372,-0.009 0.0721,-0.0164 0.10433,-0.0235 0.029,-0.006 0.0559,-0.0122 0.0805,-0.0173 0.0199,-0.004 0.0382,-0.008 0.0549,-0.0112 0.0749,-0.0149 0.17243,0.23991 -0.77997,-0.15817 -0.22781,-0.0952 -0.62683,-0.31189 -0.92012,-0.78615 -0.73441,-1.18757 0.0131,-2.16163 0.23749,-2.39903 0.0231,-0.0245 0.0445,-0.0458 0.0643,-0.0648 0.022,-0.0211 0.042,-0.0394 0.0605,-0.0556 0.0205,-0.018 0.0389,-0.0334 0.0557,-0.047 0.0186,-0.0151 0.0352,-0.0279 0.0502,-0.0391 -2.53716,1.90287 -30.26788,25.64287 -39.43523,41.98736 -4.23452,7.54976 -7.43376,20.89195 -9.26366,29.93918 -0.78076,3.86015 -1.50504,7.87349 -1.92982,10.69276 a 103.1141,103.1141 0 0 0 -0.61471,4.86128 l 37.76481,-29.50376 -2.81678,-2.79516 c -7.78247,10.12132 -15.54716,21.16542 -18.83131,26.84121 -5.77749,9.98488 -12.8149,22.65961 -16.52354,32.80266 -0.64921,1.76862 -0.74041,3.67642 -0.61693,5.17433 0.12188,1.47864 0.44152,2.46425 0.44152,2.46425 0,0 0.66372,-0.79606 1.48926,-1.94527 0.80803,-1.12484 1.8493,-2.68948 2.44291,-4.31971 3.54649,-9.69959 10.43592,-22.16119 16.22898,-32.17296 2.62758,-4.5411 7.28852,-11.19502 11.26478,-16.65536 1.98812,-2.73017 3.8088,-5.17037 5.13141,-6.92661 1.32261,-1.75624 1.32203,-1.75546 2.1439,-2.82432 a 151760.22,151760.22 0 0 0 9.61803,-12.50986 l -46.37594,36.23121 3.20897,1.87403 c 0.2585,-1.71569 0.25799,-1.71311 0.75386,-4.49584 0.49588,-2.78273 1.22763,-6.6211 2.16715,-10.82518 1.87904,-8.40816 4.66397,-18.34849 7.80583,-23.95012 4.40562,-7.85481 13.70463,-17.92884 22.03585,-26.0186 4.99873,-4.85385 9.65523,-9.02497 12.72356,-11.69113 2.04554,-1.77744 3.55862,-3.01303 3.5871,-3.03439 0.17533,-0.1315 1.42897,-1.25114 0.53395,-2.69842 -0.2544,-0.41137 -0.6048,-0.64077 -0.82925,-0.75066 -0.57921,-0.28359 -1.15341,-0.20169 -1.23829,-0.19195 -0.25465,0.0292 -0.66818,0.1195 -0.93396,0.18282 -5.10299,1.21593 -27.77447,8.27246 -36.21605,10.36878 -0.42208,0.10482 -0.8065,0.19679 -1.14687,0.27419 -0.13616,0.031 -0.26524,0.0596 -0.38669,0.0858 -0.10931,0.0236 -0.21245,0.0451 -0.30887,0.0646 -0.0868,0.0175 -0.16812,0.0334 -0.24349,0.0474 -0.0678,0.0127 -0.13083,0.0239 -0.18842,0.0337 -0.0518,0.009 -0.0993,0.0164 -0.14176,0.0227 -0.86068,0.12896 3.5545,-1.52645 1.38346,2.81565 -0.17405,0.34811 -0.18001,0.28324 -0.16417,0.26479 0.002,-0.002 0.004,-0.005 0.007,-0.008 0.003,-0.004 0.007,-0.008 0.011,-0.0125 0.005,-0.005 0.0101,-0.0113 0.0161,-0.0179 0.007,-0.007 0.0141,-0.0155 0.0223,-0.0244 0.009,-0.01 0.019,-0.0205 0.0298,-0.032 0.0119,-0.0127 0.0249,-0.0264 0.0388,-0.041 0.55496,-0.58274 2.38776,-2.3111 4.95766,-4.72139 12.69891,-11.91023 45.49794,-42.6559 58.30602,-64.59018 7.96598,-13.64203 12.88181,-29.33325 14.75438,-44.96479 1.04229,-8.70061 -1.21477,-24.16268 -2.10823,-29.7503 z"
       id="path18" /><path
       style="display:inline;opacity:1;fill:none;fill-opacity:1;stroke:#632207;stroke-width:4;stroke-linecap:round;stroke-dasharray:none;stroke-opacity:1;paint-order:fill markers stroke"
       d="m 775.625,697.4375 c 0.0927,-0.11069 -29.20391,-7.90956 -37.63541,-5.33027 -31.60961,9.66973 -42.70133,58.43021 -56.73205,101.68126"
       id="path23" /><path
       style="display:inline;opacity:1;fill:#66331e;fill-opacity:1;stroke:none;stroke-width:4;stroke-linecap:square;stroke-opacity:1;paint-order:fill markers stroke"
       d="m 239.00209,881.76216 -22.62741,19.79899 -7.07107,17.67767 3.18198,17.32411 9.89949,8.83884 c 0,0 -3.88908,7.42462 -3.88908,8.83883 0,1.41422 0,19.79899 0,19.79899 l 10.6066,12.02082 14.49569,10.96015 -4.94975,12.37434 4.24264,12.728 15.9099,8.8388 19.44544,4.2426 15.9099,-2.1213 8.48528,-8.8388 3.53554,-10.2531 -1.76777,-8.4853 -14.14214,-8.48524 5.65686,-4.94974 2.12132,-11.66726 -1.76777,-10.60661 -6.71751,-7.77817 -15.2028,-6.36396 9.19239,-4.94975 c 0,0 2.47487,-6.01041 2.47487,-7.42462 0,-1.41421 -2.47487,-16.61701 -2.47487,-16.61701 l -9.19239,-11.66726 -14.84924,-7.42462 -11.66726,-4.5962 -11.31371,-3.53553 h 7.42462 z"
       id="path53" /><path
       style="display:inline;opacity:1;fill:none;fill-opacity:1;stroke:#632207;stroke-width:4;stroke-linecap:round;stroke-dasharray:none;stroke-opacity:1;paint-order:fill markers stroke"
       d="m 920.07871,886.33273 c -4.97921,18.12101 -11.42796,42.77833 -14.27492,58.71548 -2.66247,14.90436 -5.77003,31.36934 -7.61119,50.8941"
       id="path30" /><path
       style="display:inline;opacity:1;fill:none;fill-opacity:1;stroke:#632207;stroke-width:4;stroke-linecap:round;stroke-dasharray:none;stroke-opacity:1;paint-order:fill markers stroke"
       d="m 752.71517,1213.0417 c 0,0 -139.45841,-105.6509 -225.21351,-121.9759 -26.08135,-4.9651 -54.44688,-10.7365 -76.36754,4.2426 -46.47959,31.761 -79.19595,143.5427 -79.19595,143.5427 l -91.92388,243.5983 96.16652,28.9913 55.50788,-149.9066 4.59619,317.1374 89.80257,7.7782 c 0,0 4.94974,-273.6504 7.07106,-284.9641 2.12132,-11.3137 16.26346,-86.9741 16.26346,-86.9741"
       id="path31" /><path
       style="display:inline;opacity:1;fill:none;fill-opacity:1;stroke:#632207;stroke-width:4;stroke-linecap:round;stroke-dasharray:none;stroke-opacity:1;paint-order:fill markers stroke"
       d="m 431.33514,1361.1806 c 0,0 -1.5881,-44.7792 -1.41422,-67.1752 0.14872,-19.1549 1.08593,-38.825 10.78338,-54.8007 9.65271,-15.902 23.18181,-23.1781 37.34278,-24.0202 16.02012,-0.9527 43.13351,14.1421 43.13351,14.1421"
       id="path32" /><path
       style="display:inline;opacity:1;fill:none;fill-opacity:1;stroke:#632207;stroke-width:4;stroke-linecap:round;stroke-dasharray:none;stroke-opacity:1;paint-order:fill markers stroke"
       d="m 545.17933,1346.6849 c 35.12652,-7.9588 70.70383,-12.3113 106.77312,-12.728"
       id="path33" /><g
       id="g2"><path
         style="display:inline;opacity:1;fill:#66331e;fill-opacity:1;stroke:#391706;stroke-width:4;stroke-linecap:round;stroke-opacity:1;paint-order:fill markers stroke"
         d="m 436.10811,1669.1256 21.56676,-38.8909 23.68807,42.6032 19.62222,-39.0677 25.45584,42.9568 c 0,0 7.64793,65.3618 -1.441,93.523 -3.99322,12.3726 -10.34265,19.3036 -21,26.75 -35.44889,24.7684 -76.042,48.0397 -119,58.5 -29.64118,7.2177 -62.27829,10.7628 -91.5,2 -18.09338,-5.4257 -39.98797,-15.819 -41.40901,-34.7071 -1.68338,-22.3749 12.39556,-48.9248 33.40901,-56.7929 39.74532,-14.8819 99.50421,-22.7691 125.5,-42 24.47904,-18.1089 25.10811,-54.8744 25.10811,-54.8744 z"
         id="path58" /><path
         style="display:inline;fill:none;fill-opacity:1;stroke:#391706;stroke-width:4;stroke-linecap:round;stroke-opacity:1;paint-order:fill markers stroke"
         d="m 332.77694,1860.6405 c 0.7852,0.3926 -3.55798,-13.83 -1.75521,-28.8354 1.41145,-11.7483 9.7898,-21.9456 16.97057,-26.8701 9.40553,-6.4502 24.21625,-10.685 24.21625,-10.685"
         id="path57-6" /><path
         style="display:inline;fill:none;fill-opacity:1;stroke:#391706;stroke-width:4;stroke-linecap:round;stroke-opacity:1;paint-order:fill markers stroke"
         d="m 280.72222,1851.8047 c 0.7852,0.3926 -3.55798,-13.83 -1.75521,-28.8354 1.41145,-11.7483 9.7898,-25.4811 16.97057,-30.4056 9.40553,-6.4502 24.21625,-10.685 24.21625,-10.685"
         id="path57-6-7" /></g><path
       style="display:inline;opacity:1;fill:none;fill-opacity:1;stroke:#632207;stroke-width:4;stroke-linecap:round;stroke-dasharray:none;stroke-opacity:1;paint-order:fill markers stroke"
       d="m 482,1204.5 c 0,0 33.59923,20.1129 49.5,31.5 43.08614,30.8554 74.85325,79.674 124,99.5 15.36494,6.1983 32.96301,5.5139 49.5,4.5 22.80753,-1.3984 67,-14.5 67,-14.5 0,0 4.80174,-107.8324 24.5,-157 8.90661,-22.2312 22.14977,-44.2276 41,-59 15.03177,-11.78 53.5,-20.5 53.5,-20.5"
       id="path34" /><path
       style="display:inline;opacity:1;fill:none;fill-opacity:1;stroke:#592408;stroke-width:4;stroke-linecap:round;stroke-opacity:1;paint-order:fill markers stroke"
       d="m 237,883.25 c 0,0 -16.14049,10.06407 -21.25,17.75 -4.3925,6.60737 -7.94269,14.87201 -7,22.75 0.91015,7.60606 5.87555,14.83356 11.75,19.75 9.08021,7.59941 21.44451,11.58799 33.25,12.5 10.18436,0.78677 23.77078,1.8455 30,-6.25 4.733,-6.151 2.2233,-16.30937 -1.25,-23.25 -5.34794,-10.68668 -16.8144,-16.3999 -27.5,-21.75 -5.51262,-2.76008 -18,-5.5 -18,-5.5"
       id="path49" /><path
       style="display:inline;opacity:1;fill:none;fill-opacity:1;stroke:#592408;stroke-width:4;stroke-linecap:round;stroke-opacity:1;paint-order:fill markers stroke"
       d="m 222.25,946.5 c 0,0 -4.60029,9.42574 -4.5,17.75 0.0979,8.12516 4.78715,16.2215 10.5,22 7.57237,7.65939 18.87184,12.03026 29,14.25 5.67804,1.2444 28.3399,1.5234 37.5,-6 6.19856,-5.09099 5.60761,-16.79752 1.75,-24 -4.00662,-7.4807 -20.75,-14.75 -20.75,-14.75"
       id="path50" /><path
       style="display:inline;opacity:1;fill:none;fill-opacity:1;stroke:#592408;stroke-width:4;stroke-linecap:round;stroke-opacity:1;paint-order:fill markers stroke"
       d="m 242.625,995.625 c 0,0 -4.83654,9.0116 -2.94559,17.9423 3.89656,18.403 39.28705,28.04 55.82059,16.1827 8.85923,-6.3535 11.22383,-12.5136 10.06066,-19.8081 C 304.37913,1002.5322 290.75,997.5 290.75,997.5"
       id="path51" /><path
       style="display:inline;opacity:1;fill:none;fill-opacity:1;stroke:#969184;stroke-width:4;stroke-linecap:round;stroke-opacity:1;paint-order:fill markers stroke"
       d="m 238.3125,880.6875 c 0.3125,1.375 5.375,18.6875 5.375,18.6875"
       id="path52" /><path
       style="display:inline;opacity:1;fill:none;fill-opacity:1;stroke:#592408;stroke-width:4;stroke-linecap:round;stroke-opacity:1;paint-order:fill markers stroke"
       d="m 236.12947,899.08628 8.54139,2.06732 9.50922,3.28071"
       id="path54" /><path
       style="display:inline;opacity:1;fill:#66331e;fill-opacity:1;stroke:#391706;stroke-width:4;stroke-linecap:round;stroke-opacity:1;paint-order:fill markers stroke"
       d="m 283.04982,1474.6712 c 2.82843,-1.0607 39.03732,-30.052 39.03732,-30.052 0,0 4.71328,46.3882 7.94239,46.8332 1.99632,0.2751 35.98662,-32.1608 35.98662,-32.1608 l 12.77709,43.78 c -6.13082,33.0166 -18.58301,109.2591 -39.73249,118.2177 -45.13535,19.1185 -105.82595,37.6689 -168.72644,43.1114 -30.53288,2.6419 -72.371288,2.1591 -91.491904,-21.7916 -14.276417,-17.8828 -14.613152,-48.9748 -2.828427,-68.5894 15.235933,-25.3588 38.717461,-35.6529 54.175141,-37.9264 36.76719,-5.4077 92.42094,4.6707 124.01577,-14.753 16.33993,-10.0454 28.84493,-46.6691 28.84493,-46.6691 z"
       id="path55" /><path
       style="display:inline;opacity:1;fill:none;fill-opacity:1;stroke:#391706;stroke-width:4;stroke-linecap:round;stroke-opacity:1;paint-order:fill markers stroke"
       d="m 96,1656.25 c 0,0 -7.14271,-25.6794 -6.297754,-38.7324 0.680231,-10.5083 3.484083,-21.2441 9.047754,-30.2676 8.76314,-14.2125 35.5,-26.5 35.5,-26.5"
       id="path56" /><path
       style="display:inline;opacity:1;fill:none;fill-opacity:1;stroke:#391706;stroke-width:4;stroke-linecap:round;stroke-opacity:1;paint-order:fill markers stroke"
       d="m 140.18392,1665.0597 c 0.7852,0.3926 -7.28285,-28.6584 -5.48008,-43.6638 1.41145,-11.7483 9.7898,-21.9456 16.97057,-26.8701 9.40553,-6.4502 31.46625,-13.435 31.46625,-13.435"
       id="path57" /></g><path
     style="display:inline;opacity:1;fill:#9146b4;fill-opacity:1;stroke:none;stroke-width:3;stroke-linecap:square;stroke-dasharray:none;stroke-opacity:1;paint-order:fill markers stroke"
     d="m 617.40288,389.70913 7.49515,4.5e-4 c 0.81251,5e-5 7.25543,-16.09205 7.25543,-16.09205 0,0 -14.52961,15.47287 -14.75058,16.09159 z"
     id="path13" /><path
     style="display:inline;opacity:1;fill:#632207;fill-opacity:1;stroke:none;stroke-width:3;stroke-linecap:square;stroke-dasharray:none;stroke-opacity:1;paint-order:fill markers stroke"
     d="m 633.36585,368.87121 c -3.28655,7.14586 -7.71232,14.21921 -11.99063,20.81629 h 5.6875 l 11.625,-21.8125 -6.90647,-1.78125 z"
     id="path11" /></svg>
