<?xml version="1.0" encoding="UTF-8" standalone="no"?>
<!-- Created with Inkscape (http://www.inkscape.org/) -->

<svg
   version="1.1"
   id="svg1"
   width="1672"
   height="1672"
   viewBox="0 0 1672 1672"
   xml:space="preserve"
   xmlns="http://www.w3.org/2000/svg"
   xmlns:svg="http://www.w3.org/2000/svg"><defs
     id="defs1" /><g
     id="g1"><path
       style="fill:#e7f3e5;fill-opacity:1;stroke:none;stroke-width:11.2288;stroke-linecap:round;stroke-linejoin:round;stroke-miterlimit:4;stroke-dasharray:none;stroke-opacity:1;paint-order:fill markers stroke"
       d="m 342.21362,646.76727 c -8.79824,-9.00364 -21.69859,-20.0821 -36.80215,-31.77782 -15.10356,-11.69572 -32.40956,-24.00822 -49.16499,-37.87719 -16.75542,-13.86895 -32.95924,-29.29351 -45.63564,-48.54169 -12.6763,-19.24823 -21.82447,-42.31885 -25.73872,-64.15841 -3.91415,-21.83962 -2.59425,-42.44688 2.63174,-62.04581 5.22611,-19.59897 14.35791,-38.18842 26.66108,-54.97297 12.30318,-16.78455 27.77688,-31.76322 44.28329,-43.19436 16.50641,-11.43112 34.04445,-19.31407 52.30629,-24.46516 18.26194,-5.15113 37.24647,-7.57012 54.43328,-8.16826 17.18681,-0.59813 32.57495,0.6246 43.52829,2.17888 10.95345,1.55425 17.4716,3.43996 88.99633,3.7276 71.52477,0.28762 208.05061,-1.02281 291.41417,-2.31507 83.36357,-1.29226 113.56091,-2.56628 145.76795,-7.29573 32.20704,-4.72944 66.42176,-12.91396 93.34796,-19.27202 26.9261,-6.35807 46.5621,-10.88933 68.2035,-12.86283 21.6415,-1.9735 45.287,-1.38915 66.4122,2.11892 21.1253,3.50809 39.729,9.93965 57.9026,20.16225 18.1736,10.2226 35.916,24.23553 49.3805,37.89917 13.4645,13.66362 22.6504,26.97712 30.553,43.47185 7.9026,16.49472 14.5215,36.16961 17.3038,58.85236 2.7823,22.68273 1.7278,48.37189 -2.694,71.19047 -4.4218,22.81859 -12.2107,42.76529 -21.7929,66.19 -9.5822,23.42471 -20.9571,50.32595 -29.5537,76.90164 -8.5966,26.5757 -14.4144,52.82428 -17.6012,75.07173 -3.1869,22.24743 -3.7427,40.49249 -2.495,58.57363 1.2476,18.08114 4.2986,35.99728 10.2165,52.72506 5.9179,16.72778 14.7023,32.26622 28.0567,47.00802 13.3545,14.74182 31.2782,28.68611 56.147,42.90418 24.8687,14.21806 56.6809,28.70903 78.7358,39.3279 22.055,10.61888 34.3517,17.36509 45.8672,24.51103 11.5154,7.14594 22.2489,14.69115 33.0935,24.99337 10.8445,10.30212 21.7994,23.36049 30.2894,35.38319 8.49,12.0226 14.5146,23.0088 19.094,36.2009 4.5793,13.1922 7.7133,28.5894 9.2154,44.6049 1.5021,16.0154 1.3725,32.6481 -1.6901,51.117 -3.0625,18.469 -9.0576,38.7732 -19.3314,58.7283 -10.2738,19.955 -24.8255,39.5598 -43.4922,56.784 -18.6668,17.2241 -41.4474,32.0667 -64.9351,42.3057 -23.4877,10.2388 -47.6811,15.8734 -74.6863,18.7373 -27.0052,2.8639 -56.8205,2.9567 -81.5812,5.1783 -24.7606,2.2215 -44.4653,6.5714 -63.7561,12.8377 -19.2908,6.2662 -38.1667,14.4482 -57.5276,27.3746 -19.3608,12.9264 -39.2055,30.5963 -77.9474,53.658 -38.7419,23.0618 -96.37836,51.514 -135.77061,66.0116 -39.3922,14.4977 -60.53824,15.0401 -82.77602,11.3313 -22.23778,-3.7089 -45.56601,-11.6687 -75.85734,-25.6998 -30.29139,-14.031 -67.5441,-34.1323 -94.23556,-47.142 -26.6915,-13.0097 -42.8203,-18.9271 -63.66915,-24.7164 -20.84873,-5.7894 -46.41608,-11.4505 -74.65991,-16.5134 -28.24394,-5.063 -59.16259,-9.5274 -89.67808,-15.3888 -30.51543,-5.8614 -60.62598,-13.1193 -87.79019,-24.9137 -27.16429,-11.7943 -51.38082,-28.1242 -75.61867,-51.0805 -24.23785,-22.9563 -48.49563,-52.5374 -63.95754,-84.6202 -15.46202,-32.0828 -22.12734,-66.6654 -17.99019,-108.0334 4.13715,-41.368 19.0764,-89.5188 40.08884,-133.12902 21.01255,-43.61019 48.09695,-82.67721 68.24149,-113.5208 20.14454,-30.84358 33.3481,-53.46197 41.55087,-75.32796 8.20277,-21.86599 11.40451,-42.97832 11.05365,-60.88068 -0.35076,-17.90238 -4.25398,-32.59377 -8.55368,-43.4041 -4.2997,-10.81033 -8.99556,-17.73909 -17.79369,-26.74277 z"
       id="path16" /><path
       style="fill:#87bf7f;fill-opacity:1;stroke:none;stroke-width:9.9329;stroke-linecap:round;stroke-linejoin:miter;stroke-miterlimit:4;stroke-dasharray:none;stroke-opacity:1;paint-order:fill markers stroke"
       d="m 332.05248,387.25982 8.77849,-139.52415 8.62853,139.81049 54.22926,-49.81808 -43.83817,61.82356 100.84132,8.36743 -101.13692,9.07231 44.24746,60.34559 -53.86534,-48.22647 -8.78457,133.04489 -8.68214,-133.18944 -55.24368,48.87685 44.95388,-60.83882 -108.94396,-8.6821 109.52275,-9.06793 -45.46829,-61.61059 z"
       id="path20" /><path
       style="fill:#87bf7f;fill-opacity:1;stroke:none;stroke-width:7.48701;stroke-linecap:round;stroke-linejoin:miter;stroke-miterlimit:4;stroke-dasharray:none;stroke-opacity:1;paint-order:fill markers stroke"
       d="m 1411.1487,1275.7687 6.6169,-105.1673 6.5038,105.3832 40.8757,-37.5508 -33.0433,46.6 76.0099,6.307 -76.2327,6.8384 33.3518,45.4859 -40.6014,-36.351 -6.6214,100.2835 -6.5443,-100.3925 -41.6403,36.8413 33.8843,-45.8578 -82.1173,-6.5441 82.5536,-6.8351 -34.2721,-46.4394 z"
       id="path20-1" /><path
       style="fill:#87bf7f;fill-opacity:1;stroke:none;stroke-width:9.98155;stroke-linecap:round;stroke-linejoin:miter;stroke-miterlimit:4;stroke-dasharray:none;stroke-opacity:1;paint-order:fill markers stroke"
       d="m 327.70395,1231.4429 8.8214,-140.2072 8.6709,140.495 54.4947,-50.062 -44.0528,62.1262 101.335,8.4084 -101.6321,9.1168 44.4642,60.641 -54.1291,-48.4625 -8.8276,133.6962 -8.7246,-133.8414 -55.5142,49.1161 45.1739,-61.1368 -109.4774,-8.7245 110.059,-9.1124 -45.6909,-61.9123 z"
       id="path20-1-9" /><g
       id="g3"
       transform="translate(-16.574969,12.431227)"
       style="display:inline"><path
         style="display:inline;fill:#66a85c;fill-opacity:1;stroke:none;stroke-width:49.9;stroke-linecap:round;stroke-linejoin:round;paint-order:fill markers stroke"
         d="m 517.40415,707.17397 c -4.80218,-59.23918 36.02662,-72.23509 63.41682,-75.45094 33.19773,-3.89771 697.34483,-55.08729 697.34483,-55.08729 51.0744,-2.87636 77.4214,24.17369 80.1517,59.31742 l 37.5337,483.10194 c 1.4379,76.4612 -51.9127,88.7662 -82.8648,92.8105 l -650.57849,56.8807 c -43.28915,3.8485 -98.75131,8.9907 -105.05438,-68.7629 z"
         id="path1-9-6" /><path
         style="display:inline;fill:#87bf7f;fill-opacity:1;stroke:none;stroke-width:49.9;stroke-linecap:round;stroke-linejoin:round;paint-order:fill markers stroke"
         d="m 441.33239,653.04471 c -8.12761,-58.87514 31.90532,-74.14765 59.0712,-78.89948 32.92584,-5.75937 693.14081,-94.23527 693.14081,-94.23527 50.8316,-5.74544 78.6588,19.77938 83.3622,54.71382 l 64.6553,480.22482 c 5.7375,76.2593 -46.8361,91.5464 -77.5117,97.3258 l -646.34758,93.3946 c -43.00406,6.278 -98.08904,14.5326 -108.75683,-62.7432 z"
         id="path1-9" /><path
         style="display:inline;fill:#d0e7cc;fill-opacity:1;stroke:none;stroke-width:49.9;stroke-linecap:round;stroke-linejoin:round;paint-order:fill markers stroke"
         d="m 364.13135,620.5254 c -12.26589,-58.154 26.5883,-76.21605 53.35068,-82.87484 32.4368,-8.07066 684.75337,-142.95911 684.75337,-142.95911 50.2988,-9.32152 79.8594,14.17401 87.0186,48.68897 l 98.4139,474.45849 c 11.1097,75.66347 -40.2528,94.62589 -70.4436,102.55759 l -638.13632,138.8154 c -42.4532,9.2999 -96.81755,21.4247 -112.91698,-54.9046 z"
         id="path1" /><path
         style="display:inline;fill:#66a85c;fill-opacity:1;stroke:none;stroke-width:49.9;stroke-linecap:round;stroke-linejoin:round;paint-order:fill markers stroke"
         d="m 946.84511,427.32342 47.13506,214.95663 52.31473,-75.10533 79.2491,40.91946 -44.5452,-209.77696 z"
         id="path2" /><path
         style="fill:#66a85c;fill-opacity:1;stroke:#65a759;stroke-width:49.9;stroke-linecap:round;stroke-linejoin:round;stroke-opacity:1;paint-order:fill markers stroke"
         d="M 500.30915,727.38944 879.02048,646.81257"
         id="path3" /><path
         style="fill:#66a85c;fill-opacity:1;stroke:#65a759;stroke-width:49.9;stroke-linecap:round;stroke-linejoin:round;stroke-opacity:1;paint-order:fill markers stroke"
         d="M 541.75763,875.84851 948.30461,789.4115"
         id="path3-6" /><path
         style="fill:#66a85c;fill-opacity:1;stroke:#65a759;stroke-width:49.9;stroke-linecap:round;stroke-linejoin:round;stroke-opacity:1;paint-order:fill markers stroke"
         d="M 571.42375,1004.2401 825.60718,950.03382"
         id="path3-65" /></g></g></svg>
