<?xml version="1.0" encoding="UTF-8" standalone="no"?>
<!-- Created with Inkscape (http://www.inkscape.org/) -->

<svg
   version="1.1"
   id="svg1"
   width="1672"
   height="1672"
   viewBox="0 0 1672 1672"
   xml:space="preserve"
   xmlns="http://www.w3.org/2000/svg"
   xmlns:svg="http://www.w3.org/2000/svg"><defs
     id="defs1" /><g
     id="g1"><path
       style="display:inline;fill:#fee0d8;fill-opacity:1;stroke:none;stroke-width:11.2288;stroke-linecap:round;stroke-linejoin:round;stroke-miterlimit:4;stroke-dasharray:none;stroke-opacity:1;paint-order:fill markers stroke"
       d="m 318.16441,639.37971 c -46.98713,-46.45964 -95.77395,-93.77858 -135.60278,-147.1967 -12.6763,-19.24823 -21.82447,-42.31885 -25.73872,-64.15841 -3.91415,-21.83962 -2.59425,-42.44688 2.63174,-62.04581 5.22611,-19.59897 14.35791,-38.18842 26.66108,-54.97297 12.30318,-16.78455 27.77688,-31.76322 44.28329,-43.19436 16.50641,-11.43112 34.04445,-19.31407 52.30629,-24.46516 61.14465,-15.81981 124.76892,-2.90111 186.9579,-2.26178 71.52477,0.28762 212.05061,27.97719 295.41417,26.68493 83.36357,-1.29226 113.56091,-2.56628 145.76795,-7.29573 32.20706,-4.72944 66.42176,-12.91396 93.34797,-19.27202 26.9261,-6.35807 46.5621,-10.88933 68.2035,-12.86283 21.6415,-1.9735 45.287,-1.38915 66.4122,2.11892 21.1253,3.50809 39.729,9.93965 57.9026,20.16225 18.1736,10.2226 35.916,24.23553 49.3805,37.89917 13.4645,13.66362 22.6504,26.97712 30.553,43.47185 7.9026,16.49472 14.5215,36.16961 17.3038,58.85236 2.7823,22.68273 1.7278,48.37189 -2.694,71.19047 -4.4218,22.81859 -12.2107,42.76529 -21.7929,66.19 -9.5822,23.42471 -20.9571,50.32595 -29.5537,76.90164 -8.5966,26.5757 -14.4144,52.82428 -17.6012,75.07173 -3.1869,22.24743 -3.7427,40.49249 -2.495,58.57363 1.2476,18.08114 4.2986,35.99728 10.2165,52.72506 5.9179,16.72778 14.7023,32.26622 28.0567,47.00802 13.3545,14.74182 31.2782,28.68611 56.147,42.90418 24.8687,14.21806 56.6809,28.70903 78.7358,39.3279 22.055,10.61888 34.3517,17.36509 45.8672,24.51103 11.5154,7.14594 22.2489,14.69115 33.0935,24.99339 10.8445,10.3021 21.7994,23.3604 30.2894,35.38313 8.49,12.0226 14.5146,23.0088 19.094,36.201 4.5793,13.1921 7.7133,28.5894 9.2154,44.6048 1.5021,16.0154 1.3725,32.6481 -1.6901,51.1171 -3.0625,18.4689 -9.0576,38.7731 -19.3314,58.7282 -10.2738,19.955 -24.8255,39.5598 -43.4922,56.784 -18.6668,17.2242 -41.4474,32.0667 -64.9351,42.3057 -23.4877,10.2388 -47.6811,15.8735 -74.6863,18.7374 -27.0052,2.8638 -56.8205,2.9566 -81.5812,5.1782 -24.7606,2.2215 -44.4653,6.5714 -63.7561,12.8377 -19.2908,6.2662 -38.1667,14.4483 -57.5276,27.3747 -19.3608,12.9264 -39.2055,30.5962 -77.9474,53.658 -38.7419,23.0617 -96.37841,51.514 -135.77062,66.0116 -39.3922,14.4976 -60.53824,15.04 -82.77602,11.3312 -22.23778,-3.7088 -45.56601,-11.6687 -75.85734,-25.6998 -30.29139,-14.031 -67.5441,-34.1323 -94.23556,-47.1419 -26.6915,-13.0098 -42.8203,-18.9271 -63.66915,-24.7165 -20.84873,-5.7894 -46.41608,-11.4505 -74.65991,-16.5134 -28.24394,-5.0629 -59.16259,-9.5274 -89.67808,-15.3887 -30.51543,-5.8615 -60.62598,-13.1194 -87.79019,-24.9138 -27.16429,-11.7943 -51.38082,-28.1242 -75.61867,-51.0805 -24.23785,-22.9562 -48.49563,-52.5374 -63.95754,-84.6202 -15.46202,-32.0828 -22.12734,-66.6654 -17.99019,-108.0334 4.13715,-41.368 19.0764,-89.5188 40.08884,-133.12898 21.01255,-43.61019 48.09695,-82.67721 68.24149,-113.5208 20.14454,-30.84358 33.3481,-53.46197 41.55087,-75.32796 8.20277,-21.86599 11.40451,-42.97832 11.05365,-60.88068 -0.35076,-17.90238 -4.25398,-32.59377 -8.55368,-43.4041 -4.2997,-10.81033 -8.99556,-17.73909 -17.79369,-26.74277 z"
       id="path16" /><path
       style="display:inline;fill:#f86b5c;fill-opacity:1;stroke:none;stroke-width:11.2288;stroke-linecap:round;stroke-linejoin:miter;stroke-miterlimit:4;stroke-dasharray:none;stroke-opacity:1;paint-order:fill markers stroke"
       d="m 344.63988,286 9.92378,-157.72725 9.75426,158.05095 61.30431,-56.31763 -49.55754,69.88941 113.99764,9.45909 -114.33181,10.25594 50.02023,68.21861 -60.89291,-54.51836 -9.93066,150.40267 -9.81486,-150.56608 -62.45108,55.25359 50.81882,-68.77619 -123.1574,-9.81481 123.8117,-10.25098 -51.40034,-69.64866 z"
       id="path20" /><path
       style="display:inline;fill:#f86b5c;fill-opacity:1;stroke:none;stroke-width:7.48701;stroke-linecap:round;stroke-linejoin:miter;stroke-miterlimit:4;stroke-dasharray:none;stroke-opacity:1;paint-order:fill markers stroke"
       d="m 360.68813,1143.5163 6.61688,-105.1673 6.50381,105.3831 40.87571,-37.5507 -33.04334,46.6 76.00989,6.3069 -76.23271,6.8384 33.35185,45.4859 -40.6014,-36.351 -6.62145,100.2835 -6.54421,-100.3925 -41.64033,36.8414 33.88429,-45.8579 -82.11732,-6.5441 82.55359,-6.8351 -34.27206,-46.4394 z"
       id="path20-1" /><path
       style="display:inline;fill:#f86b5c;fill-opacity:1;stroke:none;stroke-width:7.48701;stroke-linecap:round;stroke-linejoin:miter;stroke-miterlimit:4;stroke-dasharray:none;stroke-opacity:1;paint-order:fill markers stroke"
       d="M 1078.5583,465.1673 1085.1752,360 l 6.5038,105.3831 40.8757,-37.5507 -33.0433,46.6 76.0099,6.3069 -76.2327,6.8384 33.3518,45.4859 -40.6014,-36.351 -6.6214,100.2835 -6.5442,-100.3925 -41.6404,36.8414 33.8843,-45.8579 L 989,481.043 l 82.5536,-6.8351 -34.2721,-46.4394 z"
       id="path20-1-5" /><path
       style="display:inline;fill:#f86b5c;fill-opacity:1;stroke:none;stroke-width:9.98155;stroke-linecap:round;stroke-linejoin:miter;stroke-miterlimit:4;stroke-dasharray:none;stroke-opacity:1;paint-order:fill markers stroke"
       d="m 1241.8654,1257.4804 8.8214,-140.2072 8.6709,140.4949 54.4948,-50.062 -44.0529,62.1262 101.335,8.4085 -101.632,9.1167 44.4641,60.641 -54.1291,-48.4625 -8.8276,133.6962 -8.7246,-133.8414 -55.5142,49.1161 45.1739,-61.1368 -109.4773,-8.7245 110.0589,-9.1124 -45.6909,-61.9122 z"
       id="path20-1-9" /><path
       id="rect1-8"
       style="display:inline;fill:#fdaea2;fill-opacity:1;stroke-width:15;stroke-linecap:round;stroke-linejoin:round;paint-order:fill markers stroke"
       d="m 1204.0273,658.85547 a 65.05675,65.05675 0 0 0 -65.0566,65.05664 v 39.72656 a 66.913666,70.663666 0 0 1 49.6563,68.27344 66.913666,70.663666 0 0 1 -49.6563,68.27344 v 38.78711 A 70.029242,70.029242 0 0 0 1209,1009.002 h 190.1973 a 65.05675,65.05675 0 0 0 65.0566,-65.05669 V 728.88477 a 70.029242,70.029242 0 0 0 -70.0293,-70.0293 z" /><path
       style="display:inline;fill:#fdaea2;fill-opacity:1;stroke:#f86b5c;stroke-width:26.2;stroke-linecap:round;stroke-linejoin:round;stroke-dasharray:none;stroke-opacity:1;paint-order:fill markers stroke"
       d="m 1235.8622,836.30101 h 143.5"
       id="path5-2" /><path
       id="rect2"
       style="display:inline;fill:#fd7d6f;fill-opacity:1;stroke-width:15;stroke-linecap:round;stroke-linejoin:round;paint-order:fill markers stroke"
       d="m 549.04492,631.91992 v 116.23047 a 83.413666,83.413666 0 0 1 82.37696,83.40625 83.413666,83.413666 0 0 1 -82.37696,83.4082 V 1035.9355 H 1113.6309 V 880.72266 H 1124 v -0.69336 a 42.956738,48.525204 0 0 0 0.9199,0.0117 42.956738,48.525204 0 0 0 42.9571,-48.5254 42.956738,48.525204 0 0 0 -42.9571,-48.52539 42.956738,48.525204 0 0 0 -0.9199,0.0117 V 782.75 h -10.3691 V 631.91992 Z" /><path
       style="display:inline;fill:#fdaea2;fill-opacity:1;stroke:#fee0d8;stroke-width:39.4508;stroke-linecap:round;stroke-linejoin:round;stroke-dasharray:none;stroke-opacity:1;paint-order:fill markers stroke"
       d="M 679.97351,836.30101 H 1005.3305"
       id="path5-1" /><path
       id="rect1"
       style="display:inline;fill:#fdada2;fill-opacity:1;stroke-width:15;stroke-linecap:round;stroke-linejoin:round;paint-order:fill markers stroke"
       d="m 272.09961,658.85547 a 65.05675,65.05675 0 0 0 -65.05664,65.05664 v 215.06055 a 70.029242,70.029242 0 0 0 70.0293,70.02934 h 190.19726 a 65.05675,65.05675 0 0 0 65.05664,-65.05669 V 880.5 H 559.75 v -0.69336 a 42.956738,48.525204 0 0 0 0.91992,0.0117 42.956738,48.525204 0 0 0 42.95703,-48.52539 42.956738,48.525204 0 0 0 -42.95703,-48.52539 42.956738,48.525204 0 0 0 -0.91992,0.0117 v -0.25196 h -27.42383 v -53.64257 a 70.029242,70.029242 0 0 0 -70.02734,-70.0293 z" /><path
       style="display:inline;fill:#fdaea2;fill-opacity:1;stroke:#f86c5d;stroke-width:26.2;stroke-linecap:round;stroke-linejoin:round;stroke-dasharray:none;stroke-opacity:1;paint-order:fill markers stroke"
       d="m 297.93524,836.30101 h 143.5"
       id="path5" /></g></svg>
