<?xml version="1.0" encoding="UTF-8" standalone="no"?>
<!-- Created with Inkscape (http://www.inkscape.org/) -->

<svg
   version="1.1"
   id="svg1"
   width="1672"
   height="1672"
   viewBox="0 0 1672 1672"
   xmlns="http://www.w3.org/2000/svg"
   xmlns:svg="http://www.w3.org/2000/svg">
  <defs
     id="defs1" />
  <g
     id="g1">
    <path
       style="fill:#b8ddb0;fill-opacity:1;stroke:none;stroke-width:26.4567;stroke-linecap:round;stroke-linejoin:round;stroke-opacity:1;paint-order:fill markers stroke"
       d="m 542.83024,180.25278 c 108.34515,-6.97022 198.87064,91.12302 305.60099,97.37795 141.42108,8.28798 263.07897,-183.146551 417.23067,-80.8461 58.5473,45.30003 82.6573,142.07065 133.5189,205.58746 48.3423,60.37056 174.9663,96.83475 168.4057,189.5017 -7.4433,105.13477 -90.0062,195.30912 -98.8898,300.33199 -9.4403,111.60432 87.7673,226.83222 49.9848,332.27002 -34.8065,97.1327 -132.8069,172.4871 -229.9777,207.1871 -103.2922,36.8859 -215.2206,-30.9262 -328.67338,-15.5695 -103.33272,13.9869 -201.05329,95.6851 -305.31914,94.3007 -117.05983,-1.5542 -246.45268,-38.418 -324.52969,-134.2731 -37.56274,-46.1157 -27.3877,-126.7667 -52.55086,-193.0826 C 245.68633,1098.8509 141.04078,1022.1108 137.77943,924.05453 133.52632,796.18032 236.81102,687.68 297.3135,574.94424 333.94763,506.68296 307.58687,384.95722 340.8,306.32633 374.01313,227.69544 454.36893,185.94381 542.83024,180.25278 Z"
       id="path19" />
    <path
       style="fill:#68ad5c;fill-opacity:1;stroke-width:26.4567;stroke-linecap:round;stroke-linejoin:round;paint-order:fill markers stroke"
       d="m 397.1518,1264.6183 6.99256,-95.565 7.64003,95.824 42.34386,-37.0347 -33.27943,45.7107 80.67349,7.64 -81.83891,6.4746 34.70384,46.3581 -42.99133,-37.5526 -6.86307,96.342 -7.51053,-95.3061 -42.08489,36.1282 34.18588,-45.0631 -80.67349,-7.5106 80.544,-7.3811 -34.31537,-45.3221 z"
       id="path18" />
    <path
       style="fill:#4e9543;fill-opacity:1;stroke:none;stroke-width:1.5;stroke-linecap:round;stroke-linejoin:round;stroke-dasharray:none;stroke-opacity:1;paint-order:fill markers stroke"
       d="m 1154.0806,446.10289 34.0621,-58.60136 156.2092,96.69225 -33.5126,58.41823 z"
       id="path27" />
    <path
       style="fill:#68ad5c;fill-opacity:1;stroke-width:26.4567;stroke-linecap:round;stroke-linejoin:round;paint-order:fill markers stroke"
       d="m 1344.3986,1023.0315 6.9926,-95.56503 7.64,95.82403 42.3439,-37.03473 -33.2795,45.71073 80.6735,7.64 -81.8389,6.4746 34.7038,46.3581 -42.9913,-37.5526 -6.8631,96.342 -7.5105,-95.3061 -42.0849,36.1282 34.1859,-45.0631 -80.6735,-7.5106 80.544,-7.3811 -34.3154,-45.32213 z"
       id="path18-8" />
    <path
       style="fill:#68ad5c;fill-opacity:1;stroke-width:37.955;stroke-linecap:round;stroke-linejoin:round;paint-order:fill markers stroke"
       d="m 352.0966,430.56808 10.03163,-137.09828 10.9604,137.46984 60.74674,-53.13026 -47.74288,65.57692 115.73482,10.9604 -117.40671,9.28851 49.78634,66.50569 -61.67565,-53.87325 -9.84586,138.21297 -10.77462,-136.72686 -60.37531,51.82979 49.04335,-64.64787 -115.73482,-10.77476 115.54904,-10.58898 -49.22914,-65.01943 z"
       id="path18-1" />
    <path
       style="fill:#71b268;fill-opacity:1;stroke:none;stroke-width:1.5;stroke-linecap:round;stroke-linejoin:round;stroke-dasharray:none;stroke-opacity:1;paint-order:fill markers stroke"
       d="M 422.54026,811.81203 C 397.26842,706.26853 398.24511,695.76912 401.4194,686.30736 c 3.1743,-9.46176 8.54598,-17.88554 14.28409,-24.17302 5.73812,-6.28749 11.8423,-10.43833 19.96113,-14.16199 8.11884,-3.72366 18.25179,-7.01992 35.28305,-11.7203 17.03126,-4.70038 40.95967,-10.80456 68.59319,31.74974 27.63352,42.5543 58.97043,133.76357 86.03471,233.58414 27.06428,99.82057 49.85442,208.24637 98.54413,255.55397 48.68971,47.3076 123.27558,33.4954 197.8637,17.6109 74.58811,-15.8846 149.174,-33.8404 191.2755,-31.282 42.1015,2.5583 51.7168,25.6303 57.8064,42.8437 6.0897,17.2133 8.6534,28.567 10.1184,39.2497 1.4651,10.6826 1.8313,20.6935 -0.6715,31.8035 -2.5028,11.1099 -7.8745,23.3183 -13.9178,31.9864 -6.0433,8.6682 -12.7579,13.7957 -50.9106,26.615 -38.1526,12.8193 -107.7403,33.3293 -172.56867,51.8866 -64.82838,18.5573 -124.89355,35.1607 -167.25771,46.6979 -42.36416,11.5372 -67.02507,18.0076 -84.78872,22.1586 -17.76365,4.1509 -28.62911,5.9821 -37.05311,6.8978 -8.424,0.9156 -14.40611,0.9156 -21.42614,-0.1832 -7.02002,-1.0988 -15.07758,-3.2963 -22.70803,-7.081 -7.63045,-3.7847 -14.83339,-9.1564 -20.81565,-15.3218 -5.98227,-6.1654 -10.74355,-13.1242 -14.40616,-20.2663 -3.66261,-7.1421 -6.22639,-14.4672 -10.01111,-28.2021 -3.78472,-13.7349 -8.79014,-33.8787 -37.05361,-144.2466 C 499.33143,1117.9391 447.8121,917.35553 422.54026,811.81203 Z"
       id="path33" />
    <path
       style="fill:#d5ecd3;fill-opacity:1;stroke:none;stroke-width:1.5;stroke-linecap:round;stroke-linejoin:round;stroke-dasharray:none;stroke-opacity:1;paint-order:fill markers stroke"
       d="m 460.3358,621.8121 c -5.56816,-33.84056 -5.69361,-50.1956 -3.77076,-64.71835 1.92286,-14.52275 5.89386,-27.21271 13.31818,-39.94621 7.42431,-12.7335 18.30142,-25.50979 29.91265,-34.87643 11.61123,-9.36664 23.95589,-15.32315 103.20642,-37.33716 79.25053,-22.01401 225.40085,-60.08389 302.31915,-79.33503 76.91829,-19.25114 84.60132,-19.68277 91.87454,-18.90579 7.27322,0.77697 14.13612,2.76246 21.64672,7.55373 7.5106,4.79128 15.6685,12.38803 21.5388,19.89863 5.8703,7.51059 9.4529,14.93465 44.1574,141.53707 34.7045,126.60241 100.5282,372.37319 133.6651,496.40784 33.1368,124.0347 33.5853,126.3282 33.7791,129.6115 0.1938,3.2834 0.1327,7.5563 -0.6608,13.7828 -0.7936,6.2265 -2.3196,14.4061 -5.2498,21.6703 -2.9301,7.2642 -7.264,13.6125 -11.5982,18.5571 -4.3341,4.9445 -8.668,8.4849 -15.8102,12.6053 -7.1421,4.1205 -17.0919,8.8207 -29.728,13.4295 -12.6361,4.6089 -27.9576,9.1259 -59.6394,17.7331 -31.6819,8.6072 -79.7218,21.3039 -139.23955,36.5649 -59.51774,15.261 -130.50942,33.0852 -178.09275,44.5614 -47.58333,11.4761 -71.75591,16.6036 -85.94847,19.1064 -14.19256,2.5027 -18.40445,2.3807 -23.01325,2.2281 -4.6088,-0.1526 -9.61424,-0.3358 -13.12424,-0.5494 -3.50999,-0.2137 -5.52438,-0.4578 -8.63761,-1.404 -3.11324,-0.9462 -7.32515,-2.5943 -12.08656,-5.0361 -4.76141,-2.4418 -10.07204,-5.677 -14.65031,-9.1565 -4.57827,-3.4795 -8.42388,-7.203 -13.21582,-13.8568 -4.79194,-6.6538 -10.52989,-16.2374 -16.57322,-32.5056 -6.04333,-16.2682 -12.3917,-39.22 -35.24118,-127.1902 C 566.62425,1064.272 527.27535,911.28997 502.09497,809.13384 476.91458,706.97772 465.90395,655.65266 460.3358,621.8121 Z"
       id="path32"
       transform="translate(1.8052634,-0.16510663)" />
    <path
       style="fill:#fdedd4;fill-opacity:1;stroke:none;stroke-width:1.5;stroke-linecap:round;stroke-linejoin:round;stroke-dasharray:none;stroke-opacity:1;paint-order:fill markers stroke"
       d="m 868.50248,1042.9281 2.20136,-38.8476 5.43866,-54.51606 3.49629,-35.09232 50.11338,31.33705 77.30673,46.87609 31.4665,19.94174 -4.9207,4.2732 -17.9346,13.9852 -57.68868,42.7323 -18.32312,12.5607 -5.11493,-8.6112 -12.10749,-13.3376 -12.69021,-7.9638 -20.45973,-8.6112 -20.07125,-5.3739 z"
       id="path31" />
    <path
       style="fill:#b4daad;fill-opacity:1;stroke:none;stroke-width:1.5;stroke-linecap:round;stroke-linejoin:round;stroke-dasharray:none;stroke-opacity:1;paint-order:fill markers stroke"
       d="m 1153.9675,445.77602 60.6374,37.68524 -271.85544,469.635 -63.08803,-38.8234 z"
       id="path30" />
    <path
       style="fill:#468d3c;fill-opacity:1;stroke:none;stroke-width:1.5;stroke-linecap:round;stroke-linejoin:round;stroke-dasharray:none;stroke-opacity:1;paint-order:fill markers stroke"
       d="m 868.50248,1042.1512 -1.29492,30.1716 0.25898,27.8408 2.20137,15.28 2.46034,7.5106 3.62578,2.4603 11.39529,-5.8271 52.44424,-33.15 -5.43866,-9.7119 -11.39529,-12.0427 -10.10038,-6.9926 -12.56072,-5.6976 -16.057,-5.8272 z"
       id="path29" />
    <path
       style="fill:#7ebb76;fill-opacity:1;stroke:none;stroke-width:1.5;stroke-linecap:round;stroke-linejoin:round;stroke-dasharray:none;stroke-opacity:1;paint-order:fill markers stroke"
       d="m 1187.7764,388.05091 34.7946,-59.15075 12.1994,-10.99743 c 0,0 16.0571,-8.09325 16.3808,-7.89901 0.3237,0.19424 16.6397,-2.3956 16.6397,-2.3956 l 22.0136,1.68339 26.6106,8.67596 21.172,11.84852 18.3878,14.82682 12.5607,13.33767 8.8702,14.04988 7.4458,18.32311 0.7122,14.5031 -2.8488,13.59665 -9.6472,16.057 -29.0061,50.37237 z"
       id="path28" />
    <path
       style="fill:#83be7e;fill-opacity:1;stroke:none;stroke-width:1.5;stroke-linecap:round;stroke-linejoin:round;stroke-dasharray:none;stroke-opacity:1;paint-order:fill markers stroke"
       d="m 1038.1598,1011.6061 -95.59347,-58.6014 271.76387,-470.27596 96.6922,59.70015 z"
       id="path26" />
    <path
       style="fill:none;fill-opacity:1;stroke:#6cac64;stroke-width:25;stroke-linecap:round;stroke-linejoin:round;stroke-dasharray:none;stroke-opacity:1;paint-order:fill markers stroke"
       d="m 684.17094,1179.3525 c 16.84789,-16.8479 33.69578,-33.6958 50.78803,-45.0499 17.09224,-11.3541 34.42813,-17.2141 44.07295,-15.6269 9.64482,1.5872 11.59816,10.6214 10.74352,20.5105 -0.85463,9.8891 -4.51715,20.6325 -2.80787,27.4694 1.70927,6.8368 8.79012,9.7668 20.0222,4.8833 11.23209,-4.8836 26.61468,-17.5804 38.70129,-26.3706 12.08661,-8.7903 20.87662,-13.6736 25.63799,-9.8888 4.76137,3.7848 5.49387,16.2373 9.76697,23.1962 4.2731,6.959 12.08646,8.424 27.22537,3.7846 15.13891,-4.6394 37.60234,-15.3827 57.74672,-22.4638 20.14439,-7.081 37.96859,-10.4994 55.79319,-13.9178"
       id="path34"
       transform="translate(2.9300683,-2.1975512)" />
    <path
       style="fill:none;fill-opacity:1;stroke:#a6d4a0;stroke-width:1.5;stroke-linecap:round;stroke-linejoin:round;stroke-dasharray:none;stroke-opacity:1;paint-order:fill markers stroke"
       d="m 1222.404,329.42751 c 55.638,-65.45828 193.5905,32.05521 157.4622,94.27014 l -342.8947,590.48325 c -60.39865,48.3497 -122.43972,90.2139 -159.08214,110.7624 -17.52576,9.8282 -8.21309,-107.1778 -7.46226,-116.2078 3.91417,-43.2342 3.35404,-40.02938 9.08219,-95.04033 z"
       id="path20" />
    <path
       style="fill:none;fill-opacity:1;stroke:#a6d4a0;stroke-width:1.5;stroke-linecap:round;stroke-linejoin:round;stroke-dasharray:none;stroke-opacity:1;paint-order:fill markers stroke"
       d="m 869.66791,1042.4102 c 26.73867,6.9522 53.45638,13.9463 69.40768,42.4733"
       id="path21" />
    <path
       style="fill:none;fill-opacity:1;stroke:#a6d4a0;stroke-width:1.5;stroke-linecap:round;stroke-linejoin:round;stroke-dasharray:none;stroke-opacity:1;paint-order:fill markers stroke"
       d="m 879.38673,914.54755 158.58997,97.79105"
       id="path22" />
    <path
       style="fill:none;fill-opacity:1;stroke:#a6d4a0;stroke-width:1.5;stroke-linecap:round;stroke-linejoin:round;stroke-dasharray:none;stroke-opacity:1;paint-order:fill markers stroke"
       d="M 942.70136,953.06072 1214.1165,483.78191"
       id="path23" />
    <path
       style="fill:none;fill-opacity:1;stroke:#a6d4a0;stroke-width:1.5;stroke-linecap:round;stroke-linejoin:round;stroke-dasharray:none;stroke-opacity:1;paint-order:fill markers stroke"
       d="m 1155.1794,446.46915 154.9273,95.95973"
       id="path24" />
    <path
       style="fill:none;fill-opacity:1;stroke:#a6d4a0;stroke-width:1.5;stroke-linecap:round;stroke-linejoin:round;stroke-dasharray:none;stroke-opacity:1;paint-order:fill markers stroke"
       d="m 1188.7361,387.95787 155.7252,96.72262"
       id="path25" />
    <path
       style="fill:#f0f8ef;fill-opacity:1;stroke:#6cac64;stroke-width:35;stroke-linecap:round;stroke-linejoin:round;stroke-dasharray:none;stroke-opacity:1;paint-order:fill markers stroke"
       d="M -12.431227,608.09418 C 104.06259,576.87975 220.55641,545.66533 337.05023,514.4509"
       id="path35"
       transform="translate(586.01365,23.440546)" />
    <path
       style="fill:#f0f8ef;fill-opacity:1;stroke:#6cac64;stroke-width:35;stroke-linecap:round;stroke-linejoin:round;stroke-dasharray:none;stroke-opacity:1;paint-order:fill markers stroke"
       d="M -12.431227,608.09418 C 104.06259,576.87975 220.55641,545.66533 337.05023,514.4509"
       id="path35-2"
       transform="translate(615.33521,133.07701)" />
    <path
       style="fill:#f0f8ef;fill-opacity:1;stroke:#6cac64;stroke-width:35;stroke-linecap:round;stroke-linejoin:round;stroke-dasharray:none;stroke-opacity:1;paint-order:fill markers stroke"
       d="M -12.431227,608.09418 C 61.243922,588.27504 134.91907,568.45591 208.59422,548.63677"
       id="path35-7"
       transform="translate(645.95727,251.9754)" />
    <path
       style="fill:#f0f8ef;fill-opacity:1;stroke:#6cac64;stroke-width:35;stroke-linecap:round;stroke-linejoin:round;stroke-dasharray:none;stroke-opacity:1;paint-order:fill markers stroke"
       d="M 88.054523,666.10657 C 132.19503,654.14942 176.33554,642.19226 220.47606,630.2351"
       id="path35-79"
       transform="translate(572.94488,311.48965)" />
  </g>
</svg>
